<svg width="101" height="73" viewBox="0 0 101 73" fill="none" xmlns="http://www.w3.org/2000/svg">
<path d="M41.6943 61.4751C41.9268 61.4144 42.1466 61.4112 42.3537 61.4655C42.5608 61.5198 42.6971 61.5972 42.7626 61.6978C43.0135 62.1494 43.1973 62.7067 43.314 63.3699C43.4372 64.0432 43.5336 64.8181 43.6032 65.6949C43.625 65.7945 43.6556 65.8745 43.6949 65.9348L43.7145 65.965C43.7276 65.9851 43.7306 66.1106 43.7235 66.3417C43.7126 66.391 43.6817 66.4315 43.6309 66.4634C43.5496 66.5144 43.417 66.5196 43.2331 66.479C43.0558 66.4486 42.9021 66.4104 42.772 66.3644C42.6993 66.2967 42.6499 66.2428 42.6237 66.2025C42.5386 66.0718 42.4741 65.8077 42.4303 65.4104C42.4186 65.3045 42.3944 65.0364 42.3578 64.6063C42.3212 64.1761 42.2752 63.8085 42.2198 63.5034C42.171 63.2083 42.1094 62.9708 42.0352 62.7907L41.8499 62.737C41.8013 62.8382 41.2682 63.2289 40.2506 63.909C40.1489 63.9728 40.0709 64.0288 40.0164 64.0771C39.9554 64.1153 39.9147 64.1408 39.8944 64.1535C39.8174 64.1451 39.7534 64.1569 39.7026 64.1887C39.6314 64.2334 39.5668 64.288 39.5087 64.3527L38.5674 64.9851L38.3844 65.0998C38.3132 65.1444 38.2605 65.1844 38.2264 65.22C38.0492 65.3877 37.8895 65.5161 37.7471 65.6053C37.5844 65.7073 37.4435 65.8097 37.3244 65.9127L36.4682 66.5767C36.1116 66.8426 35.7956 67.0831 35.5204 67.298C35.2451 67.513 35.0701 67.651 34.9953 67.712C34.7919 67.8395 34.6351 67.9944 34.5248 68.1768C34.4246 68.3528 34.3473 68.465 34.2928 68.5133C34.4938 69.152 34.7737 69.989 35.1325 71.0243L35.2668 71.4286C35.3447 71.5922 35.2845 71.7857 35.0863 72.009C34.7789 71.9326 34.5652 71.8683 34.4453 71.816C34.3355 71.7573 34.2566 71.6581 34.2086 71.5183C34.2348 71.5585 34.1889 71.3891 34.071 71.0099C33.953 70.6307 33.8326 70.3026 33.7096 70.0257L33.2325 68.7317C33.1525 68.6969 33.11 68.6315 33.1049 68.5356C33.0932 68.4297 33.0989 68.2845 33.122 68.1001L34.0359 67.2937C34.2269 67.1033 34.3837 66.7502 34.5061 66.2345C34.6286 65.7188 34.7017 65.2482 34.7254 64.8227C34.8061 63.781 34.7696 62.834 34.6157 61.9817C34.4721 61.123 34.2029 59.9395 33.8081 58.4311C33.7301 58.0694 33.6198 57.6359 33.4771 57.1306C33.5126 57.0092 33.4885 56.8402 33.4048 56.6237C33.3247 56.3907 33.2389 56.2037 33.1472 56.0629C33.0564 56.0774 32.9685 56.1183 32.8836 56.1857C32.8088 56.2467 32.7427 56.2881 32.6853 56.31C32.524 56.3261 32.3685 56.2961 32.2187 56.22C32.069 56.1439 31.9516 56.0405 31.8665 55.9097C31.8207 55.8393 31.7931 55.7859 31.7836 55.7493C31.8177 55.7138 31.8769 55.6838 31.9612 55.6593C32.0491 55.6184 32.1388 55.5692 32.2303 55.5119C32.3422 55.4418 32.4322 55.3712 32.5005 55.3001C32.5448 55.2582 32.7557 55.0764 33.1334 54.7548C33.511 54.4332 33.7154 54.2414 33.7466 54.1794C34.4126 53.6629 34.9475 53.264 35.3513 52.9827C35.7587 52.6849 36.2116 52.3798 36.7098 52.0676C36.8725 51.9657 37.0629 51.9172 37.2808 51.9222C37.4988 51.9272 37.6591 51.9754 37.7616 52.0669C37.955 52.3422 38.2782 53.3007 38.7312 54.9425C39.1776 56.5743 39.4956 57.9538 39.6852 59.081C39.7581 59.3469 39.8535 59.7685 39.9716 60.3458L40.1355 61.0926L40.4927 62.3343C40.5225 62.3581 40.5639 62.3888 40.617 62.4263C40.6635 62.4538 40.702 62.458 40.7325 62.4389L40.9417 62.2654C41.0201 62.1879 41.1036 62.1072 41.1922 62.0234C41.291 61.9332 41.3542 61.8653 41.3817 61.8197C41.4028 61.764 41.4223 61.6951 41.4405 61.613C41.4405 61.613 41.4455 61.6098 41.4557 61.6034C41.4695 61.5806 41.4866 61.5628 41.5069 61.5501C41.5374 61.531 41.5999 61.506 41.6943 61.4751ZM38.8851 60.6231C38.9091 60.5939 38.8194 60.1262 38.6161 59.22C38.423 58.3074 38.2667 57.6053 38.1473 57.1138L38.0391 56.6506C37.7717 55.5579 37.57 54.764 37.4338 54.2688C37.2911 53.7636 37.1517 53.3624 37.0156 53.0654C36.8333 53.1372 36.5998 53.2623 36.315 53.4407C35.888 53.7083 35.4602 54.0188 35.0317 54.3723C34.6134 54.7194 34.3269 55.0051 34.1723 55.2294L34.344 56.1201C34.36 56.1667 34.541 56.7967 34.8868 58.01C35.2327 59.2234 35.5145 60.6681 35.732 62.3441C35.9496 64.0202 35.926 65.2597 35.6613 66.0628C35.9765 65.8653 36.6861 65.3498 37.79 64.5165C38.8939 63.6831 39.48 63.2309 39.5483 63.1598C39.3773 62.743 39.2524 62.3753 39.1737 62.0564C39.0987 61.7211 39.0025 61.2434 38.8851 60.6231ZM45.6145 60.8451C45.4925 60.9216 45.3828 60.962 45.2854 60.9664C45.1881 60.9707 45.0373 60.959 44.8331 60.9312C44.2684 60.7895 43.8912 60.5728 43.7014 60.2811C43.6556 60.2107 43.6279 60.1572 43.6184 60.1207C43.6031 60.0312 43.5675 59.9544 43.5115 59.8904C43.4657 59.82 43.4362 59.7747 43.4231 59.7546C43.3563 59.7399 43.3196 59.7275 43.313 59.7174C43.2999 59.6973 43.3003 59.6758 43.3141 59.653C43.3213 59.6202 43.3235 59.5905 43.3206 59.564C43.3816 59.5258 43.3659 59.4577 43.2736 59.3598C43.2009 59.2921 43.127 59.0906 43.0519 58.7553C42.9703 58.41 42.9305 58.0739 42.9325 57.747C42.9265 57.4959 42.942 57.1676 42.9788 56.7622C43.0257 56.3505 43.0898 56.0201 43.1711 55.7709C43.2777 55.4068 43.3948 55.1139 43.5226 54.8923C43.6503 54.6706 43.8147 54.4614 44.0159 54.2645C44.1865 54.0868 44.3074 53.9756 44.3786 53.931C44.4498 53.8864 44.5239 53.8683 44.6009 53.8767C44.6816 53.8686 44.7971 53.8812 44.9475 53.9143C45.3006 53.863 45.5902 53.901 45.8163 54.0284C46.0459 54.1393 46.2884 54.3909 46.5437 54.7832C46.9692 55.4369 47.1612 56.3148 47.1197 57.4169C47.1018 57.8954 47.0501 58.2888 46.9646 58.5973C46.8725 58.8957 46.7241 59.2506 46.5195 59.6621C46.4041 59.9468 46.2778 60.1816 46.1406 60.3667C46.007 60.5354 45.8317 60.6949 45.6145 60.8451ZM46.038 58.3284C46.1053 57.9039 46.1316 57.5264 46.1169 57.1958C46.1123 56.8588 46.055 56.4628 45.945 56.0079C45.8846 55.805 45.7758 55.5829 45.6187 55.3415C45.4223 55.0398 45.2704 54.8943 45.1629 54.9051C45.0285 54.9185 44.9104 54.9571 44.8087 55.0208C44.585 55.161 44.4166 55.4081 44.3035 55.7622C44.1722 56.1984 44.1108 56.6759 44.1191 57.1946C44.1208 57.7032 44.1764 58.3055 44.2859 59.0016C44.3216 59.2765 44.405 59.5145 44.5359 59.7157C44.6341 59.8666 44.7482 59.965 44.8783 60.0109C45.0186 60.0504 45.1548 60.0288 45.287 59.9459C45.6225 59.7356 45.8729 59.1965 46.038 58.3284ZM55.335 54.8387C55.2058 54.948 55.1055 55.025 55.0344 55.0696C54.6581 55.3054 54.2727 55.384 53.8781 55.3056C53.4835 55.2272 53.1521 54.9819 52.8837 54.5695C52.555 54.1525 52.2949 53.5438 52.1033 52.7435C51.9219 51.9368 51.8702 51.1975 51.9482 50.5256C52.0126 50.0746 52.0774 49.7013 52.1426 49.4055C52.2078 49.1098 52.2971 48.884 52.4103 48.7281C52.5649 48.5037 52.7744 48.3087 53.0388 48.143C53.248 48.0686 53.4751 48.0325 53.7199 48.0348C53.975 48.0307 54.1385 48.084 54.2105 48.1947L54.3359 48.2223C54.3969 48.1841 54.5019 48.2245 54.6509 48.3435C54.7934 48.4524 54.9203 48.5924 55.0315 48.7633C55.1232 48.9042 55.1763 49.0408 55.1909 49.1732C55.2746 49.3898 55.3114 49.6003 55.3014 49.8049C55.3015 50.003 55.2558 50.1308 55.1643 50.1881C55.0525 50.2582 55.0162 50.3234 55.0554 50.3838C55.0816 50.424 55.0744 50.4569 55.0337 50.4824C54.9829 50.5142 54.9022 50.5223 54.7918 50.5065C54.6813 50.4908 54.5846 50.4523 54.5018 50.3909C54.4821 50.3607 54.4468 50.2625 54.3959 50.0962C54.3449 49.9299 54.2841 49.7485 54.2135 49.5521C54.1655 49.4123 54.112 49.2971 54.0531 49.2066C53.9222 49.0054 53.7805 48.9526 53.6279 49.0482C53.5466 49.0992 53.4783 49.1703 53.4232 49.2615C53.1604 49.7377 53.0285 50.3159 53.0275 50.9962C53.0265 51.6765 53.1941 52.5059 53.5304 53.4846C53.6236 53.7377 53.7127 53.9297 53.7978 54.0604C53.8633 54.161 53.9207 54.2383 53.9701 54.2922C54.0298 54.3398 54.073 54.3623 54.0999 54.3596C54.1638 54.3479 54.2771 54.291 54.4398 54.1891C54.8161 53.9533 55.051 53.7424 55.1446 53.5563C55.3587 53.1814 55.5691 52.7238 55.7759 52.1837C55.7969 52.128 55.8252 52.0395 55.8607 51.9181C55.8897 51.7867 55.93 51.6836 55.9815 51.6088C55.9807 51.4535 56.0042 51.3467 56.0522 51.2884C56.0935 51.22 56.1803 51.1444 56.3125 51.0615C56.4709 51.0189 56.6137 51.0073 56.7408 51.0268C56.8614 51.0361 56.8942 51.0864 56.839 51.1776C56.8085 51.1967 56.7947 51.2195 56.7976 51.246C56.8006 51.2725 56.8053 51.2908 56.8118 51.3009C56.8649 51.3384 56.8654 51.5151 56.8133 51.8309C56.7611 52.1468 56.6821 52.4653 56.5762 52.7865C56.4638 53.0977 56.3669 53.2788 56.2856 53.3298C56.2449 53.3552 56.2126 53.3826 56.1886 53.4117C56.1647 53.4409 56.1658 53.4756 56.192 53.5159C56.2181 53.5561 56.1227 53.7504 55.9057 54.0988C55.6923 54.4308 55.5021 54.6774 55.335 54.8387ZM59.2661 51.8231C59.1193 51.7735 59.0132 51.6984 58.9477 51.5978C58.8954 51.5173 58.8438 51.493 58.7929 51.5249C58.6926 51.5028 58.587 51.0875 58.4761 50.2792C58.3586 49.4608 58.2986 48.8187 58.2961 48.353C58.3172 48.2973 58.3215 48.238 58.3091 48.175C58.2902 48.1019 58.2705 48.0717 58.2502 48.0844C58.2509 48.0415 58.2487 47.9721 58.2435 47.8762C58.2384 47.7803 58.2398 47.6945 58.2477 47.6187C58.2046 47.1785 58.1023 46.8674 57.9409 46.6853C57.874 46.6706 57.8185 46.6842 57.7742 46.7261C57.74 46.7616 57.7212 46.7876 57.7175 46.8041C57.7037 46.8269 57.6609 46.882 57.589 46.9695C57.5208 47.0406 57.4692 47.1154 57.4344 47.1939C57.2987 47.4913 57.2004 47.6591 57.1394 47.6974C57.0783 47.7356 57.0028 47.7405 56.9127 47.712C56.8327 47.6771 56.7215 47.6052 56.579 47.4963C56.4896 47.4249 56.4318 47.3691 56.4056 47.3288C56.3598 47.2584 56.3547 47.1625 56.3902 47.0412C56.4119 46.9426 56.4537 46.8527 56.5154 46.7716C56.5807 46.674 56.6221 46.6056 56.6395 46.5663C56.7745 46.3118 56.8812 46.1459 56.9596 46.0684C57.1099 45.9034 57.241 45.7859 57.3528 45.7158C57.6579 45.5246 57.9631 45.5316 58.2684 45.7368C58.522 45.8185 58.7208 45.97 58.8648 46.1913C58.9892 46.3824 59.0784 46.6734 59.1324 47.0644L59.1271 47.3862C59.1359 47.4657 59.1468 47.5155 59.1599 47.5356C59.173 47.5557 59.1847 47.5626 59.1948 47.5562C59.2355 47.5307 59.2583 47.4668 59.2634 47.3646C59.2815 47.2824 59.3083 47.1807 59.3438 47.0593C59.3728 46.9279 59.4026 46.8526 59.4331 46.8335C59.4432 46.8271 59.4552 46.8125 59.469 46.7897C59.4762 46.7568 59.4602 46.7102 59.421 46.6499L59.4851 46.4185C59.5258 46.3931 59.5922 46.2311 59.6843 45.9327L59.8268 45.5248C59.8863 45.3742 59.9618 45.2703 60.0533 45.2129C60.0773 45.1838 60.1197 45.1501 60.1808 45.1118C60.374 44.9907 60.6003 44.9976 60.8598 45.1323C61.1127 45.257 61.3439 45.4803 61.5534 45.8021L61.7633 46.8175L61.8803 45.8096C61.8999 45.6416 61.9433 45.4445 62.0108 45.2182C61.9918 45.1451 61.9943 45.0939 62.0183 45.0648C62.0459 45.0192 62.0647 44.9932 62.0749 44.9868C62.0851 44.9804 62.092 44.969 62.0956 44.9526C62.1094 44.9298 62.1097 44.9083 62.0967 44.8882C62.1177 44.8326 62.1456 44.7655 62.1805 44.687C62.2189 44.5921 62.2385 44.5232 62.2392 44.4803C62.3045 44.3827 62.3931 44.2989 62.505 44.2288C62.7185 44.095 62.9848 44.1193 63.3039 44.3016C63.4369 44.374 63.538 44.4523 63.607 44.5364C63.6797 44.6041 63.7815 44.7386 63.9125 44.9397C64.0158 45.1865 64.1307 45.4401 64.2573 45.7006C64.2835 45.7408 64.3388 45.8478 64.4232 46.0215C64.4444 46.1639 64.5302 46.3509 64.6808 46.5822C64.7724 46.723 64.8364 46.8103 64.8728 46.8442C64.9193 46.8717 64.973 46.8663 65.034 46.8281C65.1669 46.7023 65.3194 46.5076 65.4914 46.2441C65.6671 45.9641 65.7749 45.7337 65.8147 45.553C65.8691 45.3066 65.9572 45.1451 66.0793 45.0686C66.1911 44.9985 66.3016 45.0143 66.4106 45.1159C66.4804 45.1571 66.5038 45.369 66.4808 45.7516C66.4679 46.1278 66.4259 46.3381 66.3547 46.3828C66.3344 46.3955 66.3134 46.4512 66.2916 46.5497C66.28 46.6419 66.2656 46.7077 66.2481 46.7469C66.1996 47.0463 66.1195 47.2311 66.0076 47.3012C65.9669 47.3266 65.9208 47.3768 65.8693 47.4516C65.8214 47.5099 65.772 47.555 65.7212 47.5869C65.7074 47.6097 65.6598 47.6466 65.5784 47.6975C65.4259 47.7931 65.2523 47.8453 65.0576 47.854C64.8628 47.8628 64.6928 47.7994 64.5474 47.664C64.3351 47.5138 64.1112 47.2577 63.8755 46.8956C63.8166 46.8051 63.7319 46.6529 63.6213 46.439L63.3932 45.9235C63.2892 45.7197 63.2342 45.5913 63.2284 45.5383L63.14 45.4025C63.0287 45.2316 62.9578 45.1556 62.9273 45.1748C62.846 45.2257 62.7467 45.6561 62.6295 46.4658C62.5058 47.2655 62.4429 47.9279 62.4411 48.4529C62.4288 48.588 62.4358 48.7748 62.4622 49.0132C62.4921 49.2351 62.5001 49.3575 62.4864 49.3803C62.4719 49.446 62.4392 49.4948 62.3884 49.5267C62.3273 49.5649 62.2416 49.5762 62.1312 49.5604C62.0207 49.5447 61.9106 49.5075 61.8009 49.4488C61.6947 49.3737 61.6253 49.3111 61.5926 49.2608C61.5467 49.1904 61.4889 49.0355 61.419 48.7961C61.3425 48.5466 61.249 48.2159 61.1383 47.8039C61.0341 47.4019 60.9391 47.0579 60.8532 46.7719C60.7774 46.4795 60.7235 46.2867 60.6915 46.1935C60.6457 46.1231 60.5093 46.4635 60.2823 47.2146C60.2592 47.399 60.2241 47.598 60.177 47.8115C60.1002 48.1995 60.0191 48.6468 59.9337 49.1534C59.8584 49.6537 59.8089 50.1165 59.7852 50.542C59.7579 50.9839 59.7276 51.3003 59.6943 51.4911C59.6711 51.6755 59.624 51.79 59.5528 51.8346C59.5019 51.8664 59.4064 51.8626 59.2661 51.8231ZM69.5534 45.5465C69.4648 45.6303 69.3798 45.6977 69.2984 45.7487C69.1662 45.8315 69.0377 45.8979 68.9127 45.9479C68.7812 45.9878 68.7024 45.9877 68.6762 45.9475C68.6566 45.9173 68.6384 45.9004 68.6217 45.8967C68.605 45.893 68.5814 45.9007 68.5509 45.9198C68.5342 45.9161 68.4873 45.9101 68.4103 45.9017C68.3332 45.8934 68.2493 45.8964 68.1585 45.9108C67.9754 45.8274 67.8314 45.7052 67.7267 45.5443C67.6154 45.3733 67.4877 45.0781 67.3436 44.6587C67.1646 44.3177 67.0553 43.8198 67.0157 43.165C66.976 42.5102 66.9985 41.8519 67.0831 41.19C67.1779 40.5218 67.3171 40.0097 67.5007 39.654C67.555 39.4075 67.6991 39.211 67.933 39.0645C68.116 38.9498 68.3184 38.8867 68.54 38.8753C68.7347 38.8665 68.9705 38.9099 69.2474 39.0054C69.5344 39.0946 69.7892 39.211 70.0116 39.3548C70.1505 39.4802 70.2657 39.6133 70.3574 39.7541C70.4556 39.905 70.589 40.1541 70.7578 40.5014C70.8248 40.7143 70.9231 40.9642 71.0526 41.2512C71.1922 41.5318 71.3243 41.7677 71.4486 41.9588C71.5199 42.1123 71.6054 42.2216 71.705 42.2867C71.798 42.3416 71.8801 42.3468 71.9513 42.3022C72.0021 42.2704 72.0482 42.2202 72.0896 42.1518C72.1586 42.0378 72.2541 41.9426 72.3761 41.8661C72.4879 41.796 72.5991 41.7688 72.7095 41.7846C72.82 41.8003 72.9145 41.8685 72.993 41.9892C73.1109 42.1703 73.1016 42.4309 72.9652 42.7713C72.839 43.1053 72.664 43.3423 72.4403 43.4825C72.2878 43.5781 72.0701 43.5516 71.7874 43.4032C71.5083 43.2382 71.1866 43.0079 70.8224 42.7123L70.5051 42.4226L70.2518 43.4522L70.1268 44.019C70.0688 44.2819 70.0395 44.4348 70.0388 44.4777C70.0513 44.7389 69.8895 45.0951 69.5534 45.5465ZM69.0198 44.6277C69.1722 44.334 69.3118 43.8996 69.4386 43.3246C69.5654 42.7495 69.641 42.2278 69.6654 41.7594C69.7123 41.1495 69.6455 40.6179 69.465 40.1646C69.3458 40.0694 69.2011 39.9902 69.0311 39.9268C68.861 39.8635 68.7371 39.8491 68.6594 39.8836C68.456 40.0111 68.3178 40.2606 68.2446 40.6321C68.1714 41.0036 68.1165 41.4911 68.0798 42.0946L68.0576 43.1493C68.049 43.2679 68.0829 43.5511 68.1595 43.9987C68.2295 44.4362 68.2874 44.6902 68.3333 44.7606C68.4773 44.9819 68.6154 45.0511 68.7476 44.9682C68.8492 44.9045 68.94 44.791 69.0198 44.6277ZM76.1819 46.7449C76.0439 46.7748 75.8731 46.7544 75.6696 46.6837C75.4727 46.623 75.3448 46.5474 75.2858 46.4569C75.1877 46.306 74.9653 45.7445 74.6189 44.7722C74.279 43.81 74.0354 43.0068 73.8882 42.3628C73.8722 42.3162 73.8303 42.1088 73.7625 41.7407C73.6947 41.3725 73.5825 40.9472 73.426 40.4648C73.3176 40.1221 73.1613 39.4201 72.9572 38.3586L72.6926 36.9952L72.4248 35.8249C72.4029 35.7253 72.408 35.6231 72.4399 35.5181C72.4754 35.3967 72.5171 35.3069 72.565 35.2485C72.5788 35.2257 72.6111 35.1984 72.662 35.1665C72.8043 35.0773 72.9787 35.0813 73.1851 35.1785C73.2549 35.2198 73.3095 35.2705 73.3487 35.3309C73.4142 35.4315 73.4808 35.6658 73.5486 36.034L73.6382 36.4026L74.1088 35.9378C74.2511 35.8486 74.3713 35.7804 74.4694 35.7331C74.8355 35.5037 75.0708 35.3704 75.1754 35.3331C75.4056 35.203 75.5894 35.1445 75.7268 35.1575C75.8743 35.1642 76.0429 35.2143 76.2326 35.3078C76.5269 35.3641 76.7268 35.4512 76.8322 35.5692C76.9311 35.6772 77.0034 35.7664 77.0492 35.8368C77.2587 36.1586 77.3781 36.551 77.4075 37.0141C77.4303 37.467 77.3651 37.8618 77.212 38.1985C77.1365 38.3024 77.0763 38.3968 77.0313 38.4817C76.9863 38.5665 76.9569 38.6203 76.9431 38.6431C76.9751 38.7363 76.8263 39.0136 76.4967 39.475C76.1708 39.92 75.8785 40.2518 75.62 40.4705C75.5314 40.5543 75.421 40.6376 75.2888 40.7205C75.177 40.7906 75.0807 40.8297 75.0001 40.8377C74.865 40.8941 74.7771 40.935 74.7364 40.9605C74.7059 40.9796 74.7037 41.0093 74.7299 41.0495C74.9601 41.9531 75.1935 42.7626 75.43 43.478C75.768 44.7672 75.9807 45.6109 76.0681 46.0092C76.1621 46.4175 76.2 46.6628 76.1819 46.7449ZM74.4655 39.9833C74.5018 40.0172 74.5709 40.0022 74.6725 39.9385C74.8861 39.8047 75.1493 39.5053 75.4622 39.0402C75.7787 38.5586 75.9953 38.1326 76.112 37.7621C76.1619 37.3769 76.1904 37.0687 76.1976 36.8377C76.2083 36.5903 76.1842 36.4213 76.1253 36.3308C76.0991 36.2906 76.0526 36.2631 75.9858 36.2483C75.7859 36.1612 75.5538 36.2004 75.2894 36.3661C74.9538 36.5764 74.634 36.9538 74.3299 37.4984C74.1723 37.6962 74.0871 37.8842 74.0741 38.0622C74.0648 38.2238 74.0801 38.4124 74.1202 38.628C74.1603 38.8436 74.1895 39.0094 74.2077 39.1254C74.2938 39.6095 74.3797 39.8955 74.4655 39.9833ZM86.5747 33.6482C86.635 33.6529 86.6848 33.6854 86.7241 33.7457C86.7699 33.8161 86.7903 33.9025 86.7853 34.0047C86.7839 34.0906 86.7628 34.1462 86.7222 34.1717C86.529 34.2928 86.3081 34.3604 86.0596 34.3745C85.8148 34.3722 85.6171 34.2554 85.4665 34.024L84.8578 33.0887C84.5501 32.616 84.3411 32.3718 84.2306 32.356C84.0257 32.3711 83.8694 32.7028 83.7615 33.3509C83.6638 33.9926 83.6254 34.7035 83.6462 35.4833C83.6522 35.7345 83.6523 35.9326 83.6466 36.0778C83.6408 36.223 83.6177 36.3083 83.577 36.3338C83.5465 36.3529 83.4793 36.3596 83.3754 36.3539C83.0012 36.461 82.7291 36.3837 82.5589 36.1222C82.5392 36.0921 82.5069 36.0203 82.4617 35.907C82.3474 35.5114 82.2102 35.0805 82.0501 34.6145C81.8834 34.1384 81.7389 33.7405 81.6166 33.4206C81.5468 33.3794 81.4764 33.3811 81.4052 33.4257C81.3035 33.4894 81.2193 33.613 81.1526 33.7964C81.0096 34.1267 80.9493 34.7379 80.9717 35.6301C80.9644 36.6967 80.9165 37.3709 80.828 37.6529C80.8354 37.8182 80.8314 37.9552 80.8162 38.0638C80.8047 38.156 80.7735 38.218 80.7226 38.2499C80.682 38.2754 80.5861 38.293 80.4349 38.3028C80.0288 38.3166 79.7242 38.1676 79.5213 37.8558C79.4231 37.7049 79.2725 37.3745 79.0695 36.8646C78.8664 36.3547 78.6932 35.8685 78.5498 35.4062C78.53 35.1779 78.4968 34.9509 78.4502 34.7252C78.4072 34.4832 78.3726 34.342 78.3464 34.3018C78.2496 34.0651 78.1532 33.8069 78.0571 33.5273C77.961 33.2477 77.9184 33.0833 77.9293 33.034C77.9546 32.919 78.013 32.8328 78.1046 32.7754C78.2571 32.6798 78.4213 32.6902 78.5972 32.8065C78.7811 32.8471 78.9286 32.9528 79.0399 33.1238C79.1643 33.3149 79.2687 33.5964 79.3532 33.9682C79.4226 34.4486 79.5879 35.1096 79.8493 35.9512C79.9123 35.586 79.947 35.3094 79.9534 35.1213C79.9749 34.6264 80.0414 34.0467 80.1529 33.3821C80.2455 32.8427 80.4902 32.4487 80.8867 32.2001C81.4068 31.9875 81.9283 32.2058 82.4511 32.8552C82.5297 32.9759 82.6177 33.1331 82.7152 33.3269C82.8061 33.5106 82.8629 33.6308 82.8854 33.6875C82.8868 33.6017 82.9034 33.4072 82.9352 33.1041C82.9772 32.7946 83.0514 32.4578 83.158 32.0937C83.2704 31.7825 83.4232 31.5664 83.6164 31.4453C83.7791 31.3434 83.964 31.3195 84.1712 31.3738C84.4632 31.3607 84.727 31.4361 84.9626 31.6C85.1915 31.7539 85.414 31.9967 85.63 32.3286C85.7413 32.4996 85.8246 32.6386 85.8799 32.7455C85.9905 32.9594 86.0621 33.0915 86.0948 33.1418C86.2192 33.3329 86.3792 33.5017 86.5747 33.6482ZM88.81 33.3944C88.6531 33.5493 88.4189 33.6182 88.1071 33.6012C87.7954 33.5841 87.5603 33.4978 87.4018 33.3423C87.3655 33.3084 87.3178 33.2462 87.2589 33.1557C87.0167 32.7836 86.8482 32.2166 86.7532 31.4549C86.6619 30.6767 86.6644 29.9106 86.7605 29.1565C86.8501 28.3924 87.0253 27.8366 87.2859 27.4892C87.4274 27.2448 87.5287 27.1034 87.5897 27.0652C87.6507 27.0269 87.824 26.9962 88.1096 26.9731C88.2781 26.9241 88.4143 26.9024 88.5182 26.9081C88.6221 26.9138 88.7791 26.957 88.9891 27.0378C89.2915 27.2165 89.5976 27.4778 89.9073 27.8217C90.1058 27.9947 90.2345 28.1264 90.2934 28.217C90.3458 28.2974 90.3611 28.3869 90.3393 28.4855C90.3357 28.502 90.3285 28.5348 90.3176 28.5841C90.3169 28.627 90.3231 28.6585 90.3362 28.6786C90.3427 28.6887 90.3562 28.6874 90.3765 28.6746C90.3831 28.6847 90.3943 28.713 90.4104 28.7596C90.4198 28.7962 90.4289 28.8542 90.4377 28.9336C90.5644 29.3923 90.7161 29.7574 90.8929 30.0289C90.9518 30.1194 91.0241 30.2086 91.1099 30.2965C91.3818 30.4942 91.6398 30.5167 91.8838 30.3637C92.0872 30.2363 92.2215 30.0247 92.2867 29.729C92.3774 29.5164 92.4452 29.3677 92.4902 29.2828C92.5388 29.1816 92.586 29.1661 92.6319 29.2365C92.6486 29.2402 92.6787 29.2426 92.7223 29.2436C92.7659 29.2446 92.803 29.2355 92.8335 29.2164C92.9047 29.1718 92.9697 29.1947 93.0286 29.2853C93.0875 29.3758 93.1174 29.4987 93.1182 29.6539C93.0929 29.7689 93.0762 29.8643 93.0683 29.9401C93.0603 30.0158 93.0662 30.0688 93.0858 30.099L92.9945 30.4536C92.8733 30.6853 92.6805 30.884 92.4161 31.0496C92.1415 31.2217 91.8869 31.3034 91.6522 31.2947C91.4444 31.2833 91.2122 31.2235 90.9557 31.1152C90.6991 31.007 90.5014 30.8902 90.3626 30.7648L90.1881 30.6617L89.9323 31.2255C89.8961 31.3898 89.8479 31.5687 89.7877 31.7622C89.721 31.9456 89.6804 32.0702 89.6659 32.1359C89.65 32.2874 89.6115 32.3823 89.5505 32.4206L89.398 32.5162C89.4438 32.5866 89.3945 32.7307 89.25 32.9487C89.1092 33.1502 88.9625 33.2988 88.81 33.3944ZM88.1273 32.6753C88.2391 32.6052 88.4224 32.2709 88.677 31.6723C88.9252 31.0638 89.0611 30.6458 89.085 30.4185L89.2327 29.6887C89.2776 29.4057 89.2705 29.1199 89.2115 28.8312C89.1626 28.5362 89.076 28.2931 88.9517 28.102C88.8404 27.931 88.7364 27.8263 88.6398 27.7877C88.5205 27.6925 88.4202 27.6704 88.3389 27.7214C88.2982 27.7469 88.2042 27.8554 88.0568 28.0468C87.9422 28.2886 87.8476 28.7372 87.7732 29.3927C87.7089 30.0418 87.6901 30.6837 87.7166 31.3184C87.7366 31.9431 87.8154 32.361 87.9528 32.5722C87.9725 32.6024 88.0023 32.6262 88.0422 32.6436C88.0822 32.661 88.1106 32.6716 88.1273 32.6753Z" fill="#686E7B"/>
<path d="M23.6556 15.3127L24.0578 14.3991L24.1079 14.4208L24.1553 14.4479L23.6556 15.3127ZM20.4695 13.9292L20.8716 13.0155L20.8716 13.0155L20.4695 13.9292ZM17.2833 12.5456L17.5991 11.5991L17.643 11.6136L17.6854 11.632L17.2833 12.5456ZM34.5157 22.5147L35.1319 21.7276L35.1982 21.7789L35.255 21.8404L34.5157 22.5147ZM31.2307 19.9746L31.7968 19.1512L31.8225 19.1686L31.847 19.1876L31.2307 19.9746ZM28.1168 17.8609L28.6176 16.9967L28.6511 17.0159L28.6829 17.0375L28.1168 17.8609ZM40.7045 30.0029L41.5117 29.4105L41.5619 29.478L41.5999 29.553L40.7045 30.0029ZM37.731 25.9983L38.4703 25.324L38.5065 25.3632L38.5382 25.4059L37.731 25.9983ZM25.7665 16.5165L26.2662 15.6517L26.2673 15.6523L25.7665 16.5165ZM42.6342 33.8014L41.7845 34.3318L41.7597 34.2926L41.7387 34.2513L42.6342 33.8014ZM9.25624 10.2964L9.42538 9.31356L9.46007 9.31943L9.49427 9.32771L9.25624 10.2964ZM0.181743 9.47519C-0.138303 9.02601 -0.0312091 8.40373 0.420943 8.08529L7.78917 2.89598C8.24132 2.57754 8.8673 2.68352 9.18735 3.1327C9.50739 3.58188 9.4003 4.20416 8.94815 4.52261L2.39862 9.13532L7.03456 15.6418C7.3546 16.091 7.24751 16.7133 6.79536 17.0317C6.3432 17.3502 5.71722 17.2442 5.39717 16.795L0.181743 9.47519ZM13.76 11.3866L13.9981 10.4179L14.0374 10.4275L14.0758 10.4401L13.76 11.3866ZM23.2535 16.2263L20.0673 14.8428L20.8716 13.0155L24.0578 14.3991L23.2535 16.2263ZM20.0674 14.8428L16.8812 13.4592L17.6854 11.632L20.8716 13.0155L20.0674 14.8428ZM33.8994 23.3017L30.6145 20.7617L31.847 19.1876L35.1319 21.7276L33.8994 23.3017ZM30.6646 20.7981L27.5508 18.6843L28.6829 17.0375L31.7968 19.1512L30.6646 20.7981ZM39.8973 30.5953L36.9238 26.5907L38.5382 25.4059L41.5117 29.4105L39.8973 30.5953ZM36.9917 26.6725L33.7763 23.1889L35.255 21.8404L38.4703 25.324L36.9917 26.6725ZM27.6161 18.7251L25.2657 17.3807L26.2673 15.6523L28.6176 16.9967L27.6161 18.7251ZM25.2669 17.3813L23.156 16.1775L24.1553 14.4479L26.2662 15.6517L25.2669 17.3813ZM41.7851 34.3328L41.7845 34.3318L43.4839 33.271L43.4845 33.272L41.7851 34.3328ZM41.7387 34.2513L39.8091 30.4528L41.5999 29.553L43.5296 33.3515L41.7387 34.2513ZM9.0871 11.2792L0.831296 9.88141L1.16957 7.91579L9.42538 9.31356L9.0871 11.2792ZM16.9675 13.4921L13.4442 12.3331L14.0758 10.4401L17.5991 11.5991L16.9675 13.4921ZM13.522 12.3553L9.01822 11.265L9.49427 9.32771L13.9981 10.4179L13.522 12.3553Z" fill="#686E7B"/>
</svg>
