<svg width="281" height="266" viewBox="0 0 281 266" fill="none" xmlns="http://www.w3.org/2000/svg">
<path d="M127.699 60.4185C127.78 61.6765 127.821 62.9346 127.902 64.1521C127.902 64.3956 128.065 64.7203 128.349 64.7203C162.555 69.428 197.046 65.4508 231.374 65.532C241.083 65.532 250.752 65.8972 260.421 66.8306C260.665 66.8712 260.949 66.6277 260.99 66.3842C261.315 64.7203 261.68 63.0564 262.005 61.3925C262.168 60.6214 260.99 60.2967 260.827 61.0678C260.502 62.7317 260.137 64.3956 259.812 66.0595C260.015 65.8972 260.218 65.7755 260.38 65.6131C226.377 62.2853 192.252 66.4654 158.168 65.7349C148.296 65.532 138.424 64.8826 128.634 63.5434C128.796 63.7463 128.918 63.9492 129.08 64.1115C128.999 62.8535 128.959 61.5954 128.877 60.3779C128.877 59.6474 127.659 59.6474 127.699 60.4185Z" fill="#E7E7E7"/>
<path d="M128.716 61.0271C163.084 61.0271 197.494 61.0271 231.862 61.0271C241.612 61.0271 251.362 61.0271 261.112 61.0271C261.884 61.0271 261.884 59.8096 261.112 59.8096C226.744 59.8096 192.334 59.8096 157.966 59.8096C148.216 59.8096 138.466 59.8096 128.716 59.8096C127.944 59.8096 127.944 61.0271 128.716 61.0271Z" fill="#E7E7E7"/>
<path d="M136.11 60.0528C137.125 45.4833 137.978 30.8733 139.238 16.3445C139.4 14.4371 139.604 12.5702 139.929 10.7034C140.05 10.0135 140.091 8.59308 140.497 8.02492C141.025 7.29442 142.163 7.29441 142.975 7.17266C144.844 6.848 147.972 5.71167 149.272 7.61908C149.638 8.18725 149.719 9.36417 149.841 10.0541C150.085 11.2716 150.247 12.4891 150.369 13.7066C151.019 20.8493 150.085 28.1137 149.557 35.2563C148.947 43.5353 148.338 51.8143 147.728 60.0933C147.688 60.8644 148.907 60.8644 148.947 60.0933C149.841 48.243 150.816 36.4333 151.547 24.5829C151.872 19.1448 152.035 13.5848 150.694 8.22783C150.329 6.72625 149.76 5.46817 148.054 5.30583C145.454 5.10292 142.447 5.99575 139.929 6.52333C139.725 6.56392 139.563 6.76683 139.522 6.92917C137.369 15.3299 137.45 24.38 136.841 32.9837C136.191 41.9932 135.582 51.0433 134.932 60.0528C134.85 60.8238 136.069 60.8238 136.11 60.0528Z" fill="#E7E7E7"/>
<path d="M151.222 23.4064C156.178 35.8654 161.419 48.2028 166.903 60.4183C167.228 61.1488 168.284 60.4995 167.959 59.8096C162.515 47.6752 157.315 35.419 152.4 23.0817C152.115 22.3512 150.937 22.6759 151.222 23.4064Z" fill="#E7E7E7"/>
<path d="M152.279 16.8722C153.294 13.9908 156.422 12.408 159.347 13.2197C160.119 13.4226 160.444 12.2457 159.672 12.0427C156.097 11.0282 152.319 13.0573 151.1 16.5475C150.857 17.3186 152.035 17.6027 152.279 16.8722Z" fill="#E7E7E7"/>
<path d="M159.346 13.4629C167.39 29.0469 175.393 44.6715 183.437 60.2555C183.803 60.9454 184.859 60.3367 184.493 59.6468C176.449 44.0628 168.446 28.4382 160.403 12.8542C160.037 12.1237 158.981 12.7324 159.346 13.4629Z" fill="#E7E7E7"/>
<path d="M180.512 2.99335C181.812 21.8646 183.112 40.7359 184.371 59.6071C184.412 60.3782 185.63 60.3782 185.59 59.6071C184.29 40.7359 182.99 21.8646 181.73 2.99335C181.69 2.22227 180.471 2.22227 180.512 2.99335Z" fill="#E7E7E7"/>
<path d="M181.569 3.64225C183.641 1.77541 186.444 1.77541 189.044 2.22183C190.1 2.38416 191.237 2.58708 192.253 2.95233C194.122 3.64225 193.837 5.34675 193.919 7.01066C194.162 12.8141 194.366 18.6175 194.609 24.4209C195.056 36.1495 195.544 47.9187 195.991 59.6472C196.031 60.4183 197.25 60.4183 197.209 59.6472C196.641 45.6054 196.112 31.5636 195.544 17.5623C195.422 14.0722 195.259 10.5414 195.137 7.05124C195.056 5.26558 195.3 3.07408 193.431 2.10008C191.481 1.08549 188.475 0.720243 186.281 0.760826C184.169 0.80141 182.3 1.36958 180.756 2.78999C180.147 3.27699 181 4.16983 181.569 3.64225Z" fill="#E7E7E7"/>
<path d="M160.322 12.7731C164.181 13.0166 167.959 14.153 171.656 15.2081C175.068 16.1821 178.4 17.3996 181.284 19.51C181.934 19.9564 182.543 18.9012 181.893 18.4548C178.887 16.3039 175.475 15.0458 171.94 14.0312C168.122 12.9355 164.262 11.8397 160.281 11.5556C159.509 11.4745 159.509 12.692 160.322 12.7731Z" fill="#E7E7E7"/>
<path d="M195.34 10.6227C197.127 10.1762 199.118 9.72983 200.987 10.0951C203.749 10.6632 204.318 13.0982 204.44 15.5738C204.643 20.5656 204.724 25.5168 204.846 30.5085C205.09 40.3297 205.212 50.1508 205.252 59.972C205.252 60.7431 206.471 60.7431 206.471 59.972C206.43 48.2434 206.268 36.5554 205.943 24.8674C205.862 22.0266 205.78 19.2263 205.699 16.3855C205.618 14.5187 205.659 12.4489 204.521 10.8662C202.409 7.90358 198.062 8.63408 195.055 9.40516C194.243 9.64866 194.568 10.8256 195.34 10.6227Z" fill="#E7E7E7"/>
<path d="M204.236 4.21112C204.236 7.86362 204.236 11.4755 204.236 15.128C204.236 15.8991 205.455 15.8991 205.455 15.128C205.455 11.4755 205.455 7.86362 205.455 4.21112C205.455 3.44004 204.236 3.44004 204.236 4.21112Z" fill="#E7E7E7"/>
<path d="M206.024 4.65651C206.349 4.77826 206.714 4.9 207.039 5.02175C207.08 5.30584 207.121 5.58993 207.161 5.91459C207.243 6.56393 207.243 7.25384 207.324 7.94376C207.405 8.99893 207.486 10.0947 207.568 11.1498C207.73 13.4225 207.852 15.7358 207.974 18.0084C208.258 22.7161 208.461 27.4238 208.624 32.1314C208.989 41.425 209.111 50.7186 209.111 60.0122C209.111 60.7833 210.33 60.7833 210.33 60.0122C210.33 48.4459 210.086 36.8391 209.558 25.2729C209.274 19.6318 208.949 13.9907 208.543 8.34959C208.461 6.96976 208.705 4.45359 207.446 3.47959C206.593 2.83026 205.414 3.07375 204.968 4.04776C204.683 4.77826 205.699 5.38701 206.024 4.65651Z" fill="#E7E7E7"/>
<path d="M146.144 66.3848C147.403 68.4951 148.622 71.6606 150.654 73.1622C152.644 74.6638 155.082 73.3246 157.275 74.0956C158.007 74.3391 158.332 73.1622 157.6 72.9187C155.65 72.2288 153.375 73.3246 151.628 72.2288C149.638 71.0113 148.379 67.7241 147.2 65.7355C146.794 65.0861 145.738 65.6949 146.144 66.3848Z" fill="#E7E7E7"/>
<path d="M158.9 66.9123C158.737 69.0226 158.087 70.9301 157.031 72.7157C156.625 73.4057 157.681 74.0144 158.087 73.3245C159.306 71.3359 159.956 69.185 160.118 66.9123C160.2 66.1412 158.981 66.1412 158.9 66.9123Z" fill="#E7E7E7"/>
<path d="M155.447 67.9257C155.813 69.7926 156.178 71.6594 156.584 73.5263C156.747 74.2974 157.925 73.9727 157.763 73.2016C157.397 71.3347 157.031 69.4679 156.625 67.6011C156.463 66.83 155.284 67.1546 155.447 67.9257Z" fill="#E7E7E7"/>
<path d="M156.909 67.8862C156.99 67.8862 157.072 67.9268 157.153 67.9674C157.275 68.2109 157.275 68.4544 157.234 68.6979C157.193 68.982 157.072 69.2661 156.99 69.5501C156.828 70.1183 156.787 70.6459 156.95 71.2141C157.193 71.9851 158.25 71.6605 158.128 70.8894C157.925 69.7936 158.087 68.6979 158.534 67.6833C158.128 67.6427 157.722 67.5616 157.356 67.521C157.234 68.7791 157.153 70.0777 157.031 71.3358C156.95 72.1069 158.168 72.1069 158.25 71.3358C158.372 70.0777 158.453 68.7791 158.575 67.521C158.656 66.7905 157.6 66.7905 157.397 67.3586C156.868 68.6167 156.787 69.9154 156.99 71.2141C157.397 71.0923 157.762 71.0111 158.168 70.8894C157.803 69.6719 159.225 68.1703 158.006 67.0746C157.275 66.4252 156.097 66.6687 155.812 67.6021C155.487 68.3326 156.665 68.6573 156.909 67.8862Z" fill="#E7E7E7"/>
<path d="M220.569 58.9975C220.204 57.4959 220.041 56.0349 220.163 54.4927C219.96 54.6956 219.757 54.8985 219.554 55.1014C226.744 54.7362 233.935 54.2898 241.126 54.1274C244.741 54.0463 248.357 54.0463 251.972 54.1274C252.785 54.1274 253.597 54.168 254.369 54.168C255.182 54.2086 256.847 53.9245 257.579 54.2898C259.204 55.0609 258.513 58.1858 258.513 59.6062C258.513 60.3773 259.732 60.3773 259.732 59.6062C259.732 57.6988 260.707 53.6404 258.107 53.1129C256.319 52.7476 254.207 52.9505 252.379 52.9099C250.104 52.8694 247.829 52.8288 245.554 52.8693C236.901 52.9099 228.247 53.4375 219.554 53.8839C219.229 53.8839 218.944 54.168 218.944 54.4927C218.863 56.1566 218.985 57.7394 219.432 59.3221C219.554 60.0932 220.732 59.7685 220.569 58.9975Z" fill="#E7E7E7"/>
<path d="M225.077 46.7823C225.564 49.0144 225.93 51.2465 226.093 53.5191C226.133 54.2902 227.352 54.2902 227.311 53.5191C227.149 51.1247 226.783 48.7709 226.255 46.4577C226.093 45.7272 224.914 46.0518 225.077 46.7823Z" fill="#E7E7E7"/>
<path d="M225.889 47.5532C230.805 47.1473 235.721 46.7009 240.636 46.9038C245.268 47.1067 249.939 48.6083 254.571 48.1213C254.368 47.9184 254.164 47.7155 253.961 47.5126C253.799 49.6635 254.043 51.6927 254.733 53.7624C254.977 54.4929 256.155 54.1682 255.911 53.4377C255.261 51.4897 255.018 49.5823 255.18 47.5126C255.221 47.1879 254.896 46.8632 254.571 46.9038C249.939 47.3502 245.268 45.8487 240.636 45.6863C235.721 45.4834 230.764 45.9298 225.889 46.3357C225.118 46.3762 225.118 47.5937 225.889 47.5532Z" fill="#E7E7E7"/>
<path d="M184.533 173.484C184.533 175.188 184.533 176.852 184.533 178.556C184.533 179.328 185.752 179.328 185.752 178.556C185.752 176.852 185.752 175.188 185.752 173.484C185.752 172.713 184.533 172.713 184.533 173.484Z" fill="#E7E7E7"/>
<path d="M185.143 173.078C216.749 173.078 248.355 173.078 279.961 173.078C280.733 173.078 280.733 171.86 279.961 171.86C248.355 171.86 216.749 171.86 185.143 171.86C184.33 171.86 184.33 173.078 185.143 173.078Z" fill="#E7E7E7"/>
<path d="M186.118 178.678C217.237 178.678 248.315 178.678 279.434 178.678C280.206 178.678 280.206 177.461 279.434 177.461C248.315 177.461 217.237 177.461 186.118 177.461C185.346 177.461 185.346 178.678 186.118 178.678Z" fill="#E7E7E7"/>
<path d="M279.354 173.484C279.354 174.661 279.354 175.837 279.354 177.014C279.354 177.785 280.572 177.785 280.572 177.014C280.572 175.837 280.572 174.661 280.572 173.484C280.572 172.713 279.354 172.713 279.354 173.484Z" fill="#E7E7E7"/>
<path d="M193.919 159.807C194.975 163.987 195.95 168.207 196.763 172.428C196.925 173.199 198.103 172.874 197.941 172.103C197.128 167.883 196.194 163.662 195.097 159.482C194.894 158.711 193.716 159.035 193.919 159.807Z" fill="#E7E7E7"/>
<path d="M215.043 159.442C214.068 163.622 213.256 167.802 212.647 172.023C212.525 172.794 213.703 173.118 213.825 172.347C214.434 168.127 215.246 163.906 216.221 159.767C216.384 158.995 215.206 158.671 215.043 159.442Z" fill="#E7E7E7"/>
<path d="M190.588 157.535C190.669 159.645 193.838 159.483 195.382 159.564C198.875 159.726 202.41 159.199 205.904 158.996C207.65 158.874 209.397 158.834 211.144 158.996C212.566 159.118 214.11 159.605 215.491 159.321C217.035 158.996 218.01 157.535 217.116 156.115C216.71 155.465 215.654 156.074 216.06 156.723C217.197 158.631 213.338 158.022 212.972 157.981C212.119 157.86 211.225 157.778 210.372 157.738C208.382 157.616 206.35 157.738 204.36 157.9C203.06 157.981 191.847 159.321 191.807 157.535C191.807 156.723 190.588 156.723 190.588 157.535Z" fill="#E7E7E7"/>
<path d="M192.01 157.372C191.278 155.1 197.575 155.343 198.631 155.303C200.5 155.221 202.41 155.14 204.278 155.059C205.294 155.019 215.856 154.734 215.572 155.506C215.328 156.236 216.506 156.561 216.75 155.83C217.969 152.218 204.766 153.801 203.06 153.882C199.891 154.004 196.356 153.72 193.269 154.329C191.644 154.653 190.263 155.871 190.831 157.656C191.075 158.428 192.253 158.103 192.01 157.372Z" fill="#E7E7E7"/>
<path d="M197.412 154.003C195.543 153.151 193.878 151.934 192.578 150.392C192.05 149.742 188.312 144.345 190.506 144.02C190.872 143.979 191.075 143.411 190.872 143.127C189.693 141.423 189.206 139.231 188.597 137.283C187.906 135.173 187.256 133.062 186.565 130.993C186.443 130.546 186.24 130.14 186.159 129.694C185.956 128.842 185.834 128.842 186.85 128.761C187.947 128.679 188.515 129.532 189.247 130.262C190.628 131.642 191.847 133.144 192.943 134.726C197.047 140.652 199.322 147.632 201.028 154.572C201.231 155.343 202.409 155.018 202.206 154.247C200.012 145.4 196.803 136.309 190.303 129.613C189.409 128.679 187.703 126.529 186.2 126.772C185.062 126.975 184.737 128.192 184.818 129.207C184.981 131.48 186.2 133.955 186.931 136.147C187.743 138.663 188.272 141.585 189.815 143.776C189.937 143.492 190.059 143.168 190.181 142.884C187.5 143.289 189.043 147.023 189.775 148.484C191.318 151.447 193.797 153.719 196.803 155.14C197.493 155.383 198.103 154.328 197.412 154.003Z" fill="#E7E7E7"/>
<path d="M198.794 142.884C198.672 137.73 198.55 132.373 200.297 127.462C201.15 125.068 202.45 122.917 203.953 120.888C204.319 120.36 204.725 119.508 205.294 119.183C205.7 118.534 206.309 118.453 207.081 118.98C208.056 118.737 208.544 118.98 208.544 119.711C209.031 120.807 208.869 122.674 208.869 123.81C208.869 126.529 208.219 129.045 207.569 131.642C207.325 132.535 207.122 133.469 207.203 134.362C207.284 135.417 207.853 136.228 208.138 137.202C208.95 139.962 207.528 142.803 206.553 145.319C205.578 147.957 204.563 150.595 203.588 153.273C203.303 154.004 204.481 154.329 204.766 153.598C206.066 150.108 207.447 146.658 208.666 143.128C209.519 140.652 209.925 138.501 208.95 136.066C207.65 132.779 209.722 129.086 210.006 125.717C210.169 123.526 210.534 119.792 209.113 117.844C206.025 113.583 201.109 122.673 200.134 124.703C197.372 130.384 197.413 136.756 197.575 142.925C197.616 143.696 198.835 143.696 198.794 142.884Z" fill="#E7E7E7"/>
<path d="M188.556 132.9C192.578 138.541 194.975 145.319 197.778 151.609C198.103 152.339 199.159 151.69 198.834 151C196.072 144.669 193.634 137.932 189.612 132.291C189.166 131.642 188.109 132.251 188.556 132.9Z" fill="#E7E7E7"/>
<path d="M199.769 130.019C199.931 132.17 200.662 134.077 202.003 135.741C202.49 136.35 203.344 135.497 202.856 134.889C201.759 133.468 201.109 131.804 200.987 130.019C200.947 129.248 199.728 129.248 199.769 130.019Z" fill="#E7E7E7"/>
<path d="M205.294 129.735C206.269 128.274 207.285 126.813 208.26 125.352C208.707 124.703 207.65 124.094 207.203 124.743C206.228 126.204 205.213 127.665 204.238 129.126C203.832 129.776 204.888 130.385 205.294 129.735Z" fill="#E7E7E7"/>
<path d="M217.4 128.923C216.384 130.546 214.922 131.805 213.581 133.103C212.118 134.483 210.656 135.903 209.193 137.283C208.625 137.811 209.478 138.704 210.047 138.136C212.85 135.457 216.384 132.86 218.456 129.532C218.862 128.883 217.806 128.274 217.4 128.923Z" fill="#E7E7E7"/>
<path d="M216.871 130.546C216.952 132.697 220.527 136.674 217.764 137.973C217.399 138.176 217.399 138.663 217.642 138.947C218.577 140.083 217.967 141.788 217.846 143.127C217.724 144.629 217.846 146.13 217.439 147.591C216.708 150.391 214.108 152.055 211.793 153.516C211.143 153.922 211.752 154.977 212.402 154.571C215.205 152.786 218.089 150.757 218.739 147.266C219.064 145.4 219.064 143.452 219.227 141.585C219.389 140.245 219.349 139.19 218.455 138.135C218.414 138.46 218.374 138.784 218.333 139.109C222.192 137.283 218.13 133.143 218.049 130.627C218.049 129.775 216.83 129.775 216.871 130.546Z" fill="#E7E7E7"/>
<path d="M214.922 136.511C212.119 141.016 209.722 145.724 207.731 150.675C207.447 151.406 208.625 151.73 208.91 151C210.86 146.17 213.216 141.544 215.978 137.12C216.385 136.43 215.328 135.822 214.922 136.511Z" fill="#E7E7E7"/>
<path d="M196.072 168.127C197.697 170.318 199.931 171.82 202.613 172.388C203.384 172.55 203.709 171.373 202.938 171.211C200.581 170.724 198.55 169.466 197.128 167.518C196.681 166.909 195.625 167.518 196.072 168.127Z" fill="#E7E7E7"/>
<path d="M195.38 163.135C199.565 166.341 203.993 170.927 209.355 172.022C210.127 172.185 210.452 171.008 209.68 170.845C204.48 169.79 200.093 165.204 195.99 162.079C195.38 161.592 194.771 162.648 195.38 163.135Z" fill="#E7E7E7"/>
<path d="M198.591 160.05C201.11 162.12 203.547 164.23 206.106 166.219C207.203 167.071 208.341 167.883 209.681 168.411C210.941 168.938 212.281 169.182 213.419 169.993C214.069 170.44 214.678 169.385 214.028 168.938C213.135 168.329 212.241 168.045 211.266 167.68C209.6 167.112 208.26 166.341 206.878 165.245C204.36 163.297 201.922 161.227 199.485 159.198C198.835 158.711 197.982 159.563 198.591 160.05Z" fill="#E7E7E7"/>
<path d="M205.253 159.482C207.609 161.917 210.453 163.703 213.703 164.758C214.434 165.002 214.759 163.825 214.028 163.581C210.981 162.567 208.34 160.903 206.106 158.589C205.578 158.062 204.684 158.914 205.253 159.482Z" fill="#E7E7E7"/>
<path d="M235.152 171.292C234.909 170.643 234.543 169.79 234.584 169.101C234.746 167.315 235.965 167.153 237.143 166.95C238.849 166.625 240.637 166.584 242.383 166.584C245.349 166.544 248.355 166.787 251.321 166.909C254.287 166.99 257.212 166.828 260.177 166.584C261.396 166.463 263.549 165.976 264.727 166.381C265.946 166.828 266.271 167.437 266.312 168.573C266.352 169.466 266.352 170.359 266.393 171.292C266.433 172.063 267.652 172.063 267.612 171.292C267.571 169.912 267.977 167.477 267.287 166.179C266.637 165.042 265.134 165.164 263.996 165.164C259.365 165.164 254.855 165.854 250.184 165.651C245.877 165.489 241.53 165.123 237.265 165.773C233.771 166.3 232.877 168.451 234.055 171.698C234.218 172.347 235.396 172.023 235.152 171.292Z" fill="#E7E7E7"/>
<path d="M243.764 164.758C244.089 164.027 244.374 163.297 244.699 162.566C245.064 162.525 245.43 162.485 245.796 162.404C246.283 162.363 246.73 162.404 247.218 162.363C248.274 162.363 249.289 162.323 250.346 162.323C252.58 162.282 254.774 162.282 257.008 162.241C259.08 162.201 261.193 162.201 263.264 162.16C263.793 162.16 264.321 162.16 264.849 162.12C265.499 162.12 265.702 161.957 265.905 162.444C266.149 163.053 265.702 164.758 265.621 165.407C265.539 166.178 266.758 166.178 266.839 165.407C266.921 164.433 267.53 162.404 267.043 161.511C266.636 160.78 266.027 160.902 265.214 160.902C261.314 160.902 257.374 161.024 253.474 161.064C251.646 161.105 249.818 161.105 247.989 161.146C246.608 161.146 244.902 160.983 243.642 161.633C242.18 162.404 241.489 164.392 242.911 165.569C243.521 166.097 244.374 165.245 243.764 164.758Z" fill="#E7E7E7"/>
<path d="M252.134 159.807C251.078 158.387 255.506 158.549 255.79 158.509C256.765 158.428 260.096 157.819 259.446 160.01C259.203 160.781 260.381 161.065 260.625 160.335C260.909 159.361 260.584 158.468 259.812 157.819C258.471 156.723 256.806 157.251 255.221 157.332C253.962 157.372 252.459 156.967 251.443 157.941C250.712 158.59 250.509 159.604 251.078 160.416C251.565 161.025 252.621 160.416 252.134 159.807Z" fill="#E7E7E7"/>
<path d="M189.978 179.571C191.522 181.682 193.35 183.427 195.503 184.888C196.153 185.334 196.762 184.279 196.112 183.833C194.162 182.493 192.416 180.87 191.034 178.922C190.547 178.313 189.491 178.922 189.978 179.571Z" fill="#E7E7E7"/>
<path d="M195.341 184.481C196.681 184.481 198.022 184.481 199.362 184.481C200.134 184.481 201.394 184.684 202.084 184.319C202.612 184.035 202.775 183.385 203.019 182.898C203.669 181.6 204.441 180.382 205.334 179.205C205.822 178.596 204.969 177.744 204.481 178.353C204.034 178.881 203.628 179.449 203.222 180.017C202.734 180.788 202.409 181.884 201.841 182.574C200.703 183.913 197.006 183.304 195.341 183.264C194.569 183.264 194.569 184.481 195.341 184.481Z" fill="#E7E7E7"/>
<path d="M199.85 179.489C200.175 180.707 200.5 181.965 200.865 183.182C201.068 183.953 202.246 183.629 202.043 182.858C201.718 181.64 201.393 180.382 201.028 179.165C200.825 178.393 199.646 178.718 199.85 179.489Z" fill="#E7E7E7"/>
<path d="M249.372 179.287C250.022 180.626 250.712 181.924 251.565 183.142C252.012 183.791 252.581 184.806 253.353 185.171C254.165 185.577 255.303 185.252 256.115 185.171C257.578 185.009 259.04 184.887 260.503 184.725C261.275 184.644 261.275 183.426 260.503 183.507C259.528 183.588 258.553 183.71 257.578 183.791C256.725 183.872 255.465 184.238 254.653 184.075C252.54 183.67 251.24 180.342 250.428 178.637C250.062 177.947 249.006 178.556 249.372 179.287Z" fill="#E7E7E7"/>
<path d="M260.544 178.272C260.056 180.017 259.812 181.803 259.853 183.589C259.894 184.36 261.112 184.36 261.072 183.589C261.031 181.884 261.234 180.22 261.681 178.597C261.925 177.866 260.747 177.542 260.544 178.272Z" fill="#E7E7E7"/>
<path d="M261.071 184.197C262.696 182.655 264.24 181.032 265.743 179.368C266.271 178.8 265.418 177.907 264.89 178.516C263.387 180.18 261.843 181.803 260.218 183.345C259.649 183.873 260.502 184.725 261.071 184.197Z" fill="#E7E7E7"/>
<path d="M0.177734 60.4191C0.177734 71.8636 0.177734 83.2675 0.177734 94.712C0.177734 95.4831 1.39645 95.4831 1.39645 94.712C1.39645 83.2675 1.39645 71.8636 1.39645 60.4191C1.39645 59.648 0.177734 59.648 0.177734 60.4191Z" fill="#E7E7E7"/>
<path d="M1.15234 95.6443C15.6555 95.6443 30.1992 95.6443 44.7023 95.6443C45.4742 95.6443 45.4742 94.4268 44.7023 94.4268C30.1992 94.4268 15.6555 94.4268 1.15234 94.4268C0.339844 94.4268 0.339844 95.6443 1.15234 95.6443Z" fill="#E7E7E7"/>
<path d="M1.15234 61.0271C15.2492 61.0271 29.3055 61.0271 43.4023 61.0271C44.1742 61.0271 44.1742 59.8096 43.4023 59.8096C29.3055 59.8096 15.2492 59.8096 1.15234 59.8096C0.339844 59.8096 0.339844 61.0271 1.15234 61.0271Z" fill="#E7E7E7"/>
<path d="M43.4023 60.4191C43.4023 71.8636 43.4023 83.2675 43.4023 94.712C43.4023 95.4831 44.6211 95.4831 44.6211 94.712C44.6211 83.2675 44.6211 71.8636 44.6211 60.4191C44.6211 59.648 43.4023 59.648 43.4023 60.4191Z" fill="#E7E7E7"/>
<path d="M22.8461 59.4041C22.8055 58.8766 22.8868 58.3896 23.1305 57.9026C23.2524 57.6185 23.7399 56.888 24.0242 57.0909C24.3492 57.2938 24.4711 58.2272 24.5117 58.5519C24.6336 59.1606 24.6336 59.7694 24.5524 60.3781C24.4711 61.1492 25.6899 61.1492 25.7711 60.3781C25.8524 59.323 25.7711 58.2678 25.4055 57.2532C25.1617 56.6039 24.8367 55.8328 24.0649 55.7516C22.3992 55.5487 21.5461 58.1055 21.6274 59.3636C21.668 60.2158 22.8867 60.2158 22.8461 59.4041Z" fill="#E7E7E7"/>
<path d="M2.49414 64.3547C2.49414 73.4859 2.49414 82.5766 2.49414 91.7078C2.49414 92.4789 3.71289 92.4789 3.71289 91.7078C3.71289 82.5766 3.71289 73.4859 3.71289 64.3547C3.71289 63.5836 2.49414 63.5836 2.49414 64.3547Z" fill="#E7E7E7"/>
<path d="M3.10234 92.3171C15.8586 92.3171 28.6149 92.3171 41.3711 92.3171C42.143 92.3171 42.143 91.0996 41.3711 91.0996C28.6149 91.0996 15.8586 91.0996 3.10234 91.0996C2.33047 91.0996 2.33047 92.3171 3.10234 92.3171Z" fill="#E7E7E7"/>
<path d="M42.3457 91.3836C42.3457 82.2524 42.3457 73.1617 42.3457 64.0305C42.3457 63.2594 41.127 63.2594 41.127 64.0305C41.127 73.1617 41.127 82.2524 41.127 91.3836C41.127 92.1953 42.3457 92.1953 42.3457 91.3836Z" fill="#E7E7E7"/>
<path d="M3.42852 65.2878C15.7379 65.2878 28.0472 65.2878 40.3972 65.2878C41.1691 65.2878 41.1691 64.0703 40.3972 64.0703C28.0879 64.0703 15.7785 64.0703 3.42852 64.0703C2.65664 64.0703 2.65664 65.2878 3.42852 65.2878Z" fill="#E7E7E7"/>
<path d="M3.63076 85.864C8.3839 84.4435 13.2183 83.1854 17.9308 85.377C21.3027 86.9597 24.2277 89.3541 28.0058 90.0441C28.7777 90.1658 29.1027 89.0295 28.3308 88.8671C24.0246 88.0555 20.7746 84.9305 16.6714 83.5507C12.2433 82.0897 7.612 83.3884 3.30574 84.687C2.57449 84.9305 2.89951 86.1075 3.63076 85.864Z" fill="#E7E7E7"/>
<path d="M19.4745 85.1736C25.2839 83.1444 31.337 82.4139 37.4308 83.0227C38.2027 83.1038 38.2027 81.8863 37.4308 81.8052C31.2152 81.1964 25.0401 81.9269 19.1495 83.9967C18.4182 84.2807 18.7433 85.4577 19.4745 85.1736Z" fill="#E7E7E7"/>
<path d="M20.7337 75.7582C20.2868 74.9871 20.4087 73.8508 21.1805 73.3232C21.8712 72.8362 22.9681 73.0391 23.4556 73.6885C23.9431 74.3784 23.6587 75.4741 22.8868 75.88C21.993 76.3264 20.9774 75.4741 20.9774 74.5813C20.9774 73.8102 19.7587 73.8102 19.7587 74.5813C19.718 76.2046 21.3837 77.5845 23.0087 77.138C24.5118 76.7322 25.3243 74.8248 24.6743 73.445C24.0243 71.984 22.0743 71.4564 20.6931 72.1869C19.1899 72.9986 18.8243 74.9871 19.6368 76.4075C20.0837 77.0569 21.0993 76.4481 20.7337 75.7582Z" fill="#E7E7E7"/>
<path d="M218.619 66.3028C220.081 68.2508 220.366 70.8887 222.153 72.5932C223.819 74.2166 225.809 73.9731 227.841 73.2426C228.572 72.9991 228.247 71.8222 227.516 72.0657C226.419 72.4309 225.159 72.8367 224.022 72.3903C223.047 71.9845 222.397 71.0917 221.909 70.1582C221.137 68.6567 220.691 67.0333 219.675 65.6535C219.187 65.0447 218.131 65.6535 218.619 66.3028Z" fill="#E7E7E7"/>
<path d="M227.677 72.7555C229.627 71.0916 231.333 69.1842 232.796 67.0739C233.243 66.4245 232.186 65.8158 231.74 66.4651C230.358 68.4943 228.693 70.3205 226.824 71.9033C226.215 72.3903 227.068 73.2831 227.677 72.7555Z" fill="#E7E7E7"/>
<path d="M224.711 65.8565C225.28 67.1957 225.524 68.5756 225.483 69.996C225.443 70.767 226.661 70.767 226.702 69.996C226.743 68.3321 226.418 66.7493 225.768 65.2477C225.483 64.5172 224.427 65.126 224.711 65.8565Z" fill="#E7E7E7"/>
<path d="M192.172 224.618C192.172 230.016 192.172 235.454 192.172 240.852C192.172 241.623 193.391 241.623 193.391 240.852C193.391 235.454 193.391 230.016 193.391 224.618C193.391 223.847 192.172 223.847 192.172 224.618Z" fill="#E7E7E7"/>
<path d="M177.343 243.084C191.683 243.084 206.064 243.084 220.405 243.084C221.177 243.084 221.177 241.866 220.405 241.866C206.064 241.866 191.683 241.866 177.343 241.866C176.571 241.866 176.571 243.084 177.343 243.084Z" fill="#E7E7E7"/>
<path d="M200.703 244.099C200.703 247.467 200.703 250.876 200.703 254.245C200.703 255.016 201.922 255.016 201.922 254.245C201.922 250.876 201.922 247.467 201.922 244.099C201.922 243.328 200.703 243.328 200.703 244.099Z" fill="#E7E7E7"/>
<path d="M176.936 256.071C189.652 256.071 202.408 256.071 215.124 256.071C215.896 256.071 215.896 254.854 215.124 254.854C202.408 254.854 189.652 254.854 176.936 254.854C176.164 254.854 176.164 256.071 176.936 256.071Z" fill="#E7E7E7"/>
<path d="M186.484 257.085C186.484 259.642 186.484 262.239 186.484 264.796C186.484 265.567 187.703 265.567 187.703 264.796C187.703 262.239 187.703 259.642 187.703 257.085C187.703 256.314 186.484 256.314 186.484 257.085Z" fill="#E7E7E7"/>
<path d="M190.546 60.5805C190.546 58.876 190.221 56.7251 190.546 55.0611C190.993 52.7073 194.284 53.1537 196.193 53.032C196.965 52.9914 196.965 51.7739 196.193 51.8145C194.65 51.8956 193.025 51.8956 191.481 52.1391C190.79 52.2609 190.181 52.4638 189.775 53.0725C189.287 53.803 189.368 54.8176 189.368 55.6699C189.368 57.2932 189.368 58.9571 189.368 60.5805C189.328 61.3921 190.546 61.3921 190.546 60.5805Z" fill="#E7E7E7"/>
<path d="M183.397 15.2488C187.094 14.2342 190.791 14.4777 194.325 15.8982C195.057 16.1822 195.382 15.0053 194.65 14.7212C190.913 13.2197 186.972 13.0167 183.072 14.0719C182.3 14.3154 182.625 15.4923 183.397 15.2488Z" fill="#E7E7E7"/>
<path d="M181.894 11.597C185.144 9.36495 189.044 8.95912 192.7 10.4201C193.432 10.7042 193.757 9.52728 193.025 9.2432C189.125 7.66047 184.738 8.14746 181.285 10.5419C180.635 10.9883 181.244 12.0434 181.894 11.597Z" fill="#E7E7E7"/>
<path d="M168.689 32.8618C167.389 33.7546 164.911 34.9315 164.546 36.636C164.383 37.5289 164.79 38.3405 165.115 39.1522C165.683 40.5726 166.252 41.993 166.861 43.4134C169.218 48.9734 171.858 54.4115 174.783 59.6874C175.149 60.3773 176.205 59.7685 175.839 59.0786C173.605 55.0203 171.533 50.8808 169.624 46.6601C168.608 44.428 167.633 42.1554 166.74 39.8827C166.211 38.5434 165.48 37.3665 166.455 35.9867C167.024 35.175 168.486 34.4851 169.34 33.9169C169.949 33.4705 169.339 32.4153 168.689 32.8618Z" fill="#E7E7E7"/>
</svg>
