<svg width="544" height="478" xmlns="http://www.w3.org/2000/svg">

 <g>
  <title>background</title>
  <rect fill="none" id="canvas_background" height="402" width="582" y="-1" x="-1"/>
 </g>
 <g>
  <title>Layer 1</title>
  <path id="svg_118" fill="#263557" d="m136.186,46.3258c3.259,0.3186 6.042,2.3103 7.512,5.2181c0.358,0.6772 1.392,0.0797 1.034,-0.5975c-1.67,-3.3061 -4.85,-5.4571 -8.546,-5.8156c-0.756,-0.0797 -0.756,1.1153 0,1.195z"/>
  <path id="svg_119" fill="#263557" d="m136.504,34.7755c5.406,2.5892 9.66,7.0107 11.965,12.5475c0.278,0.717 1.431,0.3984 1.153,-0.3186c-2.425,-5.8555 -6.837,-10.5559 -12.521,-13.2645c-0.676,-0.3187 -1.272,0.717 -0.597,1.0356z"/>
  <path id="svg_120" fill="#263557" d="m149.343,33.3409c2.464,2.7883 3.696,6.214 3.657,9.9583c0,0.7568 1.192,0.7568 1.192,0c0.04,-4.0232 -1.351,-7.7675 -4.015,-10.7948c-0.477,-0.5975 -1.311,0.239 -0.834,0.8365z"/>
  <path id="svg_283" fill="#2E28F7" d="m90.8954,63.939c-2.2086,0.0405 -3.9665,1.8633 -3.9265,4.0719c0.3127,17.2755 0.6255,34.5771 0.9382,51.8521c0.036,1.987 1.5251,3.646 3.4965,3.896c24.7444,3.133 49.4584,6.236 74.2014,9.368c2.342,0.297 4.43,-1.488 4.501,-3.848c0.63,-20.906 1.261,-41.7851 1.921,-62.6913c0.072,-2.2886 -1.788,-4.1711 -4.077,-4.1262c-25.685,0.5039 -51.37,1.0062 -77.0546,1.4775z" opacity="0.8"/>
  <path id="svg_284" fill="#AEB0B8" d="m158.288,127.268c0.397,-0.757 1.312,-1.952 1.431,-2.828c0.079,-0.637 -0.517,-1.275 -0.835,-1.793c-1.312,-2.19 -2.623,-4.421 -3.895,-6.612c-0.636,-1.075 -1.431,-2.191 -1.948,-3.306c-0.636,-1.354 -0.04,-1.793 0.636,-2.948c1.073,-1.832 1.987,-3.744 2.743,-5.696c2.703,-7.17 3.14,-15.4155 -0.08,-22.5058c-5.247,-11.5915 -17.927,-14.2205 -29.415,-14.4595c-11.885,-0.2788 -23.89,4.1825 -30.9652,14.1408c-8.1885,11.5119 -3.2992,27.6445 7.7912,35.2925c11.567,8.006 27.745,7.648 39.829,1.155c0.676,-0.358 0.08,-1.394 -0.596,-1.036c-9.778,5.258 -21.187,6.095 -31.641,2.39c-10.812,-3.824 -19.1197,-14.539 -18.3247,-26.3693c0.9143,-13.3043 13.9527,-21.8685 25.9967,-23.8602c3.657,-0.5975 7.314,-0.5975 11.011,-0.3983c5.048,0.2788 10.136,0.9958 14.747,3.1468c6.519,3.0274 10.931,8.8829 12.243,15.9732c1.55,8.365 -1.073,16.9688 -5.724,23.8598c-0.119,0.16 -0.119,0.439 0,0.598c1.431,2.43 2.862,4.86 4.293,7.289c0.636,1.116 1.312,2.191 1.948,3.307c0.397,0.677 0.914,1.234 0.834,2.071c-0.039,0.597 -0.755,1.474 -1.033,2.031c-0.437,0.638 0.596,1.275 0.954,0.558z"/>
  <path id="svg_285" fill="#2E28F7" d="m143.183,118.265c4.372,3.625 9.182,6.493 14.469,8.604c0.715,0.279 1.033,-0.876 0.318,-1.155c-5.049,-2.032 -9.739,-4.82 -13.953,-8.285c-0.596,-0.518 -1.431,0.318 -0.834,0.836z"/>
  <path id="svg_286" stroke-miterlimit="10" stroke="#AEB0B8" fill="#AEB0B8" d="m107.686,98.1091c1.581,0 2.862,-1.8725 2.862,-4.1825c0,-2.3099 -1.281,-4.1825 -2.862,-4.1825c-1.58,0 -2.862,1.8726 -2.862,4.1825c0,2.31 1.282,4.1825 2.862,4.1825z"/>
  <path id="svg_287" stroke-miterlimit="10" stroke="#AEB0B8" fill="#AEB0B8" d="m124.062,97.5916c1.581,0 2.862,-1.8726 2.862,-4.1825c0,-2.31 -1.281,-4.1825 -2.862,-4.1825c-1.58,0 -2.862,1.8725 -2.862,4.1825c0,2.3099 1.282,4.1825 2.862,4.1825z"/>
  <path id="svg_288" stroke-miterlimit="10" stroke="#AEB0B8" fill="#AEB0B8" d="m140.003,97.115c1.58,0 2.862,-1.8726 2.862,-4.1825c0,-2.3099 -1.282,-4.1825 -2.862,-4.1825c-1.581,0 -2.862,1.8726 -2.862,4.1825c0,2.3099 1.281,4.1825 2.862,4.1825z"/>
 </g>
</svg>