<svg width="190" height="184" viewBox="0 0 190 184" fill="none" xmlns="http://www.w3.org/2000/svg">
<path d="M111.979 160.887C110.964 158.776 108.079 158.614 106.535 160.197C104.87 161.901 104.098 165.189 104.26 167.502C104.626 172.169 109.176 174.36 110.395 178.54C110.964 180.448 113.889 181.057 114.864 179.109C116.489 175.903 118.764 173.143 120.795 170.221C122.582 167.623 125.304 163.606 124.329 160.278C123.923 158.857 122.664 157.64 121.12 157.478C119.251 157.275 117.951 158.411 116.854 159.791C115.757 161.211 114.782 162.672 113.97 164.255C113.239 165.635 112.67 167.258 111.248 168.029C112.426 168.516 113.645 169.003 114.823 169.49C114.295 167.745 113.767 166 113.279 164.296C111.939 165.067 110.557 165.878 109.217 166.65C111.045 168.719 114.173 169.003 116.367 167.258C117.382 166.447 117.951 165.351 118.642 164.296C118.967 163.809 119.251 163.362 119.739 163.038C120.064 162.794 120.47 162.632 120.876 162.51C121.689 162.469 121.648 162.388 120.795 162.266C120.389 161.577 119.982 160.846 119.576 160.156C119.576 160.237 119.576 160.359 119.576 160.44C120.185 159.669 120.754 158.857 121.364 158.086C121.282 158.127 121.201 158.127 121.12 158.168C118.154 159.101 119.414 163.809 122.42 162.875C122.501 162.835 122.582 162.835 122.664 162.794C123.76 162.469 124.37 161.536 124.451 160.44C124.451 160.359 124.451 160.237 124.451 160.156C124.492 159.304 123.923 158.492 123.232 158.046C121.201 156.747 118.195 158.005 116.529 159.344C115.595 160.116 114.945 161.008 114.295 162.023C113.889 162.672 113.442 164.052 112.67 163.159C111.045 161.333 107.917 163.281 108.607 165.513C109.135 167.258 109.664 169.003 110.151 170.708C110.598 172.25 112.345 172.94 113.726 172.169C115.798 171.073 116.935 169.166 117.951 167.137C118.56 165.96 119.17 164.823 119.942 163.768C120.064 163.565 121.16 162.429 121.12 162.226C120.064 161.333 119.535 161.374 119.454 162.348C119.373 162.672 119.251 162.956 119.129 163.241C117.098 168.151 113.035 171.885 110.639 176.592C112.142 176.795 113.604 176.998 115.107 177.161C114.335 174.523 112.589 172.615 110.923 170.505C110.232 169.612 109.46 168.638 109.217 167.542C109.054 166.771 109.135 166.081 109.339 165.351C109.46 164.864 109.623 164.417 109.826 163.971C110.517 162.997 109.826 162.753 107.795 163.281C109.135 166.163 113.32 163.687 111.979 160.887Z" fill="#FF6109"/>
<path d="M114.619 174.198C118.194 169.897 121.322 165.311 123.922 160.4C125.384 157.64 121.159 155.165 119.697 157.924C117.3 162.51 114.497 166.812 111.166 170.749C109.175 173.143 112.588 176.593 114.619 174.198Z" fill="#FF6109"/>
<path d="M124.247 105.329C123.597 109.59 123.76 113.77 124.897 117.95C125.507 120.223 129.041 119.249 128.432 116.976C127.497 113.486 127.213 109.874 127.782 106.303C128.107 103.989 124.572 103.015 124.247 105.329Z" fill="#FF6109"/>
<path d="M125.628 107.196C130.097 109.103 133.672 105.369 133.834 100.986C133.834 100.581 133.591 99.4848 133.753 99.1196C133.672 99.1196 133.591 99.1196 133.55 99.1196C133.916 99.2413 134.2 99.4442 134.363 99.8095C135.013 100.621 135.338 101.676 136.028 102.488C137.45 104.152 139.4 104.395 141.472 104.517C142.488 104.558 143.706 104.436 144.316 105.41C144.925 106.343 144.6 107.926 144.519 108.981C144.438 110.442 144.316 111.944 144.194 113.405C144.153 113.77 143.788 115.15 144.316 114.622C143.991 114.988 142.65 115.069 142.203 115.191C139.522 115.799 136.759 116.043 134.038 115.88C132.616 115.799 130.463 115.962 129.65 114.704C128.919 113.527 128.878 111.741 129.081 110.402C127.984 110.564 126.847 110.686 125.75 110.848C126.725 112.999 127.659 115.15 128.634 117.341C129.284 118.762 131.641 118.356 131.966 116.895C132.941 112.512 131.6 107.926 132.981 103.624C131.966 103.908 130.95 104.152 129.934 104.436C131.113 105.856 130.828 108.9 131.113 110.645C131.438 112.674 132.006 114.541 132.941 116.327C133.794 117.869 136.475 117.22 136.353 115.393C136.028 110.523 135.703 105.613 135.419 100.743C134.241 100.905 133.022 101.068 131.844 101.23C133.55 105.816 133.794 110.605 132.453 115.312C133.347 114.947 134.241 114.582 135.134 114.217C132.859 112.471 131.153 110.199 129.975 107.601C129.203 105.938 126.481 106.79 126.563 108.535C126.644 110.158 126.684 111.782 126.766 113.405C127.984 113.405 129.203 113.405 130.422 113.405C130.341 111.376 130.422 109.387 130.828 107.399C130.991 106.709 131.153 105.978 131.356 105.288C131.478 104.842 131.641 104.355 131.803 103.908C132.331 103.259 132.25 103.016 131.559 103.178C133.509 105.938 133.753 110.077 133.428 113.283C134.566 112.958 135.703 112.674 136.841 112.35C135.906 110.442 135.297 108.413 135.053 106.303C134.931 105.207 134.891 104.111 134.972 103.016C134.972 102.853 135.175 101.717 135.094 101.636C134.809 101.676 134.525 101.676 134.241 101.717C134.403 102.042 134.566 102.326 134.728 102.65C136.597 106.465 137.166 110.767 136.719 114.988C137.856 114.663 138.994 114.379 140.131 114.054C139.4 112.471 138.831 110.808 138.506 109.103C138.384 108.373 138.303 107.642 138.384 106.912C138.425 106.506 138.506 106.1 138.628 105.694C139.075 105.207 139.116 105.004 138.75 105.126C138.263 105.045 137.816 105.004 137.328 104.923C137.978 105.248 138.384 108.454 138.506 109.184C138.75 110.929 138.709 112.756 138.466 114.501C139.644 114.501 140.822 114.501 142 114.501C141.553 113.202 141.228 111.863 141.025 110.523C140.822 109.225 140.944 107.886 140.538 106.627C141.431 109.428 141.269 112.39 140.456 115.15C141.553 114.988 142.691 114.866 143.788 114.704C143.3 113.648 142.894 112.512 142.691 111.335C142.569 110.767 142.528 110.199 142.488 109.631C142.488 109.387 142.447 109.144 142.488 108.9C142.609 108.332 142.325 108.291 141.675 108.738C141.309 108.454 140.944 108.17 140.578 107.886C142.894 111.863 138.263 116.286 134.322 115.718C134.769 116.286 135.216 116.895 135.663 117.463C135.622 116.733 135.378 115.678 135.622 114.988C135.338 115.353 135.053 115.718 134.769 116.083C134.078 116.53 137.775 116.002 136.231 115.84C134.119 115.637 133.794 118.884 135.744 119.411C137.694 119.939 139.481 120.994 141.553 120.75C143.341 120.548 144.681 119.492 145.413 117.91C146.185 116.246 146.347 114.298 146.103 112.471C145.981 111.457 145.738 110.523 145.331 109.631C145.169 109.225 144.966 108.819 144.763 108.413C144.641 108.17 144.478 107.926 144.316 107.683C144.153 107.317 144.072 107.399 144.153 107.926C145.291 108.251 146.428 108.535 147.566 108.86C147.606 108.088 147.688 107.358 147.728 106.587C146.55 106.749 145.331 106.912 144.153 107.074C144.844 109.103 144.722 110.97 143.91 112.958C143.016 115.15 146.55 116.083 147.444 113.932C148.46 111.376 148.541 108.697 147.688 106.1C147.038 104.111 144.235 104.517 144.113 106.587C144.072 107.358 143.991 108.088 143.95 108.86C143.828 110.645 146.591 111.416 147.363 109.793C148.256 107.845 148.013 105.329 145.941 104.233C144.153 103.3 141.756 104.111 140.903 105.938C139.725 108.454 142.366 110.686 142.609 113.121C142.731 114.257 142.731 116.53 141.472 117.098C140.253 117.626 137.938 116.205 136.8 115.88C136.638 117.057 136.475 118.275 136.313 119.452C140.009 119.776 140.091 114.906 137.531 113.324C136.272 112.553 134.566 111.944 133.225 112.756C131.559 113.77 132.047 115.799 132.088 117.423C132.128 118.153 132.616 119.087 133.428 119.168C139.928 120.101 145.86 114.906 144.6 108.129C144.356 106.79 143.828 105.288 142.325 105.004C141.066 104.761 139.806 105.491 139.278 106.627C137.938 109.509 139.522 113.77 140.741 116.408C141.431 117.91 143.666 117.382 144.072 115.962C144.884 113.243 145.128 110.442 144.641 107.642C144.275 105.532 143.625 102.772 140.984 102.691C135.094 102.569 137.531 112.228 138.547 115.272C139.075 116.814 141.756 117.179 142.081 115.272C142.569 112.147 142.528 109.022 141.716 105.938C141.228 104.111 140.253 100.54 137.613 101.473C135.5 102.244 134.85 105.288 134.85 107.277C134.85 110.199 135.906 113.08 137.125 115.637C137.978 117.463 140.375 116.327 140.538 114.704C140.903 111.295 140.619 107.845 139.644 104.558C138.953 102.244 137.694 97.5774 134.606 97.6992C131.6 97.7803 131.438 101.636 131.438 103.827C131.438 107.358 132.331 110.767 133.875 113.973C134.728 115.759 137.125 114.663 137.288 113.04C137.613 110.158 137.328 107.236 136.434 104.477C135.784 102.447 134.728 99.5254 132.291 99.2413C129.609 98.9572 128.675 102.042 128.066 104.03C127.172 106.952 126.888 110.036 127.009 113.121C127.131 115.475 130.747 115.475 130.666 113.121C130.584 111.497 130.544 109.874 130.463 108.251C129.325 108.575 128.188 108.86 127.05 109.184C128.513 112.39 130.747 114.988 133.509 117.098C134.484 117.828 135.906 117.017 136.191 116.002C137.734 110.726 137.531 105.126 135.581 99.9718C134.891 98.1862 131.844 98.2673 132.006 100.459C132.331 105.329 132.656 110.239 132.941 115.109C134.078 114.785 135.216 114.501 136.353 114.176C134.241 110.239 135.663 105.004 132.778 101.514C131.844 100.378 130.097 101.108 129.731 102.326C128.309 106.668 129.691 111.213 128.716 115.596C129.813 115.434 130.95 115.312 132.047 115.15C131.072 112.999 130.138 110.848 129.163 108.657C128.553 107.277 126.075 107.601 125.831 109.103C125.384 111.944 125.588 115.921 128.066 117.869C129.203 118.762 130.706 118.843 132.128 119.005C134.038 119.208 135.988 119.289 137.938 119.168C139.806 119.046 141.634 118.762 143.463 118.356C144.681 118.072 146.306 117.869 147.16 116.895C148.256 115.718 148.053 113.811 148.175 112.309C148.297 110.523 148.5 108.778 148.541 106.993C148.581 104.071 147.403 101.514 144.397 100.783C143.178 100.499 141.919 100.662 140.659 100.459C138.709 100.175 138.506 98.5108 137.45 97.131C136.109 95.3453 133.225 94.209 131.397 95.9541C130.219 97.0904 130.463 98.5514 130.503 100.012C130.544 101.311 129.894 104.598 127.822 103.705C125.344 103.137 123.475 106.303 125.628 107.196Z" fill="#FF6109"/>
<path d="M17.973 127.406C20.8168 130.004 23.498 132.804 25.8136 135.888C27.3574 137.917 28.9418 141.976 31.7043 142.544C33.3293 142.869 34.6293 142.016 35.848 141.042C37.5136 139.703 39.1386 138.323 40.8043 136.943C42.4699 135.564 44.0949 134.224 45.7605 132.844C46.9386 131.87 48.2793 130.978 48.3605 129.314C48.4418 127.731 47.4261 126.554 46.4918 125.377C45.1918 123.713 43.8511 122.049 42.5511 120.385C41.2511 118.721 39.9105 117.058 38.6105 115.394C37.6355 114.176 36.7418 112.553 35.1168 112.188C33.6543 111.863 32.3136 112.715 31.0949 113.364C29.4699 114.217 27.8855 115.191 26.3824 116.205C23.4168 118.234 20.6543 120.548 18.1355 123.145C17.3636 123.957 17.4449 125.458 18.5011 126.026C21.1418 127.366 23.6605 128.948 25.9355 130.896C26.9511 131.749 27.9261 132.682 28.8605 133.656C29.3074 134.143 29.7543 134.63 30.2011 135.158C30.4855 135.482 30.7699 135.848 31.0543 136.172C31.4199 137.146 31.948 137.106 32.598 135.969C32.7605 137.065 32.8824 138.201 33.0449 139.297C37.2699 136.74 41.1293 133.575 44.4605 129.922C45.8418 128.38 44.0949 126.026 42.2261 127.041C39.3824 128.583 36.4574 129.841 33.4105 130.815C34.1011 131.708 34.7918 132.601 35.4824 133.494C37.1886 130.775 39.3011 128.421 41.7793 126.351C40.8043 125.621 39.8699 124.89 38.8949 124.119C36.6605 127.447 33.8574 130.369 30.648 132.763C31.5418 133.453 32.4355 134.143 33.3293 134.833C34.3855 131.018 36.5386 127.65 39.748 125.255C38.8949 124.403 38.0824 123.591 37.2293 122.739C35.4011 126.351 32.8418 129.435 29.5511 131.789C30.1605 131.789 30.7699 131.789 31.3793 131.789C31.5011 131.911 31.5824 132.073 31.7043 132.195C31.7855 131.87 31.8668 131.546 31.948 131.262C32.0699 130.856 32.1918 130.45 32.3543 130.004C32.7199 128.908 33.2074 127.893 33.7355 126.879C34.7511 124.971 36.0105 123.307 37.5136 121.765C36.5386 121.035 35.6043 120.304 34.6293 119.533C32.4761 123.957 29.5105 127.812 25.773 131.059C26.8293 131.505 27.8449 131.911 28.9011 132.357C29.348 127.569 31.4199 123.186 34.7918 119.736C33.8168 119.006 32.8824 118.275 31.9074 117.504C30.2418 120.751 27.8043 123.307 24.6355 125.134C25.5699 125.661 26.4636 126.189 27.398 126.716C27.3574 125.255 27.5605 123.835 28.2511 122.536C28.5355 121.968 28.9011 121.441 29.3074 120.994C29.9574 120.223 31.1761 120.02 30.0386 119.29C29.5105 118.64 29.2261 118.681 29.1855 119.493C28.9824 119.898 28.8199 120.304 28.6168 120.71C28.2918 121.319 27.9668 121.887 27.6418 122.455C27.2761 123.023 26.9105 123.591 26.5043 124.119C26.1793 124.525 25.8949 124.931 25.5293 125.337C24.9605 125.661 24.9199 125.905 25.4074 126.026C25.6918 126.392 25.9761 126.757 26.2605 127.122C25.8543 125.824 27.1949 123.389 27.8043 122.293C28.1699 121.684 30.2824 118.194 31.2168 118.397C31.6636 118.478 32.273 120.751 32.4355 121.156C32.7605 122.049 33.0449 122.983 33.248 123.916C33.4511 124.85 33.6949 125.824 33.6949 126.757C33.6949 127.853 33.6949 127.893 32.8011 127.122C30.2418 124.931 29.9574 119.371 33.7355 118.113C35.6449 117.463 36.2136 119.898 36.6605 121.278C37.3105 123.267 37.9199 125.296 38.5699 127.325C39.5855 126.716 40.6011 126.148 41.6168 125.539C39.3418 123.307 38.123 120.467 38.0418 117.26C37.2699 117.829 36.498 118.437 35.7261 119.006C39.9918 120.629 40.6824 125.986 41.2511 129.882C41.5761 132.195 45.1105 131.221 44.7855 128.908C43.973 123.389 42.4699 117.626 36.7011 115.475C35.6043 115.069 34.3449 116.124 34.3855 117.22C34.4668 121.359 36.0918 125.134 39.0168 128.056C40.2761 129.314 42.6324 128.056 42.0636 126.27C41.3324 123.957 40.6824 121.643 39.8699 119.371C39.3011 117.747 38.5699 116.043 37.0668 115.069C33.8168 112.918 29.998 115.353 28.3324 118.316C26.423 121.765 26.9105 126.067 29.5105 128.989C31.6636 131.383 35.848 132.682 37.0261 128.664C38.0824 125.093 36.2543 119.817 34.4668 116.733C32.0293 112.593 28.0074 115.718 25.9355 118.397C24.8386 119.817 23.9855 121.359 23.3761 123.023C22.8074 124.565 21.873 127.082 23.0105 128.583C25.6918 132.073 29.5511 126.148 30.7293 124.2C31.7449 122.577 33.2074 120.345 32.9636 118.316C32.7199 116.408 30.9324 115.515 29.2261 116.246C25.4886 117.869 23.5793 122.861 23.7418 126.635C23.7824 128.015 25.2449 128.908 26.5043 128.218C30.1605 126.108 33.1261 123.023 35.0761 119.29C36.0105 117.504 33.6949 115.556 32.1918 117.058C28.1293 121.197 25.773 126.473 25.2449 132.236C25.0824 133.94 27.2761 134.468 28.373 133.534C32.3136 130.125 35.523 125.945 37.798 121.278C38.6511 119.493 36.4574 117.504 34.9136 119.046C32.5574 121.481 30.6886 124.281 29.3886 127.406C28.5355 129.476 26.748 133.413 29.5105 134.833C30.0793 135.117 30.8105 135.198 31.3386 134.833C35.1574 132.114 38.2449 128.664 40.3574 124.484C41.0886 123.023 39.4636 120.791 37.8386 121.968C33.8574 124.971 31.0543 128.948 29.7543 133.737C29.348 135.158 31.0949 136.781 32.4355 135.807C36.2136 133.047 39.3824 129.76 42.023 125.864C43.2418 124.038 40.6418 122.415 39.1386 123.632C36.4168 125.864 34.1418 128.502 32.273 131.505C31.4199 132.844 32.8418 134.671 34.3449 134.184C37.7168 133.129 40.9668 131.749 44.0543 130.044C43.323 129.07 42.5918 128.137 41.8199 127.163C38.6918 130.612 35.1168 133.575 31.1355 135.969C29.673 136.862 30.1605 138.729 31.5824 139.297C33.2886 139.987 35.1168 138.607 35.198 136.862C35.3199 134.752 33.1261 132.763 31.8261 131.383C28.5355 127.812 24.5949 124.89 20.2886 122.739C20.4105 123.713 20.5324 124.647 20.6543 125.621C22.5636 123.673 24.5949 121.887 26.748 120.264C28.698 118.803 31.1355 116.855 33.4511 116.084C34.1418 115.84 34.1011 115.718 34.6699 116.286C35.2386 116.855 35.6855 117.545 36.1324 118.153C37.0261 119.29 37.9605 120.467 38.8543 121.603C39.8293 122.861 40.8449 124.119 41.8199 125.377C42.348 126.067 44.5011 128.137 44.3386 128.908C44.1761 129.801 41.9418 131.099 41.2105 131.708C40.073 132.642 38.9355 133.575 37.798 134.508C36.6605 135.442 35.523 136.375 34.3855 137.309C33.898 137.714 32.8418 138.891 31.9886 138.445C31.6636 138.283 31.0949 137.065 30.8918 136.781C27.9261 132.317 24.3918 128.299 20.4511 124.687C18.8261 123.267 16.2262 125.824 17.973 127.406Z" fill="#FF6109"/>
<path d="M19.9216 124.159C21.3841 127 30.5653 142.827 34.4653 137.43C35.8466 135.522 32.6778 133.696 31.2966 135.604C31.2153 135.685 31.1747 135.806 31.0934 135.888C31.6216 135.604 32.1497 135.279 32.6778 134.995C31.9872 135.076 30.3216 132.763 29.8747 132.235C28.9809 131.221 28.0872 130.206 27.2747 129.11C25.6903 126.959 24.3091 124.687 23.0903 122.333C22.0341 120.222 18.8653 122.089 19.9216 124.159Z" fill="#FF6109"/>
<path d="M92.5999 74.0395C88.253 70.874 86.5874 64.3807 89.3092 59.6324C90.6499 57.2786 93.0874 55.3712 95.9311 55.6958C98.8561 56.0205 100.278 58.1308 100.481 60.8905C100.603 62.4327 100.44 64.0154 100.4 65.5576C100.319 67.0186 100.481 68.7231 100.075 70.1435C99.6686 71.5639 98.2061 72.335 97.6374 73.7554C97.1499 74.9729 97.678 76.0281 96.2561 76.4339C95.8499 76.5557 95.2811 76.5151 94.9155 76.6368C94.2655 76.5557 94.2655 76.6774 94.9155 76.9615C94.753 76.4339 94.6311 75.9469 94.4686 75.4193C93.9405 73.6337 93.4124 71.8074 92.8842 70.0218C91.9905 67.0186 90.1217 62.595 92.478 59.7947C91.503 59.9165 90.528 60.0382 89.5124 60.16C90.9342 61.2152 90.4061 65.517 90.4874 66.978C90.6093 70.0218 90.7311 73.0655 90.853 76.1093C90.9749 79.3154 95.403 79.1936 95.728 76.1093C96.053 72.9032 95.6061 69.7377 95.4842 66.491C95.403 65.1112 95.403 63.6908 95.6061 62.3109C95.6874 61.621 95.8499 60.9717 96.053 60.3223C96.1749 59.8759 96.378 59.4295 96.5811 59.0237C97.028 58.3337 97.028 58.2526 96.6217 58.7802C96.0124 58.8613 95.3624 58.9425 94.753 59.0237C94.6311 58.9831 95.1999 60.4847 95.2811 60.8093C95.4436 61.4181 95.5249 62.0674 95.6061 62.6762C95.7686 64.3807 95.7686 66.1257 95.6874 67.8302C95.6467 68.6013 95.5655 69.3724 95.4436 70.1841C95.3624 70.6711 95.2811 71.1581 95.1999 71.6451C94.7936 72.6191 95.4842 72.8626 97.2717 72.2538C97.4342 71.9292 96.9874 70.6305 96.9467 70.2653C96.8655 69.413 96.8249 68.5202 96.8655 67.6679C96.9061 66.004 97.1092 64.4212 97.5155 62.7979C97.6374 62.3109 97.7592 61.8645 97.9217 61.3775C98.5311 60.3223 97.8811 59.9571 95.9717 60.3223C95.8092 60.6064 96.4592 62.1486 96.5405 62.4327C96.9061 64.1372 96.9874 65.8822 96.8249 67.6273C96.7436 68.439 96.6624 71.0769 95.728 71.2798C92.6811 72.0103 93.9811 76.718 97.028 75.9875C100.237 75.2164 101.131 71.9698 101.537 69.0883C101.984 65.6793 101.822 61.8239 100.522 58.6178C99.2624 55.5335 95.5655 55.4929 93.9405 58.3337C92.3155 61.1746 91.9499 65.1923 91.9905 68.3984C92.0311 70.9958 92.0717 75.4599 95.1999 76.3933C98.653 77.4079 99.8717 73.6743 100.237 71.0769C100.725 67.6679 100.847 64.1777 100.278 60.7687C99.8717 58.2526 98.2467 53.4232 94.7936 54.3566C91.4624 55.2088 90.8124 61.0122 90.6499 63.7719C90.4467 67.9114 91.3405 72.0103 90.9342 76.1498C92.5592 76.1498 94.1842 76.1498 95.8092 76.1498C95.6467 72.0509 95.4842 67.952 95.2811 63.8531C95.1592 60.7282 94.6717 57.9685 92.0311 56.0205C91.2592 55.4117 89.7155 55.6552 89.0655 56.3857C86.3843 59.5512 86.1811 63.4473 87.1155 67.3433C87.603 69.4536 88.2936 71.5639 88.903 73.6337C89.4717 75.5817 89.7968 77.9355 90.853 79.64C92.5186 82.3997 97.1499 81.7504 99.5467 80.3299C100.806 79.5994 101.659 78.3819 101.984 76.9615C102.187 76.0687 102.106 75.7034 102.675 74.9729C103.325 74.1613 103.975 73.5119 104.381 72.5379C105.072 70.9958 105.112 69.2913 105.194 67.6679C105.275 65.6387 105.478 63.569 105.437 61.4993C105.356 57.8873 104.178 54.4783 101.05 52.4086C95.0374 48.4314 87.4811 52.1245 84.6374 58.1308C81.3061 65.2329 83.9874 73.6337 90.203 78.179C92.6811 80.0864 95.1186 75.8658 92.5999 74.0395Z" fill="#FF6109"/>
<path d="M92.357 84.7929C93.1695 86.0916 94.632 86.5786 96.0945 86.1321C96.7445 85.9292 97.3133 85.564 97.8008 85.1176C97.9226 84.9958 98.0851 84.8741 98.207 84.7117C98.3289 84.59 98.2883 84.59 98.1258 84.7523C98.8976 84.3465 98.2883 84.2247 96.3383 84.3059C97.3133 85.1176 98.857 85.3205 99.7914 84.3059C100.645 83.4131 100.807 81.7492 99.7914 80.8563C98.6133 79.8417 97.1101 79.6794 95.7289 80.4911C95.282 80.7346 94.8352 81.0998 94.5102 81.5057C94.2258 81.8709 94.8758 81.2622 94.4289 81.5868C94.5101 81.5462 94.5914 81.5057 94.6726 81.5057C93.8195 81.7086 94.4289 81.9927 96.5008 82.3579C95.8101 81.2622 94.307 80.7346 93.1695 81.4651C92.1539 82.155 91.6258 83.6566 92.357 84.7929Z" fill="#FF6109"/>
<path d="M93.4941 87.9995C93.4941 88.1212 93.4941 88.243 93.4941 88.3647C93.4941 88.9735 93.7785 89.6634 94.2254 90.0692C94.6316 90.4751 95.3223 90.7997 95.9316 90.7997C96.5817 90.7591 97.2316 90.5562 97.6379 90.0692C98.0848 89.5822 98.3692 89.014 98.3692 88.3647C98.3692 88.243 98.3692 88.1212 98.3692 87.9995C98.3692 87.3907 98.0848 86.7008 97.6379 86.2949C97.2316 85.8891 96.541 85.5645 95.9316 85.5645C95.2816 85.605 94.6316 85.8079 94.2254 86.2949C93.7785 86.7414 93.4941 87.3095 93.4941 87.9995Z" fill="#FF6109"/>
<path d="M69.3642 43.1142C80.0486 30.4116 90.2861 17.3438 100.117 3.91069C99.1829 4.27594 98.2892 4.64119 97.3548 5.04702C98.2892 5.33111 98.9798 5.8181 99.6704 6.50802C99.5486 5.53402 99.4267 4.56002 99.3048 3.54544C89.9204 16.9379 80.5767 30.2898 71.1923 43.6823C72.2892 43.3983 73.4267 43.1142 74.5235 42.7895C73.711 42.3025 72.8985 41.8155 72.086 41.2879C72.3704 42.3837 72.6548 43.52 72.9798 44.6158C77.2454 39.0559 81.1454 33.293 84.6798 27.2461C86.2642 24.527 82.0392 22.092 80.4548 24.7705C76.9204 30.7768 73.0204 36.5803 68.7548 42.1402C67.9423 43.1954 68.6329 44.8593 69.6485 45.468C70.461 45.955 71.2735 46.442 72.086 46.9696C73.2642 47.7001 74.6861 47.1725 75.4173 46.0768C84.8017 32.6843 94.1454 19.3324 103.53 5.93986C104.139 5.04702 103.855 3.70777 103.164 2.97727C101.905 1.6786 100.402 0.785773 98.6954 0.258189C97.5986 -0.107061 96.5829 0.501691 95.9329 1.39452C86.3861 14.4624 76.3923 27.2055 65.9517 39.5834C63.9204 42.059 67.3736 45.5492 69.3642 43.1142Z" fill="#FF6109"/>
<path d="M42.0234 181.098C42.0234 180.976 42.0234 180.854 42.0234 180.732C42.0234 177.607 37.1484 177.607 37.1484 180.732C37.1484 180.854 37.1484 180.976 37.1484 181.098C37.1484 184.263 42.0234 184.263 42.0234 181.098C42.0234 180.976 42.0234 180.854 42.0234 180.732C42.0234 177.607 37.1484 177.607 37.1484 180.732C37.1484 180.854 37.1484 180.976 37.1484 181.098C37.1484 184.263 42.0234 184.263 42.0234 181.098Z" fill="#FF6109"/>
<path d="M3.10391 147.129C6.23204 147.129 6.23204 142.259 3.10391 142.259C-0.0242196 142.259 -0.0242196 147.129 3.10391 147.129Z" fill="#FF6109"/>
<path d="M14.1129 149.28C16.4691 149.28 16.4691 145.628 14.1129 145.628C11.7566 145.628 11.7566 149.28 14.1129 149.28Z" fill="#FF6109"/>
<path d="M163.41 56.507C165.766 56.507 165.766 52.8545 163.41 52.8545C161.054 52.8545 161.054 56.507 163.41 56.507Z" fill="#FF6109"/>
<path d="M186.322 111.7C186.322 111.943 186.322 112.146 186.322 112.39C186.322 112.877 186.525 113.364 186.85 113.688C187.175 114.013 187.704 114.257 188.15 114.216C188.638 114.175 189.125 114.054 189.45 113.688C189.775 113.323 189.979 112.877 189.979 112.39C189.979 112.146 189.979 111.943 189.979 111.7C189.979 111.213 189.775 110.726 189.45 110.401C189.125 110.076 188.597 109.833 188.15 109.874C187.663 109.914 187.175 110.036 186.85 110.401C186.525 110.766 186.322 111.213 186.322 111.7Z" fill="#FF6109"/>
</svg>
