<svg width="544" height="478" xmlns="http://www.w3.org/2000/svg">

 <g>
  <title>background</title>
  <rect fill="none" id="canvas_background" height="402" width="582" y="-1" x="-1"/>
 </g>
 <g>
  <title>Layer 1</title>
  <path id="svg_106" fill="#2E28F7" d="m117.305,226.174c2.085,0 3.776,-1.694 3.776,-3.784c0,-2.09 -1.691,-3.785 -3.776,-3.785c-2.086,0 -3.777,1.695 -3.777,3.785c0,2.09 1.691,3.784 3.777,3.784z"/>
  <path id="svg_107" fill="#FF6109" d="m122.234,218.526c2.239,0 4.055,-1.819 4.055,-4.063c0,-2.244 -1.816,-4.063 -4.055,-4.063c-2.239,0 -4.054,1.819 -4.054,4.063c0,2.244 1.815,4.063 4.054,4.063z"/>
  <path id="svg_109" fill="#FF6109" d="m341.376,137.346c0.079,-0.837 0.477,-1.195 1.152,-1.155c0.358,-0.08 0.756,-0.12 1.113,-0.04c0.438,0 0.875,0.08 1.272,0c0.636,-0.12 1.193,-0.319 1.63,-0.797c0.437,-0.518 0.517,-1.155 0.636,-1.792c0.358,-2.111 1.868,-1.394 3.26,-1.036c1.55,0.398 2.822,0.04 3.855,-1.195c0.557,-0.677 0.915,-1.514 1.312,-2.31c0.477,-0.956 2.783,-3.904 3.578,-1.514c0.238,0.717 1.391,0.398 1.152,-0.319c-0.636,-1.872 -2.901,-2.071 -4.293,-0.876c-1.232,1.076 -1.55,2.749 -2.504,3.983c-1.63,2.191 -3.339,0.359 -5.406,0.439c-0.835,0.039 -1.471,0.478 -1.828,1.234c-0.557,1.156 0.039,1.673 -1.233,2.47c-1.152,0.757 -1.47,0.319 -2.703,0.478c-1.59,0.239 -3.259,2.231 -1.55,3.426c0.557,0.478 1.153,-0.558 0.557,-0.996z"/>
  <path id="svg_110" fill="#FF6109" d="m346.662,140.652c-0.636,-0.836 -0.398,-1.275 0.676,-1.394c0.636,-0.518 1.351,-0.598 2.106,-0.279c0.358,0.04 0.756,0.12 1.113,0.159c0.915,0.08 1.63,-0.079 2.425,-0.438c0.318,-0.159 0.358,-0.557 0.199,-0.836c-1.391,-2.828 2.941,-3.306 4.412,-3.386c1.232,-0.04 2.465,0 3.657,-0.438c1.511,-0.598 2.544,-1.673 2.703,-3.306c0.08,-0.757 -1.113,-0.757 -1.192,0c-0.358,3.863 -6.718,1.912 -9.024,3.346c-1.59,0.956 -2.384,2.708 -1.55,4.421c0.08,-0.279 0.159,-0.558 0.199,-0.836c-2.027,0.956 -5.048,-1.116 -6.757,0.916c-0.835,0.996 -0.716,2.43 0.397,3.147c0.716,0.358 1.312,-0.678 0.636,-1.076z"/>
  <path id="svg_121" fill="#FF6109" d="m330.802,368.737c-0.517,-3.545 3.458,-6.851 6.439,-3.983c2.743,2.629 -0.636,6.891 -3.696,4.899c-0.636,-0.438 -1.233,0.598 -0.597,1.036c4.015,2.629 8.666,-2.749 5.486,-6.413c-3.697,-4.302 -9.461,-0.08 -8.785,4.82c0.119,0.717 1.272,0.398 1.153,-0.359z"/>
  <path id="svg_122" fill="#FF6109" d="m335.691,349.976c-0.636,-2.031 1.987,-3.664 3.299,-1.832c1.193,1.673 -0.795,3.625 -2.504,2.749c-0.676,-0.359 -1.272,0.677 -0.596,1.035c2.901,1.514 6.081,-1.912 3.975,-4.581c-2.147,-2.748 -6.321,-0.278 -5.327,2.948c0.239,0.717 1.391,0.438 1.153,-0.319z"/>
 </g>
</svg>