<svg width="544" height="478" xmlns="http://www.w3.org/2000/svg">

 <g>
  <title>background</title>
  <rect fill="none" id="canvas_background" height="402" width="582" y="-1" x="-1"/>
 </g>
 <g>
  <title>Layer 1</title>
  <path id="svg_105" fill="#2E28F7" d="m326.946,53.3776c3.82,0 6.916,-3.1031 6.916,-6.931c0,-3.8279 -3.096,-6.931 -6.916,-6.931c-3.82,0 -6.917,3.1031 -6.917,6.931c0,3.8279 3.097,6.931 6.917,6.931z"/>
  <path id="svg_108" fill="#FF6109" d="m320.308,51.625c3.337,0 6.042,-2.7108 6.042,-6.0547c0,-3.3439 -2.705,-6.0547 -6.042,-6.0547c-3.337,0 -6.042,2.7108 -6.042,6.0547c0,3.3439 2.705,6.0547 6.042,6.0547z"/>
  <path id="svg_112" fill="#2E28F7" d="m202.41,353.282c3.18,5.378 9.182,8.564 15.423,8.126c0.755,-0.04 0.755,-1.235 0,-1.195c-5.844,0.398 -11.409,-2.509 -14.39,-7.528c-0.397,-0.678 -1.431,-0.08 -1.033,0.597z"/>
  <path id="svg_113" fill="#2E28F7" d="m199.984,360.132c4.174,4.302 9.699,6.812 15.702,7.09c0.755,0.04 0.755,-1.155 0,-1.195c-5.685,-0.278 -10.892,-2.668 -14.867,-6.771c-0.517,-0.518 -1.391,0.358 -0.835,0.876z"/>
 </g>
</svg>