<svg width="544" height="478" xmlns="http://www.w3.org/2000/svg">

 <g>
  <title>background</title>
  <rect fill="none" id="canvas_background" height="402" width="582" y="-1" x="-1"/>
 </g>
 <g>
  <title>Layer 1</title>
  <path id="svg_103" fill="#FF6109" d="m373.931,252.982c2.963,0 5.366,-2.408 5.366,-5.378c0,-2.97 -2.403,-5.377 -5.366,-5.377c-2.964,0 -5.367,2.407 -5.367,5.377c0,2.97 2.403,5.378 5.367,5.378z"/>
  <path id="svg_104" fill="#FF6109" d="m384.544,241.191c1.559,0 2.822,-1.266 2.822,-2.828c0,-1.562 -1.263,-2.828 -2.822,-2.828c-1.559,0 -2.822,1.266 -2.822,2.828c0,1.562 1.263,2.828 2.822,2.828z"/>
  <path id="svg_111" fill="#2E28F7" d="m201.535,64.3715c-0.914,-3.5053 3.339,-6.4132 6.003,-3.5452c2.663,2.868 -0.557,6.8912 -3.975,5.736c-0.716,-0.239 -1.034,0.9162 -0.318,1.1552c4.611,1.5535 8.586,-4.063 5.127,-7.7277c-3.458,-3.7045 -9.222,0.0399 -7.989,4.7003c0.198,0.7569 1.351,0.4382 1.152,-0.3186z"/>
 </g>
</svg>