<svg width="32" height="32" viewBox="0 0 32 32" fill="none" xmlns="http://www.w3.org/2000/svg">
<path opacity="0.1" fill-rule="evenodd" clip-rule="evenodd" d="M0 16C0 7.16344 7.16344 0 16 0C24.8366 0 32 7.16344 32 16C32 24.8366 24.8366 32 16 32C7.16344 32 0 24.8366 0 16Z" fill="white"/>
<path d="M14.342 23.8887H17.2011V16.7324H19.4215L19.7865 13.8887H17.2011V11.9199C17.2011 11.4616 17.2822 11.1283 17.4445 10.9199C17.6472 10.6699 18.0224 10.5449 18.5698 10.5449H20.0298V8.01367C19.4823 7.93034 18.7726 7.88867 17.9007 7.88867C16.826 7.88867 15.9642 8.2168 15.3153 8.87305C14.6665 9.5293 14.342 10.4512 14.342 11.6387V13.8887H12V16.7324H14.342L14.342 23.8887Z" fill="white"/>
</svg>
