<svg width="1440" height="609" viewBox="0 0 1440 609" fill="none" xmlns="http://www.w3.org/2000/svg">
<path d="M133.958 634.999L50.1172 554.587C68.0961 536.392 105.081 500.029 107.352 497.79C109.623 495.55 112.357 492.589 113.54 491.656C114.722 490.723 118.487 489.02 124.732 490.14C130.978 491.26 133.485 497.604 133.958 500.637V634.999Z" stroke="#0033B6" stroke-width="2"/>
<path d="M133.958 305.499L50.1172 225.086C68.0961 206.891 105.081 170.528 107.352 168.289C109.623 166.049 112.357 163.088 113.54 162.155C114.722 161.222 118.487 159.519 124.732 160.639C130.978 161.759 133.485 168.103 133.958 171.136V305.499Z" stroke="#0033B6" stroke-width="2"/>
<path d="M301.518 634.999L217.677 554.587C235.656 536.392 272.641 500.029 274.912 497.79C277.183 495.55 279.916 492.589 281.099 491.656C282.282 490.723 286.047 489.02 292.292 490.14C298.537 491.26 301.045 497.604 301.518 500.637V634.999Z" stroke="#0033B6" stroke-width="2"/>
<path d="M301.518 305.499L217.677 225.086C235.656 206.891 272.641 170.528 274.912 168.289C277.183 166.049 279.916 163.088 281.099 162.155C282.282 161.222 286.047 159.519 292.292 160.639C298.537 161.759 301.045 168.103 301.518 171.136V305.499Z" stroke="#0033B6" stroke-width="2"/>
<path d="M217.739 634.999L133.897 554.587C151.876 536.392 188.861 500.029 191.132 497.79C193.403 495.55 196.137 492.589 197.32 491.656C198.503 490.723 202.267 489.02 208.513 490.14C214.758 491.26 217.266 497.604 217.739 500.637V634.999Z" stroke="#0033B6" stroke-width="2"/>
<path d="M217.739 305.499L133.897 225.086C151.876 206.891 188.861 170.528 191.132 168.289C193.403 166.049 196.137 163.088 197.32 162.155C198.503 161.222 202.267 159.519 208.513 160.639C214.758 161.759 217.266 168.103 217.739 171.136V305.499Z" stroke="#0033B6" stroke-width="2"/>
<path d="M50.1791 634.999L-33.6621 554.587C-15.6832 536.392 21.3017 500.029 23.5727 497.79C25.8437 495.55 28.5774 492.589 29.7602 491.656C30.9431 490.723 34.7078 489.02 40.9531 490.14C47.1984 491.26 49.706 497.604 50.1791 500.637V634.999Z" stroke="#0033B6" stroke-width="2"/>
<path d="M385.297 634.999L301.456 554.587C319.435 536.392 356.42 500.029 358.691 497.79C360.962 495.55 363.696 492.589 364.878 491.656C366.061 490.723 369.826 489.02 376.071 490.14C382.317 491.26 384.824 497.604 385.297 500.637V634.999Z" stroke="#0033B6" stroke-width="2"/>
<path d="M50.1791 305.499L-33.6621 225.086C-15.6832 206.891 21.3017 170.528 23.5727 168.289C25.8437 166.049 28.5774 163.088 29.7602 162.155C30.9431 161.222 34.7078 159.519 40.9531 160.639C47.1984 161.759 49.706 168.103 50.1791 171.136V305.499Z" stroke="#0033B6" stroke-width="2"/>
<path d="M385.297 305.499L301.456 225.086C319.435 206.891 356.42 170.528 358.691 168.289C360.962 166.049 363.696 163.088 364.878 162.155C366.061 161.222 369.826 159.519 376.071 160.639C382.317 161.759 384.824 168.103 385.297 171.136V305.499Z" stroke="#0033B6" stroke-width="2"/>
<path d="M50.18 470.234L133.897 553.222C115.945 571.404 79.3765 608.562 77.1088 610.8C74.8411 613.038 71.912 615.462 70.7309 616.394C69.5498 617.327 65.6286 618.912 59.3924 617.793C53.1563 616.674 50.6524 610.334 50.18 607.304V470.234Z" stroke="#0033B6" stroke-width="2"/>
<path d="M50.18 140.733L133.897 223.721C115.945 241.903 79.3765 279.061 77.1088 281.299C74.8411 283.537 71.912 285.961 70.7309 286.893C69.5498 287.826 65.6286 289.411 59.3924 288.292C53.1563 287.173 50.6524 280.833 50.18 277.803V140.733Z" stroke="#0033B6" stroke-width="2"/>
<path d="M217.739 470.234L301.456 553.222C283.504 571.404 246.935 608.562 244.667 610.8C242.4 613.038 239.471 615.462 238.29 616.394C237.108 617.327 233.187 618.912 226.951 617.793C220.715 616.674 218.211 610.334 217.739 607.304V470.234Z" stroke="#0033B6" stroke-width="2"/>
<path d="M217.739 140.733L301.456 223.721C283.504 241.903 246.935 279.061 244.667 281.299C242.4 283.537 239.471 285.961 238.29 286.893C237.108 287.826 233.187 289.411 226.951 288.292C220.715 287.173 218.211 280.833 217.739 277.803V140.733Z" stroke="#0033B6" stroke-width="2"/>
<path d="M133.959 470.234L217.677 553.222C199.724 571.404 163.156 608.562 160.888 610.8C158.62 613.038 155.691 615.462 154.51 616.394C153.329 617.327 149.408 618.912 143.172 617.793C136.936 616.674 134.432 610.334 133.959 607.304V470.234Z" stroke="#0033B6" stroke-width="2"/>
<path d="M133.959 140.733L217.677 223.721C199.724 241.903 163.156 279.061 160.888 281.299C158.62 283.537 155.691 285.961 154.51 286.893C153.329 287.826 149.408 289.411 143.172 288.292C136.936 287.173 134.432 280.833 133.959 277.803V140.733Z" stroke="#0033B6" stroke-width="2"/>
<path d="M-33.6003 470.234L50.1172 553.222C32.1646 571.404 -4.4038 608.562 -6.67149 610.8C-8.93918 613.038 -11.8683 615.462 -13.0494 616.394C-14.2305 617.327 -18.1517 618.912 -24.3878 617.793C-30.624 616.674 -33.1279 610.334 -33.6003 607.304V470.234Z" stroke="#0033B6" stroke-width="2"/>
<path d="M301.518 470.234L385.235 553.222C367.283 571.404 330.714 608.562 328.447 610.8C326.179 613.038 323.25 615.462 322.069 616.394C320.888 617.327 316.966 618.912 310.73 617.793C304.494 616.674 301.99 610.334 301.518 607.304V470.234Z" stroke="#0033B6" stroke-width="2"/>
<path d="M-33.6003 140.733L50.1172 223.721C32.1646 241.903 -4.4038 279.061 -6.67149 281.299C-8.93918 283.537 -11.8683 285.961 -13.0494 286.893C-14.2305 287.826 -18.1517 289.411 -24.3878 288.292C-30.624 287.173 -33.1279 280.833 -33.6003 277.803V140.733Z" stroke="#0033B6" stroke-width="2"/>
<path d="M301.518 140.733L385.235 223.721C367.283 241.903 330.714 279.061 328.447 281.299C326.179 283.537 323.25 285.961 322.069 286.893C320.888 287.826 316.966 289.411 310.73 288.292C304.494 287.173 301.99 280.833 301.518 277.803V140.733Z" stroke="#0033B6" stroke-width="2"/>
<path d="M133.958 470.269L50.1172 389.857C68.0961 371.662 105.081 335.299 107.352 333.059C109.623 330.82 112.357 327.859 113.54 326.926C114.722 325.993 118.487 324.29 124.732 325.409C130.978 326.529 133.485 332.874 133.958 335.906V470.269Z" stroke="#0033B6" stroke-width="2"/>
<path d="M133.958 140.767L50.1172 60.355C68.0961 42.16 105.081 5.79679 107.352 3.55742C109.623 1.31804 112.357 -1.64315 113.54 -2.57622C114.722 -3.50929 118.487 -5.21224 124.732 -4.09255C130.978 -2.97286 133.485 3.37204 133.958 6.40452V140.767Z" stroke="#0033B6" stroke-width="2"/>
<path d="M301.518 470.269L217.677 389.857C235.656 371.662 272.641 335.299 274.912 333.059C277.183 330.82 279.916 327.859 281.099 326.926C282.282 325.993 286.047 324.29 292.292 325.409C298.537 326.529 301.045 332.874 301.518 335.906V470.269Z" stroke="#0033B6" stroke-width="2"/>
<path d="M301.518 140.767L217.677 60.355C235.656 42.16 272.641 5.79679 274.912 3.55742C277.183 1.31804 279.916 -1.64315 281.099 -2.57622C282.282 -3.50929 286.047 -5.21224 292.292 -4.09255C298.537 -2.97286 301.045 3.37204 301.518 6.40452V140.767Z" stroke="#0033B6" stroke-width="2"/>
<path d="M217.739 470.269L133.897 389.857C151.876 371.662 188.861 335.299 191.132 333.059C193.403 330.82 196.137 327.859 197.32 326.926C198.503 325.993 202.267 324.29 208.513 325.409C214.758 326.529 217.266 332.874 217.739 335.906V470.269Z" stroke="#0033B6" stroke-width="2"/>
<path d="M217.739 140.767L133.897 60.355C151.876 42.16 188.861 5.79679 191.132 3.55742C193.403 1.31804 196.137 -1.64315 197.32 -2.57622C198.503 -3.50929 202.267 -5.21224 208.513 -4.09255C214.758 -2.97286 217.266 3.37204 217.739 6.40452V140.767Z" stroke="#0033B6" stroke-width="2"/>
<path d="M50.1791 470.269L-33.6621 389.857C-15.6832 371.662 21.3017 335.299 23.5727 333.059C25.8437 330.82 28.5774 327.859 29.7602 326.926C30.9431 325.993 34.7078 324.29 40.9531 325.409C47.1984 326.529 49.706 332.874 50.1791 335.906V470.269Z" stroke="#0033B6" stroke-width="2"/>
<path d="M385.297 470.269L301.456 389.857C319.435 371.662 356.42 335.299 358.691 333.059C360.962 330.82 363.696 327.859 364.878 326.926C366.061 325.993 369.826 324.29 376.071 325.409C382.317 326.529 384.824 332.874 385.297 335.906V470.269Z" stroke="#0033B6" stroke-width="2"/>
<path d="M50.1791 140.767L-33.6621 60.355C-15.6832 42.16 21.3017 5.79679 23.5727 3.55742C25.8437 1.31804 28.5774 -1.64315 29.7602 -2.57622C30.9431 -3.50929 34.7078 -5.21224 40.9531 -4.09255C47.1984 -2.97286 49.706 3.37204 50.1791 6.40452V140.767Z" stroke="#0033B6" stroke-width="2"/>
<path d="M385.297 140.767L301.456 60.355C319.435 42.16 356.42 5.79679 358.691 3.55742C360.962 1.31804 363.696 -1.64315 364.878 -2.57622C366.061 -3.50929 369.826 -5.21224 376.071 -4.09255C382.317 -2.97286 384.824 3.37204 385.297 6.40452V140.767Z" stroke="#0033B6" stroke-width="2"/>
<path d="M50.18 305.5L133.897 388.488C115.945 406.67 79.3765 443.828 77.1088 446.066C74.8411 448.303 71.912 450.728 70.7309 451.66C69.5498 452.592 65.6286 454.177 59.3924 453.059C53.1563 451.94 50.6524 445.599 50.18 442.569V305.5Z" stroke="#0033B6" stroke-width="2"/>
<path d="M50.18 -23.9982L133.897 58.99C115.945 77.1715 79.3765 114.33 77.1088 116.568C74.8411 118.805 71.912 121.23 70.7309 122.162C69.5498 123.094 65.6286 124.679 59.3924 123.56C53.1563 122.442 50.6524 116.101 50.18 113.071V-23.9982Z" stroke="#0033B6" stroke-width="2"/>
<path d="M217.739 305.5L301.456 388.488C283.504 406.67 246.935 443.828 244.667 446.066C242.4 448.303 239.471 450.728 238.29 451.66C237.108 452.592 233.187 454.177 226.951 453.059C220.715 451.94 218.211 445.599 217.739 442.569V305.5Z" stroke="#0033B6" stroke-width="2"/>
<path d="M217.739 -23.9982L301.456 58.99C283.504 77.1715 246.935 114.33 244.667 116.568C242.4 118.805 239.471 121.23 238.29 122.162C237.108 123.094 233.187 124.679 226.951 123.56C220.715 122.442 218.211 116.101 217.739 113.071V-23.9982Z" stroke="#0033B6" stroke-width="2"/>
<path d="M133.959 305.5L217.677 388.488C199.724 406.67 163.156 443.828 160.888 446.066C158.62 448.303 155.691 450.728 154.51 451.66C153.329 452.592 149.408 454.177 143.172 453.059C136.936 451.94 134.432 445.599 133.959 442.569V305.5Z" stroke="#0033B6" stroke-width="2"/>
<path d="M133.959 -23.9982L217.677 58.99C199.724 77.1715 163.156 114.33 160.888 116.568C158.62 118.805 155.691 121.23 154.51 122.162C153.329 123.094 149.408 124.679 143.172 123.56C136.936 122.442 134.432 116.101 133.959 113.071V-23.9982Z" stroke="#0033B6" stroke-width="2"/>
<path d="M-33.6003 305.5L50.1172 388.488C32.1646 406.67 -4.4038 443.828 -6.67149 446.066C-8.93918 448.303 -11.8683 450.728 -13.0494 451.66C-14.2305 452.592 -18.1517 454.177 -24.3878 453.059C-30.624 451.94 -33.1279 445.599 -33.6003 442.569V305.5Z" stroke="#0033B6" stroke-width="2"/>
<path d="M301.518 305.5L385.235 388.488C367.283 406.67 330.714 443.828 328.447 446.066C326.179 448.303 323.25 450.728 322.069 451.66C320.888 452.592 316.966 454.177 310.73 453.059C304.494 451.94 301.99 445.599 301.518 442.569V305.5Z" stroke="#0033B6" stroke-width="2"/>
<path d="M-33.6003 -23.9982L50.1172 58.99C32.1646 77.1715 -4.4038 114.33 -6.67149 116.568C-8.93918 118.805 -11.8683 121.23 -13.0494 122.162C-14.2305 123.094 -18.1517 124.679 -24.3878 123.56C-30.624 122.442 -33.1279 116.101 -33.6003 113.071V-23.9982Z" stroke="#0033B6" stroke-width="2"/>
<path d="M301.518 -23.9982L385.235 58.99C367.283 77.1715 330.714 114.33 328.447 116.568C326.179 118.805 323.25 121.23 322.069 122.162C320.888 123.094 316.966 124.679 310.73 123.56C304.494 122.442 301.99 116.101 301.518 113.071V-23.9982Z" stroke="#0033B6" stroke-width="2"/>
<path d="M468.841 634.999L385 554.587C402.979 536.392 439.964 500.029 442.235 497.79C444.506 495.55 447.24 492.589 448.422 491.656C449.605 490.723 453.37 489.02 459.615 490.14C465.861 491.26 468.368 497.604 468.841 500.637V634.999Z" stroke="#0033B6" stroke-width="2"/>
<path d="M803.958 634.999L720.117 554.587C738.096 536.392 775.081 500.029 777.352 497.79C779.623 495.55 782.357 492.589 783.54 491.656C784.722 490.723 788.487 489.02 794.732 490.14C800.978 491.26 803.485 497.604 803.958 500.637V634.999Z" stroke="#0033B6" stroke-width="2"/>
<path d="M468.841 305.501L385 225.089C402.979 206.894 439.964 170.531 442.235 168.292C444.506 166.052 447.24 163.091 448.422 162.158C449.605 161.225 453.37 159.522 459.615 160.642C465.861 161.762 468.368 168.106 468.841 171.139V305.501Z" stroke="#0033B6" stroke-width="2"/>
<path d="M803.958 305.499L720.117 225.086C738.096 206.891 775.081 170.528 777.352 168.289C779.623 166.049 782.357 163.088 783.54 162.155C784.722 161.222 788.487 159.519 794.732 160.639C800.978 161.759 803.485 168.103 803.958 171.136V305.499Z" stroke="#0033B6" stroke-width="2"/>
<path d="M636.4 634.999L552.559 554.587C570.538 536.392 607.522 500.029 609.793 497.79C612.064 495.55 614.798 492.589 615.981 491.656C617.164 490.723 620.929 489.02 627.174 490.14C633.419 491.26 635.927 497.604 636.4 500.637V634.999Z" stroke="#0033B6" stroke-width="2"/>
<path d="M971.518 634.999L887.677 554.587C905.656 536.392 942.641 500.029 944.912 497.79C947.183 495.55 949.916 492.589 951.099 491.656C952.282 490.723 956.047 489.02 962.292 490.14C968.537 491.26 971.045 497.604 971.518 500.637V634.999Z" stroke="#0033B6" stroke-width="2"/>
<path d="M636.4 305.499L552.559 225.086C570.538 206.891 607.522 170.528 609.793 168.289C612.064 166.049 614.798 163.088 615.981 162.155C617.164 161.222 620.929 159.519 627.174 160.639C633.419 161.759 635.927 168.103 636.4 171.136V305.499Z" stroke="#0033B6" stroke-width="2"/>
<path d="M971.518 305.499L887.677 225.086C905.656 206.891 942.641 170.528 944.912 168.289C947.183 166.049 949.916 163.088 951.099 162.155C952.282 161.222 956.047 159.519 962.292 160.639C968.537 161.759 971.045 168.103 971.518 171.136V305.499Z" stroke="#0033B6" stroke-width="2"/>
<path d="M552.621 634.999L468.779 554.587C486.758 536.392 523.743 500.029 526.014 497.79C528.285 495.55 531.019 492.589 532.202 491.656C533.384 490.723 537.149 489.02 543.395 490.14C549.64 491.26 552.147 497.604 552.621 500.637V634.999Z" stroke="#0033B6" stroke-width="2"/>
<path d="M887.739 634.999L803.897 554.587C821.876 536.392 858.861 500.029 861.132 497.79C863.403 495.55 866.137 492.589 867.32 491.656C868.503 490.723 872.267 489.02 878.513 490.14C884.758 491.26 887.266 497.604 887.739 500.637V634.999Z" stroke="#0033B6" stroke-width="2"/>
<path d="M552.621 305.499L468.779 225.086C486.758 206.891 523.743 170.528 526.014 168.289C528.285 166.049 531.019 163.088 532.202 162.155C533.384 161.222 537.149 159.519 543.395 160.639C549.64 161.759 552.147 168.103 552.621 171.136V305.499Z" stroke="#0033B6" stroke-width="2"/>
<path d="M887.739 305.499L803.897 225.086C821.876 206.891 858.861 170.528 861.132 168.289C863.403 166.049 866.137 163.088 867.32 162.155C868.503 161.222 872.267 159.519 878.513 160.639C884.758 161.759 887.266 168.103 887.739 171.136V305.499Z" stroke="#0033B6" stroke-width="2"/>
<path d="M720.179 634.999L636.338 554.587C654.317 536.392 691.302 500.029 693.573 497.79C695.844 495.55 698.577 492.589 699.76 491.656C700.943 490.723 704.708 489.02 710.953 490.14C717.198 491.26 719.706 497.604 720.179 500.637V634.999Z" stroke="#0033B6" stroke-width="2"/>
<path d="M1055.3 634.999L971.456 554.587C989.435 536.392 1026.42 500.029 1028.69 497.79C1030.96 495.55 1033.7 492.589 1034.88 491.656C1036.06 490.723 1039.83 489.02 1046.07 490.14C1052.32 491.26 1054.82 497.604 1055.3 500.637V634.999Z" stroke="#0033B6" stroke-width="2"/>
<path d="M720.179 305.499L636.338 225.086C654.317 206.891 691.302 170.528 693.573 168.289C695.844 166.049 698.577 163.088 699.76 162.155C700.943 161.222 704.708 159.519 710.953 160.639C717.198 161.759 719.706 168.103 720.179 171.136V305.499Z" stroke="#0033B6" stroke-width="2"/>
<path d="M1055.3 305.499L971.456 225.086C989.435 206.891 1026.42 170.528 1028.69 168.289C1030.96 166.049 1033.7 163.088 1034.88 162.155C1036.06 161.222 1039.83 159.519 1046.07 160.639C1052.32 161.759 1054.82 168.103 1055.3 171.136V305.499Z" stroke="#0033B6" stroke-width="2"/>
<path d="M385.062 470.234L468.779 553.222C450.827 571.404 414.258 608.562 411.991 610.8C409.723 613.038 406.794 615.462 405.613 616.394C404.432 617.327 400.51 618.912 394.274 617.793C388.038 616.674 385.534 610.334 385.062 607.304V470.234Z" stroke="#0033B6" stroke-width="2"/>
<path d="M720.18 470.234L803.897 553.222C785.945 571.404 749.376 608.562 747.109 610.8C744.841 613.038 741.912 615.462 740.731 616.394C739.55 617.327 735.629 618.912 729.392 617.793C723.156 616.674 720.652 610.334 720.18 607.304V470.234Z" stroke="#0033B6" stroke-width="2"/>
<path d="M385.062 140.733L468.779 223.721C450.827 241.903 414.258 279.061 411.991 281.299C409.723 283.537 406.794 285.961 405.613 286.893C404.432 287.826 400.51 289.411 394.274 288.292C388.038 287.173 385.534 280.833 385.062 277.803V140.733Z" stroke="#0033B6" stroke-width="2"/>
<path d="M720.18 140.733L803.897 223.721C785.945 241.903 749.376 279.061 747.109 281.299C744.841 283.537 741.912 285.961 740.731 286.893C739.55 287.826 735.629 289.411 729.392 288.292C723.156 287.173 720.652 280.833 720.18 277.803V140.733Z" stroke="#0033B6" stroke-width="2"/>
<path d="M552.62 470.234L636.338 553.222C618.385 571.404 581.817 608.562 579.549 610.8C577.282 613.038 574.352 615.462 573.171 616.394C571.99 617.327 568.069 618.912 561.833 617.793C555.597 616.674 553.093 610.334 552.62 607.304V470.234Z" stroke="#0033B6" stroke-width="2"/>
<path d="M887.739 470.234L971.456 553.222C953.504 571.404 916.935 608.562 914.667 610.8C912.4 613.038 909.471 615.462 908.29 616.394C907.108 617.327 903.187 618.912 896.951 617.793C890.715 616.674 888.211 610.334 887.739 607.304V470.234Z" stroke="#0033B6" stroke-width="2"/>
<path d="M552.62 140.733L636.338 223.721C618.385 241.903 581.817 279.061 579.549 281.299C577.282 283.537 574.352 285.961 573.171 286.893C571.99 287.826 568.069 289.411 561.833 288.292C555.597 287.173 553.093 280.833 552.62 277.803V140.733Z" stroke="#0033B6" stroke-width="2"/>
<path d="M887.739 140.733L971.456 223.721C953.504 241.903 916.935 279.061 914.667 281.299C912.4 283.537 909.471 285.961 908.29 286.893C907.108 287.826 903.187 289.411 896.951 288.292C890.715 287.173 888.211 280.833 887.739 277.803V140.733Z" stroke="#0033B6" stroke-width="2"/>
<path d="M468.841 470.234L552.559 553.222C534.606 571.404 498.038 608.562 495.77 610.8C493.502 613.038 490.573 615.462 489.392 616.394C488.211 617.327 484.29 618.912 478.054 617.793C471.817 616.674 469.314 610.334 468.841 607.304V470.234Z" stroke="#0033B6" stroke-width="2"/>
<path d="M803.959 470.234L887.677 553.222C869.724 571.404 833.156 608.562 830.888 610.8C828.62 613.038 825.691 615.462 824.51 616.394C823.329 617.327 819.408 618.912 813.172 617.793C806.936 616.674 804.432 610.334 803.959 607.304V470.234Z" stroke="#0033B6" stroke-width="2"/>
<path d="M468.841 140.733L552.559 223.721C534.606 241.903 498.038 279.061 495.77 281.299C493.502 283.537 490.573 285.961 489.392 286.893C488.211 287.826 484.29 289.411 478.054 288.292C471.817 287.173 469.314 280.833 468.841 277.803V140.733Z" stroke="#0033B6" stroke-width="2"/>
<path d="M803.959 140.733L887.677 223.721C869.724 241.903 833.156 279.061 830.888 281.299C828.62 283.537 825.691 285.961 824.51 286.893C823.329 287.826 819.408 289.411 813.172 288.292C806.936 287.173 804.432 280.833 803.959 277.803V140.733Z" stroke="#0033B6" stroke-width="2"/>
<path d="M636.4 470.234L720.117 553.222C702.165 571.404 665.596 608.562 663.329 610.8C661.061 613.038 658.132 615.462 656.951 616.394C655.77 617.327 651.848 618.912 645.612 617.793C639.376 616.674 636.872 610.334 636.4 607.304V470.234Z" stroke="#0033B6" stroke-width="2"/>
<path d="M971.518 470.234L1055.24 553.222C1037.28 571.404 1000.71 608.562 998.447 610.8C996.179 613.038 993.25 615.462 992.069 616.394C990.888 617.327 986.966 618.912 980.73 617.793C974.494 616.674 971.99 610.334 971.518 607.304V470.234Z" stroke="#0033B6" stroke-width="2"/>
<path d="M636.4 140.733L720.117 223.721C702.165 241.903 665.596 279.061 663.329 281.299C661.061 283.537 658.132 285.961 656.951 286.893C655.77 287.826 651.848 289.411 645.612 288.292C639.376 287.173 636.872 280.833 636.4 277.803V140.733Z" stroke="#0033B6" stroke-width="2"/>
<path d="M971.518 140.733L1055.24 223.721C1037.28 241.903 1000.71 279.061 998.447 281.299C996.179 283.537 993.25 285.961 992.069 286.893C990.888 287.826 986.966 289.411 980.73 288.292C974.494 287.173 971.99 280.833 971.518 277.803V140.733Z" stroke="#0033B6" stroke-width="2"/>
<path d="M468.841 470.269L385 389.857C402.979 371.662 439.964 335.299 442.235 333.059C444.506 330.82 447.24 327.859 448.422 326.926C449.605 325.993 453.37 324.29 459.615 325.409C465.861 326.529 468.368 332.874 468.841 335.906V470.269Z" stroke="#0033B6" stroke-width="2"/>
<path d="M803.958 470.269L720.117 389.857C738.096 371.662 775.081 335.299 777.352 333.059C779.623 330.82 782.357 327.859 783.54 326.926C784.722 325.993 788.487 324.29 794.732 325.409C800.978 326.529 803.485 332.874 803.958 335.906V470.269Z" stroke="#0033B6" stroke-width="2"/>
<path d="M468.841 140.767L385 60.355C402.979 42.16 439.964 5.79679 442.235 3.55742C444.506 1.31804 447.24 -1.64315 448.422 -2.57622C449.605 -3.50929 453.37 -5.21224 459.615 -4.09255C465.861 -2.97286 468.368 3.37204 468.841 6.40452V140.767Z" stroke="#0033B6" stroke-width="2"/>
<path d="M803.958 140.767L720.117 60.355C738.096 42.16 775.081 5.79679 777.352 3.55742C779.623 1.31804 782.357 -1.64315 783.54 -2.57622C784.722 -3.50929 788.487 -5.21224 794.732 -4.09255C800.978 -2.97286 803.485 3.37204 803.958 6.40452V140.767Z" stroke="#0033B6" stroke-width="2"/>
<path d="M636.4 470.269L552.559 389.857C570.538 371.662 607.522 335.299 609.793 333.059C612.064 330.82 614.798 327.859 615.981 326.926C617.164 325.993 620.929 324.29 627.174 325.409C633.419 326.529 635.927 332.874 636.4 335.906V470.269Z" stroke="#0033B6" stroke-width="2"/>
<path d="M971.518 470.269L887.677 389.857C905.656 371.662 942.641 335.299 944.912 333.059C947.183 330.82 949.916 327.859 951.099 326.926C952.282 325.993 956.047 324.29 962.292 325.409C968.537 326.529 971.045 332.874 971.518 335.906V470.269Z" stroke="#0033B6" stroke-width="2"/>
<path d="M636.4 140.767L552.559 60.355C570.538 42.16 607.522 5.79679 609.793 3.55742C612.064 1.31804 614.798 -1.64315 615.981 -2.57622C617.164 -3.50929 620.929 -5.21224 627.174 -4.09255C633.419 -2.97286 635.927 3.37204 636.4 6.40452V140.767Z" stroke="#0033B6" stroke-width="2"/>
<path d="M971.518 140.767L887.677 60.355C905.656 42.16 942.641 5.79679 944.912 3.55742C947.183 1.31804 949.916 -1.64315 951.099 -2.57622C952.282 -3.50929 956.047 -5.21224 962.292 -4.09255C968.537 -2.97286 971.045 3.37204 971.518 6.40452V140.767Z" stroke="#0033B6" stroke-width="2"/>
<path d="M552.621 470.269L468.779 389.857C486.758 371.662 523.743 335.299 526.014 333.059C528.285 330.82 531.019 327.859 532.202 326.926C533.384 325.993 537.149 324.29 543.395 325.409C549.64 326.529 552.147 332.874 552.621 335.906V470.269Z" stroke="#0033B6" stroke-width="2"/>
<path d="M887.739 470.269L803.897 389.857C821.876 371.662 858.861 335.299 861.132 333.059C863.403 330.82 866.137 327.859 867.32 326.926C868.503 325.993 872.267 324.29 878.513 325.409C884.758 326.529 887.266 332.874 887.739 335.906V470.269Z" stroke="#0033B6" stroke-width="2"/>
<path d="M552.621 140.767L468.779 60.355C486.758 42.16 523.743 5.79679 526.014 3.55742C528.285 1.31804 531.019 -1.64315 532.202 -2.57622C533.384 -3.50929 537.149 -5.21224 543.395 -4.09255C549.64 -2.97286 552.147 3.37204 552.621 6.40452V140.767Z" stroke="#0033B6" stroke-width="2"/>
<path d="M887.739 140.767L803.897 60.355C821.876 42.16 858.861 5.79679 861.132 3.55742C863.403 1.31804 866.137 -1.64315 867.32 -2.57622C868.503 -3.50929 872.267 -5.21224 878.513 -4.09255C884.758 -2.97286 887.266 3.37204 887.739 6.40452V140.767Z" stroke="#0033B6" stroke-width="2"/>
<path d="M720.179 470.269L636.338 389.857C654.317 371.662 691.302 335.299 693.573 333.059C695.844 330.82 698.577 327.859 699.76 326.926C700.943 325.993 704.708 324.29 710.953 325.409C717.198 326.529 719.706 332.874 720.179 335.906V470.269Z" stroke="#0033B6" stroke-width="2"/>
<path d="M1055.3 470.269L971.456 389.857C989.435 371.662 1026.42 335.299 1028.69 333.059C1030.96 330.82 1033.7 327.859 1034.88 326.926C1036.06 325.993 1039.83 324.29 1046.07 325.409C1052.32 326.529 1054.82 332.874 1055.3 335.906V470.269Z" stroke="#0033B6" stroke-width="2"/>
<path d="M720.179 140.767L636.338 60.355C654.317 42.16 691.302 5.79679 693.573 3.55742C695.844 1.31804 698.577 -1.64315 699.76 -2.57622C700.943 -3.50929 704.708 -5.21224 710.953 -4.09255C717.198 -2.97286 719.706 3.37204 720.179 6.40452V140.767Z" stroke="#0033B6" stroke-width="2"/>
<path d="M1055.3 140.767L971.456 60.355C989.435 42.16 1026.42 5.79679 1028.69 3.55742C1030.96 1.31804 1033.7 -1.64315 1034.88 -2.57622C1036.06 -3.50929 1039.83 -5.21224 1046.07 -4.09255C1052.32 -2.97286 1054.82 3.37204 1055.3 6.40452V140.767Z" stroke="#0033B6" stroke-width="2"/>
<path d="M385.062 305.5L468.779 388.488C450.827 406.67 414.258 443.828 411.991 446.066C409.723 448.303 406.794 450.728 405.613 451.66C404.432 452.592 400.51 454.177 394.274 453.059C388.038 451.94 385.534 445.599 385.062 442.569V305.5Z" stroke="#0033B6" stroke-width="2"/>
<path d="M720.18 305.5L803.897 388.488C785.945 406.67 749.376 443.828 747.109 446.066C744.841 448.303 741.912 450.728 740.731 451.66C739.55 452.592 735.629 454.177 729.392 453.059C723.156 451.94 720.652 445.599 720.18 442.569V305.5Z" stroke="#0033B6" stroke-width="2"/>
<path d="M385.062 -23.9982L468.779 58.99C450.827 77.1715 414.258 114.33 411.991 116.568C409.723 118.805 406.794 121.23 405.613 122.162C404.432 123.094 400.51 124.679 394.274 123.56C388.038 122.442 385.534 116.101 385.062 113.071V-23.9982Z" stroke="#0033B6" stroke-width="2"/>
<path d="M720.18 -23.9982L803.897 58.99C785.945 77.1715 749.376 114.33 747.109 116.568C744.841 118.805 741.912 121.23 740.731 122.162C739.55 123.094 735.629 124.679 729.392 123.56C723.156 122.442 720.652 116.101 720.18 113.071V-23.9982Z" stroke="#0033B6" stroke-width="2"/>
<path d="M552.62 305.5L636.338 388.488C618.385 406.67 581.817 443.828 579.549 446.066C577.282 448.303 574.352 450.728 573.171 451.66C571.99 452.592 568.069 454.177 561.833 453.059C555.597 451.94 553.093 445.599 552.62 442.569V305.5Z" stroke="#0033B6" stroke-width="2"/>
<path d="M887.739 305.5L971.456 388.488C953.504 406.67 916.935 443.828 914.667 446.066C912.4 448.303 909.471 450.728 908.29 451.66C907.108 452.592 903.187 454.177 896.951 453.059C890.715 451.94 888.211 445.599 887.739 442.569V305.5Z" stroke="#0033B6" stroke-width="2"/>
<path d="M552.62 -23.9982L636.338 58.99C618.385 77.1715 581.817 114.33 579.549 116.568C577.282 118.805 574.352 121.23 573.171 122.162C571.99 123.094 568.069 124.679 561.833 123.56C555.597 122.442 553.093 116.101 552.62 113.071V-23.9982Z" stroke="#0033B6" stroke-width="2"/>
<path d="M887.739 -23.9982L971.456 58.99C953.504 77.1715 916.935 114.33 914.667 116.568C912.4 118.805 909.471 121.23 908.29 122.162C907.108 123.094 903.187 124.679 896.951 123.56C890.715 122.442 888.211 116.101 887.739 113.071V-23.9982Z" stroke="#0033B6" stroke-width="2"/>
<path d="M468.841 305.5L552.559 388.488C534.606 406.67 498.038 443.828 495.77 446.066C493.502 448.303 490.573 450.728 489.392 451.66C488.211 452.592 484.29 454.177 478.054 453.059C471.817 451.94 469.314 445.599 468.841 442.569V305.5Z" stroke="#0033B6" stroke-width="2"/>
<path d="M803.959 305.5L887.677 388.488C869.724 406.67 833.156 443.828 830.888 446.066C828.62 448.303 825.691 450.728 824.51 451.66C823.329 452.592 819.408 454.177 813.172 453.059C806.936 451.94 804.432 445.599 803.959 442.569V305.5Z" stroke="#0033B6" stroke-width="2"/>
<path d="M468.841 -23.9982L552.559 58.99C534.606 77.1715 498.038 114.33 495.77 116.568C493.502 118.805 490.573 121.23 489.392 122.162C488.211 123.094 484.29 124.679 478.054 123.56C471.817 122.442 469.314 116.101 468.841 113.071V-23.9982Z" stroke="#0033B6" stroke-width="2"/>
<path d="M803.959 -23.9982L887.677 58.99C869.724 77.1715 833.156 114.33 830.888 116.568C828.62 118.805 825.691 121.23 824.51 122.162C823.329 123.094 819.408 124.679 813.172 123.56C806.936 122.442 804.432 116.101 803.959 113.071V-23.9982Z" stroke="#0033B6" stroke-width="2"/>
<path d="M636.4 305.5L720.117 388.488C702.165 406.67 665.596 443.828 663.329 446.066C661.061 448.303 658.132 450.728 656.951 451.66C655.77 452.592 651.848 454.177 645.612 453.059C639.376 451.94 636.872 445.599 636.4 442.569V305.5Z" stroke="#0033B6" stroke-width="2"/>
<path d="M971.518 305.5L1055.24 388.488C1037.28 406.67 1000.71 443.828 998.447 446.066C996.179 448.303 993.25 450.728 992.069 451.66C990.888 452.592 986.966 454.177 980.73 453.059C974.494 451.94 971.99 445.599 971.518 442.569V305.5Z" stroke="#0033B6" stroke-width="2"/>
<path d="M636.4 -23.9982L720.117 58.99C702.165 77.1715 665.596 114.33 663.329 116.568C661.061 118.805 658.132 121.23 656.951 122.162C655.77 123.094 651.848 124.679 645.612 123.56C639.376 122.442 636.872 116.101 636.4 113.071V-23.9982Z" stroke="#0033B6" stroke-width="2"/>
<path d="M971.518 -23.9982L1055.24 58.99C1037.28 77.1715 1000.71 114.33 998.447 116.568C996.179 118.805 993.25 121.23 992.069 122.162C990.888 123.094 986.966 124.679 980.73 123.56C974.494 122.442 971.99 116.101 971.518 113.071V-23.9982Z" stroke="#0033B6" stroke-width="2"/>
<path d="M1138.84 634.999L1055 554.587C1072.98 536.392 1109.96 500.029 1112.23 497.79C1114.51 495.55 1117.24 492.589 1118.42 491.656C1119.61 490.723 1123.37 489.02 1129.62 490.14C1135.86 491.26 1138.37 497.604 1138.84 500.637V634.999Z" stroke="#0033B6" stroke-width="2"/>
<path d="M1473.96 634.999L1390.12 554.587C1408.1 536.392 1445.08 500.029 1447.35 497.79C1449.62 495.55 1452.36 492.589 1453.54 491.656C1454.72 490.723 1458.49 489.02 1464.73 490.14C1470.98 491.26 1473.49 497.604 1473.96 500.637V634.999Z" stroke="#0033B6" stroke-width="2"/>
<path d="M1138.84 305.501L1055 225.089C1072.98 206.894 1109.96 170.531 1112.23 168.292C1114.51 166.052 1117.24 163.091 1118.42 162.158C1119.61 161.225 1123.37 159.522 1129.62 160.642C1135.86 161.762 1138.37 168.106 1138.84 171.139V305.501Z" stroke="#0033B6" stroke-width="2"/>
<path d="M1473.96 305.499L1390.12 225.086C1408.1 206.891 1445.08 170.528 1447.35 168.289C1449.62 166.049 1452.36 163.088 1453.54 162.155C1454.72 161.222 1458.49 159.519 1464.73 160.639C1470.98 161.759 1473.49 168.103 1473.96 171.136V305.499Z" stroke="#0033B6" stroke-width="2"/>
<path d="M1306.4 634.999L1222.56 554.587C1240.54 536.392 1277.52 500.029 1279.79 497.79C1282.06 495.55 1284.8 492.589 1285.98 491.656C1287.16 490.723 1290.93 489.02 1297.17 490.14C1303.42 491.26 1305.93 497.604 1306.4 500.637V634.999Z" stroke="#0033B6" stroke-width="2"/>
<path d="M1306.4 305.499L1222.56 225.086C1240.54 206.891 1277.52 170.528 1279.79 168.289C1282.06 166.049 1284.8 163.088 1285.98 162.155C1287.16 161.222 1290.93 159.519 1297.17 160.639C1303.42 161.759 1305.93 168.103 1306.4 171.136V305.499Z" stroke="#0033B6" stroke-width="2"/>
<path d="M1222.62 634.999L1138.78 554.587C1156.76 536.392 1193.74 500.029 1196.01 497.79C1198.29 495.55 1201.02 492.589 1202.2 491.656C1203.38 490.723 1207.15 489.02 1213.39 490.14C1219.64 491.26 1222.15 497.604 1222.62 500.637V634.999Z" stroke="#0033B6" stroke-width="2"/>
<path d="M1222.62 305.499L1138.78 225.086C1156.76 206.891 1193.74 170.528 1196.01 168.289C1198.29 166.049 1201.02 163.088 1202.2 162.155C1203.38 161.222 1207.15 159.519 1213.39 160.639C1219.64 161.759 1222.15 168.103 1222.62 171.136V305.499Z" stroke="#0033B6" stroke-width="2"/>
<path d="M1390.18 634.999L1306.34 554.587C1324.32 536.392 1361.3 500.029 1363.57 497.79C1365.84 495.55 1368.58 492.589 1369.76 491.656C1370.94 490.723 1374.71 489.02 1380.95 490.14C1387.2 491.26 1389.71 497.604 1390.18 500.637V634.999Z" stroke="#0033B6" stroke-width="2"/>
<path d="M1390.18 305.499L1306.34 225.086C1324.32 206.891 1361.3 170.528 1363.57 168.289C1365.84 166.049 1368.58 163.088 1369.76 162.155C1370.94 161.222 1374.71 159.519 1380.95 160.639C1387.2 161.759 1389.71 168.103 1390.18 171.136V305.499Z" stroke="#0033B6" stroke-width="2"/>
<path d="M1055.06 470.234L1138.78 553.222C1120.83 571.404 1084.26 608.562 1081.99 610.8C1079.72 613.038 1076.79 615.462 1075.61 616.394C1074.43 617.327 1070.51 618.912 1064.27 617.793C1058.04 616.674 1055.53 610.334 1055.06 607.304V470.234Z" stroke="#0033B6" stroke-width="2"/>
<path d="M1390.18 470.234L1473.9 553.222C1455.94 571.404 1419.38 608.562 1417.11 610.8C1414.84 613.038 1411.91 615.462 1410.73 616.394C1409.55 617.327 1405.63 618.912 1399.39 617.793C1393.16 616.674 1390.65 610.334 1390.18 607.304V470.234Z" stroke="#0033B6" stroke-width="2"/>
<path d="M1055.06 140.733L1138.78 223.721C1120.83 241.903 1084.26 279.061 1081.99 281.299C1079.72 283.537 1076.79 285.961 1075.61 286.893C1074.43 287.826 1070.51 289.411 1064.27 288.292C1058.04 287.173 1055.53 280.833 1055.06 277.803V140.733Z" stroke="#0033B6" stroke-width="2"/>
<path d="M1390.18 140.733L1473.9 223.721C1455.94 241.903 1419.38 279.061 1417.11 281.299C1414.84 283.537 1411.91 285.961 1410.73 286.893C1409.55 287.826 1405.63 289.411 1399.39 288.292C1393.16 287.173 1390.65 280.833 1390.18 277.803V140.733Z" stroke="#0033B6" stroke-width="2"/>
<path d="M1222.62 470.234L1306.34 553.222C1288.39 571.404 1251.82 608.562 1249.55 610.8C1247.28 613.038 1244.35 615.462 1243.17 616.394C1241.99 617.327 1238.07 618.912 1231.83 617.793C1225.6 616.674 1223.09 610.334 1222.62 607.304V470.234Z" stroke="#0033B6" stroke-width="2"/>
<path d="M1222.62 140.733L1306.34 223.721C1288.39 241.903 1251.82 279.061 1249.55 281.299C1247.28 283.537 1244.35 285.961 1243.17 286.893C1241.99 287.826 1238.07 289.411 1231.83 288.292C1225.6 287.173 1223.09 280.833 1222.62 277.803V140.733Z" stroke="#0033B6" stroke-width="2"/>
<path d="M1138.84 470.234L1222.56 553.222C1204.61 571.404 1168.04 608.562 1165.77 610.8C1163.5 613.038 1160.57 615.462 1159.39 616.394C1158.21 617.327 1154.29 618.912 1148.05 617.793C1141.82 616.674 1139.31 610.334 1138.84 607.304V470.234Z" stroke="#0033B6" stroke-width="2"/>
<path d="M1138.84 140.733L1222.56 223.721C1204.61 241.903 1168.04 279.061 1165.77 281.299C1163.5 283.537 1160.57 285.961 1159.39 286.893C1158.21 287.826 1154.29 289.411 1148.05 288.292C1141.82 287.173 1139.31 280.833 1138.84 277.803V140.733Z" stroke="#0033B6" stroke-width="2"/>
<path d="M1306.4 470.234L1390.12 553.222C1372.16 571.404 1335.6 608.562 1333.33 610.8C1331.06 613.038 1328.13 615.462 1326.95 616.394C1325.77 617.327 1321.85 618.912 1315.61 617.793C1309.38 616.674 1306.87 610.334 1306.4 607.304V470.234Z" stroke="#0033B6" stroke-width="2"/>
<path d="M1306.4 140.733L1390.12 223.721C1372.16 241.903 1335.6 279.061 1333.33 281.299C1331.06 283.537 1328.13 285.961 1326.95 286.893C1325.77 287.826 1321.85 289.411 1315.61 288.292C1309.38 287.173 1306.87 280.833 1306.4 277.803V140.733Z" stroke="#0033B6" stroke-width="2"/>
<path d="M1138.84 470.269L1055 389.857C1072.98 371.662 1109.96 335.299 1112.23 333.059C1114.51 330.82 1117.24 327.859 1118.42 326.926C1119.61 325.993 1123.37 324.29 1129.62 325.409C1135.86 326.529 1138.37 332.874 1138.84 335.906V470.269Z" stroke="#0033B6" stroke-width="2"/>
<path d="M1473.96 470.269L1390.12 389.857C1408.1 371.662 1445.08 335.299 1447.35 333.059C1449.62 330.82 1452.36 327.859 1453.54 326.926C1454.72 325.993 1458.49 324.29 1464.73 325.409C1470.98 326.529 1473.49 332.874 1473.96 335.906V470.269Z" stroke="#0033B6" stroke-width="2"/>
<path d="M1138.84 140.767L1055 60.355C1072.98 42.16 1109.96 5.79679 1112.23 3.55742C1114.51 1.31804 1117.24 -1.64315 1118.42 -2.57622C1119.61 -3.50929 1123.37 -5.21224 1129.62 -4.09255C1135.86 -2.97286 1138.37 3.37204 1138.84 6.40452V140.767Z" stroke="#0033B6" stroke-width="2"/>
<path d="M1473.96 140.767L1390.12 60.355C1408.1 42.16 1445.08 5.79679 1447.35 3.55742C1449.62 1.31804 1452.36 -1.64315 1453.54 -2.57622C1454.72 -3.50929 1458.49 -5.21224 1464.73 -4.09255C1470.98 -2.97286 1473.49 3.37204 1473.96 6.40452V140.767Z" stroke="#0033B6" stroke-width="2"/>
<path d="M1306.4 470.269L1222.56 389.857C1240.54 371.662 1277.52 335.299 1279.79 333.059C1282.06 330.82 1284.8 327.859 1285.98 326.926C1287.16 325.993 1290.93 324.29 1297.17 325.409C1303.42 326.529 1305.93 332.874 1306.4 335.906V470.269Z" stroke="#0033B6" stroke-width="2"/>
<path d="M1306.4 140.767L1222.56 60.355C1240.54 42.16 1277.52 5.79679 1279.79 3.55742C1282.06 1.31804 1284.8 -1.64315 1285.98 -2.57622C1287.16 -3.50929 1290.93 -5.21224 1297.17 -4.09255C1303.42 -2.97286 1305.93 3.37204 1306.4 6.40452V140.767Z" stroke="#0033B6" stroke-width="2"/>
<path d="M1222.62 470.269L1138.78 389.857C1156.76 371.662 1193.74 335.299 1196.01 333.059C1198.29 330.82 1201.02 327.859 1202.2 326.926C1203.38 325.993 1207.15 324.29 1213.39 325.409C1219.64 326.529 1222.15 332.874 1222.62 335.906V470.269Z" stroke="#0033B6" stroke-width="2"/>
<path d="M1222.62 140.767L1138.78 60.355C1156.76 42.16 1193.74 5.79679 1196.01 3.55742C1198.29 1.31804 1201.02 -1.64315 1202.2 -2.57622C1203.38 -3.50929 1207.15 -5.21224 1213.39 -4.09255C1219.64 -2.97286 1222.15 3.37204 1222.62 6.40452V140.767Z" stroke="#0033B6" stroke-width="2"/>
<path d="M1390.18 470.269L1306.34 389.857C1324.32 371.662 1361.3 335.299 1363.57 333.059C1365.84 330.82 1368.58 327.859 1369.76 326.926C1370.94 325.993 1374.71 324.29 1380.95 325.409C1387.2 326.529 1389.71 332.874 1390.18 335.906V470.269Z" stroke="#0033B6" stroke-width="2"/>
<path d="M1390.18 140.767L1306.34 60.355C1324.32 42.16 1361.3 5.79679 1363.57 3.55742C1365.84 1.31804 1368.58 -1.64315 1369.76 -2.57622C1370.94 -3.50929 1374.71 -5.21224 1380.95 -4.09255C1387.2 -2.97286 1389.71 3.37204 1390.18 6.40452V140.767Z" stroke="#0033B6" stroke-width="2"/>
<path d="M1055.06 305.5L1138.78 388.488C1120.83 406.67 1084.26 443.828 1081.99 446.066C1079.72 448.303 1076.79 450.728 1075.61 451.66C1074.43 452.592 1070.51 454.177 1064.27 453.059C1058.04 451.94 1055.53 445.599 1055.06 442.569V305.5Z" stroke="#0033B6" stroke-width="2"/>
<path d="M1390.18 305.5L1473.9 388.488C1455.94 406.67 1419.38 443.828 1417.11 446.066C1414.84 448.303 1411.91 450.728 1410.73 451.66C1409.55 452.592 1405.63 454.177 1399.39 453.059C1393.16 451.94 1390.65 445.599 1390.18 442.569V305.5Z" stroke="#0033B6" stroke-width="2"/>
<path d="M1055.06 -23.9982L1138.78 58.99C1120.83 77.1715 1084.26 114.33 1081.99 116.568C1079.72 118.805 1076.79 121.23 1075.61 122.162C1074.43 123.094 1070.51 124.679 1064.27 123.56C1058.04 122.442 1055.53 116.101 1055.06 113.071V-23.9982Z" stroke="#0033B6" stroke-width="2"/>
<path d="M1390.18 -23.9982L1473.9 58.99C1455.94 77.1715 1419.38 114.33 1417.11 116.568C1414.84 118.805 1411.91 121.23 1410.73 122.162C1409.55 123.094 1405.63 124.679 1399.39 123.56C1393.16 122.442 1390.65 116.101 1390.18 113.071V-23.9982Z" stroke="#0033B6" stroke-width="2"/>
<path d="M1222.62 305.5L1306.34 388.488C1288.39 406.67 1251.82 443.828 1249.55 446.066C1247.28 448.303 1244.35 450.728 1243.17 451.66C1241.99 452.592 1238.07 454.177 1231.83 453.059C1225.6 451.94 1223.09 445.599 1222.62 442.569V305.5Z" stroke="#0033B6" stroke-width="2"/>
<path d="M1222.62 -23.9982L1306.34 58.99C1288.39 77.1715 1251.82 114.33 1249.55 116.568C1247.28 118.805 1244.35 121.23 1243.17 122.162C1241.99 123.094 1238.07 124.679 1231.83 123.56C1225.6 122.442 1223.09 116.101 1222.62 113.071V-23.9982Z" stroke="#0033B6" stroke-width="2"/>
<path d="M1138.84 305.5L1222.56 388.488C1204.61 406.67 1168.04 443.828 1165.77 446.066C1163.5 448.303 1160.57 450.728 1159.39 451.66C1158.21 452.592 1154.29 454.177 1148.05 453.059C1141.82 451.94 1139.31 445.599 1138.84 442.569V305.5Z" stroke="#0033B6" stroke-width="2"/>
<path d="M1138.84 -23.9982L1222.56 58.99C1204.61 77.1715 1168.04 114.33 1165.77 116.568C1163.5 118.805 1160.57 121.23 1159.39 122.162C1158.21 123.094 1154.29 124.679 1148.05 123.56C1141.82 122.442 1139.31 116.101 1138.84 113.071V-23.9982Z" stroke="#0033B6" stroke-width="2"/>
<path d="M1306.4 305.5L1390.12 388.488C1372.16 406.67 1335.6 443.828 1333.33 446.066C1331.06 448.303 1328.13 450.728 1326.95 451.66C1325.77 452.592 1321.85 454.177 1315.61 453.059C1309.38 451.94 1306.87 445.599 1306.4 442.569V305.5Z" stroke="#0033B6" stroke-width="2"/>
<path d="M1306.4 -23.9982L1390.12 58.99C1372.16 77.1715 1335.6 114.33 1333.33 116.568C1331.06 118.805 1328.13 121.23 1326.95 122.162C1325.77 123.094 1321.85 124.679 1315.61 123.56C1309.38 122.442 1306.87 116.101 1306.4 113.071V-23.9982Z" stroke="#0033B6" stroke-width="2"/>
</svg>
