<svg width="64" height="64" viewBox="0 0 64 64" fill="none" xmlns="http://www.w3.org/2000/svg">
<path d="M18.5237 33.2627C19.0893 33.2627 19.3704 33.9268 18.9669 34.3106L16.2437 36.9034L12.4824 40.6049V33.2627H18.5237Z" fill="#1613BA"/>
<path d="M32.1115 12.5713H16.0332C12.2276 12.5713 9.14258 15.6563 9.14258 19.4619V27.9604C9.14258 31.766 12.2276 34.851 16.0332 34.851H32.1115C35.917 34.851 39.0021 31.766 39.0021 27.9604V19.4619C39.0021 15.6563 35.917 12.5713 32.1115 12.5713Z" fill="url(#paint0_linear_1133_71530)"/>
<path d="M30.7198 22.6582H46.798C51.2487 22.6582 54.8567 26.2662 54.8567 30.7169V39.2151C54.8567 43.6657 51.2487 47.2737 46.798 47.2737H30.7198C26.2691 47.2737 22.6611 43.6657 22.6611 39.2151V30.7169C22.6611 26.2662 26.2691 22.6582 30.7198 22.6582Z" fill="url(#paint1_linear_1133_71530)"/>
<path d="M43.151 44.9434C42.5853 44.9434 42.3043 45.6075 42.7078 45.9913L45.4311 48.5841L49.1923 52.2855V44.9434H43.151Z" fill="#F23202"/>
<defs>
<linearGradient id="paint0_linear_1133_71530" x1="15.8147" y1="12.5713" x2="15.8147" y2="34.851" gradientUnits="userSpaceOnUse">
<stop stop-color="#1859FF"/>
<stop offset="1" stop-color="#1611B8"/>
</linearGradient>
<linearGradient id="paint1_linear_1133_71530" x1="48.977" y1="23.8263" x2="48.977" y2="46.1057" gradientUnits="userSpaceOnUse">
<stop stop-color="#FF7F09"/>
<stop offset="1" stop-color="#F02C01"/>
</linearGradient>
</defs>
</svg>
