<svg width="64" height="64" viewBox="0 0 64 64" fill="none" xmlns="http://www.w3.org/2000/svg">
<path d="M32.576 44.4758H11.4283C10.1659 44.4758 9.14258 43.4555 9.14258 42.1966V12.5654C9.14258 11.3066 10.1659 10.2861 11.4283 10.2861H52.5712C53.8335 10.2861 54.8569 11.3066 54.8569 12.5654V42.1966C54.8569 43.4555 53.8335 44.4758 52.5712 44.4758H43.4283" fill="url(#paint0_linear_1133_71546)"/>
<path d="M18.3643 19.5068H45.6392" stroke="white" stroke-linecap="round" stroke-linejoin="round"/>
<path d="M18.3643 27.1895H31.8096" stroke="white" stroke-linecap="round" stroke-linejoin="round"/>
<path d="M18.3643 34.8721H26.0473" stroke="white" stroke-linecap="round" stroke-linejoin="round"/>
<path d="M42.1798 41.0197C46.2107 41.0197 49.4787 37.7517 49.4787 33.7208C49.4787 29.6899 46.2107 26.4219 42.1798 26.4219C38.1489 26.4219 34.8809 29.6899 34.8809 33.7208C34.8809 37.7517 38.1489 41.0197 42.1798 41.0197Z" fill="url(#paint1_linear_1133_71546)"/>
<mask id="mask0_1133_71546" style="mask-type:alpha" maskUnits="userSpaceOnUse" x="36" y="40" width="12" height="15">
<path d="M40.5046 52.5116C41.1696 50.8563 43.5206 50.8789 44.1537 52.5469C44.9262 54.5818 47.9445 54.0278 47.9445 51.8516V40.251C47.9445 40.251 46.3561 42.9324 42.3743 42.9324C38.3926 42.9324 36.4199 40.4431 36.4199 40.4431V51.9949C36.4199 54.2675 39.555 54.8737 40.4028 52.7651L40.5046 52.5116Z" fill="url(#paint2_linear_1133_71546)"/>
</mask>
<g mask="url(#mask0_1133_71546)">
<path d="M47.9445 49.4295C47.9445 50.2888 46.9019 50.7156 46.2992 50.1029L42.2299 45.9652L36.4199 40.251H47.9445V49.4295Z" fill="url(#paint3_linear_1133_71546)"/>
<path d="M36.4199 49.4295C36.4199 50.2888 37.4625 50.7156 38.0653 50.1029L42.1346 45.9652L47.9445 40.251H36.4199V49.4295Z" fill="url(#paint4_linear_1133_71546)"/>
</g>
<defs>
<linearGradient id="paint0_linear_1133_71546" x1="15.4811" y1="7.98121" x2="66.7656" y2="51.9668" gradientUnits="userSpaceOnUse">
<stop stop-color="#1859FF"/>
<stop offset="1" stop-color="#1611B8"/>
</linearGradient>
<linearGradient id="paint1_linear_1133_71546" x1="37.1842" y1="26.4219" x2="56.569" y2="47.0675" gradientUnits="userSpaceOnUse">
<stop stop-color="#FF7F09"/>
<stop offset="1" stop-color="#F02C01"/>
</linearGradient>
<linearGradient id="paint2_linear_1133_71546" x1="34.251" y1="36.3768" x2="53.2577" y2="53.9987" gradientUnits="userSpaceOnUse">
<stop stop-color="#FF7F09"/>
<stop offset="1" stop-color="#F02C01"/>
</linearGradient>
<linearGradient id="paint3_linear_1133_71546" x1="36.4199" y1="41.5955" x2="47.1762" y2="51.7756" gradientUnits="userSpaceOnUse">
<stop stop-color="#FF7F09"/>
<stop offset="1" stop-color="#F02C01"/>
</linearGradient>
<linearGradient id="paint4_linear_1133_71546" x1="36.4199" y1="41.5955" x2="47.1762" y2="51.7756" gradientUnits="userSpaceOnUse">
<stop stop-color="#FF7F09"/>
<stop offset="1" stop-color="#F02C01"/>
</linearGradient>
</defs>
</svg>
