<svg width="64" height="64" viewBox="0 0 64 64" fill="none" xmlns="http://www.w3.org/2000/svg">
<path d="M54.8571 16.6317C54.8571 15.3244 53.2716 14.6753 52.3549 15.6074L46.1653 21.9007L37.3281 30.5925H54.8571V16.6317Z" fill="url(#paint0_linear_1133_71535)"/>
<path d="M37.3281 16.6317C37.3281 15.3244 38.9137 14.6753 39.8304 15.6074L46.0199 21.9007L54.8572 30.5925H37.3281V16.6317Z" fill="url(#paint1_linear_1133_71535)"/>
<path d="M46.0192 17.1244C48.5388 17.1244 50.5814 15.0818 50.5814 12.5622C50.5814 10.0426 48.5388 8 46.0192 8C43.4996 8 41.457 10.0426 41.457 12.5622C41.457 15.0818 43.4996 17.1244 46.0192 17.1244Z" fill="url(#paint2_linear_1133_71535)"/>
<path d="M26.6716 16.6317C26.6716 15.3244 25.0861 14.6753 24.1694 15.6074L17.9798 21.9007L9.14258 30.5925H26.6716V16.6317Z" fill="url(#paint3_linear_1133_71535)"/>
<path d="M9.14258 16.6317C9.14258 15.3244 10.7281 14.6753 11.6448 15.6074L17.8345 21.9007L26.6717 30.5925H9.14258V16.6317Z" fill="url(#paint4_linear_1133_71535)"/>
<path d="M17.8366 17.1244C20.3562 17.1244 22.3988 15.0818 22.3988 12.5622C22.3988 10.0426 20.3562 8 17.8366 8C15.317 8 13.2744 10.0426 13.2744 12.5622C13.2744 15.0818 15.317 17.1244 17.8366 17.1244Z" fill="url(#paint5_linear_1133_71535)"/>
<path d="M41.4529 41.3805C41.4529 40.0734 39.8673 39.4245 38.9506 40.3563L32.7611 46.6497L23.9238 55.3415H41.4529V41.3805Z" fill="url(#paint6_linear_1133_71535)"/>
<path d="M23.9238 41.3805C23.9238 40.0734 25.5094 39.4245 26.4261 40.3563L32.6157 46.6497L41.4529 55.3415H23.9238V41.3805Z" fill="url(#paint7_linear_1133_71535)"/>
<path d="M32.6149 41.8714C35.1345 41.8714 37.1771 39.8289 37.1771 37.3092C37.1771 34.7896 35.1345 32.7471 32.6149 32.7471C30.0953 32.7471 28.0527 34.7896 28.0527 37.3092C28.0527 39.8289 30.0953 41.8714 32.6149 41.8714Z" fill="url(#paint8_linear_1133_71535)"/>
<defs>
<linearGradient id="paint0_linear_1133_71535" x1="43.4112" y1="17.6665" x2="54.8576" y2="35.324" gradientUnits="userSpaceOnUse">
<stop stop-color="#FF7F09"/>
<stop offset="1" stop-color="#F02C01"/>
</linearGradient>
<linearGradient id="paint1_linear_1133_71535" x1="43.4108" y1="17.6665" x2="54.8572" y2="35.3241" gradientUnits="userSpaceOnUse">
<stop stop-color="#FF7F09"/>
<stop offset="1" stop-color="#F02C01"/>
</linearGradient>
<linearGradient id="paint2_linear_1133_71535" x1="43.496" y1="8" x2="51.0756" y2="18.7125" gradientUnits="userSpaceOnUse">
<stop stop-color="#1859FF"/>
<stop offset="1" stop-color="#1611B8"/>
</linearGradient>
<linearGradient id="paint3_linear_1133_71535" x1="15.2255" y1="17.6665" x2="26.672" y2="35.3241" gradientUnits="userSpaceOnUse">
<stop stop-color="#FF7F09"/>
<stop offset="1" stop-color="#F02C01"/>
</linearGradient>
<linearGradient id="paint4_linear_1133_71535" x1="15.2252" y1="17.6665" x2="26.6718" y2="35.3241" gradientUnits="userSpaceOnUse">
<stop stop-color="#FF7F09"/>
<stop offset="1" stop-color="#F02C01"/>
</linearGradient>
<linearGradient id="paint5_linear_1133_71535" x1="15.3133" y1="8" x2="22.893" y2="18.7125" gradientUnits="userSpaceOnUse">
<stop stop-color="#1859FF"/>
<stop offset="1" stop-color="#1611B8"/>
</linearGradient>
<linearGradient id="paint6_linear_1133_71535" x1="30.0069" y1="42.4155" x2="41.4532" y2="60.0731" gradientUnits="userSpaceOnUse">
<stop stop-color="#FF7F09"/>
<stop offset="1" stop-color="#F02C01"/>
</linearGradient>
<linearGradient id="paint7_linear_1133_71535" x1="30.0065" y1="42.4155" x2="41.4529" y2="60.0731" gradientUnits="userSpaceOnUse">
<stop stop-color="#FF7F09"/>
<stop offset="1" stop-color="#F02C01"/>
</linearGradient>
<linearGradient id="paint8_linear_1133_71535" x1="30.0917" y1="32.7471" x2="37.6713" y2="43.4597" gradientUnits="userSpaceOnUse">
<stop stop-color="#1859FF"/>
<stop offset="1" stop-color="#1611B8"/>
</linearGradient>
</defs>
</svg>
