<svg width="64" height="64" viewBox="0 0 64 64" fill="none" xmlns="http://www.w3.org/2000/svg">
<path d="M10.8389 54.9051V29.7148H29.0399V57.1726C24.3665 57.2146 14.6759 57.2734 13.2985 57.1726C11.9211 57.0719 11.0848 55.6192 10.8389 54.9051Z" fill="url(#paint0_linear_1133_71551)"/>
<path d="M53.5888 54.9051V29.7148H35.3877V57.1726C40.0611 57.2146 49.7517 57.2734 51.1291 57.1726C52.5064 57.0719 53.3428 55.6192 53.5888 54.9051Z" fill="url(#paint1_linear_1133_71551)"/>
<path d="M54.8569 24.6353H9.14258V19.5077C9.14258 18.3509 10.8018 17.1852 11.6313 16.7471H51.7132C53.5993 16.7471 54.5949 18.237 54.8569 18.982V24.6353Z" fill="url(#paint2_linear_1133_71551)"/>
<path d="M37.9285 7.8824C37.9285 6.96698 36.8182 6.51246 36.1761 7.16511L31.8417 11.572L25.6533 17.6587H37.9285V7.8824Z" fill="url(#paint3_linear_1133_71551)"/>
<path d="M25.6533 7.8824C25.6533 6.96698 26.7636 6.51246 27.4057 7.16511L31.7401 11.572L37.9285 17.6587H25.6533V7.8824Z" fill="url(#paint4_linear_1133_71551)"/>
<defs>
<linearGradient id="paint0_linear_1133_71551" x1="13.7108" y1="29.7148" x2="40.6683" y2="58.4205" gradientUnits="userSpaceOnUse">
<stop stop-color="#FF7F09"/>
<stop offset="1" stop-color="#F02C01"/>
</linearGradient>
<linearGradient id="paint1_linear_1133_71551" x1="27.0249" y1="29.7148" x2="51.3551" y2="56.6516" gradientUnits="userSpaceOnUse">
<stop stop-color="#FF7F09"/>
<stop offset="1" stop-color="#F02C01"/>
</linearGradient>
<linearGradient id="paint2_linear_1133_71551" x1="22.8992" y1="11.9369" x2="48.931" y2="26.5401" gradientUnits="userSpaceOnUse">
<stop stop-color="#1859FF"/>
<stop offset="0.989359" stop-color="#1611B8"/>
</linearGradient>
<linearGradient id="paint3_linear_1133_71551" x1="22.902" y1="11.9368" x2="48.9338" y2="26.54" gradientUnits="userSpaceOnUse">
<stop stop-color="#1859FF"/>
<stop offset="0.989359" stop-color="#1611B8"/>
</linearGradient>
<linearGradient id="paint4_linear_1133_71551" x1="22.902" y1="11.9368" x2="48.9338" y2="26.54" gradientUnits="userSpaceOnUse">
<stop stop-color="#1859FF"/>
<stop offset="0.989359" stop-color="#1611B8"/>
</linearGradient>
</defs>
</svg>
