<svg width="64" height="64" viewBox="0 0 64 64" fill="none" xmlns="http://www.w3.org/2000/svg">
<path d="M9.14258 36.1991V49.9325C11.3728 48.8173 16.291 46.5872 18.1221 46.5872C20.411 46.5872 35.5529 53.9821 36.7854 53.806C38.0179 53.63 53.8641 44.2983 54.3923 43.594C54.9206 42.8898 55.0966 42.5376 54.3923 40.953C53.8289 39.6853 52.0446 39.7205 51.2231 39.8966C48.5233 41.0703 42.7366 43.594 41.1872 44.2983C39.6378 45.0026 37.607 44.8265 36.7854 44.6504C36.9027 44.5328 37.3841 44.1575 38.3701 43.594C39.356 43.0306 38.781 41.2463 38.3701 40.4248C32.9119 37.901 21.5378 32.8186 19.7067 32.6777C17.8756 32.5369 11.901 34.9666 9.14258 36.1991Z" fill="url(#paint0_linear_1133_71541)"/>
<path d="M51.7147 12.8732C51.8658 12.2343 51.1654 11.7341 50.61 12.0839L46.8583 14.4458L41.5361 17.6747L50.104 19.6971L51.7147 12.8732Z" fill="url(#paint1_linear_1133_71541)"/>
<path opacity="0.8" d="M43.1468 10.8515C43.2975 10.2125 44.1476 10.0782 44.4881 10.6395L46.7876 14.4296L50.104 19.6977L41.5361 17.6754L43.1468 10.8515Z" fill="url(#paint2_linear_1133_71541)"/>
<path d="M49.8394 32.8143C50.018 32.3115 49.4968 31.8453 49.0168 32.0784L45.7758 33.6538L41.1885 35.7903L47.9319 38.1852L49.8394 32.8143Z" fill="url(#paint3_linear_1133_71541)"/>
<path opacity="0.8" d="M43.0956 30.4186C43.2745 29.9154 43.9732 29.8822 44.1985 30.3661L45.7198 33.6329L47.9319 38.1842L41.1885 35.7893L43.0956 30.4186Z" fill="url(#paint4_linear_1133_71541)"/>
<path d="M23.4477 21.0668C23.253 20.2413 24.1573 19.5952 24.875 20.0473L29.7211 23.0982L36.5959 27.269L25.5285 29.8811L23.4477 21.0668Z" fill="url(#paint5_linear_1133_71541)"/>
<path opacity="0.8" d="M34.5143 18.455C34.3195 17.6296 33.2216 17.456 32.7818 18.1811L29.8118 23.0768L25.5273 29.8819L36.5951 27.2694L34.5143 18.455Z" fill="url(#paint6_linear_1133_71541)"/>
<defs>
<linearGradient id="paint0_linear_1133_71541" x1="21.1153" y1="28.4461" x2="36.0812" y2="60.4907" gradientUnits="userSpaceOnUse">
<stop stop-color="#1859FF"/>
<stop offset="1" stop-color="#1611B8"/>
</linearGradient>
<linearGradient id="paint1_linear_1133_71541" x1="50.5319" y1="11.8387" x2="48.7521" y2="19.378" gradientUnits="userSpaceOnUse">
<stop stop-color="#FF7F09"/>
<stop offset="1" stop-color="#F02C01"/>
</linearGradient>
<linearGradient id="paint2_linear_1133_71541" x1="45.2304" y1="10.588" x2="43.4507" y2="18.1272" gradientUnits="userSpaceOnUse">
<stop stop-color="#1859FF"/>
<stop offset="1" stop-color="#1611B8"/>
</linearGradient>
<linearGradient id="paint3_linear_1133_71541" x1="48.9753" y1="31.8734" x2="46.8678" y2="37.8073" gradientUnits="userSpaceOnUse">
<stop stop-color="#FF7F09"/>
<stop offset="1" stop-color="#F02C01"/>
</linearGradient>
<linearGradient id="paint4_linear_1133_71541" x1="44.8028" y1="30.3904" x2="42.6953" y2="36.3242" gradientUnits="userSpaceOnUse">
<stop stop-color="#1859FF"/>
<stop offset="1" stop-color="#1611B8"/>
</linearGradient>
<linearGradient id="paint5_linear_1133_71541" x1="24.976" y1="19.7304" x2="27.2748" y2="29.4691" gradientUnits="userSpaceOnUse">
<stop stop-color="#FF7F09"/>
<stop offset="1" stop-color="#F02C01"/>
</linearGradient>
<linearGradient id="paint6_linear_1133_71541" x1="31.8232" y1="18.1145" x2="34.122" y2="27.8532" gradientUnits="userSpaceOnUse">
<stop stop-color="#1859FF"/>
<stop offset="1" stop-color="#1611B8"/>
</linearGradient>
</defs>
</svg>
