<svg width="64" height="64" viewBox="0 0 64 64" fill="none" xmlns="http://www.w3.org/2000/svg">
<path d="M20.0347 50.7957C19.5174 51.3216 18.6227 50.9551 18.6231 50.2175L18.6242 45.2361L18.5098 38.2422L25.5607 45.1803L20.0347 50.7957Z" fill="url(#paint0_linear_1133_71525)"/>
<path d="M17.5732 25.1879C12.9499 26.8196 10.0491 30.2642 9.14258 31.9868H23.5563L20.5645 37.6976L26.2757 43.4088L31.9869 40.6894V55.1027C33.5279 53.471 35.794 52.1113 38.2415 47.7599C39.3953 45.709 40.5987 40.0544 40.9613 37.4257C44.7685 33.0746 46.5322 31.634 48.5265 28.6423C50.1441 26.2159 50.6313 25.2051 51.95 22.4701L51.9843 22.3986C53.1885 19.9015 55.1027 10.7743 54.8307 9.14258C51.5674 9.14258 45.0467 11.0434 40.1455 13.2219C35.2502 15.3975 29.1764 20.5645 26.2757 23.2843C25.1879 23.2843 21.7164 23.7254 17.5732 25.1879Z" fill="url(#paint1_linear_1133_71525)"/>
<path d="M12.9827 43.8577C12.4652 44.3836 12.8461 45.2721 13.5837 45.26L18.5644 45.1787L25.5595 45.1803L18.5085 38.2422L12.9827 43.8577Z" fill="url(#paint2_linear_1133_71525)"/>
<path d="M42.1572 25.5526C44.2071 25.5526 45.869 23.8908 45.869 21.8408C45.869 19.7908 44.2071 18.1289 42.1572 18.1289C40.1072 18.1289 38.4453 19.7908 38.4453 21.8408C38.4453 23.8908 40.1072 25.5526 42.1572 25.5526Z" fill="white"/>
<defs>
<linearGradient id="paint0_linear_1133_71525" x1="18.3429" y1="50.2897" x2="24.448" y2="44.0855" gradientUnits="userSpaceOnUse">
<stop stop-color="#FF7F09"/>
<stop offset="1" stop-color="#F02C01"/>
</linearGradient>
<linearGradient id="paint1_linear_1133_71525" x1="32.2588" y1="13.2219" x2="36.3379" y2="46.944" gradientUnits="userSpaceOnUse">
<stop stop-color="#1859FF"/>
<stop offset="1" stop-color="#1611B8"/>
</linearGradient>
<linearGradient id="paint2_linear_1133_71525" x1="13.5159" y1="45.5413" x2="19.621" y2="39.3367" gradientUnits="userSpaceOnUse">
<stop stop-color="#FF7F09"/>
<stop offset="1" stop-color="#F02C01"/>
</linearGradient>
</defs>
</svg>
