<svg width="47" height="40" viewBox="0 0 47 40" fill="none" xmlns="http://www.w3.org/2000/svg">
<path d="M46.25 3.79578C46.25 0.405702 42.0666 -1.2775 39.648 1.13945L23.3169 17.4595L0 40H46.25V3.79578Z" fill="url(#paint0_linear_1133_71485)"/>
<path d="M30.5469 15.4395C30.5469 23.8747 23.7087 30.7129 15.2734 30.7129C6.83815 30.7129 0 23.8747 0 15.4395C0 7.00417 6.83815 0.166016 15.2734 0.166016C23.7087 0.166016 30.5469 7.00417 30.5469 15.4395Z" fill="url(#paint1_linear_1133_71485)"/>
<path fill-rule="evenodd" clip-rule="evenodd" d="M20.9378 16.659L9.58212 16.3587L9.65477 13.612L21.0104 13.9123L20.9378 16.659Z" fill="white"/>
<path fill-rule="evenodd" clip-rule="evenodd" d="M21.0441 12.6612L9.68843 12.3609L9.76108 9.6142L21.1167 9.91454L21.0441 12.6612Z" fill="white"/>
<path fill-rule="evenodd" clip-rule="evenodd" d="M13.4425 23.2036L13.657 15.0924L16.4038 15.1651L16.1892 23.2762L13.4425 23.2036Z" fill="white"/>
<defs>
<linearGradient id="paint0_linear_1133_71485" x1="38.9522" y1="-1.15964e-06" x2="38.9522" y2="40" gradientUnits="userSpaceOnUse">
<stop stop-color="#FF7F09"/>
<stop offset="1" stop-color="#F02C01"/>
</linearGradient>
<linearGradient id="paint1_linear_1133_71485" x1="6.82577" y1="0.166016" x2="6.82577" y2="30.7129" gradientUnits="userSpaceOnUse">
<stop stop-color="#1859FF"/>
<stop offset="1" stop-color="#1611B8"/>
</linearGradient>
</defs>
</svg>
