<svg width="32" height="32" viewBox="0 0 32 32" fill="none" xmlns="http://www.w3.org/2000/svg">
<path opacity="0.1" fill-rule="evenodd" clip-rule="evenodd" d="M0 16C0 7.16344 7.16344 0 16 0C24.8366 0 32 7.16344 32 16C32 24.8366 24.8366 32 16 32C7.16344 32 0 24.8366 0 16Z" fill="white"/>
<path fill-rule="evenodd" clip-rule="evenodd" d="M16.0029 7.4668C13.6853 7.4668 13.3945 7.47693 12.4843 7.51835C11.5758 7.55995 10.9557 7.70378 10.4131 7.9148C9.85189 8.13276 9.37579 8.42432 8.90148 8.89881C8.4268 9.37313 8.13525 9.84922 7.91658 10.4103C7.70502 10.9531 7.56102 11.5733 7.52013 12.4814C7.47942 13.3917 7.46875 13.6827 7.46875 16.0002C7.46875 18.3178 7.47906 18.6077 7.52031 19.5179C7.56208 20.4264 7.70591 21.0465 7.91675 21.5891C8.13489 22.1503 8.42645 22.6264 8.90094 23.1007C9.37508 23.5754 9.85117 23.8677 10.4121 24.0856C10.955 24.2967 11.5753 24.4405 12.4836 24.4821C13.3938 24.5235 13.6845 24.5336 16.0018 24.5336C18.3195 24.5336 18.6095 24.5235 19.5197 24.4821C20.4282 24.4405 21.049 24.2967 21.5919 24.0856C22.153 23.8677 22.6284 23.5754 23.1025 23.1007C23.5772 22.6264 23.8687 22.1503 24.0874 21.5893C24.2972 21.0465 24.4412 20.4262 24.4839 19.5181C24.5248 18.6079 24.5354 18.3178 24.5354 16.0002C24.5354 13.6827 24.5248 13.3918 24.4839 12.4816C24.4412 11.5732 24.2972 10.9531 24.0874 10.4105C23.8687 9.84922 23.5772 9.37313 23.1025 8.89881C22.6278 8.42414 22.1532 8.13258 21.5914 7.9148C21.0474 7.70378 20.4269 7.55995 19.5185 7.51835C18.6082 7.47693 18.3185 7.4668 16.0002 7.4668H16.0029ZM15.2373 9.00457C15.4645 9.00421 15.718 9.00457 16.0028 9.00457C18.2813 9.00457 18.5513 9.01274 19.4511 9.05363C20.2831 9.09168 20.7346 9.2307 21.0354 9.3475C21.4337 9.50217 21.7176 9.68706 22.0161 9.98573C22.3147 10.2844 22.4996 10.5688 22.6546 10.9671C22.7715 11.2675 22.9107 11.7191 22.9485 12.5511C22.9894 13.4507 22.9983 13.7209 22.9983 15.9982C22.9983 18.2756 22.9894 18.5458 22.9485 19.4454C22.9105 20.2774 22.7715 20.729 22.6546 21.0294C22.5 21.4276 22.3147 21.7112 22.0161 22.0097C21.7174 22.3084 21.4338 22.4932 21.0354 22.6479C20.735 22.7652 20.2831 22.9039 19.4511 22.942C18.5515 22.9828 18.2813 22.9917 16.0028 22.9917C13.7242 22.9917 13.4542 22.9828 12.5546 22.942C11.7226 22.9036 11.2711 22.7645 10.9701 22.6477C10.5719 22.4931 10.2874 22.3082 9.98874 22.0095C9.69007 21.7108 9.50518 21.4271 9.35016 21.0287C9.23335 20.7282 9.09415 20.2767 9.05629 19.4447C9.0154 18.5451 9.00722 18.2749 9.00722 15.9961C9.00722 13.7173 9.0154 13.4485 9.05629 12.549C9.09433 11.717 9.23335 11.2654 9.35016 10.9646C9.50482 10.5664 9.69007 10.2819 9.98874 9.98324C10.2874 9.68457 10.5719 9.49968 10.9701 9.34466C11.2709 9.22732 11.7226 9.08866 12.5546 9.05043C13.3418 9.01488 13.6469 9.00421 15.2373 9.00243V9.00457ZM20.5579 10.4215C19.9926 10.4215 19.5339 10.8796 19.5339 11.4451C19.5339 12.0105 19.9926 12.4691 20.5579 12.4691C21.1233 12.4691 21.5819 12.0105 21.5819 11.4451C21.5819 10.8798 21.1233 10.4215 20.5579 10.4215ZM16.0029 11.6179C13.5828 11.6179 11.6206 13.5801 11.6206 16.0002C11.6206 18.4203 13.5828 20.3816 16.0029 20.3816C18.423 20.3816 20.3845 18.4203 20.3845 16.0002C20.3845 13.5801 18.423 11.6179 16.0029 11.6179ZM16.0029 13.1557C17.5737 13.1557 18.8473 14.4292 18.8473 16.0002C18.8473 17.5711 17.5737 18.8447 16.0029 18.8447C14.4318 18.8447 13.1584 17.5711 13.1584 16.0002C13.1584 14.4292 14.4318 13.1557 16.0029 13.1557Z" fill="white"/>
</svg>
