<svg width="145" height="25" viewBox="0 0 145 25" fill="none" xmlns="http://www.w3.org/2000/svg">
<path d="M26.8945 2.36792C26.8945 0.359493 24.4618 -0.637699 23.0554 0.794198L13.5588 10.4628L0 23.8167H26.8945V2.36792Z" fill="url(#paint0_linear_1133_71705)"/>
<path d="M0.00195312 2.36792C0.00195312 0.359493 2.43462 -0.637699 3.84102 0.794198L13.3376 10.4628L26.8965 23.8167H0.00195312V2.36792Z" fill="white"/>
<path d="M55.4154 7.50355C57.2286 7.50355 58.7004 8.11229 59.8308 9.32976C60.9401 10.5045 61.4945 12.1065 61.4945 14.1356V23.9715H56.6952V14.5521C56.6952 13.7191 56.4927 13.0783 56.0873 12.6298C55.7034 12.1599 55.138 11.9249 54.3916 11.9249C53.6022 11.9249 52.9838 12.1919 52.5358 12.7259C52.1094 13.2599 51.8959 13.9968 51.8959 14.9366V23.9715H47.0966V14.5521C47.0966 13.7191 46.8941 13.0783 46.4887 12.6298C46.1048 12.1599 45.5394 11.9249 44.793 11.9249C44.0036 11.9249 43.3852 12.1919 42.9373 12.7259C42.5108 13.2599 42.2973 13.9968 42.2973 14.9366V23.9715H37.498V7.95209H42.2973V9.42588C43.1718 8.14433 44.601 7.50355 46.5847 7.50355C48.4404 7.50355 49.8377 8.2084 50.7761 9.61811C51.7574 8.2084 53.3037 7.50355 55.4154 7.50355ZM76.3897 9.45792V7.95209H81.189V23.9715H76.3897V22.4657C75.2804 23.7686 73.6912 24.4201 71.6224 24.4201C69.5107 24.4201 67.7081 23.6084 66.2152 21.9851C64.722 20.3618 63.9755 18.3541 63.9755 15.9618C63.9755 13.5909 64.722 11.5939 66.2152 9.97054C67.7295 8.32589 69.5318 7.50355 71.6224 7.50355C73.6912 7.50355 75.2804 8.15499 76.3897 9.45792ZM68.7748 15.9618C68.7748 17.1579 69.1268 18.1084 69.8307 18.8133C70.5346 19.5181 71.4515 19.8705 72.5823 19.8705C73.7126 19.8705 74.63 19.5181 75.3339 18.8133C76.0378 18.1084 76.3897 17.1579 76.3897 15.9618C76.3897 14.7657 76.0378 13.8152 75.3339 13.1103C74.63 12.4055 73.7126 12.0531 72.5823 12.0531C71.4515 12.0531 70.5346 12.4055 69.8307 13.1103C69.1268 13.8152 68.7748 14.7657 68.7748 15.9618ZM94.0845 15.9618L100.068 23.9715H94.6284L89.5091 16.8909V23.9715H84.7098V1.54432H89.5091V14.9686L94.3084 7.95209H99.9076L94.0845 15.9618ZM116.509 17.8841H105.151C105.684 19.3793 106.964 20.1269 108.991 20.1269C110.292 20.1269 111.316 19.721 112.062 18.9094L115.902 21.1201C114.344 23.3201 112.02 24.4201 108.927 24.4201C106.26 24.4201 104.106 23.6191 102.463 22.0171C100.864 20.4152 100.064 18.3968 100.064 15.9618C100.064 13.5696 100.853 11.5618 102.431 9.9385C104.031 8.31519 106.079 7.50355 108.575 7.50355C110.9 7.50355 112.83 8.31519 114.366 9.9385C115.923 11.5191 116.701 13.5269 116.701 15.9618C116.701 16.6453 116.637 17.2861 116.509 17.8841ZM105.055 14.2958H111.934C111.465 12.6084 110.334 11.7647 108.543 11.7647C106.687 11.7647 105.524 12.6084 105.055 14.2958ZM130.238 5.70937C129.683 6.2647 129.011 6.54238 128.222 6.54238C127.433 6.54238 126.75 6.2647 126.174 5.70937C125.62 5.13267 125.343 4.44919 125.343 3.65889C125.343 2.86858 125.62 2.19577 126.174 1.64044C126.75 1.06374 127.433 0.775391 128.222 0.775391C129.011 0.775391 129.683 1.06374 130.238 1.64044C130.814 2.19577 131.102 2.86858 131.102 3.65889C131.102 4.44919 130.814 5.13267 130.238 5.70937ZM130.622 23.9715H125.822V7.95209H130.622V23.9715ZM143.508 7.95209V12.5657H140.213V18.2366C140.213 18.856 140.458 19.2618 140.949 19.454C141.44 19.6249 142.293 19.6783 143.508 19.6142V23.9715C140.48 24.2919 138.368 24.0036 137.173 23.1065C136 22.188 135.414 20.5647 135.414 18.2366V12.5657H132.854V7.95209H135.414V4.9084L140.213 3.46665V7.95209H143.508Z" fill="white"/>
<defs>
<linearGradient id="paint0_linear_1133_71705" x1="22.6508" y1="0.119133" x2="22.6508" y2="23.8167" gradientUnits="userSpaceOnUse">
<stop stop-color="#FF7F09"/>
<stop offset="1" stop-color="#F02C01"/>
</linearGradient>
</defs>
</svg>
