<svg width="544" height="478" xmlns="http://www.w3.org/2000/svg">

 <g>
  <title>background</title>
  <rect fill="none" id="canvas_background" height="402" width="582" y="-1" x="-1"/>
 </g>
 <g>
  <title>Layer 1</title>
  <path id="svg_267" fill="#FF6109" d="m152.777,230.592c-2.419,-0.289 -4.538,1.627 -4.487,4.064c0.257,12.171 0.493,24.342 0.752,36.513c0.038,1.76 1.221,3.291 2.921,3.753c15.257,4.148 32.888,7.884 52.594,10.244c28.211,3.355 53.289,3 73.956,1.231c1.994,-0.17 3.536,-1.806 3.616,-3.806c0.502,-12.515 1.027,-25.007 1.53,-37.521c0.088,-2.208 -1.631,-4.069 -3.839,-4.161c-17.024,-0.713 -34.491,-1.735 -52.367,-3.065c-25.816,-1.946 -50.719,-4.386 -74.676,-7.252z" opacity="0.6"/>
  <g id="svg_268" opacity="0.3">
   <g id="svg_269" opacity="0.3">
    <path id="svg_270" fill="#FF6109" d="m153.16,237.049c22.3,4.86 44.997,7.648 67.814,8.325c0.755,0.04 0.755,-1.155 0,-1.195c-22.697,-0.677 -45.315,-3.425 -67.496,-8.285c-0.755,-0.159 -1.073,0.996 -0.318,1.155z" opacity="0.3"/>
   </g>
  </g>
  <g id="svg_271" opacity="0.3">
   <g id="svg_272" opacity="0.3">
    <path id="svg_273" fill="#FF6109" d="m154.154,245.215c10.215,3.067 20.67,5.099 31.283,6.134c0.755,0.08 0.755,-1.115 0,-1.195c-10.494,-1.035 -20.869,-3.067 -30.965,-6.094c-0.756,-0.239 -1.074,0.916 -0.318,1.155z" opacity="0.3"/>
   </g>
  </g>
  <g id="svg_274" opacity="0.3">
   <g id="svg_275" opacity="0.3">
    <path id="svg_276" fill="#FF6109" d="m184.96,276.801c27.905,4.262 56.246,8.484 84.509,5.258c0.755,-0.08 0.755,-1.275 0,-1.195c-28.183,3.226 -56.366,-0.956 -84.191,-5.219c-0.755,-0.119 -1.073,1.036 -0.318,1.156z" opacity="0.3"/>
   </g>
  </g>
  <g id="svg_277" opacity="0.3">
   <g id="svg_278" opacity="0.3">
    <path id="svg_279" fill="#FF6109" d="m228.406,274.811c14.31,2.589 28.859,3.226 43.328,1.832c0.755,-0.08 0.755,-1.275 0,-1.195c-14.35,1.354 -28.819,0.757 -43.01,-1.793c-0.755,-0.119 -1.073,0.996 -0.318,1.156z" opacity="0.3"/>
   </g>
  </g>
  <g id="svg_280" opacity="0.3">
   <g id="svg_281" opacity="0.3">
    <path id="svg_282" fill="#FF6109" d="m257.067,246.489c0.676,5.417 0.318,10.834 -1.034,16.132c-0.119,0.398 0.199,0.717 0.557,0.757c3.418,0.279 6.797,0.558 10.216,0.836c1.47,0.12 4.77,1.155 5.684,-0.478c0.477,-0.836 0.358,-2.27 0.437,-3.186c0.08,-1.434 0.119,-2.868 0.199,-4.302c0.159,-3.267 0.437,-6.493 1.471,-9.64c0.119,-0.358 -0.199,-0.797 -0.557,-0.757c-5.167,0.399 -10.295,0.16 -15.383,-0.717c-0.477,-0.079 -0.795,0.279 -0.716,0.717c0.08,0.478 0.08,0.478 0.358,0.877c0.437,0.637 1.471,0.039 1.034,-0.598c-0.08,-0.199 -0.159,-0.398 -0.239,-0.597c-0.238,0.239 -0.477,0.478 -0.715,0.717c5.207,0.916 10.414,1.155 15.701,0.756c-0.199,-0.239 -0.398,-0.517 -0.557,-0.756c-1.59,4.74 -1.431,9.679 -1.749,14.579c-0.039,0.438 0,1.752 -0.198,2.031c-0.438,0.598 -1.431,0.359 -1.988,0.319c-1.431,-0.12 -2.862,-0.239 -4.333,-0.359c-2.862,-0.239 -5.763,-0.478 -8.625,-0.717c0.198,0.239 0.397,0.518 0.556,0.757c1.391,-5.377 1.789,-10.914 1.073,-16.451c-0.079,-0.677 -1.272,-0.677 -1.192,0.08z" opacity="0.3"/>
   </g>
  </g>
 </g>
</svg>