<svg width="544" height="478" xmlns="http://www.w3.org/2000/svg">

 <g>
  <title>background</title>
  <rect fill="none" id="canvas_background" height="402" width="582" y="-1" x="-1"/>
 </g>
 <g>
  <title>Layer 1</title>
  <path id="svg_1" fill="#AEB0B8" d="m75.2505,423.629c50.5225,0 101.0845,0 151.6065,0c50.284,0 100.528,0 150.812,0c28.302,0 56.604,0 84.945,0c0.756,0 0.756,-1.195 0,-1.195c-50.522,0 -101.084,0 -151.606,0c-50.284,0 -100.528,0 -150.812,0c-28.302,0 -56.604,0 -84.9455,0c-0.795,0 -0.795,1.195 0,1.195z"/>
  <path id="svg_2" fill="#AEB0B8" d="m161.866,432.193c37.286,0 74.611,0 111.896,0c10.574,0 21.147,0 31.761,0c0.755,0 0.755,-1.195 0,-1.195c-37.286,0 -74.611,0 -111.897,0c-10.573,0 -21.147,0 -31.76,0c-0.755,0 -0.755,1.195 0,1.195z"/>
  <path id="svg_3" fill="#AEB0B8" d="m287.078,440.716c35.894,0 71.789,0 107.643,0c10.216,0 20.392,0 30.608,0c0.755,0 0.755,-1.195 0,-1.195c-35.895,0 -71.789,0 -107.643,0c-10.216,0 -20.392,0 -30.608,0c-0.755,0 -0.755,1.195 0,1.195z"/>
  <path id="svg_4" fill="#AEB0B8" d="m81.5308,433.984c15.105,0 30.2102,0 45.3152,0c0.755,0 0.755,-1.195 0,-1.195c-15.105,0 -30.2102,0 -45.3152,0c-0.795,0 -0.795,1.195 0,1.195z"/>
  <path id="svg_5" fill="#AEB0B8" d="m112.854,386.742c1.63,11.91 4.333,23.661 8.109,35.053c0.239,0.717 1.392,0.398 1.153,-0.319c-3.776,-11.432 -6.479,-23.143 -8.109,-35.053c-0.119,-0.757 -1.272,-0.438 -1.153,0.319z"/>
  <path id="svg_6" fill="#AEB0B8" d="m113.331,387.22c14.151,5.218 29.693,5.775 44.202,1.593c0.755,-0.199 0.437,-1.354 -0.318,-1.155c-14.31,4.143 -29.574,3.545 -43.566,-1.593c-0.715,-0.279 -1.033,0.876 -0.318,1.155z"/>
  <path id="svg_7" fill="#AEB0B8" d="m156.778,388.454c-0.915,11.592 -2.505,23.064 -4.85,34.456c-0.159,0.757 0.994,1.076 1.153,0.319c2.385,-11.472 4.015,-23.064 4.889,-34.775c0.08,-0.756 -1.113,-0.756 -1.192,0z"/>
  <path id="svg_8" fill="#AEB0B8" d="m125.932,389.291c-4.372,-3.705 -7.234,-8.724 -8.228,-14.38c-0.119,0.239 -0.278,0.478 -0.398,0.717c1.034,-0.239 1.829,-0.12 2.743,0.398c0.517,0.319 1.073,-0.318 0.835,-0.836c-0.676,-1.275 -1.312,-2.51 -1.988,-3.784c-0.318,-0.638 -0.675,-1.235 -0.993,-1.873c-0.517,-1.115 -1.034,-4.023 1.113,-3.585c0.477,0.08 0.834,-0.278 0.715,-0.717c-1.391,-6.97 -2.743,-14.061 -3.18,-21.151c-0.199,-3.266 -0.159,-6.612 0.596,-9.839c0.358,-1.553 0.875,-3.067 1.551,-4.501c0.476,-0.996 0.794,-2.231 2.384,-1.434c0.557,0.279 1.114,0.996 1.551,1.474c4.174,4.382 6.32,10.277 7.87,16.013c1.829,6.572 3.339,13.264 4.651,19.956c1.59,8.126 2.544,16.372 2.266,24.697c-0.04,0.757 1.152,0.757 1.192,0c0.278,-8.126 -0.676,-16.252 -2.186,-24.259c-1.431,-7.648 -3.14,-15.335 -5.406,-22.784c-1.789,-5.895 -4.412,-12.109 -9.341,-16.093c-4.611,-3.704 -6.281,9.52 -6.4,12.07c-0.358,8.683 1.55,17.686 3.26,26.17c0.238,-0.239 0.477,-0.478 0.715,-0.717c-1.749,-0.358 -3.1,0.956 -3.18,2.709c-0.04,1.274 0.636,2.469 1.193,3.545c0.834,1.593 1.629,3.147 2.464,4.74c0.278,-0.279 0.557,-0.558 0.835,-0.836c-1.193,-0.678 -2.345,-0.837 -3.657,-0.518c-0.318,0.079 -0.477,0.438 -0.398,0.717c1.034,5.815 4.015,11.073 8.507,14.897c0.676,0.518 1.51,-0.318 0.914,-0.796z"/>
  <path id="svg_9" fill="#AEB0B8" d="m136.743,366.348c-0.119,-4.342 1.908,-8.246 4.055,-11.91c2.106,-3.625 4.531,-7.051 7.194,-10.317c-0.318,-0.08 -0.675,-0.159 -0.993,-0.279c0.198,0.558 0.397,1.155 0.636,1.713c0.159,0.478 0.795,0.597 1.073,0.159c3.1,-4.581 6.439,-8.962 10.057,-13.145c-0.358,-0.159 -0.676,-0.279 -1.034,-0.438c0.159,5.736 -0.278,11.432 -1.431,17.049c-0.914,4.381 -1.828,11.312 -6.479,13.304c-0.596,0.279 -0.199,1.036 0.318,1.115c4.492,0.558 -0.358,9.321 -1.193,11.592c-1.868,5.059 -3.498,10.237 -5.088,15.376c-0.238,0.717 0.915,1.035 1.153,0.318c1.908,-6.054 3.776,-12.189 6.161,-18.084c0.676,-1.633 1.71,-3.266 2.067,-5.019c0.477,-2.43 -0.357,-5.059 -3.06,-5.378c0.119,0.359 0.198,0.757 0.318,1.116c4.611,-1.992 5.724,-8.206 6.717,-12.548c1.392,-6.174 1.988,-12.507 1.789,-18.841c0,-0.478 -0.676,-0.836 -1.033,-0.438c-3.657,4.262 -7.076,8.723 -10.256,13.384c0.358,0.04 0.716,0.08 1.073,0.159c-0.198,-0.557 -0.397,-1.155 -0.636,-1.713c-0.119,-0.398 -0.675,-0.637 -0.993,-0.278c-2.862,3.505 -5.486,7.209 -7.712,11.153c-2.107,3.665 -3.975,7.568 -3.856,11.91c-0.039,0.837 1.153,0.837 1.153,0.04z"/>
  <path id="svg_10" fill="#AEB0B8" d="m113.728,387.061c1.351,-0.439 2.902,0.159 4.253,0.358c1.511,0.199 3.021,0.319 4.532,0.359c0.755,0 0.755,-1.195 0,-1.195c-1.908,-0.04 -3.777,-0.2 -5.645,-0.558c-1.192,-0.199 -2.266,-0.518 -3.458,-0.12c-0.716,0.239 -0.437,1.395 0.318,1.156z"/>
  <path id="svg_11" fill="#AEB0B8" d="m145.647,388.655c3.896,0.08 7.792,0.239 11.647,0.478c0.756,0.04 0.756,-1.155 0,-1.195c-3.895,-0.239 -7.751,-0.398 -11.647,-0.478c-0.755,-0.04 -0.755,1.155 0,1.195z"/>
  <path id="svg_12" fill="#AEB0B8" d="m118.499,388.018c1.63,0.398 3.26,0.797 4.85,1.155c0.755,0.199 1.073,-0.956 0.318,-1.155c-1.63,-0.398 -3.26,-0.797 -4.85,-1.155c-0.755,-0.16 -1.073,0.996 -0.318,1.155z"/>
  <path id="svg_13" fill="#AEB0B8" d="m145.609,387.898c-0.914,0.199 -1.192,1.434 -0.278,1.872c0.874,0.398 2.663,-0.08 3.577,-0.119c1.391,-0.08 2.783,-0.2 4.174,-0.279c0.755,-0.04 0.755,-1.235 0,-1.195c-1.272,0.079 -2.584,0.159 -3.856,0.279c-0.596,0.039 -1.192,0.079 -1.789,0.119c-0.278,0.04 -0.596,0.04 -0.874,0.08c-0.517,-0.16 -0.715,0 -0.596,0.438c0.715,-0.199 0.397,-1.354 -0.358,-1.195z"/>
  <path id="svg_14" fill="#AEB0B8" d="m119.293,415.224c1.669,2.987 3.895,5.616 6.598,7.727c0.597,0.478 1.431,-0.358 0.835,-0.836c-2.623,-2.072 -4.77,-4.541 -6.4,-7.489c-0.357,-0.717 -1.391,-0.08 -1.033,0.598z"/>
  <path id="svg_15" fill="#AEB0B8" d="m114.962,398.493c5.763,9.241 12.918,17.487 21.306,24.458c0.596,0.478 1.431,-0.359 0.834,-0.837c-8.307,-6.891 -15.423,-15.017 -21.147,-24.218c-0.357,-0.678 -1.391,-0.08 -0.993,0.597z"/>
  <path id="svg_16" fill="#AEB0B8" d="m117.186,388.136c3.816,6.771 7.791,13.543 13.078,19.279c5.565,6.015 12.283,11.113 18.802,15.973c0.636,0.478 1.192,-0.597 0.596,-1.036c-6.479,-4.819 -13.078,-9.838 -18.563,-15.774c-5.208,-5.656 -9.103,-12.388 -12.879,-19.04c-0.398,-0.677 -1.431,-0.08 -1.034,0.598z"/>
  <path id="svg_17" fill="#AEB0B8" d="m128.872,390.845c6.201,9.839 14.628,18.084 24.645,24.019c0.676,0.399 1.272,-0.637 0.596,-1.035c-9.818,-5.856 -18.126,-13.942 -24.207,-23.622c-0.438,-0.597 -1.471,0 -1.034,0.638z"/>
  <path id="svg_18" fill="#AEB0B8" d="m142.388,391.561c3.339,4.9 7.354,9.282 12.004,12.946c0.597,0.478 1.431,-0.358 0.835,-0.836c-4.571,-3.625 -8.546,-7.887 -11.806,-12.707c-0.437,-0.637 -1.47,-0.04 -1.033,0.597z"/>
  <path id="svg_19" fill="#AEB0B8" d="m151.054,390.566c1.51,2.151 3.219,4.063 5.127,5.815c0.557,0.518 1.431,-0.318 0.835,-0.836c-1.868,-1.673 -3.498,-3.545 -4.969,-5.577c-0.397,-0.597 -1.47,0 -0.993,0.598z"/>
  <path id="svg_20" fill="#AEB0B8" d="m378.106,391.841c1.312,10.516 3.299,20.952 6.082,31.19c0.198,0.756 1.351,0.438 1.152,-0.319c-2.742,-10.118 -4.73,-20.435 -6.041,-30.871c-0.12,-0.757 -1.312,-0.757 -1.193,0z"/>
  <path id="svg_21" fill="#AEB0B8" d="m378.781,392.118c10.732,2.948 22.021,2.988 32.754,0.12c0.755,-0.199 0.437,-1.355 -0.318,-1.155c-10.534,2.828 -21.584,2.788 -32.118,-0.12c-0.755,-0.199 -1.034,0.916 -0.318,1.155z"/>
  <path id="svg_22" fill="#AEB0B8" d="m410.938,391.841c-0.675,10.596 -2.703,20.992 -6.081,31.03c-0.239,0.717 0.914,1.036 1.152,0.319c3.379,-10.158 5.446,-20.674 6.122,-31.349c0.04,-0.757 -1.153,-0.757 -1.193,0z"/>
  <path id="svg_23" fill="#AEB0B8" d="m388.68,392.917c-2.067,-2.749 -3.697,-5.776 -4.691,-9.082c-0.477,-1.594 -0.835,-3.187 -1.073,-4.86c-0.199,-1.514 -1.073,-4.661 1.192,-4.581c0.358,0 0.716,-0.398 0.557,-0.757c-0.517,-1.593 -0.835,-3.107 -0.914,-4.78c-0.159,0.199 -0.279,0.399 -0.438,0.558c1.153,-0.398 1.63,-1.315 1.829,-2.47c0.397,-2.31 0.199,-4.859 0.238,-7.21c0.159,-5.417 0.279,-10.834 0.438,-16.291c-0.318,0.159 -0.597,0.358 -0.915,0.517c3.498,2.39 5.128,7.25 6.48,11.114c1.391,4.063 2.345,8.285 2.941,12.508c1.232,8.683 1.113,17.486 0.676,26.25c-0.04,0.757 1.153,0.757 1.192,0c0.438,-9.321 0.557,-18.722 -0.954,-27.923c-0.755,-4.581 -1.868,-9.122 -3.577,-13.424c-1.391,-3.506 -2.942,-7.33 -6.161,-9.52c-0.398,-0.279 -0.875,0.079 -0.915,0.517c-0.119,4.143 -0.198,8.286 -0.318,12.389c-0.039,2.071 -0.119,4.142 -0.159,6.214c-0.039,1.314 0.517,5.616 -1.152,6.214c-0.239,0.079 -0.438,0.318 -0.438,0.557c0.08,1.753 0.398,3.426 0.954,5.099c0.199,-0.239 0.398,-0.518 0.557,-0.757c-1.193,-0.04 -2.425,0.239 -2.624,1.514c-0.278,2.031 0.199,4.501 0.597,6.532c0.914,4.462 2.862,8.644 5.565,12.309c0.516,0.597 1.55,0 1.113,-0.637z"/>
  <path id="svg_24" fill="#AEB0B8" d="m395.595,365.79c1.033,-3.585 2.226,-7.13 3.458,-10.635c-0.278,0.119 -0.596,0.239 -0.875,0.358c0.398,0.239 0.795,0.518 1.233,0.757c0.278,0.159 0.636,0.04 0.834,-0.199c2.862,-4.78 5.724,-9.52 8.586,-14.3c-0.357,-0.12 -0.755,-0.2 -1.113,-0.319c1.71,17.606 -1.073,35.451 -8.069,51.743c-0.318,0.717 0.716,1.315 1.034,0.598c7.075,-16.451 9.937,-34.496 8.228,-52.341c-0.04,-0.558 -0.795,-0.837 -1.113,-0.319c-2.862,4.78 -5.724,9.52 -8.586,14.3c0.278,-0.079 0.556,-0.159 0.835,-0.199c-0.398,-0.239 -0.795,-0.518 -1.233,-0.757c-0.357,-0.199 -0.755,0 -0.874,0.359c-1.272,3.505 -2.425,7.05 -3.458,10.635c-0.239,0.717 0.914,1.036 1.113,0.319z"/>
  <path id="svg_25" fill="#AEB0B8" d="m379.338,392.159c2.266,0.079 4.492,0.199 6.757,0.279c0.756,0.039 0.756,-1.155 0,-1.195c-2.265,-0.08 -4.491,-0.199 -6.757,-0.279c-0.755,-0.04 -0.755,1.155 0,1.195z"/>
  <path id="svg_26" fill="#AEB0B8" d="m384.863,392.399c0.755,0.318 1.55,0.597 2.345,0.717c0.756,0.119 1.073,-1.036 0.318,-1.155c-0.715,-0.12 -1.431,-0.319 -2.067,-0.598c-0.715,-0.279 -1.311,0.717 -0.596,1.036z"/>
  <path id="svg_27" fill="#AEB0B8" d="m401.279,392.836c3.299,-0.478 6.559,-0.796 9.898,-0.995c0.755,-0.04 0.755,-1.235 0,-1.195c-3.419,0.199 -6.837,0.517 -10.216,1.035c-0.755,0.12 -0.437,1.275 0.318,1.155z"/>
  <path id="svg_28" fill="#AEB0B8" d="m400.882,393.395c1.749,-0.279 3.537,-0.438 5.326,-0.598c0.755,-0.039 0.755,-1.234 0,-1.194c-1.908,0.119 -3.776,0.358 -5.644,0.637c-0.756,0.119 -0.438,1.235 0.318,1.155z"/>
  <path id="svg_29" fill="#AEB0B8" d="m379.775,397.936c2.623,-0.079 4.77,1.474 7.314,1.833c2.822,0.398 4.571,-1.952 7.234,-1.912c2.664,0.04 4.969,1.792 7.672,1.792c1.193,0 2.385,-0.239 3.458,-0.717c1.59,-0.637 3.061,-1.912 4.85,-1.195c0.715,0.279 1.033,-0.876 0.318,-1.155c-2.465,-0.956 -4.452,1.076 -6.758,1.633c-3.259,0.797 -5.843,-1.155 -8.943,-1.513c-2.902,-0.319 -4.929,2.27 -7.752,1.872c-2.544,-0.399 -4.73,-1.912 -7.393,-1.793c-0.795,0 -0.795,1.195 0,1.155z"/>
  <path id="svg_30" fill="#AEB0B8" d="m380.292,404.229c9.62,3.824 20.392,3.944 30.091,0.319c0.715,-0.279 0.397,-1.434 -0.318,-1.155c-9.54,3.545 -19.995,3.426 -29.455,-0.319c-0.716,-0.278 -1.034,0.877 -0.318,1.155z"/>
  <path id="svg_31" fill="#AEB0B8" d="m39.3564,233.305c0,24.258 0,48.477 0,72.735c0,0.757 1.1926,0.757 1.1926,0c0,-24.258 0,-48.477 0,-72.735c0,-0.797 -1.1926,-0.797 -1.1926,0z"/>
  <path id="svg_32" fill="#AEB0B8" d="m40.1504,233.742c16.4963,0 32.9925,0 49.4888,0c0.7552,0 0.7552,-1.195 0,-1.195c-16.4963,0 -32.9925,0 -49.4888,0c-0.7552,0 -0.7552,1.195 0,1.195z"/>
  <path id="svg_33" fill="#AEB0B8" d="m89.7588,233.144c0,24.06 0,48.119 0,72.218c0,0.757 1.1925,0.757 1.1925,0c0,-24.059 0,-48.118 0,-72.218c0,-0.796 -1.1925,-0.796 -1.1925,0z"/>
  <path id="svg_34" fill="#AEB0B8" d="m40.5088,306.797c16.536,0 33.1118,0 49.6478,0c0.7552,0 0.7552,-1.195 0,-1.195c-16.536,0 -33.1118,0 -49.6478,0c-0.7552,0 -0.7552,1.195 0,1.195z"/>
  <path id="svg_35" fill="#AEB0B8" d="m85.9035,239.24c-0.5962,-0.159 -1.2322,-0.637 -1.1925,-1.354c0.0398,-0.797 0.8348,-1.275 1.5503,-0.956c0.5962,0.279 1.0732,0.956 0.954,1.593c-0.0398,0.598 -0.795,1.116 -1.3118,0.717c-0.5962,-0.518 -1.4707,0.319 -0.8745,0.837c0.9938,0.797 2.4645,0.518 3.1403,-0.598c0.7155,-1.274 -0.0795,-2.908 -1.272,-3.545c-1.272,-0.677 -2.8223,-0.04 -3.2595,1.355c-0.4373,1.394 0.5962,2.788 1.9477,3.107c0.7553,0.159 1.0733,-0.996 0.318,-1.156z"/>
  <path id="svg_36" fill="#AEB0B8" d="m84.3139,300.542c-0.5565,-0.478 -0.7155,-1.434 -0.159,-1.991c0.5962,-0.638 1.7092,-0.438 2.1465,0.279c0.2782,0.478 0.6757,1.712 0,2.071c-0.3578,0.199 -0.8347,-0.12 -1.113,-0.319c-0.3975,-0.239 -0.795,-0.438 -1.2322,-0.597c-0.7155,-0.279 -1.0335,0.876 -0.318,1.155c0.7552,0.279 1.3515,0.836 2.1465,0.996c0.636,0.119 1.3117,-0.16 1.6695,-0.677c0.7552,-1.116 0.318,-2.908 -0.5963,-3.824c-0.9937,-0.956 -2.7825,-0.877 -3.657,0.199c-0.8745,1.035 -0.7155,2.669 0.2783,3.545c0.5565,0.558 1.4309,-0.319 0.8347,-0.837z"/>
  <path id="svg_37" fill="#AEB0B8" d="m43.291,238.085c9.8978,-0.04 19.7956,-0.04 29.6536,-0.079c0.7552,0 0.7552,-1.195 0,-1.195c-9.8978,0.039 -19.7956,0.039 -29.6536,0.079c-0.7552,0 -0.7552,1.195 0,1.195z"/>
  <path id="svg_38" fill="#AEB0B8" d="m43.291,240.952c4.0545,0.279 8.1885,0.916 12.243,0.159c0.7553,-0.159 0.4373,-1.275 -0.3179,-1.155c-3.8955,0.717 -7.9898,0.08 -11.9251,-0.199c-0.7552,-0.04 -0.7552,1.155 0,1.195z"/>
  <path id="svg_39" fill="#AEB0B8" d="m43.8885,301.857c-0.318,-0.119 -0.4373,-0.557 -0.3975,-0.876c0.0795,-0.438 0.5167,-0.597 0.9142,-0.518c0.5168,0.08 0.9143,0.438 0.954,0.956c0.0398,0.399 -0.4372,1.036 -0.8745,0.677c-0.5962,-0.478 -1.431,0.359 -0.8347,0.837c0.954,0.757 2.385,0.398 2.8222,-0.797c0.3975,-1.155 -0.318,-2.43 -1.4707,-2.788c-1.0335,-0.319 -2.2658,0.119 -2.5838,1.195c-0.318,0.996 0.1988,2.111 1.1925,2.43c0.7155,0.279 1.0335,-0.837 0.2783,-1.116z"/>
  <path id="svg_40" fill="#AEB0B8" d="m44.6035,250.592c10.6133,0 21.2663,0 31.8796,0c0.7552,0 0.7552,-1.196 0,-1.196c-10.6133,0 -21.2663,0 -31.8796,0c-0.7552,0 -0.7552,1.196 0,1.196z"/>
  <path id="svg_41" fill="#AEB0B8" d="m46.3926,254.537c8.3475,0 16.7348,0 25.0823,0c0.7552,0 0.7552,-1.195 0,-1.195c-8.3475,0 -16.7348,0 -25.0823,0c-0.7552,0 -0.7552,1.195 0,1.195z"/>
  <path id="svg_42" fill="#AEB0B8" d="m46.0342,261.386c8.0693,0 16.1385,0 24.168,0c0.7553,0 0.7553,-1.195 0,-1.195c-8.0692,0 -16.1385,0 -24.168,0c-0.7552,0 -0.7552,1.195 0,1.195z"/>
  <path id="svg_43" fill="#AEB0B8" d="m38.4816,199.885c0,-1.793 0,-3.585 0,-5.378c0,-0.757 -1.1925,-0.757 -1.1925,0c0,1.793 0,3.585 0,5.378c0,0.756 1.1925,0.756 1.1925,0z"/>
  <path id="svg_44" fill="#AEB0B8" d="m38.2832,194.386c33.7875,0 67.5748,0 101.3628,0c9.5,0 19,0 28.5,0c0.756,0 0.756,-1.195 0,-1.195c-33.787,0 -67.575,0 -101.362,0c-9.5003,0 -19.0005,0 -28.5008,0c-0.7552,0 -0.7552,1.195 0,1.195z"/>
  <path id="svg_45" fill="#AEB0B8" d="m38.0045,200.601c33.8669,0 67.7335,0 101.6005,0c9.62,0 19.239,0 28.859,0c0.755,0 0.755,-1.195 0,-1.195c-33.867,0 -67.734,0 -101.6011,0c-9.6195,0 -19.2389,0 -28.8584,0c-0.795,0 -0.795,1.195 0,1.195z"/>
  <path id="svg_46" fill="#AEB0B8" d="m168.026,193.829c0,1.873 0,3.745 0,5.617c0,0.757 1.193,0.757 1.193,0c0,-1.872 0,-3.744 0,-5.617c0,-0.756 -1.193,-0.756 -1.193,0z"/>
  <path id="svg_47" fill="#AEB0B8" d="m101.963,193.472c0,-2.908 0,-5.776 0,-8.684c0,-0.757 -1.192,-0.757 -1.192,0c0,2.908 0,5.776 0,8.684c0,0.757 1.192,0.757 1.192,0z"/>
  <path id="svg_48" fill="#AEB0B8" d="m105.579,184.031c0,2.908 0,5.776 0,8.684c0,0.757 1.193,0.757 1.193,0c0,-2.908 0,-5.776 0,-8.684c0,-0.797 -1.193,-0.797 -1.193,0z"/>
  <path id="svg_49" fill="#AEB0B8" d="m106.216,184.629c9.222,0 18.444,0 27.706,0c0.755,0 0.755,-1.195 0,-1.195c-9.222,0 -18.444,0 -27.706,0c-0.755,0 -0.755,1.195 0,1.195z"/>
  <path id="svg_50" fill="#AEB0B8" d="m134.677,183.87c0,-11.352 0,-22.665 0,-34.017c0,-0.757 -1.193,-0.757 -1.193,0c0,11.352 0,22.665 0,34.017c0,0.757 1.193,0.757 1.193,0z"/>
  <path id="svg_51" fill="#AEB0B8" d="m134.081,149.176c-19.319,0 -38.6375,0 -57.956,0c-0.7552,0 -0.7552,1.195 0,1.195c19.3185,0 38.637,0 57.956,0c0.755,0 0.755,-1.195 0,-1.195z"/>
  <path id="svg_52" fill="#AEB0B8" d="m75.25,149.853c0,10.436 0,20.912 0,31.349c0,0.756 1.1925,0.756 1.1925,0c0,-10.437 0,-20.913 0,-31.349c0,-0.757 -1.1925,-0.757 -1.1925,0z"/>
  <path id="svg_53" fill="#AEB0B8" d="m101.287,184.07c-8.4268,0 -16.8538,0 -25.2411,0c-0.7552,0 -0.7552,1.195 0,1.195c8.427,0 16.854,0 25.2411,0c0.755,0 0.755,-1.195 0,-1.195z"/>
  <path id="svg_54" fill="#AEB0B8" d="m75.25,180.126c0,1.315 0,2.669 0,3.984c0,0.756 1.1925,0.756 1.1925,0c0,-1.315 0,-2.669 0,-3.984c0,-0.757 -1.1925,-0.757 -1.1925,0z"/>
  <path id="svg_55" fill="#AEB0B8" d="m78.709,152.523c0,9.44 0,18.881 0,28.321c0,0.757 1.1925,0.757 1.1925,0c0,-9.44 0,-18.881 0,-28.321c0,-0.757 -1.1925,-0.757 -1.1925,0z"/>
  <path id="svg_56" fill="#AEB0B8" d="m79.4629,181.521c16.8143,0 33.6281,0 50.4431,0c0.755,0 0.755,-1.195 0,-1.195c-16.815,0 -33.6288,0 -50.4431,0c-0.7552,0 -0.7552,1.195 0,1.195z"/>
  <path id="svg_57" fill="#AEB0B8" d="m130.701,180.327c0,-8.923 0,-17.886 0,-26.808c0,-0.757 -1.192,-0.757 -1.192,0c0,8.922 0,17.885 0,26.808c0,0.756 1.192,0.756 1.192,0z"/>
  <path id="svg_58" fill="#AEB0B8" d="m79.5826,153.039c16.854,0 33.6684,0 50.5224,0c0.755,0 0.755,-1.195 0,-1.195c-16.854,0 -33.6684,0 -50.5224,0c-0.795,0 -0.795,1.195 0,1.195z"/>
  <path id="svg_59" fill="#AEB0B8" d="m129.39,153.039c0,0.08 0,0.159 0,0.279c0,0.318 0.278,0.597 0.596,0.597c0.318,0 0.596,-0.279 0.596,-0.597c0,-0.08 0,-0.16 0,-0.279c0,-0.319 -0.278,-0.598 -0.596,-0.598c-0.318,0.04 -0.596,0.279 -0.596,0.598z"/>
  <path id="svg_60" fill="#263557" d="m368.407,216.933c5.287,1.514 11.011,1.673 16.417,2.27c6.121,0.678 12.243,1.315 18.364,1.992c12.124,1.315 24.208,2.589 36.332,3.904c0.755,0.079 0.755,-1.116 0,-1.195c-11.846,-1.275 -23.691,-2.55 -35.537,-3.824c-5.843,-0.638 -11.726,-1.275 -17.569,-1.872c-5.843,-0.638 -12.044,-0.757 -17.689,-2.39c-0.715,-0.239 -1.033,0.916 -0.318,1.115z"/>
  <path id="svg_61" fill="#263557" d="m453.431,198.569c-3.895,8.883 -8.466,17.447 -13.674,25.653c-0.397,0.637 0.636,1.235 1.034,0.598c5.207,-8.206 9.778,-16.77 13.674,-25.653c0.318,-0.677 -0.716,-1.275 -1.034,-0.598z"/>
  <path id="svg_62" fill="#263557" d="m369.122,216.534c8.109,-5.855 15.979,-12.069 23.492,-18.642c0.596,-0.518 -0.278,-1.354 -0.835,-0.836c-7.473,6.492 -15.224,12.667 -23.254,18.442c-0.596,0.439 0,1.514 0.597,1.036z"/>
  <path id="svg_63" fill="#263557" d="m392.456,197.733c10.097,-1.195 20.312,-0.398 30.449,0.12c10.295,0.518 20.63,1.035 30.925,1.553c0.755,0.04 0.755,-1.155 0,-1.195c-10.295,-0.518 -20.63,-1.035 -30.925,-1.553c-10.137,-0.518 -20.352,-1.315 -30.449,-0.12c-0.755,0.08 -0.755,1.275 0,1.195z"/>
  <path id="svg_64" fill="#AEB0B8" d="m405.414,205.301c-0.636,1.075 -1.312,2.111 -1.948,3.186c-0.238,0.359 0.08,0.917 0.517,0.917c1.431,-0.04 2.862,-0.04 4.293,0.159c0.795,0.08 2.147,0.637 2.981,0.358c1.272,-0.438 2.147,-2.788 2.664,-3.824c0.357,-0.677 -0.676,-1.274 -1.034,-0.597c-0.358,0.677 -0.715,1.553 -1.192,2.151c-0.835,0.996 -1.63,0.996 -2.823,0.797c-1.629,-0.239 -3.259,-0.279 -4.889,-0.239c0.159,0.318 0.358,0.597 0.517,0.916c0.636,-1.076 1.312,-2.111 1.948,-3.187c0.397,-0.677 -0.636,-1.275 -1.034,-0.637z"/>
  <path id="svg_65" fill="#AEB0B8" d="m406.209,205.899c2.305,-0.598 4.531,-0.598 6.757,0.358c0.716,0.319 1.312,-0.717 0.597,-1.036c-2.544,-1.115 -5.049,-1.195 -7.712,-0.478c-0.715,0.2 -0.397,1.355 0.358,1.156z"/>
  <path id="svg_66" fill="#AEB0B8" d="m387.845,206.815c2.107,-0.079 4.134,0.12 6.161,0.638c0.755,0.199 1.073,-0.956 0.318,-1.155c-2.147,-0.518 -4.293,-0.757 -6.479,-0.678c-0.755,0.04 -0.755,1.235 0,1.195z"/>
  <path id="svg_67" fill="#AEB0B8" d="m388.083,206.297c1.272,-1.394 2.624,-2.708 4.015,-3.983c0.556,-0.518 -0.278,-1.354 -0.835,-0.837c-1.391,1.275 -2.703,2.629 -4.014,3.984c-0.517,0.557 0.318,1.434 0.834,0.836z"/>
  <path id="svg_68" fill="#AEB0B8" d="m391.303,202.354c1.749,0.876 4.015,0.637 5.963,0.677c0.755,0.04 0.755,-1.155 0,-1.195c-1.63,-0.04 -3.856,0.239 -5.367,-0.518c-0.675,-0.319 -1.272,0.677 -0.596,1.036z"/>
  <path id="svg_69" fill="#AEB0B8" d="m396.391,202.274c-0.954,1.315 -1.909,2.669 -2.783,4.063c-0.398,0.638 0.636,1.235 1.033,0.598c0.875,-1.394 1.789,-2.749 2.783,-4.063c0.437,-0.637 -0.596,-1.235 -1.033,-0.598z"/>
  <path id="svg_70" fill="#AEB0B8" d="m444.965,145.91c0,12.069 0,24.179 0,36.248c0,0.757 1.192,0.757 1.192,0c0,-12.069 0,-24.179 0,-36.248c0,-0.797 -1.192,-0.797 -1.192,0z"/>
  <path id="svg_71" fill="#AEB0B8" d="m445.839,182.756c17.371,0 34.782,0 52.152,0c0.756,0 0.756,-1.195 0,-1.195c-17.37,0 -34.781,0 -52.152,0c-0.795,0 -0.795,1.195 0,1.195z"/>
  <path id="svg_72" fill="#AEB0B8" d="m498.628,182.078c-0.119,-12.03 -0.278,-24.06 -0.397,-36.049c0,-0.757 -1.193,-0.757 -1.193,0c0.119,12.029 0.278,24.059 0.398,36.049c0,0.757 1.192,0.757 1.192,0z"/>
  <path id="svg_73" fill="#AEB0B8" d="m445.721,146.189c17.052,0 34.105,0 51.118,0c0.756,0 0.756,-1.195 0,-1.195c-17.053,0 -34.105,0 -51.118,0c-0.756,0 -0.756,1.195 0,1.195z"/>
  <path id="svg_74" fill="#AEB0B8" d="m471.319,145.034c-0.159,-1.076 -0.119,-2.191 0.199,-3.266c0.238,-0.917 1.073,-3.068 2.425,-2.39c0.795,0.398 1.033,1.832 1.152,2.629c0.159,1.075 0.159,2.151 0.04,3.226c-0.079,0.757 1.113,0.757 1.193,0c0.198,-1.992 0.198,-7.449 -3.061,-7.17c-3.021,0.279 -3.419,5.099 -3.101,7.29c0.119,0.756 1.272,0.438 1.153,-0.319z"/>
  <path id="svg_75" fill="#AEB0B8" d="m382.915,79.2688c0,14.6587 0,29.2772 0,43.9362c0,0.757 1.193,0.757 1.193,0c0,-14.659 0,-29.2775 0,-43.9362c0,-0.7568 -1.193,-0.7568 -1.193,0z"/>
  <path id="svg_76" fill="#AEB0B8" d="m383.869,123.802c21.068,0 42.095,0 63.163,0c0.755,0 0.755,-1.195 0,-1.195c-21.068,0 -42.095,0 -63.163,0c-0.755,0 -0.755,1.195 0,1.195z"/>
  <path id="svg_77" fill="#AEB0B8" d="m447.708,123.085c-0.159,-14.579 -0.318,-29.1181 -0.477,-43.6971c0,-0.7568 -1.193,-0.7568 -1.193,0c0.159,14.579 0.318,29.1181 0.477,43.6971c0,0.757 1.193,0.757 1.193,0z"/>
  <path id="svg_78" fill="#AEB0B8" d="m383.749,79.5075c20.63,0 41.3,0 61.931,0c0.755,0 0.755,-1.195 0,-1.195c-20.631,0 -41.301,0 -61.931,0c-0.755,0 -0.755,1.195 0,1.195z"/>
  <path id="svg_79" fill="#AEB0B8" d="m414.636,78.2729c-0.199,-1.3544 -0.12,-2.7087 0.238,-4.0232c0.318,-1.1552 1.352,-3.8638 3.14,-2.9875c1.988,0.9958 1.71,5.4173 1.511,7.17c-0.08,0.7568 1.113,0.7568 1.192,0c0.239,-2.3103 0.279,-8.9227 -3.577,-8.5243c-3.578,0.3585 -4.015,6.0945 -3.617,8.6836c0.079,0.7569 1.232,0.4382 1.113,-0.3186z"/>
  <path id="svg_80" fill="#AEB0B8" d="m386.294,82.6151c0,11.9898 0,23.9799 0,35.9299c0,0.757 1.192,0.757 1.192,0c0,-11.99 0,-23.9799 0,-35.9299c0,-0.7967 -1.192,-0.7967 -1.192,0z"/>
  <path id="svg_81" fill="#AEB0B8" d="m386.89,119.939c18.603,0 37.206,0 55.809,0c0.755,0 0.755,-1.195 0,-1.195c-18.603,0 -37.206,0 -55.809,0c-0.755,0 -0.795,1.195 0,1.195z"/>
  <path id="svg_82" fill="#AEB0B8" d="m444.09,118.864c0,-11.751 0,-23.5416 0,-35.2925c0,-0.7568 -1.193,-0.7568 -1.193,0c0,11.7509 0,23.5415 0,35.2925c0,0.757 1.193,0.757 1.193,0z"/>
  <path id="svg_83" fill="#AEB0B8" d="m387.367,83.0524c18.603,0 37.206,0 55.809,0c0.755,0 0.755,-1.195 0,-1.195c-18.603,0 -37.206,0 -55.809,0c-0.755,0 -0.755,1.195 0,1.195z"/>
  <path id="svg_84" fill="#AEB0B8" d="m393.568,287.359c19.199,0 38.398,0 57.598,0c0.755,0 0.755,-1.195 0,-1.195c-19.2,0 -38.399,0 -57.598,0c-0.795,0 -0.795,1.195 0,1.195z"/>
  <path id="svg_85" fill="#AEB0B8" d="m420.917,288.433c0,3.665 0,7.33 0,10.994c0,0.757 1.193,0.757 1.193,0c0,-3.664 0,-7.329 0,-10.994c0,-0.796 -1.193,-0.796 -1.193,0z"/>
  <path id="svg_86" fill="#AEB0B8" d="m412.211,301.658c9.501,0 19.001,0 28.541,0c0.755,0 0.755,-1.195 0,-1.195c-9.5,0 -19.001,0 -28.541,0c-0.755,0 -0.795,1.195 0,1.195z"/>
  <path id="svg_87" fill="#AEB0B8" d="m117.544,260.392c0,13.185 0,26.409 0,39.594c0,0.757 1.192,0.757 1.192,0c0,-13.185 0,-26.409 0,-39.594c0,-0.757 -1.192,-0.757 -1.192,0z"/>
  <path id="svg_88" fill="#AEB0B8" d="m118.14,260.988c19.398,0 38.756,0 58.154,0c0.756,0 0.756,-1.195 0,-1.195c-19.398,0 -38.756,0 -58.154,0c-0.795,0 -0.795,1.195 0,1.195z"/>
  <path id="svg_89" fill="#AEB0B8" d="m118.181,300.863c19.477,-0.04 38.955,-0.04 58.432,-0.08c0.755,0 0.755,-1.195 0,-1.195c-19.477,0.04 -38.955,0.04 -58.432,0.08c-0.756,0 -0.756,1.195 0,1.195z"/>
  <path id="svg_90" fill="#AEB0B8" d="m176.057,260.55c0,12.906 0,25.812 0,38.758c0,0.757 1.192,0.757 1.192,0c0,-12.906 0,-25.812 0,-38.758c0,-0.757 -1.192,-0.757 -1.192,0z"/>
  <path id="svg_91" fill="#AEB0B8" d="m122.553,265.928c-0.835,-0.478 -0.636,-1.833 0.397,-1.873c1.392,-0.039 0.557,2.351 -0.357,1.753c-0.636,-0.438 -1.233,0.598 -0.597,1.036c2.226,1.513 4.254,-2.988 1.63,-3.864c-1.033,-0.359 -2.226,0.239 -2.663,1.235c-0.437,1.035 0.04,2.191 0.954,2.748c0.715,0.399 1.312,-0.637 0.636,-1.035z"/>
  <path id="svg_92" fill="#AEB0B8" d="m125.136,270.349c11.448,0 22.896,0 34.344,0c0.756,0 0.756,-1.195 0,-1.195c-11.448,0 -22.896,0 -34.344,0c-0.795,0 -0.795,1.195 0,1.195z"/>
  <path id="svg_93" fill="#AEB0B8" d="m125.653,274.572c6.598,0 13.197,0 19.795,0c0.756,0 0.756,-1.195 0,-1.195c-6.598,0 -13.197,0 -19.795,0c-0.795,0 -0.795,1.195 0,1.195z"/>
  <path id="svg_94" fill="#AEB0B8" d="m126.767,299.786c0,-4.222 0,-8.484 0,-12.707c0,-0.756 -1.193,-0.756 -1.193,0c0,4.223 0,8.485 0,12.707c0,0.757 1.193,0.757 1.193,0z"/>
  <path id="svg_95" fill="#AEB0B8" d="m126.289,287.279c9.58,0 19.199,0 28.779,0c0.755,0 0.755,-1.195 0,-1.195c-9.58,0 -19.199,0 -28.779,0c-0.755,0 -0.755,1.195 0,1.195z"/>
  <path id="svg_96" fill="#AEB0B8" d="m154.472,286.961c0,4.182 0,8.365 0,12.587c0,0.757 1.192,0.757 1.192,0c0,-4.182 0,-8.365 0,-12.587c0,-0.797 -1.192,-0.797 -1.192,0z"/>
  <path id="svg_97" fill="#AEB0B8" d="m132.173,299.627c0,-2.788 0,-5.577 0,-8.325c0,-0.757 -1.193,-0.757 -1.193,0c0,2.788 0,5.577 0,8.325c0,0.797 1.193,0.797 1.193,0z"/>
  <path id="svg_98" fill="#AEB0B8" d="m136.943,299.627c0,-2.788 0,-5.577 0,-8.325c0,-0.757 -1.193,-0.757 -1.193,0c0,2.788 0,5.577 0,8.325c0,0.797 1.193,0.797 1.193,0z"/>
  <path id="svg_99" fill="#AEB0B8" d="m141.553,299.507c0,-2.549 0,-5.098 0,-7.687c0,-0.757 -1.193,-0.757 -1.193,0c0,2.549 0,5.098 0,7.687c0,0.757 1.193,0.757 1.193,0z"/>
  <path id="svg_100" fill="#AEB0B8" d="m146.322,299.905c0,-2.629 0,-5.298 0,-7.927c0,-0.757 -1.192,-0.757 -1.192,0c0,2.629 0,5.298 0,7.927c0,0.756 1.192,0.756 1.192,0z"/>
  <path id="svg_101" fill="#AEB0B8" d="m151.451,299.229c0,-2.47 0,-4.94 0,-7.409c0,-0.757 -1.192,-0.757 -1.192,0c0,2.469 0,4.939 0,7.409c0,0.796 1.192,0.796 1.192,0z"/>
  <path id="svg_102" fill="#AEB0B8" d="m172.677,264.375c-0.477,-0.199 -0.557,-1.036 0,-1.235c0.238,-0.08 0.636,-0.04 0.715,0.239c0.08,0.159 -0.079,0.558 -0.318,0.518c-0.318,-0.04 -0.636,0.079 -0.715,0.398c-0.08,0.279 0.079,0.677 0.397,0.717c0.954,0.159 1.789,-0.558 1.829,-1.514c0.04,-0.916 -0.835,-1.633 -1.709,-1.633c-0.875,0 -1.59,0.558 -1.789,1.434c-0.159,0.797 0.159,1.713 0.914,2.072c0.755,0.358 1.352,-0.678 0.676,-0.996z"/>
  <path id="svg_114" fill="#AEB0B8" d="m467.86,87.673c-2.624,3.3062 0.079,8.604 4.332,8.126c2.067,-0.239 4.651,-1.4738 5.486,1.3543c0.397,1.3145 0.159,2.7485 0.477,4.0627c0.437,1.912 1.987,3.944 4.134,3.227c0.715,-0.239 0.397,-1.394 -0.318,-1.155c-2.902,0.956 -2.703,-4.1032 -2.981,-5.7363c-0.239,-1.434 -0.835,-2.7884 -2.266,-3.3062c-2.067,-0.7568 -4.213,0.956 -6.241,0.1992c-2.265,-0.8365 -3.299,-4.0232 -1.749,-5.9352c0.438,-0.5577 -0.397,-1.434 -0.874,-0.8365z"/>
  <path id="svg_115" fill="#AEB0B8" d="m462.335,95.7597c-0.994,1.6331 -0.238,3.346 1.153,4.5013c1.789,1.434 3.816,1.314 6.002,1.513c1.868,0.16 3.339,0.678 4.333,2.351c0.676,1.155 0.914,2.509 1.63,3.624c0.993,1.514 2.742,2.63 4.531,1.873c0.716,-0.279 0.398,-1.434 -0.318,-1.156c-2.544,1.076 -3.617,-2.23 -4.333,-3.903c-0.596,-1.434 -1.391,-2.629 -2.862,-3.306c-1.272,-0.598 -2.742,-0.638 -4.134,-0.717c-1.788,-0.12 -6.757,-1.1555 -4.968,-4.143c0.397,-0.6772 -0.636,-1.2747 -1.034,-0.6373z"/>
  <path id="svg_116" fill="#AEB0B8" d="m58.0772,324.164c0.5168,-1.354 1.1925,-1.752 1.9875,-1.155c0.318,0.12 0.636,0.319 0.8745,0.558c0.477,0.358 0.8745,0.757 1.3515,1.115c0.5565,0.398 1.1925,0.837 1.8683,0.996c1.113,0.279 2.1067,-0.08 2.9017,-0.876c0.9143,-0.917 1.1528,-2.629 2.1863,-3.426c0.9937,-0.757 1.6297,0.438 2.3452,1.115c0.7155,0.638 1.4708,1.235 2.226,1.793c0.636,0.438 1.2323,-0.598 0.5963,-1.036c-1.431,-1.036 -2.703,-2.231 -3.8955,-3.545c-0.1193,-0.159 -0.3975,-0.199 -0.5963,-0.159c-1.272,0.398 -1.9477,1.394 -2.5837,2.549c-0.5565,1.036 -0.8745,1.912 -2.1068,2.231c-1.59,0.398 -2.5042,-0.917 -3.6967,-1.793c-1.1925,-0.876 -2.703,-1.514 -4.0148,-0.478c-0.8745,0.717 -1.113,1.713 -0.5962,2.709c0.5167,0.677 1.5502,0.079 1.1527,-0.598z"/>
  <path id="svg_117" fill="#AEB0B8" d="m58.4349,329.541c0.4373,2.112 2.4248,3.785 4.6508,3.466c1.272,-0.159 2.1465,-1.036 3.2197,-1.673c1.9478,-1.195 4.0943,-1.195 6.0023,0.04c0.636,0.398 1.2322,-0.637 0.5962,-1.036c-1.8285,-1.155 -4.0147,-1.514 -6.0817,-0.677c-0.954,0.398 -1.6695,1.075 -2.544,1.593c-1.9478,1.116 -4.2533,0.239 -4.7303,-2.071c-0.1192,-0.717 -1.272,-0.398 -1.113,0.358z"/>
  <path id="svg_123" fill="#263557" d="m271.932,365.668c-1.272,0.08 -2.186,0.717 -3.975,1.992c-2.067,1.474 -4.571,3.625 -6.956,6.732c0.914,4.023 2.305,8.644 4.492,13.463c6.002,13.305 14.906,21.909 20.908,26.689c0.835,-0.996 1.988,-2.589 2.504,-4.74c0.716,-2.988 -0.079,-5.458 -0.516,-6.732c-1.471,-4.74 -2.465,-9.64 -3.737,-14.46c-2.663,-9.998 -1.312,-11.113 -3.975,-15.734c-0.835,-1.394 -4.412,-7.528 -8.745,-7.21z"/>
  <path id="svg_124" fill="white" d="m300.553,252.901c1.431,2.868 3.14,6.732 4.73,11.472c3.895,11.671 4.372,21.271 4.492,24.457c0.119,3.984 0.198,15.655 -4.492,29.676c-5.327,15.894 -13.833,26.131 -19.438,32.663c-5.525,6.493 -10.852,11.273 -14.707,14.46c0,0.956 0.159,2.749 1.232,4.501c2.584,4.063 7.87,3.984 8.228,3.984c3.22,-2.271 7.195,-5.338 11.448,-9.242c7.314,-6.692 12.044,-12.707 13.952,-15.216c3.22,-4.222 9.024,-12.03 13.674,-23.701c5.049,-12.627 6.44,-24.059 6.718,-31.946c0.318,-8.564 -0.636,-14.619 -1.987,-23.183c-2.187,-14.061 -4.969,-19.758 -6.957,-23.183c-1.828,-3.107 -3.657,-5.457 -4.968,-6.971c-3.975,4.063 -7.95,8.126 -11.925,12.229z"/>
  <path id="svg_125" fill="#263557" d="m300.195,254.534c7.99,15.256 10.892,33.102 8.069,50.11c-2.583,15.535 -9.858,29.955 -19.557,42.224c-5.366,6.771 -11.448,12.906 -18.046,18.443c-0.596,0.478 0.278,1.354 0.835,0.836c12.163,-10.277 22.776,-22.625 29.931,-36.886c7.473,-14.937 10.574,-31.627 8.388,-48.238c-1.233,-9.44 -4.134,-18.642 -8.547,-27.086c-0.397,-0.678 -1.431,-0.08 -1.073,0.597z"/>
  <path id="svg_126" fill="#263557" d="m314.545,243.54c8.983,16.81 12.601,36.288 10.812,55.249c-1.829,19.518 -9.62,37.642 -21.942,52.779c-6.837,8.405 -14.747,15.814 -23.254,22.506c-0.596,0.478 0.239,1.314 0.835,0.836c15.423,-12.149 29.216,-27.047 37.405,-45.091c7.91,-17.407 10.255,-37.165 7.393,-56.006c-1.669,-10.795 -5.088,-21.271 -10.216,-30.871c-0.357,-0.677 -1.391,-0.079 -1.033,0.598z"/>
  <path id="svg_127" fill="#263557" d="m270.343,365.628c0.675,5.378 5.088,11.193 11.09,8.883c0.715,-0.279 0.397,-1.434 -0.318,-1.155c-5.247,2.031 -8.984,-3.067 -9.58,-7.728c-0.079,-0.757 -1.272,-0.757 -1.192,0z"/>
  <path id="svg_128" fill="#263557" d="m269.984,365.51c-3.816,1.992 -6.956,4.82 -9.42,8.325c-0.438,0.637 0.596,1.235 1.033,0.597c2.345,-3.345 5.406,-6.014 8.984,-7.886c0.675,-0.359 0.079,-1.395 -0.597,-1.036z"/>
  <path id="svg_129" fill="#263557" d="m260.683,374.91c3.657,15.614 12.442,29.835 25.082,39.753c0.597,0.478 1.431,-0.358 0.835,-0.836c-12.481,-9.799 -21.147,-23.781 -24.764,-39.236c-0.199,-0.757 -1.352,-0.438 -1.153,0.319z"/>
  <path id="svg_130" fill="#263557" d="m280.399,374.671c1.749,6.613 3.538,13.185 5.287,19.797c1.629,6.015 5.008,14.181 0.318,19.638c-0.517,0.598 0.357,1.434 0.834,0.837c4.373,-5.099 2.385,-11.95 0.835,-17.766c-2.027,-7.608 -4.094,-15.216 -6.121,-22.824c-0.199,-0.757 -1.352,-0.438 -1.153,0.318z"/>
  <path id="svg_131" fill="#263557" d="m305.123,262.86c3.1,-5.219 8.824,-8.326 14.866,-8.087c0.756,0.04 0.756,-1.155 0,-1.195c-6.479,-0.239 -12.6,3.107 -15.9,8.684c-0.397,0.637 0.636,1.235 1.034,0.598z"/>
  <path id="svg_132" fill="#263557" d="m309.576,280.068c2.544,-3.107 5.962,-5.019 9.898,-5.656c0.755,-0.12 0.437,-1.275 -0.318,-1.155c-4.134,0.637 -7.791,2.748 -10.415,5.975c-0.477,0.597 0.358,1.434 0.835,0.836z"/>
  <path id="svg_133" fill="#263557" d="m311.483,268.039c3.18,-2.669 7.116,-3.984 11.21,-3.824c0.755,0.039 0.755,-1.156 0,-1.196c-4.452,-0.159 -8.666,1.315 -12.084,4.183c-0.557,0.478 0.278,1.315 0.874,0.837z"/>
  <path id="svg_134" fill="#263557" d="m310.013,302.694c1.67,-2.111 4.651,-2.072 7.116,-1.992c2.981,0.12 6.678,1.155 7.115,4.661c0.079,0.756 1.272,0.756 1.192,0c-0.437,-3.426 -3.378,-5.258 -6.558,-5.697c-3.101,-0.438 -7.553,-0.517 -9.699,2.231c-0.477,0.558 0.357,1.434 0.834,0.797z"/>
  <path id="svg_135" fill="#263557" d="m278.094,359.296c0.278,4.621 2.544,10.636 7.831,11.233c0.755,0.08 0.755,-1.115 0,-1.195c-4.532,-0.518 -6.4,-6.134 -6.639,-10.038c-0.04,-0.757 -1.232,-0.757 -1.192,0z"/>
  <path id="svg_136" fill="#263557" d="m286.043,351.13c0.716,3.506 2.664,6.453 5.565,8.565c0.636,0.438 1.233,-0.598 0.597,-1.036c-2.624,-1.912 -4.333,-4.661 -5.009,-7.847c-0.159,-0.757 -1.312,-0.439 -1.153,0.318z"/>
  <path id="svg_137" fill="#263557" d="m292.801,350.732c1.868,2.39 3.975,4.82 7.075,5.418c0.755,0.159 1.073,-0.996 0.318,-1.155c-2.902,-0.558 -4.81,-2.908 -6.559,-5.139c-0.477,-0.597 -1.311,0.279 -0.834,0.876z"/>
  <path id="svg_138" fill="#263557" d="m301.824,327.827c5.128,-0.199 9.978,1.593 13.794,5.059c0.556,0.518 1.43,-0.319 0.834,-0.837c-4.015,-3.664 -9.182,-5.616 -14.628,-5.377c-0.755,0 -0.755,1.195 0,1.155z"/>
  <path id="svg_139" fill="#263557" d="m309.457,316.873c2.981,-0.279 5.804,0.518 8.189,2.39c0.596,0.478 1.431,-0.358 0.834,-0.836c-2.583,-2.072 -5.724,-3.028 -9.023,-2.749c-0.755,0.04 -0.755,1.235 0,1.195z"/>
  <path id="svg_140" fill="#686E7B" d="m311.801,246.688c1.669,5.138 3.697,12.388 5.167,21.271c1.471,8.962 3.419,20.553 1.432,34.495c-1.948,13.782 -6.798,23.502 -10.336,30.473c-9.301,18.323 -21.902,31.428 -32.714,40.271c-1.63,-2.589 -3.259,-5.178 -4.889,-7.767c3.14,-1.992 7.552,-5.139 12.044,-9.76c4.293,-4.421 6.837,-8.285 10.613,-14.101c4.77,-7.329 7.275,-11.193 9.739,-16.69c6.161,-13.702 6.798,-25.891 6.877,-29.038c0.358,-10.038 -1.471,-17.766 -3.458,-26.171c-1.431,-6.054 -3.021,-11.033 -4.293,-14.658c3.339,-2.749 6.598,-5.537 9.818,-8.325z" opacity="0.13"/>
  <path id="svg_141" fill="#686E7B" d="m308.661,254.771c0.835,2.191 1.948,5.338 2.862,9.202c1.511,6.294 2.147,12.587 2.028,20.116c-0.239,14.22 -0.477,27.326 -5.724,41.108c-8.944,23.382 -27.706,36.527 -36.729,41.984c4.213,-4.501 10.017,-10.994 16.337,-19.279c7.711,-9.998 11.527,-15.017 14.628,-21.271c10.653,-21.51 7.831,-42.741 6.877,-48.597c-1.392,-8.604 -3.936,-15.455 -6.042,-20.116c1.947,-1.035 3.855,-2.111 5.763,-3.147z" opacity="0.13"/>
  <path id="svg_142" fill="white" d="m246.293,262.621c-1.669,1.912 -1.59,4.102 -2.226,12.467c-0.914,12.11 -1.272,9.6 -1.749,17.726c-1.51,26.131 0.755,49.155 0.755,49.155c0.676,7.09 3.101,28.919 9.699,51.663c3.419,11.751 9.222,27.963 9.461,28.68c1.709,4.78 3.18,8.764 4.213,11.472c0.239,0.16 6.321,3.585 10.693,0.757c0.676,-0.438 2.544,-1.673 2.981,-3.983c0.358,-1.912 -0.437,-3.466 -0.755,-3.983c-1.312,-3.984 -3.22,-9.919 -5.247,-17.208c-3.379,-12.189 -8.308,-30.473 -10.216,-54.134c-0.715,-9.042 -0.715,-15.495 -0.755,-26.449c0,-10.476 0,-22.187 1.511,-37.165c0.715,-7.17 1.947,-16.889 4.213,-28.441c-5.605,-2.111 -17.927,-5.815 -22.578,-0.557z"/>
  <path id="svg_143" fill="#263557" d="m266.327,434.581c0.596,1.553 1.272,3.704 1.471,6.333c0.199,2.032 0.079,3.824 -0.119,5.219c3.339,1.872 6.161,2.907 8.188,3.465c1.272,0.359 2.624,0.677 4.969,1.235c2.703,0.637 4.77,1.075 5.565,1.235c8.347,1.752 12.561,2.629 17.49,2.987c1.987,0.16 4.969,0.279 8.665,0.12c0.716,-1.155 2.147,-3.824 1.233,-6.334c-0.716,-1.991 -2.505,-2.947 -5.724,-4.581c-6.718,-3.465 -10.097,-5.178 -10.176,-5.218c-4.134,-1.633 -9.978,-4.62 -17.252,-10.556c-0.596,1.076 -2.226,3.506 -5.326,5.099c-4.015,2.071 -7.911,1.235 -8.984,0.996z"/>
  <path id="svg_144" fill="#263557" d="m243.67,272.18c-5.605,42.86 -2.067,86.797 10.215,128.183c3.459,11.592 7.593,22.984 12.363,34.098c0.318,0.717 1.311,0.079 1.033,-0.598c-17.013,-39.554 -25.519,-82.614 -25.003,-125.674c0.159,-12.03 1.034,-24.099 2.584,-36.009c0.08,-0.757 -1.113,-0.717 -1.192,0z"/>
  <path id="svg_145" fill="#263557" d="m265.373,276.322c-4.214,39.555 -4.174,80.025 4.412,119.022c2.425,10.954 5.525,21.709 9.301,32.225c0.279,0.717 1.431,0.399 1.153,-0.318c-13.555,-37.444 -17.609,-77.636 -16.138,-117.27c0.397,-11.233 1.272,-22.466 2.464,-33.659c0.08,-0.797 -1.113,-0.797 -1.192,0z"/>
  <path id="svg_146" fill="#263557" d="m266.804,434.7c5.366,1.633 11.368,-1.075 13.674,-6.254c0.318,-0.677 -0.716,-1.314 -1.034,-0.597c-2.067,4.66 -7.433,7.17 -12.322,5.696c-0.716,-0.239 -1.034,0.916 -0.318,1.155z"/>
  <path id="svg_147" fill="#263557" d="m266.009,434.582c0.915,3.266 1.352,6.612 1.272,9.998c0,0.757 1.193,0.757 1.193,0c0.079,-3.506 -0.358,-6.931 -1.312,-10.317c-0.199,-0.757 -1.351,-0.438 -1.153,0.319z"/>
  <path id="svg_148" fill="#263557" d="m267.321,445.774c5.565,4.382 13.237,5.139 19.955,6.573c8.069,1.713 16.337,4.063 24.645,3.545c0.755,-0.04 0.755,-1.235 0,-1.195c-7.95,0.478 -15.821,-1.713 -23.572,-3.346c-6.678,-1.394 -14.668,-2.032 -20.193,-6.413c-0.596,-0.478 -1.431,0.358 -0.835,0.836z"/>
  <path id="svg_149" fill="#263557" d="m280.398,428.726c5.247,4.78 11.448,8.166 17.769,11.313c3.219,1.593 6.439,3.107 9.619,4.74c1.59,0.797 3.299,1.633 4.452,3.027c1.789,2.191 0.795,4.94 -0.199,7.29c-0.278,0.717 0.716,1.314 1.034,0.597c1.232,-2.947 2.305,-6.254 -0.119,-8.883c-2.465,-2.748 -6.718,-4.142 -9.978,-5.736c-7.632,-3.704 -15.383,-7.448 -21.743,-13.185c-0.556,-0.517 -1.391,0.319 -0.835,0.837z"/>
  <path id="svg_150" fill="#263557" d="m242.239,293.571c6.678,3.465 14.389,4.222 21.624,2.111c0.715,-0.199 0.437,-1.354 -0.318,-1.155c-6.917,2.031 -14.31,1.354 -20.71,-1.992c-0.676,-0.358 -1.272,0.677 -0.596,1.036z"/>
  <path id="svg_151" fill="#263557" d="m241.761,305.799c4.174,1.872 8.586,2.589 13.157,2.031c0.756,-0.079 0.756,-1.274 0,-1.195c-4.293,0.558 -8.586,-0.079 -12.561,-1.872c-0.675,-0.318 -1.272,0.717 -0.596,1.036z"/>
  <path id="svg_152" fill="#263557" d="m241.999,333.164c3.021,2.071 6.639,2.589 10.256,2.191c3.657,-0.398 8.149,-1.235 11.289,-3.187c0.636,-0.398 0.04,-1.434 -0.596,-1.035c-2.942,1.832 -7.275,2.629 -10.693,3.027c-3.379,0.398 -6.797,-0.08 -9.659,-2.032c-0.636,-0.438 -1.233,0.598 -0.597,1.036z"/>
  <path id="svg_153" fill="#263557" d="m244.187,350.533c6.519,2.629 13.912,2.032 19.954,-1.593c0.676,-0.399 0.08,-1.434 -0.596,-1.036c-5.803,3.466 -12.799,3.983 -19.04,1.474c-0.716,-0.279 -0.994,0.876 -0.318,1.155z"/>
  <path id="svg_154" fill="#263557" d="m250.268,383.396c6.161,2.19 12.163,-0.598 17.37,-3.784c0.636,-0.399 0.04,-1.434 -0.596,-1.036c-4.969,3.027 -10.613,5.736 -16.456,3.665c-0.716,-0.239 -1.034,0.916 -0.318,1.155z"/>
  <path id="svg_155" fill="#263557" d="m270.58,399.447c-1.987,2.191 -4.452,3.665 -7.274,4.382c-0.755,0.199 -0.437,1.354 0.318,1.155c3.061,-0.757 5.724,-2.35 7.831,-4.661c0.477,-0.597 -0.358,-1.434 -0.875,-0.876z"/>
  <path id="svg_156" fill="#263557" d="m260.723,419.125c2.584,-0.398 5.008,-1.234 7.274,-2.509c0.676,-0.398 0.08,-1.394 -0.596,-1.036c-2.186,1.235 -4.492,2.032 -6.956,2.39c-0.795,0.12 -0.477,1.275 0.278,1.155z"/>
  <path id="svg_157" fill="#686E7B" d="m259.013,268.277c-1.55,5.418 -3.458,13.305 -4.571,22.984c-1.59,13.783 -0.755,24.099 0.278,35.93c3.657,40.749 5.565,61.423 10.057,74.767c4.293,12.747 9.302,22.625 12.919,29.038c-0.159,0.2 -3.578,4.302 -8.03,3.466c-1.59,-0.319 -2.742,-1.115 -3.458,-1.713c-3.14,-7.13 -7.274,-17.327 -11.209,-29.915c-3.26,-10.436 -13.118,-43.976 -13.476,-89.704c-0.079,-11.273 0.358,-26.29 2.584,-43.976c4.969,-0.319 9.938,-0.598 14.906,-0.877z" opacity="0.11"/>
  <path id="svg_158" fill="#686E7B" d="m244.107,278.633c0.556,21.589 2.146,39.753 3.736,53.496c2.703,23.82 4.691,40.232 11.21,60.945c5.247,16.73 11.527,29.995 16.337,39.116c-2.862,0.478 -5.724,0.956 -8.626,1.434c-2.742,-5.855 -5.326,-11.989 -7.751,-18.403c-18.961,-50.309 -19.557,-98.667 -14.906,-136.588z" opacity="0.11"/>
  <path id="svg_159" fill="white" d="m324.005,151.924c-0.795,0.517 -1.789,1.872 -1.272,6.612c0.755,6.692 3.577,11.671 3.776,11.99c10.534,18.482 8.069,16.371 11.329,20.514c3.895,4.899 9.381,11.83 19.08,16.093c4.173,1.832 9.818,4.341 16.059,2.668c5.326,-1.394 9.46,-4.421 9.46,-4.421c1.55,-1.155 3.18,-2.629 6.161,-4.103c1.71,-0.876 3.22,-1.394 4.254,-1.753c0.715,0.399 1.788,0.877 3.14,0.956c2.067,0.12 2.703,-0.756 4.889,-0.956c0.318,-0.039 2.902,-0.199 5.366,1.116c2.544,1.354 3.021,3.266 4.095,2.987c1.152,-0.279 1.55,-2.708 1.59,-3.943c0.039,-1.833 -0.676,-3.187 -1.113,-3.944c-1.034,-1.912 -2.544,-3.027 -3.459,-3.625c-0.159,-0.637 -0.596,-1.951 -1.749,-3.146c-1.391,-1.474 -2.981,-1.912 -3.617,-2.072c-0.119,-0.637 -0.397,-1.553 -1.113,-2.35c-1.908,-2.151 -5.247,-1.553 -6.161,-1.434c-3.18,0.558 -5.088,2.749 -5.684,3.466c-0.398,-0.239 -1.471,-0.797 -2.823,-0.638c-1.749,0.239 -2.742,1.554 -3.14,2.072c-1.59,2.071 -1.192,4.541 -1.113,5.058c-2.623,0.279 -4.571,0.996 -5.843,1.594c-2.425,1.155 -3.22,2.27 -5.525,3.147c-1.153,0.438 -3.141,1.155 -5.526,0.796c-2.067,-0.318 -3.537,-1.274 -4.412,-1.912c-6.956,-4.979 -11.17,-11.352 -11.17,-11.352c-11.964,-18.045 -10.772,-15.535 -11.964,-17.846c-3.896,-7.448 -6.599,-15.057 -11.011,-15.933c-0.358,-0.04 -1.55,-0.279 -2.504,0.359z"/>
  <path id="svg_160" fill="#263557" d="m328.656,151.685c5.207,11.512 11.766,22.426 19.517,32.424c6.598,8.525 15.383,19.319 27.547,17.009c0.755,-0.159 0.437,-1.315 -0.318,-1.155c-12.442,2.35 -21.545,-10.158 -27.984,-18.841c-6.957,-9.321 -12.879,-19.399 -17.689,-30.035c-0.358,-0.717 -1.391,-0.119 -1.073,0.598z"/>
  <path id="svg_161" fill="#263557" d="m363.039,198.569c1.71,0.399 3.458,0.797 5.207,0.518c1.71,-0.279 3.181,-1.195 4.651,-2.031c3.975,-2.231 8.308,-3.426 12.879,-3.506c0.755,0 0.755,-1.195 0,-1.195c-3.577,0.08 -7.115,0.757 -10.454,2.151c-1.63,0.678 -3.101,1.634 -4.651,2.43c-2.464,1.275 -4.69,1.116 -7.314,0.478c-0.755,-0.159 -1.073,0.956 -0.318,1.155z"/>
  <path id="svg_162" fill="#263557" d="m324.125,166.662c5.326,11.353 10.812,22.984 19.795,31.946c7.871,7.808 19.557,14.38 30.886,11.074c3.061,-0.876 5.923,-2.39 8.586,-4.103c2.981,-1.952 5.883,-4.939 9.659,-4.979c0.755,0 0.755,-1.195 0,-1.195c-5.128,0.08 -9.142,4.78 -13.475,7.051c-6.042,3.146 -12.402,3.704 -18.881,1.553c-11.25,-3.744 -19.677,-12.986 -25.758,-22.824c-3.737,-6.095 -6.798,-12.588 -9.819,-19.081c-0.278,-0.756 -1.311,-0.119 -0.993,0.558z"/>
  <path id="svg_163" fill="#263557" d="m385.577,193.192c3.578,0.159 8.785,1.992 7.751,6.612c-0.159,0.757 0.994,1.076 1.153,0.319c1.232,-5.457 -4.492,-7.927 -8.904,-8.126c-0.755,-0.04 -0.755,1.155 0,1.195z"/>
  <path id="svg_164" fill="#263557" d="m382.755,192.594c0.278,-1.434 0.397,-2.947 0.874,-4.302c0.676,-1.952 3.458,-1.474 5.088,-1.195c0.755,0.12 1.073,-1.035 0.318,-1.155c-1.669,-0.279 -4.293,-0.757 -5.684,0.558c-1.391,1.314 -1.391,4.063 -1.749,5.815c-0.159,0.717 0.994,1.036 1.153,0.279z"/>
  <path id="svg_165" fill="#263557" d="m386.69,189.327c2.146,-1.315 4.134,-2.788 6.121,-4.302c1.471,-1.115 2.981,-1.912 4.889,-1.474c1.789,0.438 3.101,1.673 4.055,3.147c0.437,0.637 1.471,0.04 1.033,-0.598c-1.629,-2.429 -4.213,-4.341 -7.314,-3.784c-1.59,0.279 -2.782,1.275 -4.014,2.231c-1.749,1.354 -3.538,2.589 -5.406,3.744c-0.597,0.399 0,1.434 0.636,1.036z"/>
  <path id="svg_166" fill="#263557" d="m395.276,190.084c1.749,-0.358 3.18,-1.036 4.77,-1.713c0.875,-0.358 1.868,-0.677 2.743,-0.358c0.556,0.199 0.994,0.597 1.471,0.956c0.874,0.677 1.709,1.434 2.464,2.23c0.557,0.558 1.391,-0.318 0.835,-0.836c-1.391,-1.394 -3.498,-3.705 -5.644,-3.784c-0.915,-0.04 -1.71,0.398 -2.505,0.796c-1.47,0.757 -2.862,1.275 -4.492,1.594c-0.715,0.119 -0.397,1.274 0.358,1.115z"/>
  <path id="svg_167" fill="#263557" d="m398.059,193.709c1.908,-0.159 3.776,-0.478 5.684,-0.916c1.431,-0.319 2.862,-0.677 4.174,0.199c1.113,0.717 1.789,1.912 2.464,3.028c0.398,0.637 1.431,0.04 1.034,-0.598c-1.113,-1.792 -2.465,-3.784 -4.73,-4.182c-1.113,-0.2 -2.226,0.159 -3.3,0.398c-1.788,0.398 -3.537,0.717 -5.366,0.876c-0.715,0.04 -0.715,1.235 0.04,1.195z"/>
  <path id="svg_168" fill="#263557" d="m394.323,200.958c2.425,0.916 4.531,-0.159 6.877,-0.717c3.617,-0.836 6.161,1.434 8.546,3.784c0.556,0.558 1.391,-0.318 0.834,-0.836c-1.908,-1.872 -3.975,-3.824 -6.717,-4.262c-3.18,-0.518 -6.122,2.071 -9.262,0.876c-0.676,-0.279 -0.994,0.876 -0.278,1.155z"/>
  <path id="svg_169" fill="#263557" d="m403.267,196.3c1.987,-0.04 4.173,0.199 5.962,1.155c2.345,1.274 2.743,4.142 0.676,5.855c-0.596,0.478 0.238,1.315 0.835,0.837c1.868,-1.554 2.385,-4.302 0.874,-6.294c-1.789,-2.39 -5.565,-2.868 -8.347,-2.788c-0.756,0.04 -0.756,1.235 0,1.235z"/>
  <path id="svg_170" fill="#263557" d="m410.183,195.819c0.358,0.757 0.557,1.553 0.596,2.35c0.04,0.757 1.233,0.757 1.193,0c-0.08,-1.036 -0.318,-2.031 -0.755,-2.987c-0.318,-0.638 -1.352,-0.04 -1.034,0.637z"/>
  <path id="svg_171" fill="#263557" d="m329.53,175.823c0.954,-3.784 4.214,-6.612 8.109,-6.931c0.755,-0.079 0.755,-1.274 0,-1.195c-4.452,0.359 -8.188,3.466 -9.262,7.808c-0.159,0.756 0.994,1.075 1.153,0.318z"/>
  <path id="svg_172" fill="#263557" d="m334.141,183.512c0,-2.23 0.834,-4.222 2.385,-5.736c0.556,-0.557 -0.279,-1.394 -0.835,-0.836c-1.789,1.752 -2.743,4.103 -2.743,6.612c0,0.717 1.193,0.717 1.193,-0.04z"/>
  <path id="svg_173" fill="#263557" d="m337.52,188.61c0.397,-4.262 3.259,-7.927 7.314,-9.321c0.715,-0.239 0.397,-1.394 -0.318,-1.155c-4.572,1.593 -7.752,5.656 -8.189,10.476c-0.079,0.757 1.113,0.757 1.193,0z"/>
  <path id="svg_174" fill="#263557" d="m343.483,196.657c0.318,-4.302 3.498,-7.848 7.711,-8.684c0.755,-0.159 0.437,-1.315 -0.318,-1.155c-4.73,0.916 -8.268,5.019 -8.586,9.799c-0.04,0.796 1.153,0.796 1.193,0.04z"/>
  <path id="svg_175" fill="#263557" d="m352.188,204.425c0.397,-3.625 2.544,-6.732 5.684,-8.485c0.676,-0.358 0.079,-1.394 -0.596,-1.036c-3.578,1.992 -5.844,5.458 -6.281,9.521c-0.079,0.756 1.113,0.756 1.193,0z"/>
  <path id="svg_176" fill="#263557" d="m362.125,198.29c2.226,3.147 2.504,7.13 0.596,10.516c-0.357,0.677 0.636,1.275 1.034,0.598c2.067,-3.745 1.868,-8.246 -0.596,-11.751c-0.438,-0.598 -1.471,0 -1.034,0.637z"/>
  <path id="svg_177" fill="#263557" d="m375.878,194.745c0.12,0.597 0.398,0.756 0.954,0.956c1.113,0.438 2.147,0.517 3.18,1.195c2.186,1.473 3.459,3.943 3.419,6.532c0,0.757 1.192,0.757 1.192,0c0.04,-2.151 -0.676,-4.182 -2.067,-5.855c-0.676,-0.797 -1.471,-1.474 -2.345,-1.992c-0.398,-0.239 -3.14,-0.996 -3.18,-1.195c-0.159,-0.717 -1.312,-0.398 -1.153,0.359z"/>
  <path id="svg_178" fill="#686E7B" d="m326.747,157.58c2.067,-0.159 3.339,8.246 7.155,17.248c3.22,7.529 10.216,23.94 24.406,28.481c7.195,2.31 17.609,1.952 25.838,-2.31c3.657,-1.912 5.565,-3.904 10.335,-4.9c5.366,-1.115 13.475,-0.757 15.781,3.745c0.675,1.314 0.715,2.668 0.556,3.744c-2.226,-2.749 -4.253,-3.545 -5.724,-3.744c-2.107,-0.279 -3.259,0.637 -6.32,0.876c-2.385,0.159 -4.412,-0.199 -5.724,-0.558c-2.147,0.757 -5.367,2.111 -8.904,4.302c-3.379,2.111 -4.174,3.227 -6.599,4.302c-4.173,1.833 -8.109,1.315 -11.487,0.877c-8.189,-1.116 -13.913,-4.98 -16.656,-6.892c-2.385,-1.673 -6.042,-4.541 -10.891,-10.635c-4.214,-5.298 -10.097,-13.942 -14.628,-26.449c0.517,-3.824 1.391,-7.967 2.862,-8.087z" opacity="0.11"/>
  <path id="svg_179" fill="#263557" d="m233.614,167.381c0.477,2.43 1.073,5.776 1.67,9.759c0.357,2.549 1.749,12.547 1.868,26.768c0.119,15.137 -1.193,28.122 -2.703,38.001c-1.232,8.245 -2.743,15.097 -3.935,20.156c3.14,2.987 8.228,7.13 15.343,10.396c6.797,3.107 12.959,4.302 17.212,4.78c15.224,-23.94 26.752,-41.626 33.787,-52.301c15.9,-24.258 26.991,-40.63 31.482,-65.805c0.835,-4.581 1.233,-8.405 1.431,-10.994c-5.326,-1.354 -13.117,-2.828 -22.578,-2.509c-1.629,0.04 -5.644,0.239 -13.674,1.673c-8.466,1.474 -19.358,3.983 -31.919,8.285c-7.672,2.589 -17.251,6.373 -27.984,11.791z"/>
  <path id="svg_180" fill="white" d="m265.095,171.004c0.398,3.426 0.835,8.007 1.153,13.464c0.397,6.692 0.397,11.99 0.397,15.814c-0.079,16.013 -0.993,31.747 -1.152,34.734c-0.676,11.353 -1.59,25.733 -2.902,42.503c7.592,-3.068 13.674,-6.015 17.887,-8.206c15.264,-7.847 26.196,-15.814 33.867,-21.47c6.003,-4.422 10.812,-8.286 14.032,-10.915c0.875,-8.444 1.471,-15.734 1.948,-21.47c0.596,-7.329 1.153,-14.3 1.55,-23.581c0.239,-5.497 0.358,-8.285 0.398,-12.109c0.079,-12.867 -0.994,-21.51 -1.352,-24.179c-0.397,-3.107 -0.835,-5.657 -1.153,-7.409c-10.653,2.031 -23.015,5.178 -36.411,10.157c-10.732,3.944 -20.153,8.325 -28.262,12.667z"/>
  <path id="svg_181" fill="#263557" d="m233.892,167.579c22.896,-11.592 47.342,-18.363 72.742,-21.55c0.756,-0.08 0.756,-1.275 0,-1.195c-12.879,1.633 -25.638,3.943 -38.12,7.648c-12.124,3.625 -23.929,8.325 -35.218,14.061c-0.716,0.359 -0.12,1.394 0.596,1.036z"/>
  <path id="svg_182" fill="#263557" d="m233.654,168.096c5.367,-0.279 10.693,0.558 16.02,1.275c5.088,0.717 10.176,1.394 15.303,2.111c0.756,0.119 1.074,-1.036 0.318,-1.155c-5.366,-0.757 -10.692,-1.474 -16.059,-2.231c-5.167,-0.717 -10.335,-1.474 -15.582,-1.195c-0.755,0.04 -0.755,1.235 0,1.195z"/>
  <path id="svg_183" fill="#263557" d="m305.999,146.268c8.069,-0.518 16.099,0.319 23.93,2.39c0.755,0.199 1.073,-0.956 0.318,-1.155c-7.911,-2.111 -16.059,-2.948 -24.248,-2.43c-0.755,0.08 -0.755,1.275 0,1.195z"/>
  <path id="svg_184" fill="#263557" d="m266.049,171.043c20.233,-10.038 41.698,-17.447 63.799,-22.068c0.755,-0.159 0.437,-1.315 -0.318,-1.155c-22.22,4.66 -43.765,12.109 -64.117,22.187c-0.636,0.358 -0.039,1.394 0.636,1.036z"/>
  <path id="svg_185" fill="#263557" d="m264.022,170.925c3.458,27.246 1.749,54.771 0,82.057c-0.517,8.046 -1.033,16.092 -2.186,24.059c-0.119,0.757 1.033,1.076 1.153,0.319c1.987,-13.623 2.504,-27.485 3.259,-41.228c0.755,-13.822 1.272,-27.644 0.835,-41.466c-0.278,-7.927 -0.835,-15.894 -1.868,-23.741c-0.12,-0.757 -1.312,-0.757 -1.193,0z"/>
  <path id="svg_186" fill="#263557" d="m233.494,167.181c4.929,31.11 3.936,63.016 -2.981,93.768c-0.159,0.757 0.994,1.075 1.153,0.318c6.956,-30.95 7.95,-63.056 2.981,-94.405c-0.119,-0.756 -1.272,-0.438 -1.153,0.319z"/>
  <path id="svg_187" fill="#263557" d="m230.354,261.864c8.586,8.604 19.756,14.261 31.761,16.013c0.755,0.12 1.073,-1.035 0.318,-1.155c-11.806,-1.752 -22.777,-7.249 -31.244,-15.734c-0.556,-0.478 -1.391,0.359 -0.835,0.876z"/>
  <path id="svg_188" fill="#263557" d="m329.014,148.898c5.128,29.118 1.789,58.754 -1.55,87.912c-0.08,0.757 1.113,0.757 1.192,0c3.339,-29.238 6.678,-58.953 1.511,-88.231c-0.12,-0.757 -1.272,-0.438 -1.153,0.319z"/>
  <path id="svg_189" fill="#263557" d="m327.504,236.73c-19.796,16.651 -41.937,30.353 -65.628,40.67c-0.715,0.319 -0.079,1.354 0.597,1.036c23.77,-10.357 45.99,-24.139 65.865,-40.829c0.597,-0.518 -0.238,-1.355 -0.834,-0.877z"/>
  <path id="svg_190" fill="#263557" d="m269.27,175.188c-0.676,-0.558 -0.994,-1.594 -0.477,-2.351c0.477,-0.756 1.669,-1.035 2.424,-0.517c0.716,0.478 0.954,1.593 0.517,2.35c-0.596,0.956 -1.948,1.035 -2.743,0.318c-0.437,-0.398 -1.073,0.239 -0.636,0.638c1.113,0.996 2.862,1.035 3.856,-0.12c0.954,-1.075 0.795,-2.868 -0.318,-3.784c-1.073,-0.876 -2.743,-0.677 -3.657,0.319c-0.954,1.115 -0.715,2.868 0.398,3.784c0.477,0.358 1.113,-0.279 0.636,-0.637z"/>
  <path id="svg_191" fill="#263557" d="m270.263,181.641c0.199,4.541 0.397,9.082 0.596,13.623c0.04,0.558 0.915,0.597 0.915,0c-0.199,-4.541 -0.398,-9.082 -0.597,-13.623c-0.039,-0.558 -0.954,-0.558 -0.914,0z"/>
  <path id="svg_192" fill="#263557" d="m270.74,181.839c12.76,-5.537 25.957,-10.078 39.393,-13.623c0.556,-0.159 0.318,-0.996 -0.239,-0.876c-13.515,3.585 -26.752,8.166 -39.591,13.702c-0.556,0.279 -0.079,1.036 0.437,0.797z"/>
  <path id="svg_193" fill="#263557" d="m271.615,195.382c10.375,-5.537 21.266,-9.999 32.516,-13.305c0.556,-0.159 0.318,-1.035 -0.239,-0.876c-11.329,3.346 -22.3,7.847 -32.714,13.424c-0.517,0.239 -0.08,0.996 0.437,0.757z"/>
  <path id="svg_194" fill="#263557" d="m309.576,167.898c-1.868,4.541 -3.776,9.082 -5.645,13.623c-0.238,0.518 0.636,0.757 0.875,0.239c1.868,-4.541 3.776,-9.082 5.644,-13.623c0.199,-0.518 -0.675,-0.757 -0.874,-0.239z"/>
  <path id="svg_195" fill="#263557" d="m311.684,167.699c-1.749,4.382 -3.538,8.763 -5.406,13.105c-0.239,0.518 0.556,0.996 0.755,0.438c1.868,-4.421 3.736,-8.843 5.485,-13.304c0.279,-0.518 -0.596,-0.757 -0.834,-0.239z"/>
  <path id="svg_196" fill="#263557" d="m306.993,181.601c3.697,-1.594 7.354,-3.187 11.051,-4.781c0.516,-0.239 0.079,-0.995 -0.438,-0.756c-3.696,1.593 -7.353,3.186 -11.05,4.78c-0.517,0.199 -0.08,0.996 0.437,0.757z"/>
  <path id="svg_197" fill="#263557" d="m312.676,168.016c2.226,-0.916 4.531,-1.633 6.916,-2.111c0.557,-0.119 0.318,-0.996 -0.238,-0.876c-2.385,0.478 -4.691,1.155 -6.917,2.111c-0.516,0.199 -0.318,1.075 0.239,0.876z"/>
  <path id="svg_198" fill="#263557" d="m319.235,165.827c-0.795,3.306 -1.431,6.652 -1.948,10.038c-0.079,0.558 0.795,0.797 0.875,0.239c0.517,-3.386 1.153,-6.732 1.948,-10.038c0.119,-0.557 -0.756,-0.796 -0.875,-0.239z"/>
  <path id="svg_199" fill="#263557" d="m322.455,235.256c-9.659,5.497 -19.318,10.994 -29.017,16.491c-0.517,0.279 -0.04,1.075 0.437,0.757c9.659,-5.497 19.318,-10.994 29.017,-16.491c0.517,-0.279 0.04,-1.036 -0.437,-0.757z"/>
  <path id="svg_200" fill="#263557" d="m294.432,232.188c0.278,3.186 -0.199,6.493 -0.437,9.719c-0.239,3.426 -0.477,6.851 -0.755,10.277c-0.04,0.558 0.834,0.558 0.914,0c0.238,-3.426 0.477,-6.851 0.755,-10.277c0.239,-3.187 0.716,-6.493 0.437,-9.719c-0.079,-0.558 -0.993,-0.558 -0.914,0z"/>
  <path id="svg_201" fill="#263557" d="m294.987,232.188c9.421,-5.298 19.319,-9.719 29.574,-13.145c0.557,-0.199 0.318,-1.036 -0.238,-0.876c-10.335,3.465 -20.313,7.887 -29.813,13.224c-0.477,0.279 0,1.076 0.477,0.797z"/>
  <path id="svg_202" fill="#263557" d="m324.362,218.924c-0.477,5.537 -1.272,11.034 -2.464,16.451c-0.119,0.558 0.755,0.797 0.874,0.239c1.193,-5.497 2.028,-11.073 2.505,-16.69c0.039,-0.558 -0.835,-0.558 -0.915,0z"/>
  <path id="svg_203" fill="white" d="m234.847,167.738c6.876,0.478 13.634,1.593 20.312,3.226c0.755,0.2 1.073,-0.956 0.318,-1.155c-6.797,-1.673 -13.674,-2.788 -20.63,-3.266c-0.756,-0.08 -0.756,1.115 0,1.195z"/>
  <path id="svg_204" fill="#686E7B" d="m302.422,155.709c-1.948,3.545 -4.969,9.241 -8.268,16.332c-8.904,19.159 -31.045,66.8 -16.298,81.22c2.703,2.629 8.706,6.174 23.612,3.067c-12.839,7.09 -25.679,14.22 -38.518,21.311c1.908,-17.806 2.822,-33.062 3.299,-45.012c0.318,-7.967 0.716,-18.363 0.477,-32.225c-0.198,-11.512 -0.795,-21.391 -1.431,-29.118c4.413,-2.39 9.222,-4.78 14.43,-7.091c8.029,-3.545 15.661,-6.333 22.697,-8.484z" opacity="0.1"/>
  <path id="svg_205" fill="white" d="m145.965,72.1766c-0.716,0.9958 0.199,2.7485 0.636,3.6248c0.795,1.5137 2.822,4.6207 8.188,6.931c-1.987,0.4382 -2.782,1.2348 -3.14,1.912c-0.715,1.3145 0.159,2.2307 0.159,5.3775c0,2.3103 -0.517,2.6688 -0.318,4.5808c0.159,1.6332 0.676,2.9477 1.113,3.7842c0.08,0.7568 0.199,1.8321 0.477,3.1471c0.199,0.956 0.318,1.434 0.477,1.752c0.835,1.514 3.18,2.311 5.207,1.912c2.544,-0.557 3.657,-2.868 3.777,-3.146c1.073,1.593 2.106,2.071 2.822,2.19c1.312,0.239 2.186,-0.517 4.73,-1.115c1.272,-0.319 2.306,-0.438 2.981,-0.478c-0.079,1.474 -0.198,3.665 -0.318,6.334c-0.357,8.803 -0.556,13.423 -0.159,18.96c0.12,1.753 0.557,6.971 2.067,13.583c0.915,4.063 2.346,10.198 5.685,17.208c2.067,4.342 5.286,11.154 12.123,17.686c3.101,2.948 10.534,9.879 22.539,12.468c8.943,1.912 16.416,0.598 20.63,-0.478c3.259,-1.752 6.519,-3.465 9.778,-5.218c0.477,-0.677 1.272,-2.111 1.272,-3.943c0,-2.749 -1.709,-5.338 -4.412,-6.772c-2.067,0.518 -4.929,1.115 -8.347,1.434c-3.339,0.279 -9.938,0.797 -17.649,-1.593c-3.3,-0.996 -12.045,-3.824 -18.762,-11.99c-3.18,-3.864 -4.572,-7.33 -6.917,-13.265c-2.782,-6.971 -3.895,-12.468 -5.048,-18.164c-2.425,-12.268 -3.657,-18.443 -2.504,-24.457c0.596,-3.107 1.709,-6.8119 0.954,-11.9903c-0.756,-5.0588 -2.703,-7.648 -3.3,-8.365c-1.629,-2.0315 -3.617,-3.2265 -4.73,-3.9435c-2.027,-1.2746 -1.63,-0.5576 -5.048,-2.3501c-0.596,-0.3187 -1.272,-0.6772 -2.186,-0.6374c-1.074,0.0797 -1.908,0.6772 -2.346,1.1154c-2.504,-0.717 -4.611,-1.3942 -6.161,-1.912c-3.538,-1.1552 -5.326,-1.7129 -6.161,-2.1909c-2.107,-1.195 -2.862,-2.2306 -4.889,-2.5095c-0.636,-0.1991 -2.505,-0.478 -3.22,0.5179z"/>
  <path id="svg_206" fill="#263557" d="m183.409,94.5252c-1.312,8.7238 -1.153,17.5268 0.04,26.2498c1.192,8.804 3.18,17.726 6.24,26.051c2.584,7.051 6.321,13.663 12.164,18.523c5.088,4.222 11.209,7.01 17.649,8.365c7.354,1.553 15.065,1.195 22.26,-0.956c0.715,-0.239 0.437,-1.394 -0.318,-1.155c-12.482,3.744 -26.792,1.872 -37.365,-5.975c-6.042,-4.502 -10.097,-10.835 -12.76,-17.806c-2.902,-7.449 -4.73,-15.415 -6.082,-23.262c-1.669,-9.839 -2.146,-19.877 -0.675,-29.756c0.119,-0.717 -1.034,-1.0357 -1.153,-0.2788z"/>
  <path id="svg_207" fill="#263557" d="m172.358,102.73c-1.471,19.638 -0.835,40.231 8.308,58.117c7.672,15.017 21.187,27.086 38.319,29.158c9.301,1.115 18.921,-0.837 26.632,-6.294c0.636,-0.438 0.04,-1.474 -0.596,-1.036c-13.873,9.839 -33.151,7.728 -46.468,-2.031c-14.071,-10.357 -21.663,-27.246 -24.287,-44.136c-1.749,-11.153 -1.55,-22.545 -0.715,-33.778c0.079,-0.757 -1.113,-0.757 -1.193,0z"/>
  <path id="svg_208" fill="#263557" d="m241.404,172.718c4.174,1.673 5.526,6.493 3.061,10.197c-0.437,0.637 0.596,1.235 1.034,0.598c2.941,-4.382 1.073,-9.999 -3.777,-11.95c-0.715,-0.279 -1.033,0.876 -0.318,1.155z"/>
  <path id="svg_209" fill="#263557" d="m175.856,89.1077c1.392,-2.5891 -2.504,-2.3103 -3.776,-2.7086c-1.669,-0.5577 -3.538,-2.0315 -4.73,-3.3062c-1.789,-1.912 -1.948,-5.8555 1.789,-5.1385c7.433,1.4738 15.343,8.2853 14.19,16.4512c-0.119,0.7568 1.034,1.0755 1.153,0.3186c1.272,-9.1616 -7.155,-16.1723 -15.383,-18.0046c-3.021,-0.6772 -4.969,2.1908 -4.055,4.9791c0.557,1.673 2.028,2.9079 3.379,3.9037c0.835,0.6373 1.749,1.2747 2.703,1.7128c0.437,0.1594 3.816,0.8365 3.617,1.195c-0.278,0.6772 0.756,1.2747 1.113,0.5975z"/>
  <path id="svg_210" fill="#263557" d="m165.283,77.1967c-4.73,-1.1153 -9.341,-2.7485 -13.674,-4.9792c-1.988,-1.0356 -6.082,-2.9078 -6.161,1.0357c-0.04,3.1468 2.782,6.3335 5.127,8.0862c3.538,2.6688 7.95,3.6646 12.204,4.302c0.755,0.1195 1.073,-1.0357 0.318,-1.1552c-6.162,-0.956 -14.231,-3.107 -16.218,-9.9982c-0.159,-0.3983 -0.239,-0.7966 -0.239,-1.2348c0.755,-1.2747 1.59,-1.5535 2.624,-0.9162c0.715,0.3187 1.351,0.717 2.067,1.0755c1.311,0.6374 2.623,1.2747 3.975,1.8324c3.14,1.3145 6.36,2.3501 9.659,3.107c0.755,0.1991 1.073,-0.956 0.318,-1.1552z"/>
  <path id="svg_211" fill="#263557" d="m153.755,82.2554c-2.226,0.6374 -3.14,3.3859 -3.061,5.497c0.119,2.7087 1.868,4.9792 4.134,6.3335c2.067,1.2747 5.207,2.2705 7.394,0.6373c1.59,-1.195 1.947,-3.4655 0.556,-4.9393c-0.517,-0.5577 -1.351,0.2788 -0.835,0.8365c0.954,0.9958 0.477,2.5095 -0.516,3.1867c-0.875,0.5975 -2.067,0.5576 -3.061,0.3983c-1.55,-0.2788 -3.061,-1.1153 -4.253,-2.151c-1.153,-1.0356 -1.948,-2.3502 -2.147,-3.8638c-0.238,-1.6332 0.239,-4.2622 2.107,-4.8198c0.755,-0.1594 0.437,-1.3145 -0.318,-1.1154z"/>
  <path id="svg_212" fill="#263557" d="m151.409,90.2221c-1.311,3.3061 -0.437,7.3691 2.385,9.6795c1.272,1.0354 3.021,1.6734 4.651,1.3944c1.63,-0.319 2.584,-1.4741 3.538,-2.7488c0.437,-0.6373 -0.596,-1.2348 -1.034,-0.5975c-1.033,1.3942 -2.226,2.4693 -4.054,2.1113c-1.511,-0.2789 -2.783,-1.2748 -3.617,-2.5096c-1.392,-2.0713 -1.59,-4.6605 -0.676,-6.9708c0.238,-0.7569 -0.914,-1.0755 -1.193,-0.3585z"/>
  <path id="svg_213" fill="#263557" d="m151.807,98.3073c0.119,3.2667 1.391,7.0507 5.048,7.7677c3.895,0.757 6.002,-3.227 6.996,-6.3337c0.238,-0.717 -0.914,-1.0357 -1.153,-0.3187c-0.795,2.4694 -2.425,6.1344 -5.684,5.4174c-3.021,-0.637 -3.935,-3.864 -4.015,-6.5327c0,-0.7569 -1.192,-0.7967 -1.192,0z"/>
  <path id="svg_214" fill="#263557" d="m162.183,101.974c0.397,1.753 2.186,2.39 3.816,2.629c2.584,0.398 4.492,-0.916 6.996,-1.195c0.755,-0.08 0.755,-1.275 0,-1.195c-1.232,0.159 -2.306,0.637 -3.538,0.956c-1.55,0.438 -5.605,0.797 -6.121,-1.514c-0.159,-0.756 -1.312,-0.438 -1.153,0.319z"/>
  <path id="svg_215" fill="#263557" d="m173.035,103.169c3.974,1.553 8.466,0.079 10.851,-3.426c0.437,-0.6373 -0.596,-1.2348 -1.033,-0.5975c-2.107,3.1075 -6.082,4.2225 -9.5,2.8685c-0.716,-0.279 -0.994,0.876 -0.318,1.155z"/>
  <path id="svg_216" fill="#263557" d="m218.031,173.912c1.551,1.514 1.193,5.457 1.074,7.449c-0.159,2.589 -0.915,5.059 -2.743,6.971c-0.517,0.557 0.318,1.394 0.835,0.836c2.027,-2.151 2.901,-4.899 3.06,-7.807c0.159,-2.39 0.477,-6.453 -1.391,-8.325c-0.556,-0.518 -1.391,0.318 -0.835,0.876z"/>
  <path id="svg_217" fill="#263557" d="m229.837,174.669c2.425,4.501 2.464,9.839 0.119,14.38c-0.358,0.677 0.676,1.274 1.034,0.597c2.544,-4.939 2.504,-10.675 -0.12,-15.575c-0.357,-0.717 -1.391,-0.079 -1.033,0.598z"/>
  <path id="svg_218" fill="#263557" d="m173.034,127.348c3.975,1.354 8.189,0.916 11.846,-1.195c0.675,-0.399 0.079,-1.434 -0.597,-1.036c-3.378,1.952 -7.194,2.31 -10.931,1.075c-0.715,-0.239 -1.033,0.917 -0.318,1.156z"/>
  <path id="svg_219" fill="#263557" d="m176.692,150.69c5.048,1.075 10.176,-0.797 13.316,-4.9c0.477,-0.597 -0.557,-1.195 -1.034,-0.597c-2.822,3.625 -7.473,5.337 -11.964,4.342c-0.756,-0.16 -1.074,0.995 -0.318,1.155z"/>
  <path id="svg_220" fill="#263557" d="m198.435,162.122c0.159,2.23 -0.597,4.262 -2.147,5.855c-0.556,0.558 0.318,1.394 0.835,0.836c1.789,-1.792 2.663,-4.182 2.504,-6.731c-0.04,-0.717 -1.232,-0.717 -1.192,0.04z"/>
  <path id="svg_221" fill="#263557" d="m173.71,138.818c1.749,0.797 3.618,0.956 5.446,0.399c0.755,-0.199 0.437,-1.355 -0.318,-1.155c-1.51,0.438 -3.061,0.358 -4.531,-0.279c-0.676,-0.319 -1.312,0.717 -0.597,1.035z"/>
  <path id="svg_222" fill="#263557" d="m172.795,110.816c3.419,0.836 6.758,0.478 9.977,-0.957c0.716,-0.318 0.08,-1.354 -0.596,-1.035c-2.902,1.314 -5.962,1.553 -9.063,0.836c-0.755,-0.199 -1.073,0.956 -0.318,1.156z"/>
  <path id="svg_223" fill="#263557" d="m183.609,165.826c5.684,1.315 11.13,-1.673 13.077,-7.17c0.239,-0.717 -0.874,-1.035 -1.152,-0.318c-1.71,4.859 -6.599,7.488 -11.607,6.333c-0.756,-0.199 -1.074,0.956 -0.318,1.155z"/>
  <path id="svg_224" fill="#263557" d="m207.896,169.849c1.709,5.059 -3.498,10.157 -7.434,12.308c-0.675,0.359 -0.079,1.395 0.597,1.036c4.412,-2.39 9.897,-8.086 7.989,-13.623c-0.238,-0.757 -1.391,-0.438 -1.152,0.279z"/>
  <path id="svg_225" fill="#686E7B" d="m155.903,84.4859c1.431,1.4738 -0.279,3.9435 0.954,5.5368c0.675,0.8365 2.186,1.4738 5.883,0.7568c0,0.6374 0.039,1.5934 0.397,2.6689c0,0 0.795,2.5493 3.021,4.1825c2.584,1.912 6.44,1.9518 9.898,0.1992c0.159,2.3899 0.437,5.7759 0.755,9.9189c1.868,23.661 2.584,27.923 3.617,31.986c1.193,4.78 2.703,10.715 6.639,17.327c2.464,4.103 10.732,17.487 27.745,22.825c14.429,4.541 26.831,0.637 31.164,-0.956c-0.238,1.633 -0.517,3.306 -0.755,4.939c-1.908,1.155 -4.651,2.629 -8.149,3.824c-0.437,0.159 -8.308,2.709 -17.092,1.912c-16.576,-1.514 -28.104,-14.181 -30.966,-17.327c-10.335,-11.393 -13.276,-23.861 -14.628,-29.517c-1.987,-8.484 -2.146,-16.292 -2.265,-21.908c-0.159,-7.13 0.278,-13.145 0.755,-17.527c-0.716,0.359 -2.544,1.115 -4.929,0.757c-2.703,-0.398 -4.412,-1.952 -4.929,-2.47c-0.119,0.319 -0.755,2.271 -2.862,3.227c-0.119,0.079 -2.385,1.035 -4.373,0c-1.788,-0.916 -2.265,-2.908 -3.219,-6.8516c-0.597,-2.39 -0.716,-4.1028 -0.954,-6.8513c-0.477,-6.0149 0.159,-6.7319 0.556,-7.0505c0.954,-0.7569 2.822,-0.5577 3.737,0.3983z" opacity="0.13"/>
  <path id="svg_226" fill="#686E7B" d="m180.587,158.338c1.192,1.394 3.021,3.426 5.326,5.696c4.055,4.023 13.277,13.225 23.572,17.527c14.35,5.975 29.177,1.832 35.894,-0.558c-0.238,0.837 -0.516,1.633 -0.755,2.47c-1.987,1.075 -20.829,10.874 -40.823,1.314c-16.695,-7.927 -22.26,-23.581 -23.214,-26.449z" opacity="0.15"/>
  <path id="svg_227" fill="white" d="m270.542,134.876c-0.398,2.231 -0.557,4.183 -0.597,5.617c-0.039,0.876 -0.159,4.142 0.477,8.444c0.279,1.992 0.676,3.665 0.994,4.9c1.63,0.438 3.975,0.876 6.837,0.717c3.776,-0.199 6.678,-1.355 8.427,-2.191c-0.079,-1.076 -0.159,-2.788 -0.358,-4.9c-0.437,-4.74 -0.795,-6.413 -0.834,-9.52c-0.04,-1.314 0,-3.306 0.238,-5.736c-1.669,-0.438 -4.969,-1.075 -8.904,-0.119c-2.902,0.637 -5.008,1.872 -6.28,2.788z"/>
  <path id="svg_228" fill="#263557" d="m270.025,134.439c-1.352,6.293 -0.477,12.627 0.516,18.92c0.12,0.757 1.272,0.439 1.153,-0.318c-0.954,-6.055 -1.828,-12.229 -0.517,-18.284c0.159,-0.757 -0.993,-1.075 -1.152,-0.318z"/>
  <path id="svg_229" fill="#263557" d="m270.82,135.275c1.789,-1.594 4.412,-2.151 6.678,-2.629c2.584,-0.518 5.128,-0.598 7.711,-0.12c0.756,0.16 1.074,-0.996 0.318,-1.155c-2.782,-0.558 -5.565,-0.438 -8.347,0.12c-2.544,0.517 -5.247,1.155 -7.235,2.947c-0.516,0.518 0.318,1.355 0.875,0.837z"/>
  <path id="svg_230" fill="#263557" d="m285.09,132.128c-0.477,6.692 -0.119,13.384 0.994,19.996c0.119,0.757 1.272,0.439 1.153,-0.318c-1.113,-6.533 -1.431,-13.105 -0.954,-19.678c0.039,-0.757 -1.153,-0.757 -1.193,0z"/>
  <path id="svg_231" fill="#263557" d="m270.781,153.757c1.947,1.554 5.247,1.354 7.632,1.275c2.981,-0.08 5.883,-0.717 8.467,-2.231c0.675,-0.398 0.079,-1.434 -0.597,-1.036c-2.226,1.315 -4.65,1.912 -7.195,2.072c-2.027,0.119 -5.763,0.398 -7.433,-0.916c-0.636,-0.478 -1.471,0.358 -0.874,0.836z"/>
  <path id="svg_232" fill="#263557" d="m270.581,141.847c1.47,-2.071 3.935,-2.748 6.32,-3.266c2.663,-0.598 5.406,-1.155 7.87,0.358c0.676,0.399 1.272,-0.637 0.597,-1.035c-2.743,-1.673 -5.804,-1.156 -8.785,-0.478c-2.703,0.637 -5.327,1.473 -7.036,3.824c-0.437,0.597 0.596,1.195 1.034,0.597z"/>
  <path id="svg_233" fill="#263557" d="m270.819,148.658c4.055,-3.306 9.341,-4.621 14.509,-3.585c0.755,0.159 1.073,-0.996 0.318,-1.155c-5.605,-1.115 -11.21,0.279 -15.662,3.904c-0.596,0.478 0.239,1.314 0.835,0.836z"/>
  <path id="svg_234" fill="#263557" d="m277.458,150.291c1.352,-0.597 2.743,-0.797 4.254,-0.797c1.033,0 3.339,-0.119 4.054,0.717c0.517,0.598 1.352,-0.278 0.835,-0.836c-0.914,-1.076 -2.981,-0.956 -4.253,-1.036c-1.908,-0.079 -3.697,0.199 -5.486,0.956c-0.715,0.279 -0.119,1.275 0.596,0.996z"/>
  <path id="svg_235" fill="#263557" d="m233.098,130.455c3.378,1.912 8.665,4.462 15.462,5.856c7.314,1.513 12.999,1.035 19.398,0.478c2.544,-0.239 11.011,-1.076 22.3,-4.382c6.996,-2.071 16.377,-5.457 26.831,-11.233c0.795,-3.943 1.511,-8.484 1.829,-13.543c0.358,-5.457 0.238,-10.3967 -0.119,-14.6589c-2.226,-2.4696 -4.929,-5.1385 -8.149,-7.8073c-2.942,-2.4697 -5.804,-4.4613 -8.427,-6.0945c-23.055,17.1283 -46.07,34.2567 -69.125,51.3847z"/>
  <path id="svg_236" fill="white" d="m302.104,79.0293c0.556,1.9917 1.272,4.8198 1.828,8.3252c0.358,2.1908 1.471,10.1575 0.12,20.6335c-0.358,2.948 -1.034,6.851 -2.306,11.353c-1.431,0.876 -3.418,2.031 -5.843,3.306c-8.03,4.182 -14.787,6.174 -17.172,6.851c-1.709,0.478 -9.858,2.709 -21.107,3.187c-6.201,0.239 -14.787,0.04 -24.884,-2.072c0.716,-12.149 1.471,-24.258 2.186,-36.4072c2.266,-1.1153 5.406,-2.5892 9.262,-4.1427c2.465,-0.9958 13.873,-5.5368 30.25,-8.4446c7.314,-1.3145 16.655,-2.4697 27.666,-2.5892z"/>
  <path id="svg_237" fill="#263557" d="m234.568,94.1659c-0.835,12.1091 -1.669,24.2581 -2.464,36.3681c-0.04,0.757 1.152,0.757 1.192,0c0.835,-12.11 1.67,-24.259 2.465,-36.3681c0.039,-0.7967 -1.153,-0.7967 -1.193,0z"/>
  <path id="svg_238" fill="#263557" d="m235.8,94.3267c20.551,-9.4803 43.009,-14.4595 65.627,-14.579c0.755,0 0.755,-1.195 0,-1.195c-22.856,0.1195 -45.474,5.1385 -66.223,14.7384c-0.676,0.3186 -0.08,1.3543 0.596,1.0356z"/>
  <path id="svg_239" fill="#263557" d="m232.541,130.894c23.612,5.776 48.813,1.872 69.483,-10.954c0.636,-0.399 0.04,-1.434 -0.596,-1.036c-20.432,12.627 -45.275,16.531 -68.569,10.835c-0.755,-0.199 -1.073,0.956 -0.318,1.155z"/>
  <path id="svg_240" fill="#263557" d="m301.228,79.2299c3.737,13.2645 3.618,27.2861 -0.318,40.5101c-0.238,0.757 0.914,1.036 1.153,0.319c4.015,-13.384 4.134,-27.6841 0.318,-41.1477c-0.199,-0.7569 -1.352,-0.4382 -1.153,0.3186z"/>
  <path id="svg_241" fill="#263557" d="m301.905,79.3887c6.24,4.0231 11.726,9.0023 16.337,14.818c0.477,0.5975 1.312,-0.239 0.835,-0.8365c-4.691,-5.8954 -10.256,-10.9144 -16.576,-14.9774c-0.636,-0.478 -1.232,0.5577 -0.596,0.9959z"/>
  <path id="svg_242" fill="#263557" d="m318.004,93.8479c0.834,9.2811 0.318,18.5621 -1.551,27.7241c-0.159,0.757 0.994,1.075 1.153,0.319c1.908,-9.242 2.425,-18.642 1.59,-28.0033c-0.079,-0.7966 -1.272,-0.7966 -1.192,-0.0398z"/>
  <path id="svg_243" fill="#263557" d="m232.621,131.253c3.299,1.354 6.598,2.669 9.897,4.023c2.465,0.996 5.009,1.394 7.593,1.713c6.081,0.837 12.282,1.036 18.404,0.478c10.295,-0.876 20.471,-3.824 30.13,-7.369c6.519,-2.39 12.84,-5.258 18.921,-8.564c0.676,-0.359 0.08,-1.394 -0.596,-1.036c-9.699,5.258 -19.915,9.202 -30.488,12.229c-11.13,3.187 -22.499,4.581 -34.066,3.306c-2.782,-0.319 -5.883,-0.518 -8.506,-1.514c-3.697,-1.394 -7.354,-2.987 -11.011,-4.461c-0.676,-0.239 -0.994,0.916 -0.278,1.195z"/>
  <path id="svg_244" fill="#263557" d="m301.189,120.895c5.326,1.035 10.692,1.234 16.098,0.597c0.756,-0.08 0.756,-1.275 0,-1.195c-5.286,0.637 -10.533,0.438 -15.78,-0.558c-0.756,-0.119 -1.074,0.996 -0.318,1.156z"/>
  <path id="svg_245" fill="#263557" d="m246.732,102.851c-1.034,-0.478 -0.875,-1.952 -0.914,-2.8678c-0.04,-0.478 -0.08,-0.956 -0.04,-1.4738c0,-0.5577 0.079,-1.0357 0.318,-1.5535c0.278,-0.6374 0.715,-0.717 1.232,-0.3187c0.914,0.3187 0.795,0.5577 0.795,1.434c0,0.5178 -0.04,0.9958 -0.079,1.5137c-0.04,0.5181 -0.04,1.0751 -0.08,1.5931c0,0.16 -0.437,2.908 -1.192,1.793c-0.438,-0.638 -1.471,-0.04 -1.034,0.597c1.153,1.713 2.981,0.359 3.299,-1.195c0.279,-1.394 0.279,-3.0271 0.279,-4.4611c0,-0.9162 -0.159,-1.9519 -0.954,-2.5095c-1.789,-1.2747 -3.538,0.8365 -3.737,2.5095c-0.199,1.7128 -0.397,5.1381 1.511,6.0151c0.675,0.279 1.272,-0.757 0.596,-1.076z"/>
  <path id="svg_246" fill="#263557" d="m246.175,96.1581c-0.676,2.4696 -0.517,4.9789 0.437,7.3689c0.238,0.598 1.192,0.558 1.153,-0.159c-0.04,-2.31 0.079,-4.5809 0.357,-6.8514c-0.397,0 -0.795,0 -1.192,0c0.119,0.956 0.199,1.8721 0.199,2.8281c0,0.3984 0.039,0.9163 -0.04,1.2743c-0.04,0.279 -0.398,1.275 -0.239,0.319c0.12,-0.757 -1.073,-0.757 -1.192,0c-0.159,1.155 0.954,2.908 2.186,1.713c0.477,-0.478 0.437,-1.394 0.477,-2.032c0.08,-1.3938 0,-2.7481 -0.159,-4.1024c-0.079,-0.7569 -1.073,-0.7569 -1.192,0c-0.318,2.2705 -0.438,4.5414 -0.358,6.8514c0.397,-0.04 0.795,-0.12 1.153,-0.159c-0.875,-2.191 -1.034,-4.4219 -0.438,-6.7323c0.199,-0.717 -0.954,-1.0356 -1.152,-0.3186z"/>
  <path id="svg_247" fill="#263557" d="m245.738,97.1542c-0.318,0.7966 -0.358,1.6331 -0.239,2.4696c0.04,0.3187 0.438,0.4782 0.716,0.3982c0.358,-0.0795 0.477,-0.3982 0.397,-0.7168c-0.079,-0.6374 0.04,-1.2349 0.239,-1.8324c0.318,-0.717 -0.835,-1.0356 -1.113,-0.3186z"/>
  <path id="svg_248" fill="#263557" d="m279.724,96.7954c-1.034,-0.478 -0.875,-1.9519 -0.915,-2.868c-0.039,-0.478 -0.079,-0.9162 -0.039,-1.3942c0,-0.2788 0,-0.5577 0.079,-0.7967c0.04,-0.9161 0.795,-1.195 2.186,-0.7966c0.398,0.5975 0.04,2.2705 0,2.9078c-0.039,0.4382 -0.039,0.8763 -0.079,1.3145c0,0.1593 -0.437,2.9078 -1.193,1.7925c-0.437,-0.6373 -1.47,-0.0398 -1.033,0.5975c1.153,1.7128 2.981,0.3585 3.299,-1.195c0.278,-1.3543 0.239,-2.9078 0.278,-4.2622c0,-0.9161 -0.079,-1.9916 -0.834,-2.629c-1.71,-1.4738 -3.578,0.5179 -3.856,2.1909c-0.278,1.7128 -0.437,5.2978 1.471,6.214c0.755,0.2788 1.351,-0.717 0.636,-1.0755z"/>
  <path id="svg_249" fill="#263557" d="m279.207,90.1437c-0.676,2.4697 -0.517,4.9792 0.437,7.3692c0.239,0.5975 1.193,0.5576 1.153,-0.1594c-0.04,-2.3103 0.079,-4.5808 0.358,-6.8513c-0.398,0 -0.795,0 -1.193,0c0.119,0.956 0.199,1.8722 0.199,2.8282c0,0.3983 0.04,0.9161 -0.04,1.2746c-0.04,0.2789 -0.397,1.2747 -0.238,0.3187c0.119,-0.7568 -1.074,-0.7568 -1.193,0c-0.159,1.1552 0.954,2.9078 2.186,1.7128c0.477,-0.478 0.438,-1.3941 0.477,-2.0315c0.08,-1.3941 0,-2.7485 -0.159,-4.1028c-0.079,-0.7568 -1.073,-0.7568 -1.192,0c-0.318,2.2705 -0.437,4.541 -0.358,6.8513c0.398,-0.0398 0.795,-0.1195 1.153,-0.1593c-0.875,-2.1908 -1.034,-4.4215 -0.437,-6.7318c0.198,-0.7569 -0.954,-1.0755 -1.153,-0.3187z"/>
  <path id="svg_250" fill="#263557" d="m278.77,91.0998c-0.318,0.7966 -0.358,1.6331 -0.238,2.4696c0.039,0.3187 0.437,0.478 0.715,0.3984c0.358,-0.0797 0.477,-0.3984 0.397,-0.717c-0.079,-0.6374 0.04,-1.2349 0.239,-1.8324c0.318,-0.717 -0.835,-0.9958 -1.113,-0.3186z"/>
  <path id="svg_251" fill="#263557" d="m256.35,109.144c3.498,0.478 8.149,0.04 11.25,-1.792c0.675,-0.399 0.079,-1.434 -0.597,-1.036c-2.822,1.633 -7.155,2.111 -10.335,1.673c-0.715,-0.08 -1.073,1.076 -0.318,1.155z"/>
  <path id="svg_252" fill="#263557" d="m255.794,109.223c1.074,2.39 3.697,5.736 6.718,5.338c2.981,-0.359 4.77,-4.581 5.406,-7.091c0.199,-0.757 -0.954,-1.075 -1.153,-0.318c-0.437,1.792 -1.709,5.138 -3.617,5.935c-2.782,1.155 -5.326,-2.35 -6.28,-4.501c-0.358,-0.638 -1.392,-0.04 -1.074,0.637z"/>
  <path id="svg_253" fill="#263557" d="m256.789,109.702c3.06,1.434 7.632,0.677 10.215,-1.394c-0.278,-0.279 -0.556,-0.558 -0.835,-0.836c-1.51,1.234 -3.378,1.951 -5.366,1.912c-1.073,0 -1.947,-0.558 -2.822,0.159c-0.159,0.159 -0.199,0.398 -0.159,0.597c0.199,1.076 1.67,1.594 2.584,1.753c1.908,0.319 3.657,-0.597 5.167,-1.713c-0.238,-0.318 -0.477,-0.637 -0.715,-0.956c-1.352,1.554 -4.81,2.39 -6.281,0.518c-0.437,-0.558 -1.232,0.159 -0.954,0.717c0.835,1.514 2.107,3.027 4.015,2.908c1.988,-0.08 3.22,-1.793 4.214,-3.306c0.397,-0.598 -0.438,-1.116 -0.955,-0.717c-0.914,0.717 -1.55,0.836 -2.543,1.195c-0.636,0.239 -1.113,0.119 -0.875,0.916c0.199,0.637 0.874,0.836 1.431,0.836c1.709,-0.079 3.458,-2.549 4.214,-3.863c0.318,-0.558 -0.478,-1.235 -0.955,-0.717c-1.51,1.633 -2.384,4.262 -4.809,4.62c-0.755,0.12 -0.437,1.275 0.318,1.155c2.743,-0.438 3.657,-3.146 5.326,-4.939c-0.318,-0.239 -0.636,-0.478 -0.954,-0.717c-0.556,0.916 -1.51,2.43 -2.583,2.868c-0.835,0.319 -0.716,0.12 -1.352,-0.558c-0.159,-0.199 -0.278,-0.438 -0.477,-0.557c-0.715,-0.438 -1.431,-0.04 -1.669,0.677c-0.08,0.199 -0.001,0.438 0.158,0.597c1.71,1.873 3.936,0.598 5.565,-0.637c-0.318,-0.239 -0.635,-0.478 -0.953,-0.717c-0.795,1.195 -1.511,2.35 -3.022,2.549c-1.55,0.239 -2.424,-0.916 -3.1,-2.19c-0.318,0.239 -0.636,0.478 -0.954,0.717c1.868,2.35 6.161,1.513 7.95,-0.518c0.437,-0.478 -0.159,-1.355 -0.716,-0.956c-1.272,0.956 -2.822,1.872 -4.451,1.513c-0.557,-0.039 -1.074,-0.318 -1.511,-0.717c0.119,0.359 0.358,0.518 0.636,0.558c0.437,0.199 1.232,0.12 1.709,0.08c2.107,-0.12 4.015,-0.956 5.645,-2.271c0.596,-0.478 -0.239,-1.314 -0.835,-0.836c-2.067,1.633 -6.28,2.39 -8.785,1.195c-0.636,-0.279 -1.232,0.757 -0.516,1.075z"/>
  <path id="svg_254" fill="#263557" d="m261.041,112.568c0.914,-0.677 1.789,-1.394 2.544,-2.23c-0.318,-0.239 -0.636,-0.478 -0.954,-0.717c-0.358,0.677 -0.874,1.354 -1.153,2.071c-0.119,0.359 -0.159,0.757 0.159,1.076c0.279,0.278 0.716,0.278 1.074,0.119c0.675,-0.319 1.272,-0.876 1.868,-1.314c-0.278,-0.279 -0.557,-0.558 -0.835,-0.837c-0.238,0.598 -1.033,1.753 -0.358,2.31c0.756,0.638 1.431,-0.478 1.829,-0.956c0.477,-0.597 -0.358,-1.434 -0.835,-0.836c-0.159,0.159 -0.477,0.757 -0.715,0.797c0.198,0.039 0.397,0.119 0.596,0.159c-0.04,-0.04 -0.08,-0.08 -0.08,-0.12c0.04,0.16 0.12,0.279 0.159,0.439c0,-0.359 0.318,-0.837 0.438,-1.156c0.198,-0.478 -0.279,-1.195 -0.835,-0.836c-0.239,0.159 -1.55,1.314 -1.749,1.235c0.119,0.079 0.238,0.199 0.358,0.279c-0.04,-0.04 -0.04,-0.12 -0.08,-0.16c0.04,0.16 0.04,0.319 0.08,0.478c0.119,-0.717 0.755,-1.513 1.113,-2.151c0.318,-0.597 -0.477,-1.235 -0.954,-0.717c-0.716,0.757 -1.471,1.434 -2.306,2.032c-0.596,0.438 0,1.474 0.636,1.035z"/>
  <path id="svg_255" fill="#263557" d="m237.828,96.1985c-0.915,10.7155 -1.551,21.4705 -1.948,32.2255c-0.04,0.756 1.153,0.756 1.192,0c0.398,-10.755 1.034,-21.51 1.948,-32.2255c0.08,-0.7568 -1.113,-0.7568 -1.192,0z"/>
  <path id="svg_256" fill="#263557" d="m298.964,83.5724c3.021,11.3127 1.113,22.9836 -1.55,34.1376c-0.199,0.756 0.954,1.075 1.152,0.318c2.743,-11.352 4.651,-23.2624 1.551,-34.7742c-0.199,-0.717 -1.352,-0.3984 -1.153,0.3186z"/>
  <path id="svg_257" fill="white" d="m302.899,119.859c3.498,0.637 7.035,1.275 10.533,1.912c0.756,0.12 1.074,-0.996 0.318,-1.155c-3.498,-0.637 -7.035,-1.275 -10.533,-1.912c-0.756,-0.12 -1.074,1.036 -0.318,1.155z"/>
  <path id="svg_258" stroke-miterlimit="10" stroke-width="2" stroke="#263557" fill="white" d="m307.43,95.2428c-0.318,0.5178 -0.676,1.2746 -0.915,2.151c-0.357,1.434 -0.278,2.6692 -0.198,3.4252c-2.385,2.43 -8.547,8.047 -18.047,9.401c-3.776,0.558 -7.075,0.279 -9.54,-0.199c-0.278,1.036 -0.477,2.35 0.199,2.908c0.437,0.398 1.073,0.239 2.146,0.199c1.789,-0.08 2.743,0.279 3.618,0.358c2.464,0.279 8.983,-0.876 16.059,-4.859c1.908,-1.076 4.531,-2.749 7.393,-5.258c0.199,0.279 1.63,1.991 3.776,1.991c2.982,-0.039 4.373,-3.306 4.492,-3.624c0.716,-1.7531 0.755,-4.1829 -0.715,-5.9754c-1.352,-1.673 -3.26,-1.9518 -3.777,-1.9917c-2.464,-0.239 -4.213,1.195 -4.491,1.4739z"/>
  <path id="svg_259" fill="#263557" d="m309.576,96.0392c-1.828,2.868 -0.715,7.0508 3.141,6.9708c0.397,0 0.397,-0.598 0,-0.598c-3.419,0.08 -4.174,-3.6642 -2.624,-6.094c0.239,-0.3187 -0.278,-0.5975 -0.517,-0.2788z"/>
  <path id="svg_260" fill="#263557" d="m312.278,99.9033c-0.516,-0.3984 -0.795,-1.0755 -0.636,-1.7129c0.159,-0.5975 0.915,-1.195 1.551,-0.8763c0.675,0.3187 0.914,1.3941 0.596,2.0315c-0.278,0.6373 -1.232,0.9164 -1.709,0.2788c-0.239,-0.3186 -0.756,0 -0.517,0.3187c0.556,0.7569 1.709,0.8369 2.425,0.1589c0.794,-0.7962 0.715,-2.2701 -0.08,-3.0667c-0.755,-0.7569 -1.987,-0.4382 -2.544,0.3983c-0.636,0.9162 -0.358,2.1908 0.517,2.8684c0.278,0.239 0.676,-0.16 0.397,-0.3987z"/>
  <path id="svg_261" fill="#263557" d="m287.117,110.42c0.636,0.796 0.795,1.872 0.358,2.788c-0.159,0.358 0.358,0.637 0.517,0.319c0.516,-1.116 0.397,-2.39 -0.358,-3.386c-0.239,-0.319 -0.755,-0.04 -0.517,0.279z"/>
  <path id="svg_262" fill="#263557" d="m280.361,110.498c0.358,0.677 0.398,1.474 0.04,2.191c-0.159,0.359 0.358,0.637 0.517,0.319c0.437,-0.916 0.397,-1.912 -0.04,-2.789c-0.199,-0.358 -0.716,-0.079 -0.517,0.279z"/>
  <path id="svg_263" fill="#263557" d="m282.108,110.936c0.438,0.438 0.477,1.195 0.08,1.673c-0.239,0.278 0.199,0.717 0.437,0.438c0.596,-0.757 0.596,-1.833 -0.079,-2.51c-0.279,-0.318 -0.676,0.12 -0.438,0.399z"/>
  <path id="svg_264" fill="#263557" d="m284.058,110.977c0.675,0.478 0.636,1.513 0.039,1.991c-0.278,0.239 0.12,0.678 0.438,0.439c0.914,-0.757 0.795,-2.271 -0.159,-2.948c-0.318,-0.199 -0.597,0.319 -0.318,0.518z"/>
  <path id="svg_265" fill="#263557" d="m293.597,84.1284c-0.835,-0.3187 -0.557,-1.3544 0,-1.7527c0.556,-0.3983 1.272,-0.2788 1.629,0.3187c0.756,1.3145 -1.033,2.39 -1.947,1.3145c-0.358,-0.4382 -0.994,0.1991 -0.636,0.6373c0.755,0.8763 2.186,0.956 3.06,0.1992c0.875,-0.7967 0.795,-2.2307 0,-3.0274c-0.834,-0.8763 -2.226,-0.6771 -3.021,0.1992c-0.834,0.9958 -0.556,2.5493 0.676,2.9875c0.557,0.1593 0.755,-0.6772 0.239,-0.8763z"/>
  <path id="svg_266" fill="#686E7B" d="m295.187,79.1895c0.278,4.9393 0.795,10.277 1.709,16.013c0.597,3.824 1.312,7.4885 2.107,10.8745c-0.874,0.558 -1.789,1.115 -2.743,1.673c-4.69,2.669 -9.222,4.382 -13.316,5.497c2.107,0.08 4.73,-0.04 7.751,-0.598c3.618,-0.677 6.559,-1.832 8.706,-2.868c-3.18,3.506 -7.394,7.569 -12.8,11.433c-7.751,5.576 -15.224,8.803 -20.869,10.755c4.333,1.513 8.666,3.027 12.959,4.541c0.318,5.895 0.636,11.79 0.954,17.725c2.186,-0.557 4.372,-1.115 6.598,-1.712c-0.318,-3.705 -0.596,-7.529 -0.755,-11.512c-0.079,-2.231 -0.159,-4.422 -0.199,-6.613c3.777,-1.035 6.877,-2.031 9.222,-2.828c8.666,-2.947 14.827,-5.935 16.536,-6.771c2.862,-1.395 5.168,-2.669 6.758,-3.585c0.437,-2.749 0.835,-5.617 1.113,-8.684c0.676,-7.09 0.715,-13.5832 0.358,-19.3989c-1.869,-2.3103 -4.293,-4.8995 -7.314,-7.5285c-3.22,-2.7883 -6.36,-4.8596 -9.024,-6.4131c-2.623,0 -5.207,0 -7.751,0z" opacity="0.16"/>
  <g id="svg_268" opacity="0.3">
   <g id="svg_269" opacity="0.3">
    <path id="svg_270" fill="#FF6109" d="m153.16,237.049c22.3,4.86 44.997,7.648 67.814,8.325c0.755,0.04 0.755,-1.155 0,-1.195c-22.697,-0.677 -45.315,-3.425 -67.496,-8.285c-0.755,-0.159 -1.073,0.996 -0.318,1.155z" opacity="0.3"/>
   </g>
  </g>
  <g id="svg_271" opacity="0.3">
   <g id="svg_272" opacity="0.3">
    <path id="svg_273" fill="#FF6109" d="m154.154,245.215c10.215,3.067 20.67,5.099 31.283,6.134c0.755,0.08 0.755,-1.115 0,-1.195c-10.494,-1.035 -20.869,-3.067 -30.965,-6.094c-0.756,-0.239 -1.074,0.916 -0.318,1.155z" opacity="0.3"/>
   </g>
  </g>
  <g id="svg_274" opacity="0.3">
   <g id="svg_275" opacity="0.3">
    <path id="svg_276" fill="#FF6109" d="m184.96,276.801c27.905,4.262 56.246,8.484 84.509,5.258c0.755,-0.08 0.755,-1.275 0,-1.195c-28.183,3.226 -56.366,-0.956 -84.191,-5.219c-0.755,-0.119 -1.073,1.036 -0.318,1.156z" opacity="0.3"/>
   </g>
  </g>
  <g id="svg_277" opacity="0.3">
   <g id="svg_278" opacity="0.3">
    <path id="svg_279" fill="#FF6109" d="m228.406,274.811c14.31,2.589 28.859,3.226 43.328,1.832c0.755,-0.08 0.755,-1.275 0,-1.195c-14.35,1.354 -28.819,0.757 -43.01,-1.793c-0.755,-0.119 -1.073,0.996 -0.318,1.156z" opacity="0.3"/>
   </g>
  </g>
  <g id="svg_280" opacity="0.3">
   <g id="svg_281" opacity="0.3">
    <path id="svg_282" fill="#FF6109" d="m257.067,246.489c0.676,5.417 0.318,10.834 -1.034,16.132c-0.119,0.398 0.199,0.717 0.557,0.757c3.418,0.279 6.797,0.558 10.216,0.836c1.47,0.12 4.77,1.155 5.684,-0.478c0.477,-0.836 0.358,-2.27 0.437,-3.186c0.08,-1.434 0.119,-2.868 0.199,-4.302c0.159,-3.267 0.437,-6.493 1.471,-9.64c0.119,-0.358 -0.199,-0.797 -0.557,-0.757c-5.167,0.399 -10.295,0.16 -15.383,-0.717c-0.477,-0.079 -0.795,0.279 -0.716,0.717c0.08,0.478 0.08,0.478 0.358,0.877c0.437,0.637 1.471,0.039 1.034,-0.598c-0.08,-0.199 -0.159,-0.398 -0.239,-0.597c-0.238,0.239 -0.477,0.478 -0.715,0.717c5.207,0.916 10.414,1.155 15.701,0.756c-0.199,-0.239 -0.398,-0.517 -0.557,-0.756c-1.59,4.74 -1.431,9.679 -1.749,14.579c-0.039,0.438 0,1.752 -0.198,2.031c-0.438,0.598 -1.431,0.359 -1.988,0.319c-1.431,-0.12 -2.862,-0.239 -4.333,-0.359c-2.862,-0.239 -5.763,-0.478 -8.625,-0.717c0.198,0.239 0.397,0.518 0.556,0.757c1.391,-5.377 1.789,-10.914 1.073,-16.451c-0.079,-0.677 -1.272,-0.677 -1.192,0.08z" opacity="0.3"/>
   </g>
  </g>
 </g>
</svg>