<svg width="640" height="480" viewBox="0 0 640 480" fill="none" xmlns="http://www.w3.org/2000/svg">
<path d="M68.3209 406.48C62.8409 402 57.1209 397.72 52.0409 392.8C49.6809 390.52 47.4809 388.04 45.8009 385.2C44.9209 383.76 44.2009 382.2 43.6809 380.6C43.2409 379.28 42.8009 377.24 44.7209 377.04C45.4409 376.96 46.2009 377.12 46.8809 377.32C47.6409 377.52 47.9609 376.36 47.2009 376.16C44.9209 375.6 41.6409 375.76 42.0009 378.96C42.4409 382.56 44.8009 386.24 46.9609 389C52.5609 396.2 60.4809 401.6 67.4809 407.32C68.0809 407.8 68.9209 406.96 68.3209 406.48Z" fill="#E8E8E8"/>
<path d="M47.4 376.36C45.08 373.6 43.28 370.4 42.24 366.92C41.76 365.36 41.56 363.76 41.08 362.24C40.76 361.28 40.16 360.4 41.04 359.56C41.44 359.2 42.04 358.96 42.48 358.64C43.84 357.72 44.6 356.64 42.92 355.48C41.96 354.84 40.76 354.72 39.72 354.2C38.32 353.44 37.24 352.2 36.44 350.88C34.76 348.16 33.84 344.96 32.84 341.96C31.64 338.4 30.48 334.76 29.44 331.16C27.36 323.88 25.64 316.52 24.24 309.12C24.12 309.36 23.96 309.6 23.84 309.84C31.36 307.36 38.84 313.72 44.2 318.24C49.72 322.88 54.68 328.2 59.04 333.96C68.04 345.96 74.32 359.8 78.24 374.24C80.64 383.08 82.16 392.16 83 401.28C83.08 402.04 84.28 402.04 84.2 401.28C81.28 369.8 69.68 337.92 44.84 317.16C39.16 312.44 31.48 306.08 23.56 308.68C23.24 308.8 23.08 309.08 23.16 309.4C24.64 317.32 26.52 325.16 28.8 332.92C29.88 336.56 31 340.16 32.24 343.72C33.24 346.6 34.16 349.68 35.92 352.2C36.6 353.16 37.36 354.04 38.32 354.72C39.48 355.56 40.84 355.64 42 356.36C43.52 357.28 41.32 358 40.52 358.56C39.92 359 39.36 359.52 39.24 360.32C39.08 361.52 40.12 362.92 40.4 364.04C40.8 365.76 41.16 367.44 41.8 369.12C42.96 372.08 44.6 374.8 46.64 377.24C47.04 377.8 47.88 376.96 47.4 376.36Z" fill="#E8E8E8"/>
<path d="M30.2794 315.56C46.9994 334.44 59.9994 356.48 68.4794 380.24C70.8394 386.84 72.7994 393.56 74.4394 400.36C74.6394 401.12 75.7594 400.8 75.5994 400.04C69.6794 375.4 59.0394 351.92 44.3194 331.24C40.2394 325.48 35.8394 319.96 31.1594 314.68C30.5994 314.16 29.7594 315 30.2794 315.56Z" fill="#E8E8E8"/>
<path d="M32.9996 341.879C34.9196 342.359 36.7996 342.999 38.6396 343.759C39.3596 344.039 39.6796 342.879 38.9596 342.599C37.1196 341.839 35.2396 341.199 33.3196 340.719C32.5996 340.519 32.2796 341.679 32.9996 341.879Z" fill="#E8E8E8"/>
<path d="M47.08 368.44C49.68 368.36 51.84 369.72 53.96 371C55.88 372.16 57.76 373.32 59.6 374.6C63.4 377.24 66.84 380.36 69.12 384.44C69.48 385.12 70.52 384.52 70.16 383.84C67.76 379.6 64.16 376.32 60.2 373.6C58.12 372.16 55.92 370.8 53.72 369.52C51.64 368.28 49.52 367.24 47.04 367.28C46.32 367.24 46.32 368.44 47.08 368.44Z" fill="#E8E8E8"/>
<path d="M63.0003 361.24C61.9203 354.76 61.9603 348.2 63.1203 341.76C63.2403 341 62.0803 340.68 61.9603 341.44C60.7603 348.12 60.7203 354.88 61.8403 361.56C61.9603 362.32 63.1203 362 63.0003 361.24Z" fill="#E8E8E8"/>
<path d="M60.9597 333.84C61.7997 325.92 63.4797 318 66.2797 310.56C68.6397 304.28 72.1597 298.12 78.1997 294.76C77.8797 294.6 77.5997 294.4 77.2797 294.24C77.9197 305.36 84.4397 315.24 84.7197 326.4C84.8797 326.2 84.9997 326 85.1597 325.84C83.6397 326.24 82.1197 326.64 80.5997 327.04C80.1597 327.16 79.9997 327.72 80.3197 328.04C82.1597 329.8 82.5197 332.28 82.5997 334.72C82.6397 336 83.3197 342.2 81.8397 342.6C81.4797 342.72 81.2797 343.16 81.4797 343.48C85.9197 350.6 83.8797 359.04 82.6397 366.72C81.3597 374.64 81.1997 382.64 82.1197 390.56C82.1997 391.32 83.3997 391.32 83.3197 390.56C82.2797 381.64 82.7997 372.88 84.3197 364.08C85.5597 356.96 86.5597 349.32 82.5597 342.84C82.4397 343.12 82.3197 343.44 82.1997 343.72C83.2797 343.44 83.6397 342.6 83.7997 341.56C84.0797 339.64 83.8797 337.52 83.8397 335.6C83.7997 332.56 83.4797 329.4 81.1597 327.2C81.0797 327.52 80.9997 327.88 80.8797 328.2C82.3997 327.8 83.9197 327.4 85.4397 327C85.6797 326.92 85.8797 326.68 85.8797 326.44C85.5997 315.24 79.1197 305.4 78.4397 294.28C78.3997 293.84 77.9597 293.52 77.5197 293.76C71.5597 297.08 67.9597 302.96 65.4797 309.16C62.3197 317.04 60.5597 325.48 59.6797 333.92C59.6797 334.6 60.8797 334.6 60.9597 333.84Z" fill="#E8E8E8"/>
<path d="M75.48 300.24C71.2 316.44 69 333.16 68.96 349.92C68.96 350.68 70.16 350.68 70.16 349.92C70.2 333.24 72.36 316.68 76.6 300.56C76.84 299.8 75.68 299.48 75.48 300.24Z" fill="#E8E8E8"/>
<path d="M545.12 276.279C547.68 284.519 549.6 292.919 550.8 301.479C551.4 305.799 551.84 310.199 552.04 314.559C552.12 315.679 552.16 316.839 552.2 317.959C552.24 318.639 552.04 319.759 552.28 320.399C552.52 320.999 553.36 321.399 553.84 321.799C554.68 322.479 555.52 323.159 556.32 323.839C556.36 323.519 556.4 323.199 556.44 322.879C555.32 323.559 554.24 323.879 552.92 323.919C552.64 323.919 552.44 324.119 552.36 324.359C551.2 327.959 552.04 331.759 554.64 334.559C554.8 334.199 554.92 333.879 555.08 333.519C550.92 333.359 550.84 338.159 551.24 341.119C551.8 345.239 552.6 349.359 553.76 353.359C556.08 361.199 559.96 368.639 566.32 373.999C566.92 374.479 567.76 373.639 567.16 373.159C561.8 368.639 558.2 362.559 555.88 355.959C554.8 352.839 553.96 349.639 553.32 346.439C552.8 343.759 550.2 334.559 555.08 334.719C555.64 334.759 555.84 334.079 555.52 333.679C553.24 331.199 552.52 327.839 553.56 324.679C553.36 324.839 553.16 324.959 553 325.119C554.52 325.119 555.8 324.759 557.12 323.919C557.4 323.719 557.56 323.239 557.24 322.959C555.76 321.759 553.72 320.719 553.48 318.719C553.24 316.599 553.32 314.399 553.16 312.279C552.88 308.319 552.48 304.359 551.88 300.399C550.68 292.119 548.8 283.959 546.32 275.959C546.04 275.199 544.88 275.519 545.12 276.279Z" fill="#E8E8E8"/>
<path d="M547.079 278.08C545.439 275.92 548.52 274.32 550.32 274.76C552.12 275.24 553.6 276.68 554.84 277.96C557.12 280.28 558.919 283 560.479 285.84C563.719 291.68 566.44 297.92 568.84 304.12C573.76 316.88 577.16 330.24 578.96 343.76C579.96 351.44 580.48 359.16 580.48 366.88C580.48 367.64 581.68 367.64 581.68 366.88C581.68 350.8 579.48 334.76 575.16 319.32C573.04 311.8 570.44 304.44 567.36 297.24C564.52 290.6 561.48 283.48 556.6 278.04C554.64 275.84 551.32 272.44 548.04 273.6C546.04 274.28 544.719 276.84 546.079 278.68C546.519 279.28 547.559 278.72 547.079 278.08Z" fill="#E8E8E8"/>
<path d="M575.881 322.04C577.921 315.2 580.281 308.52 582.961 301.92C584.361 298.52 585.841 295.12 587.441 291.8C588.201 290.24 588.961 288.64 589.761 287.08C590.281 286.08 591.841 281.68 593.481 282.08C593.961 282.2 594.281 281.8 594.201 281.36C593.801 278.88 596.601 276.76 598.081 275.12C599.401 273.68 600.681 272.24 602.001 270.8C604.721 267.84 607.401 264.88 610.121 261.88C609.801 261.8 609.441 261.72 609.121 261.6C613.241 271.8 612.161 282.96 609.761 293.44C608.521 298.8 606.961 304.12 605.641 309.48C604.721 313.2 603.721 318.84 599.161 319.64C598.841 319.68 598.681 320.08 598.761 320.36C599.921 325.12 596.721 329.52 594.601 333.52C592.601 337.28 590.761 341.16 589.081 345.12C585.801 352.84 583.201 360.8 581.241 368.92C581.041 369.68 582.201 370 582.401 369.24C584.561 360.24 587.521 351.48 591.321 343.04C593.121 339.04 595.121 335.12 597.241 331.28C599.161 327.8 600.921 324.12 599.961 320.08C599.841 320.32 599.681 320.56 599.561 320.8C603.441 320.12 605.121 316.2 606.121 312.76C607.761 307 609.241 301.08 610.641 295.24C613.321 284.12 614.761 272.16 610.361 261.28C610.201 260.88 609.681 260.64 609.361 261C605.961 264.72 602.561 268.48 599.161 272.2C597.561 273.96 595.841 275.64 594.361 277.52C593.401 278.8 592.881 280 593.121 281.6C593.361 281.36 593.601 281.12 593.841 280.88C590.961 280.16 589.561 284.88 588.601 286.76C586.681 290.56 584.881 294.4 583.241 298.28C579.961 305.88 577.161 313.72 574.801 321.64C574.481 322.44 575.641 322.76 575.881 322.04Z" fill="#E8E8E8"/>
<path d="M607.161 272.24C594.681 295.52 581.961 319.52 578.961 346.12C578.881 346.88 580.081 346.88 580.161 346.12C583.161 319.72 595.841 295.88 608.201 272.84C608.601 272.16 607.561 271.56 607.161 272.24Z" fill="#E8E8E8"/>
<path d="M555.119 288.24C564.839 313.96 570.639 341.08 572.36 368.52C572.4 369.28 573.6 369.28 573.56 368.52C571.84 340.96 566.039 313.76 556.279 287.92C555.999 287.24 554.839 287.52 555.119 288.24Z" fill="#E8E8E8"/>
<path d="M49.6803 275.36C74.0803 271 99.2803 271.24 123.6 276.08C135.64 278.48 147.44 281.96 158.8 286.52C170.68 291.28 182.08 297 193.72 302.28C237.64 322.2 284.64 335.24 332.52 340.92C359.68 344.16 387.12 345 414.4 343.48C415.16 343.44 415.16 342.24 414.4 342.28C365.44 345.04 316.12 340.04 268.68 327.6C244.88 321.36 221.56 313.24 199.04 303.36C187.36 298.24 175.96 292.48 164.24 287.48C153.04 282.72 141.48 278.88 129.64 276.16C103.36 270.16 75.9203 269.48 49.3603 274.24C48.6003 274.32 48.9203 275.48 49.6803 275.36Z" fill="#E8E8E8"/>
<path d="M267.279 326.72C290.039 327.88 311.999 319.68 333.399 313.12C355.799 306.28 378.279 299.64 400.799 293.16C423.199 286.72 445.599 279.96 468.359 274.8C491.039 269.68 514.159 267.24 537.399 266.56C563.279 265.76 589.159 266.92 614.999 268.12C615.759 268.16 615.759 266.96 614.999 266.92C569.359 264.84 523.119 262.8 477.999 271.56C455.119 276 432.719 282.8 410.319 289.16C387.799 295.6 365.319 302.2 342.879 308.96C330.439 312.72 318.039 316.8 305.519 320.24C293.039 323.68 280.239 326.16 267.239 325.52C266.519 325.48 266.519 326.68 267.279 326.72Z" fill="#E8E8E8"/>
<path d="M170.16 285.68C185.96 290.24 202.36 287.08 218.12 284.04C235 280.8 252.04 278.6 269.24 277.92C303.32 276.64 337.2 281.52 371.16 282.88C389.96 283.64 408.84 283.2 427.4 280.12C428.16 280 427.84 278.84 427.08 278.96C393.68 284.52 359.76 281.2 326.24 278.68C309.48 277.4 292.68 276.32 275.84 276.6C259.16 276.88 242.48 278.48 226 281.4C207.76 284.6 188.8 289.88 170.44 284.56C169.72 284.32 169.4 285.48 170.16 285.68Z" fill="#E8E8E8"/>
<path d="M240.96 362.76C246.08 360.64 251.6 359.56 257.16 359.72C262.32 359.88 266.96 361.56 271.96 362.6C275.68 363.4 279.4 363.4 282.4 360.76C283.56 359.76 284.56 358.72 286.24 359.24C287.48 359.6 288.52 360.44 289.68 360.96C291.04 361.6 292.44 361.84 293.88 361.56C297.32 360.88 299.92 358.04 302.92 356.4C308 353.68 312.88 357.32 317.84 358.64C328.16 361.4 339.2 360.56 349.76 360.44C362.76 360.32 375.8 360.4 388.72 358.8C389.48 358.72 389.48 357.52 388.72 357.6C377.12 359 365.4 359.08 353.72 359.2C342.6 359.32 330.84 360.36 319.88 357.88C317.32 357.32 314.92 356.48 312.48 355.48C310.36 354.6 308.16 353.76 305.84 354.08C302.2 354.56 299.48 357.44 296.4 359.2C294.8 360.12 293.04 360.76 291.2 360.24C289.2 359.64 287.56 357.88 285.36 357.8C283.28 357.76 282.28 359.44 280.76 360.52C278.64 362 275.96 362.04 273.48 361.64C268.2 360.8 263.28 358.76 257.88 358.52C252 358.24 246.12 359.32 240.64 361.6C239.92 361.88 240.24 363.04 240.96 362.76Z" fill="#E8E8E8"/>
<path d="M266.48 327.08C267.2 327.2 267.88 327.36 268.6 327.48C269.36 327.64 269.64 326.6 268.92 326.32C268.48 326.16 268.04 326 267.56 325.84C266.92 325.6 266.48 326.64 267.08 326.92C270.76 328.84 274.6 330.36 278.6 331.44C279.36 331.64 279.68 330.48 278.92 330.28C275 329.24 271.28 327.76 267.68 325.88C267.52 326.24 267.36 326.6 267.2 326.96C267.64 327.12 268.08 327.28 268.56 327.44C268.68 327.04 268.76 326.68 268.88 326.28C268.16 326.16 267.48 326 266.76 325.88C266.04 325.76 265.72 326.92 266.48 327.08Z" fill="#E8E8E8"/>
<path d="M212.72 382.52C211.84 381.48 211.04 380.4 210.36 379.2C210.04 378.6 209.64 377.96 209.44 377.28C209.16 376.84 209.12 376.32 209.28 375.8C209.16 375.24 209.32 374.8 209.72 374.48C210.32 372.84 209.6 371.12 209.2 369.44C208.6 366.8 208 364.16 207.4 361.52C207.08 360.12 206.76 358.76 206.48 357.36C206.32 356.72 206.2 356.12 206.04 355.48C205.8 354.36 205.56 353.84 206.4 352.92C206.8 352.08 207.4 351.92 208.2 352.56C208.56 352.92 208.92 353.28 209.28 353.64C209.68 354.16 209.96 354.76 210.28 355.32C210.84 356.36 211.4 357.4 211.92 358.44C213.16 360.92 214.24 363.48 215.16 366.08C216.92 370.96 218.12 376 218.84 381.16C219.04 380.92 219.24 380.64 219.4 380.4C219.48 380.48 219.52 380.6 219.6 380.68C219.8 379.92 218.64 379.6 218.44 380.36C218.28 381.08 218.64 381.6 219.4 381.6C219.84 381.6 220.04 381.24 219.96 380.84C219.04 374.24 217.32 367.8 214.68 361.68C213.44 358.8 212.12 355.6 210.28 353.04C209.28 351.64 207.48 350.36 205.76 351.36C203.8 352.48 204.72 355.24 205.12 356.96C205.92 360.48 206.72 364 207.48 367.52C207.84 369.2 208.6 371.08 208.68 372.8C208.72 374.2 207.56 374.84 207.76 376.24C208.16 378.84 210.12 381.48 211.76 383.4C212.36 383.92 213.2 383.08 212.72 382.52Z" fill="#E8E8E8"/>
<path d="M216.4 365.32C215.8 361.72 215.88 358.04 216.72 354.48C216.92 353.56 217.2 352.68 217.52 351.8C218.08 350.28 218.88 350.44 219.68 351.56C220.72 353.04 221.52 354.68 222.12 356.36C224.56 363.32 223.48 370.8 222.44 377.88C222.32 378.64 223.48 378.96 223.6 378.2C224.92 369.28 226.28 359.16 220.88 351.2C220.28 350.32 219.48 348.84 218.24 349.04C216.92 349.28 216.48 351.08 216.12 352.12C214.68 356.48 214.44 361.12 215.2 365.6C215.4 366.4 216.56 366.08 216.4 365.32Z" fill="#E8E8E8"/>
<path d="M218.56 356.12C219.76 362.36 220.2 368.64 220 374.96C219.96 375.72 221.16 375.72 221.2 374.96C221.44 368.52 220.92 362.12 219.72 355.8C219.56 355.04 218.44 355.36 218.56 356.12Z" fill="#E8E8E8"/>
<path d="M71.4394 270.84C70.2794 268.28 67.6794 266.48 66.0394 264.24C64.2394 261.76 62.7194 259.08 61.2394 256.44C61.1194 256.72 60.9994 257.04 60.8794 257.32C68.9194 255.88 73.5594 263.8 75.1194 270.48C75.2794 271.24 76.4394 270.92 76.2794 270.16C74.5594 262.76 69.2794 254.64 60.5594 256.16C60.1594 256.24 60.0394 256.72 60.1994 257.04C61.6794 259.72 63.1594 262.4 64.9994 264.84C66.6394 267.08 69.2794 268.96 70.3994 271.44C70.7194 272.16 71.7594 271.56 71.4394 270.84Z" fill="#E8E8E8"/>
<path d="M74.9196 264.4C75.5196 258.12 81.5197 254.2 83.8397 248.64C83.5597 248.76 83.2396 248.88 82.9596 249C85.6397 250.72 83.6397 256.96 82.8797 259.36C81.7596 262.88 79.9196 266.08 77.5596 268.88C77.0796 269.48 77.9196 270.32 78.3996 269.72C81.3596 266.24 83.4796 262.2 84.5596 257.76C85.2396 254.96 86.5197 249.88 83.5596 247.96C83.1996 247.72 82.7996 248 82.6796 248.32C80.2796 254.08 74.3596 257.84 73.7196 264.4C73.6396 265.16 74.8396 265.16 74.9196 264.4Z" fill="#E8E8E8"/>
<path d="M430.12 282.56C429.76 281.64 429.4 280.72 429.04 279.8C428.84 279.36 428.68 278.88 428.48 278.44C428.24 278.12 428.24 277.76 428.44 277.4C428.8 277.72 429.52 277.52 429.48 276.96C429.28 274.96 429.08 272.92 428.88 270.92C428.84 270.44 428.36 268.56 428.64 268.2C429.88 266.48 430.72 269.32 430.84 269.76C431.92 273.44 431.88 277.68 431.84 281.48C431.84 282.24 433.04 282.24 433.04 281.48C433.08 278.36 432.92 275.28 432.48 272.2C432.2 270.24 431.88 267.4 429.96 266.24C428.72 265.48 427.68 266.28 427.44 267.6C427.2 268.88 427.6 270.4 427.72 271.64C427.88 273.4 428.08 275.16 428.24 276.92C428.6 276.76 428.92 276.64 429.28 276.48C428.6 275.84 427.56 275.96 427.16 276.84C426.88 277.44 427.12 278.08 427.32 278.68C427.8 280.08 428.44 281.44 428.96 282.84C429.24 283.6 430.4 283.28 430.12 282.56Z" fill="#E8E8E8"/>
<path d="M432.8 276.04C432.64 270.44 433.8 264.96 436.24 259.88C435.92 259.92 435.6 259.96 435.28 260C437.88 262.16 436.16 268 435.72 270.8C435.12 274.56 434.36 278.32 433.4 282C433.2 282.76 434.36 283.08 434.56 282.32C435.72 277.84 436.6 273.28 437.24 268.68C437.64 265.72 438.8 261.36 436.12 259.12C435.84 258.88 435.36 258.88 435.16 259.24C432.64 264.48 431.4 270.16 431.56 276C431.64 276.8 432.84 276.8 432.8 276.04Z" fill="#E8E8E8"/>
<path d="M222.88 398.479C225.4 395.919 229.32 399.359 232.24 399.199C233.64 399.119 234.92 398.599 236.2 398.159C237.92 397.599 239.56 397.399 241.36 397.559C248.48 398.159 255.4 398.679 262.56 398.199C263.32 398.159 263.32 396.959 262.56 396.999C258.68 397.239 254.84 397.319 250.96 397.159C247.04 396.999 242.96 396.039 239.08 396.319C237.52 396.439 236.08 396.959 234.6 397.439C232.44 398.119 230.8 397.999 228.72 397.239C226.44 396.399 223.88 395.719 222 397.639C221.48 398.199 222.32 399.039 222.88 398.479Z" fill="#E8E8E8"/>
<path d="M147.32 408.2C150.12 405.16 155.04 404.96 158 407.84C158.04 407.52 158.08 407.2 158.12 406.88C156.04 407.88 153.92 408.32 151.64 408.2C150.88 408.16 150.88 409.36 151.64 409.4C154.16 409.52 156.48 409.04 158.76 407.92C159.12 407.76 159.16 407.24 158.88 406.96C155.44 403.64 149.72 403.8 146.48 407.32C145.96 407.92 146.8 408.76 147.32 408.2Z" fill="#E8E8E8"/>
<path d="M35.8401 419C33.8001 418.84 31.7601 419.44 30.2001 420.84C29.2401 421.72 27.8801 423.36 29.1201 424.52C30.5201 425.8 33.8801 424.96 35.5201 424.8C38.5201 424.48 41.4401 423.92 44.3601 423.16C45.1201 422.96 44.8001 421.8 44.0401 422C40.5201 422.92 36.9601 423.52 33.3201 423.76C32.6001 423.8 31.8401 423.88 31.1201 423.88C29.3201 423.8 30.1601 422.44 31.0401 421.68C32.3601 420.48 34.0801 420.04 35.8401 420.2C36.6401 420.24 36.6001 419.04 35.8401 419Z" fill="#E8E8E8"/>
<path d="M93.0001 386C93.0801 385.68 93.3201 385.48 93.6401 385.48C93.9201 385.44 94.2001 385.4 94.4401 385.36C95.0801 385.28 95.6801 385.32 96.3201 385.4C97.5601 385.56 98.6801 386 99.7601 386.68C99.8001 386.32 99.8401 385.96 99.9201 385.6C98.4401 386.12 96.9601 386.24 95.4001 386C94.6401 385.88 94.3201 387.04 95.0801 387.16C96.8401 387.44 98.5201 387.32 100.24 386.76C100.72 386.6 100.84 385.96 100.4 385.68C98.3201 384.36 95.6001 383.72 93.1601 384.4C91.8401 384.76 90.8001 386.8 92.6801 387.2C93.4401 387.32 93.7601 386.16 93.0001 386Z" fill="#E8E8E8"/>
<path d="M126.12 110.92C116.6 107.56 109.8 98.3199 108.76 88.3199C107.68 77.9999 113.48 68.1599 122.2 62.8799C131.6 57.1999 144.96 57.1599 152.68 65.7599C156.64 70.1199 159.08 76.0799 160.52 81.7199C162 87.5199 162.24 93.9599 158.92 99.1999C155.56 104.44 149.56 107.36 143.92 109.56C137.96 111.92 130.8 113.76 124.96 110.08C124.32 109.68 123.72 110.72 124.36 111.12C129.6 114.4 135.92 113.56 141.52 111.72C147 109.92 152.8 107.4 157.04 103.32C166.52 94.2399 162.64 79.2399 156.72 69.2799C153.6 63.9999 148.92 60.1199 142.96 58.5199C137.28 56.9999 131.2 57.5199 125.8 59.7199C115.88 63.7999 108.12 73.3199 107.48 84.1999C106.76 96.1999 114.48 108.08 125.8 112.08C126.52 112.36 126.84 111.2 126.12 110.92Z" fill="#E8E8E8"/>
<path d="M426.881 343.12C454.161 341.4 481.281 337.72 508.001 332.08C515.721 330.44 523.401 328.64 531.041 326.68C531.801 326.48 531.481 325.32 530.721 325.52C504.241 332.28 477.281 337.16 450.081 340C442.361 340.8 434.641 341.44 426.921 341.92C426.121 341.96 426.121 343.16 426.881 343.12Z" fill="#E8E8E8"/>
<path d="M364.36 372C367.88 372.6 371.48 372.56 374.96 371.72C377.12 371.2 378.68 370.36 380.92 371.08C382.32 371.52 383.64 371.68 385.08 371.4C386.68 371.08 388.16 370.28 389.52 369.4C391 368.4 392.48 367 394.28 366.64C396.36 366.24 398.24 367.88 400.24 368.32C401.68 368.64 403.16 368.6 404.6 368.36C405.36 368.24 405.04 367.08 404.28 367.2C401.76 367.64 399.8 367 397.52 366C396.56 365.56 395.64 365.32 394.56 365.4C391.32 365.76 389.08 368.8 386.08 369.88C384.16 370.56 382.6 370.32 380.72 369.72C379.28 369.28 378.24 369.52 376.84 369.96C372.88 371.2 368.84 371.56 364.76 370.88C363.96 370.72 363.6 371.88 364.36 372Z" fill="#E8E8E8"/>
<path d="M166.159 424.04C197.239 424.04 228.319 424.04 259.399 424.04C260.959 424.04 260.959 421.64 259.399 421.64C228.319 421.64 197.239 421.64 166.159 421.64C164.599 421.64 164.599 424.04 166.159 424.04Z" fill="#263557"/>
<path d="M266.08 423.32C269.72 423.32 273.36 423.32 277 423.32C278.56 423.32 278.56 420.92 277 420.92C273.36 420.92 269.72 420.92 266.08 420.92C264.52 420.92 264.52 423.32 266.08 423.32Z" fill="#263557"/>
<path d="M285.08 422.96C286.24 422.96 287.44 422.96 288.6 422.96C290.16 422.96 290.16 420.56 288.6 420.56C287.44 420.56 286.24 420.56 285.08 420.56C283.52 420.56 283.52 422.96 285.08 422.96Z" fill="#263557"/>
<path d="M65.8802 432.84C88.8802 432.84 111.84 432.84 134.84 432.84C136.4 432.84 136.4 430.44 134.84 430.44C111.84 430.44 88.8802 430.44 65.8802 430.44C64.3602 430.44 64.3602 432.84 65.8802 432.84Z" fill="#263557"/>
<path d="M141.52 432.84C147.52 432.84 153.48 432.84 159.48 432.84C161.04 432.84 161.04 430.44 159.48 430.44C153.48 430.44 147.52 430.44 141.52 430.44C140 430.44 140 432.84 141.52 432.84Z" fill="#263557"/>
<path d="M169.68 432.12C170.04 432.12 170.4 432.12 170.72 432.12C171.36 432.12 171.96 431.56 171.92 430.92C171.88 430.28 171.4 429.72 170.72 429.72C170.36 429.72 170 429.72 169.68 429.72C169.04 429.72 168.44 430.28 168.48 430.92C168.52 431.56 169 432.12 169.68 432.12Z" fill="#263557"/>
<path d="M53.2403 433.16C54.0803 433.16 54.8803 433.16 55.7203 433.16C57.2803 433.16 57.2803 430.76 55.7203 430.76C54.8803 430.76 54.0803 430.76 53.2403 430.76C51.6803 430.76 51.6803 433.16 53.2403 433.16Z" fill="#263557"/>
<path d="M370.199 389.2C402.439 389.2 434.679 389.2 466.959 389.2C468.519 389.2 468.519 386.8 466.959 386.8C434.719 386.8 402.479 386.8 370.199 386.8C368.639 386.8 368.639 389.2 370.199 389.2Z" fill="#263557"/>
<path d="M479.6 387.8C508.8 387.8 538 387.8 567.2 387.8C568.76 387.8 568.76 385.4 567.2 385.4C538 385.4 508.8 385.4 479.6 385.4C478.08 385.4 478.08 387.8 479.6 387.8Z" fill="#263557"/>
<path d="M574.959 387.08C577.319 387.08 579.639 387.08 581.999 387.08C583.559 387.08 583.559 384.68 581.999 384.68C579.639 384.68 577.319 384.68 574.959 384.68C573.399 384.68 573.399 387.08 574.959 387.08Z" fill="#263557"/>
<path d="M544 373.72C550.68 373.72 557.36 373.72 564.04 373.72C565.6 373.72 565.6 371.32 564.04 371.32C557.36 371.32 550.68 371.32 544 371.32C542.44 371.32 542.44 373.72 544 373.72Z" fill="#263557"/>
<path d="M570.72 373.36C572.36 373.36 574 373.36 575.64 373.36C577.2 373.36 577.2 370.96 575.64 370.96C574 370.96 572.36 370.96 570.72 370.96C569.2 370.96 569.2 373.36 570.72 373.36Z" fill="#263557"/>
<path d="M350.84 396.24C359.4 396.24 367.96 396.24 376.52 396.24C378.08 396.24 378.08 393.84 376.52 393.84C367.96 393.84 359.4 393.84 350.84 393.84C349.32 393.84 349.32 396.24 350.84 396.24Z" fill="#263557"/>
<path d="M385.68 395.88C389.32 395.88 392.96 395.88 396.6 395.88C398.16 395.88 398.16 393.48 396.6 393.48C392.96 393.48 389.32 393.48 385.68 393.48C384.12 393.48 384.12 395.88 385.68 395.88Z" fill="#263557"/>
<path d="M401.521 401.88C404.001 401.88 406.441 401.88 408.921 401.88C410.481 401.88 410.481 399.48 408.921 399.48C406.441 399.48 404.001 399.48 401.521 399.48C399.961 399.48 399.961 401.88 401.521 401.88Z" fill="#263557"/>
<path d="M231.16 201.32C229.72 199.52 235.16 198.4 236.04 198.04C237.76 197.28 238.84 195.88 239.24 194.04C239.64 192.16 239.24 190.16 239.8 188.32C240.64 185.6 243.76 185.76 246.08 185.88C247.64 185.96 247.6 183.56 246.08 183.48C243.44 183.32 240.4 183.4 238.56 185.56C236.92 187.48 237.24 190.08 237.04 192.44C236.88 194.56 236.08 195.6 234 196.2C232.8 196.56 231.6 196.76 230.6 197.52C228.76 198.84 228 201.16 229.48 203C230.4 204.24 232.12 202.52 231.16 201.32Z" fill="#263557"/>
<path d="M239.68 203.32C238.6 202.04 241.08 200.76 241.88 200.28C242.96 199.64 243.88 199.04 244.68 198.08C246.32 196.12 247.4 192.4 250.36 192.24C251.88 192.16 251.92 189.76 250.36 189.84C245.44 190.08 245.04 195.2 241.68 197.6C240.24 198.6 238.52 199.16 237.6 200.76C236.76 202.2 236.92 203.76 237.96 205C238.96 206.2 240.68 204.48 239.68 203.32Z" fill="#263557"/>
<path d="M427.12 73.8399C426.96 76.3999 424.96 79.4799 427.36 81.6399C429.44 83.4799 432.039 82.1199 434.399 82.2799C436.999 82.4799 435.879 84.8799 435.559 86.6399C435.319 87.9599 435.199 89.3999 435.799 90.6799C436.759 92.6799 439.359 93.9599 441.279 92.5199C442.479 91.5999 441.279 89.5199 440.079 90.4399C438.119 91.9199 437.719 88.3599 437.919 87.2799C438.119 86.1199 438.519 84.9599 438.559 83.7599C438.599 82.0799 437.719 80.7599 436.159 80.1999C434.239 79.5199 432.519 80.2799 430.599 80.2399C427.12 80.1599 429.44 75.9199 429.56 73.8399C429.64 72.2799 427.24 72.2799 427.12 73.8399Z" fill="#263557"/>
<path d="M440.879 76.5996C439.879 78.7596 438.919 81.3196 440.519 83.4796C441.119 84.2796 441.919 84.7596 442.879 84.9196C443.519 84.9996 444.359 84.7196 444.919 84.9596C445.839 85.3196 446.359 86.3996 445.919 87.3596C445.239 88.7596 447.319 89.9596 447.999 88.5596C448.839 86.7596 448.519 84.6796 446.919 83.3596C446.039 82.6396 445.239 82.6396 444.159 82.5196C441.239 82.2396 442.039 79.7996 442.959 77.8396C443.599 76.4396 441.519 75.1996 440.879 76.5996Z" fill="#263557"/>
<path d="M568.36 159.56C567.48 157.28 569.599 154 572.279 154.84C574.319 155.52 575.239 158.56 573.879 160.24C572.919 161.44 574.599 163.12 575.559 161.92C578.039 158.92 576.799 153.68 572.92 152.52C568.64 151.24 564.519 156.12 566.079 160.16C566.599 161.64 568.92 161 568.36 159.56Z" fill="#263557"/>
<path d="M101.4 254.52C101.16 251.68 104.76 250.08 106.28 252.76C107.56 255.08 105.04 257.12 102.84 256.36C101.4 255.84 100.76 258.16 102.2 258.68C106.64 260.28 110.84 255.24 108.16 251.24C105.28 246.96 98.6003 249.48 99.0403 254.52C99.1203 256.04 101.52 256.08 101.4 254.52Z" fill="#263557"/>
<path d="M115.321 142.4C114.401 143.92 114.321 145.88 115.521 147.28C116.121 147.96 116.961 148.4 117.841 148.56C119.081 148.76 120.001 148.08 121.081 148.6C122.161 149.16 121.921 149.84 122.041 150.96C122.081 151.64 122.121 152.28 122.201 152.96C122.281 153.68 122.361 154.4 122.881 154.96C123.361 155.48 123.961 155.68 124.641 155.8C125.121 155.88 125.601 155.84 126.121 155.84C126.521 155.84 126.961 155.84 127.361 155.92C128.121 156.12 128.441 156.64 128.361 157.4C127.761 157.84 128.321 158.88 128.961 158.44C130.161 157.56 129.761 156.2 128.721 155.32C128.241 154.92 127.721 154.72 127.081 154.64C125.001 154.36 123.801 155.16 123.321 152.24C123.081 150.8 123.601 147.8 122.121 146.84C121.441 146.4 120.841 146.6 120.161 146.88C119.081 147.32 118.201 147.68 117.081 147C115.561 146.08 115.521 144.28 116.361 142.92C116.761 142.36 115.721 141.76 115.321 142.4Z" fill="#FF6109"/>
<path d="M131.48 147.16C130.68 148.56 129.72 150.68 130.96 152.12C131.76 153.08 133.12 152.96 134.16 153.56C135.8 154.48 136.56 156.4 136.24 158.2C136.12 158.96 137.28 159.28 137.4 158.52C137.72 156.72 137.32 154.96 136.08 153.6C135.56 153 134.88 152.56 134.16 152.24C133.32 151.88 131.88 151.44 131.6 150.4C131.4 149.64 132.2 148.36 132.52 147.76C132.88 147.08 131.84 146.48 131.48 147.16Z" fill="#FF6109"/>
<path d="M356.64 273.48C355.28 270.68 357.84 267.399 360.88 268.479C364.04 269.599 363.92 273.92 360.92 275.12C360.2 275.4 360.52 276.56 361.24 276.28C365.12 274.72 365.64 269.159 361.6 267.479C357.44 265.719 353.76 270.239 355.64 274.12C355.96 274.8 357 274.16 356.64 273.48Z" fill="#FF6109"/>
<path d="M209.32 264C206.76 263.48 210.88 260.72 211.32 260.44C211.96 260 212.56 259.52 212.88 258.76C213.96 256.32 212 251.44 216.32 251.2C217.08 251.16 217.08 249.96 216.32 250C214.64 250.08 213.4 251 212.64 252.44C211.4 254.76 212.88 257.92 210.48 259.52C209.12 260.44 207.68 261.04 207.52 262.84C207.44 263.92 207.88 264.88 209 265.12C209.76 265.32 210.08 264.16 209.32 264Z" fill="#FF6109"/>
<path d="M217 260.52C215.88 258.96 216.52 256.76 218.4 256.16C219.68 255.76 220.64 255.96 221.36 254.64C222.08 253.28 221.96 251.68 222.76 250.28C223.76 248.48 225.44 247.24 227.36 246.64C228.08 246.4 227.8 245.24 227.04 245.48C225.24 246.04 223.68 247.04 222.52 248.52C221.92 249.28 221.4 250.16 221.08 251.12C220.64 252.4 220.84 254.12 219.4 254.8C218.52 255.24 217.64 255 216.8 255.64C216.24 256.04 215.84 256.64 215.6 257.24C215.04 258.56 215.16 259.96 216 261.12C216.4 261.76 217.44 261.16 217 260.52Z" fill="#FF6109"/>
<path d="M176.32 76.5599C175.6 75.1199 178.68 75.6399 178.8 75.6799C179.24 75.8399 179.68 76.1999 180.08 76.4399C180.72 76.7999 181.44 77.1599 182.2 77.1999C183.2 77.2399 184.04 76.7999 184.68 76.0799C186.52 73.8399 185.84 68.0399 190.16 69.7599C191.44 70.2799 192.88 71.0399 194.28 70.3999C195.4 69.8799 195.64 68.7599 195.48 67.6399C195.4 67.0799 194.76 65.9599 194.92 65.3999C195.24 64.3199 196.24 64.2399 197 64.5999C197.36 64.7599 197.68 64.9999 198.08 65.1199C199.28 65.5599 200.44 65.4799 201.16 64.3599C201.56 63.7199 200.52 63.1199 200.12 63.7599C199.32 65.0399 196.12 62.3999 194.68 63.1999C193.52 63.7999 193.56 64.9999 193.84 66.1199C194.16 67.4399 194.96 69.3599 192.52 69.3199C191.44 69.3199 190.44 68.3999 189.4 68.1999C188.16 67.9599 187.04 68.2799 186.24 69.2399C184.24 71.5999 185 77.7599 180.36 75.2399C179 74.5199 177.88 73.7999 176.36 74.4799C175.2 74.9999 174.64 75.9999 175.24 77.1599C175.64 77.8399 176.64 77.2399 176.32 76.5599Z" fill="#2E28F7"/>
<path d="M223.96 109.2C222.16 108.76 221.92 106.44 222.8 105.08C224.04 103.16 226.96 103.28 228.92 103.64C232.2 104.24 235.24 105.52 238.56 104.28C241.76 103.08 244.16 100.48 247.76 100.4C251.52 100.32 255.08 101.96 258.88 101.84C265.52 101.64 271.56 98.3597 277.92 96.8397C281.68 95.9197 285.36 95.8397 289.12 96.7997C292.72 97.7197 296.08 99.1997 299.68 100.08C303.44 101.04 307.16 100.88 310.96 100.56C315.12 100.24 319.4 99.9197 323.16 102.08C323.08 101.84 322.96 101.64 322.88 101.4C320.88 107.28 314.4 109.68 308.68 110C301.52 110.4 294.56 107.8 287.36 108.08C280.08 108.36 273.92 112.8 266.76 113.48C259.44 114.2 252.52 110.72 245.24 110.92C237.84 111.12 228.2 115.16 222.36 108.56C221.84 108 221 108.84 221.52 109.4C226.12 114.56 233.4 113.64 239.52 112.72C244.04 112.04 248.16 112 252.68 112.88C256.52 113.64 260.36 114.68 264.28 114.76C272.2 114.96 278.88 109.84 286.68 109.32C294.56 108.8 302.2 111.96 310.08 111.08C315.96 110.44 322.08 107.68 324.08 101.68C324.16 101.44 324.04 101.12 323.8 101C316.76 96.8797 308.28 100.76 300.72 99.0397C296.56 98.0797 292.68 96.2397 288.48 95.3597C284.84 94.5597 281.24 94.7597 277.64 95.6397C273.8 96.5597 270.16 98.0797 266.4 99.2397C262.08 100.56 257.96 100.96 253.48 100.04C249.92 99.2797 246.64 98.6797 243.28 100.36C241.72 101.16 240.28 102.24 238.68 102.96C235.96 104.16 233.36 103.44 230.6 102.76C227.68 102.08 223.28 101.6 221.64 104.84C220.6 106.88 221.32 109.8 223.72 110.36C224.4 110.52 224.72 109.36 223.96 109.2Z" fill="#E8E8E8"/>
<path d="M57.4004 170.84C62.8404 170.12 68.0004 172.92 73.4004 172.24C75.6004 171.96 77.6404 171 79.6804 170.16C80.6404 169.76 81.6404 169.4 82.6804 169.16C84.6404 168.72 86.4004 169.24 88.3204 169.64C93.6804 170.8 99.6804 169.52 105.04 168.76C107.68 168.4 110.28 168 112.92 167.56C115.92 167.04 118.92 166.24 121.92 165.92C125.08 165.6 128.8 167 127.52 170.88C126.44 174.2 122.4 175.16 119.36 175.4C114.08 175.8 108.84 174.28 103.56 175.28C98.6404 176.2 94.2404 178.76 89.4804 180.16C86.8404 180.96 84.2004 181.28 81.4804 180.92C78.7604 180.52 76.2004 179.84 73.4004 180.04C67.7204 180.4 61.6804 183.72 56.0004 182.4C52.5204 181.6 50.7204 178.4 52.4004 175.08C54.0404 171.88 57.8004 171.04 61.0804 171.04C61.8404 171.04 61.8404 169.84 61.0804 169.84C56.4804 169.84 51.0404 171.84 50.5604 177.12C50.1204 182 54.9204 184 59.0404 183.84C62.0404 183.72 65.0004 182.84 67.9204 182.16C71.7204 181.28 75.2004 180.96 79.0404 181.68C81.8804 182.2 84.5204 182.48 87.4004 181.92C90.3604 181.36 93.1604 180.16 95.9204 179.04C98.7204 177.92 101.56 176.76 104.56 176.32C108.08 175.8 111.6 176.36 115.12 176.56C119.72 176.84 127.04 176.64 128.72 171.2C129.32 169.24 128.88 166.96 127.16 165.68C125.48 164.44 123.2 164.52 121.24 164.76C114.04 165.76 106.96 167.4 99.6804 168.2C95.6004 168.64 91.6804 169.16 87.6804 168.2C84.4404 167.4 81.8804 167.96 78.8404 169.2C77.2404 169.84 75.6804 170.56 74.0004 170.88C71.9204 171.28 69.7604 171 67.6804 170.64C64.2804 170 60.9604 169.12 57.5204 169.56C56.6404 169.72 56.6404 170.92 57.4004 170.84Z" fill="#E8E8E8"/>
<path d="M544.8 218.4C537.24 221.04 528.4 214.8 522.96 210.08C522.88 210.4 522.8 210.76 522.68 211.08C526.52 209.52 530.56 209.44 534.64 209.68C538.68 209.88 542.72 210.16 546.76 210.28C555.36 210.52 564 210.32 572.56 209.68C577 209.36 581.4 208.92 585.8 208.4C587.96 208.12 590.56 207.6 592.6 208.6C595.44 210.04 595.2 213.16 592.48 214.36C591.08 214.96 589.56 215.16 588.08 215.44C585.76 215.84 583.44 216.28 581.12 216.68C576.88 217.44 572.64 218.2 568.36 218.96C565.92 219.4 563.48 219.84 561.04 220.28C558.76 220.68 556.4 221.28 554.04 221.32C550.04 221.36 547.04 217.84 543.04 218.28C542.28 218.36 542.28 219.56 543.04 219.48C545.32 219.2 547.12 220.44 549.08 221.36C550.68 222.12 552.24 222.52 554 222.52C558.6 222.48 563.36 221.08 567.88 220.24C572.76 219.36 577.68 218.48 582.56 217.6C584.88 217.2 587.2 216.76 589.52 216.36C591.08 216.08 592.72 215.72 594.08 214.8C596.36 213.24 596.44 210.36 594.52 208.48C591.52 205.52 586.36 207.08 582.72 207.48C572.88 208.56 562.96 209.12 553.04 209.08C547.6 209.08 542.16 208.88 536.72 208.52C531.88 208.24 526.96 208 522.4 209.84C522.04 210 521.76 210.52 522.12 210.84C527.88 215.84 537.08 222.28 545.12 219.48C545.84 219.32 545.56 218.16 544.8 218.4Z" fill="#E8E8E8"/>
<path d="M361.36 429.72C361 427.44 364.24 427.8 365.52 428.24C366.52 428.56 367.48 428.96 368.52 429.08C371 429.4 373.44 428.56 375.76 427.8C378 427.04 380.36 426.2 382.76 426.44C385.64 426.72 387.96 429.08 387.52 432.12C387.04 435.28 383.8 436.76 380.92 435.88C378.96 435.28 377.24 434.04 375.2 433.72C370.88 433.08 366.36 436.84 362.2 434.84C361.52 434.52 360.88 435.52 361.6 435.88C364.08 437.08 366.56 436.52 369.08 435.8C370.68 435.36 372.36 434.8 374.04 434.84C376 434.88 377.6 435.84 379.32 436.56C381.76 437.6 384.32 437.8 386.48 436.04C388.32 434.56 389.12 432.2 388.56 429.92C386.88 423.32 379.28 425.36 374.72 426.88C372.56 427.6 370.28 428.28 367.96 427.8C366.48 427.48 365.08 426.56 363.48 426.6C361.56 426.64 359.84 428.04 360.16 430.04C360.32 430.8 361.48 430.48 361.36 429.72Z" fill="#E8E8E8"/>
<path d="M315.24 416.4C317.16 414.6 319.8 413.84 322.4 414.4C323.48 414.64 326.48 415.44 324.6 416.88C323.6 417.64 321.4 417.56 320.2 417.56C319.44 417.56 319.44 418.76 320.2 418.76C321.96 418.76 325.04 418.68 326.36 417.28C327.48 416.08 326.2 414.76 325.12 414.16C321.68 412.16 317.24 412.92 314.4 415.56C313.84 416.08 314.68 416.92 315.24 416.4Z" fill="#E8E8E8"/>
<path d="M293 442.92C292.68 442.8 292.4 442.68 292.08 442.56C292.04 442.88 292 443.2 291.96 443.52C294.4 441.76 297.16 443.04 299.76 443.64C301.96 444.16 303.88 443.92 306.04 443.4C308.72 442.76 311.44 442.36 314.2 442.2C315.48 442.12 316.76 442.08 318.04 442.04C319.24 442 322.24 441.4 321.2 443.44C319.96 445.88 316.36 445.96 314.16 445.24C312.28 444.64 310.52 443.76 308.52 444.24C306.44 444.72 304.68 446.04 302.52 446.48C299.64 447.08 296.8 446.8 294.04 445.8C293.32 445.56 293 446.68 293.72 446.96C296.44 447.92 299.28 448.24 302.16 447.76C305.4 447.2 308.28 444.68 311.64 445.6C314.04 446.28 316 447.36 318.56 446.6C320.2 446.12 322.52 444.68 322.84 442.84C323.24 440.68 320.56 440.76 319.16 440.8C315.92 440.88 312.64 441.04 309.4 441.52C307.64 441.8 305.96 442.28 304.24 442.6C302.12 443 300.4 442.6 298.36 442.04C295.96 441.36 293.48 440.96 291.32 442.48C291 442.72 290.92 443.12 291.2 443.44C291.8 444.12 292.44 444.28 293.28 444.12C294.08 443.96 293.76 442.8 293 442.92Z" fill="#E8E8E8"/>
<path d="M458.201 420C460.521 419.04 462.961 418.52 465.481 418.56C468.081 418.6 470.281 419.6 472.761 420.16C476.401 421.04 479.121 418.8 482.081 417.08C486.761 414.32 491.401 416.12 496.281 417.12C499.761 417.84 503.481 417.96 506.481 415.84C507.121 415.4 506.521 414.36 505.881 414.8C502.121 417.52 497.481 416.2 493.361 415.2C489.481 414.28 485.641 413.76 482.001 415.76C480.401 416.64 478.921 417.8 477.241 418.56C474.681 419.72 472.601 418.8 470.121 418.08C466.081 416.92 461.801 417.24 457.921 418.84C457.161 419.12 457.481 420.28 458.201 420Z" fill="#E8E8E8"/>
<path d="M180.08 223.04C183.64 221.68 189.88 229 192.96 233.8C197.68 241.04 198.44 247.36 200.76 262C201.64 267.68 203.08 276.68 205.04 288.04C208.56 291.48 209.88 294.84 210.4 296.92C211.12 299.6 211.32 303.04 210.4 303.36C209.4 303.72 207.64 300.36 206.92 300.68C205.96 301.12 209.08 306.52 207.2 309C205.28 311.52 198.08 311.12 194.32 307.4C190.8 303.92 192.2 299.48 191.64 288.88C191.44 285.28 190.88 275.48 187.88 265.8C184.2 254 180.36 253.4 178.2 242.96C176.68 235.6 176.24 224.52 180.08 223.04Z" fill="white" stroke="#263557" stroke-width="2" stroke-miterlimit="10"/>
<path opacity="0.15" d="M185.361 233.361C187.561 232.881 191.401 242.841 191.641 243.401C195.161 252.601 193.481 256.521 195.041 270.081C196.321 281.121 197.041 287.401 200.601 295.161C204.041 302.601 208.041 306.961 206.521 308.961C205.001 311.001 199.041 309.041 194.361 307.161C193.921 306.161 193.281 304.601 192.761 302.681C191.441 298.001 191.521 294.281 191.521 292.481C191.521 291.481 191.481 279.881 189.201 269.761C187.961 264.361 187.401 265.161 185.961 259.561C182.801 247.401 182.921 233.881 185.361 233.361Z" fill="#6D6C6C"/>
<path opacity="0.17" d="M190.759 252.72C191.199 256.88 191.759 263.08 191.999 270.64C192.359 282.28 191.799 291.96 191.479 291.96C191.199 291.96 191.559 285 190.039 275.48C189.039 269.16 187.559 264.04 186.439 260.64C187.199 259.88 188.119 258.84 188.959 257.4C189.999 255.56 190.519 253.88 190.759 252.72Z" fill="#6D6C6C"/>
<path d="M188 394.601C186.96 396.521 186.8 398.601 189.2 416.721C189.48 418.961 189.76 420.801 189.92 422.081C196.04 423.041 204.68 423.801 214.92 422.801C221.12 422.201 228.36 421.521 228.76 419.161C229.08 417.241 224.88 413.801 205.68 407.241C204.8 400.841 203.88 394.441 203 388.041C191.76 388.801 188.84 393.121 188 394.601Z" fill="#263557"/>
<path d="M163.879 280.56C167.639 285.68 172.999 293.04 179.279 302.04C194.159 323.32 201.599 333.96 204.199 341.08C211.879 362.16 209.879 382.64 209.119 389.6C208.679 393.6 208.119 396.88 207.679 399.12C204.639 400.28 200.279 401.56 194.959 402C190.199 402.4 186.119 401.96 183.119 401.44C182.199 396 181.439 389.88 181.079 383.24C180.559 373.36 181.039 364.52 181.959 356.96C171.679 349.08 165.039 340.96 160.999 335.32C150.199 320.08 147.319 306.88 145.599 298.4C143.159 286.64 144.839 283.44 146.399 281.76C151.599 276.36 162.879 280.24 163.879 280.56Z" fill="white" stroke="#263557" stroke-width="2" stroke-miterlimit="10"/>
<path opacity="0.19" d="M165.039 314.32C169.159 317.8 174.519 322.96 179.719 330.04C181.159 332.04 187.119 340.56 192.359 354.24C199.559 373.2 200.159 390.88 199.839 400.88C198.079 401.52 195.599 402.2 192.639 402.44C188.679 402.72 185.439 402.04 183.359 401.4C182.079 393.6 181.119 384.6 181.039 374.6C180.999 368.12 181.279 362.08 181.799 356.56C180.799 356 161.479 345.12 161.719 326.92C161.759 321.84 163.359 317.52 165.039 314.32Z" fill="#6D6C6C"/>
<path opacity="0.15" d="M170.2 344.96C171.08 343.76 182.08 347.12 186.44 355.28C189.72 361.4 187.08 366.12 187.2 374.84C187.28 381.36 188.96 390.64 196.2 401.88C192 401.8 187.8 401.72 183.56 401.64C182.4 394.2 181.48 385.72 181.24 376.4C181.04 369.04 181.28 362.24 181.76 356.04C180.2 355.24 178.2 354 176.08 352.16C173.72 350.08 169.56 345.84 170.2 344.96Z" fill="#6D6C6C"/>
<path d="M117.32 391.44C114.28 393.4 113.76 396.12 111 402.12C109.08 406.28 106.2 411.84 101.76 418.16C104.28 421 108.48 424.96 114.64 427.88C123.08 431.88 134.92 433.8 136.76 430.32C138.72 426.56 128.44 417.64 125.36 415C126.2 413.12 127.56 410.12 129.24 406.48C133.68 396.96 134.56 395.56 133.84 393.84C132.16 389.76 122.84 387.92 117.32 391.44Z" fill="#263557"/>
<path d="M130.159 271.52C127.759 278.12 125.319 284.72 122.919 291.28C118.959 302.72 120.679 310.64 121.959 314.44C123.359 318.64 125.799 322.24 130.639 329.4C134.399 334.92 137.799 339.36 140.279 342.44C135.319 347.6 129.679 354.28 124.359 362.68C117.199 374.04 112.959 384.72 110.359 393.08C112.719 394.88 116.279 397.16 120.959 398.88C126.199 400.8 130.839 401.24 133.999 401.28C139.559 397 147.159 390.32 154.239 380.52C159.799 372.88 167.279 362.6 169.679 348.2C173.759 323.68 160.439 303.72 155.679 296.6C147.079 283.68 136.759 275.84 130.159 271.52Z" fill="white" stroke="#263557" stroke-width="2" stroke-miterlimit="10"/>
<path d="M147 285.92C150.08 290.2 153.12 294.52 156.04 298.88C156.4 298.68 156.72 298.48 157.08 298.28C154.48 294.8 152.16 291.08 150.16 287.2C149.88 287.48 149.6 287.76 149.32 288.04C150.96 289.16 151.88 290.84 152.88 292.48C154.04 294.4 155.24 296.32 156.4 298.24C158.68 301.96 160.96 305.72 163.24 309.44C163.6 309.24 163.92 309.04 164.28 308.84C160.8 303.4 157.32 297.96 153.8 292.52C153.4 291.88 152.36 292.48 152.76 293.12C157.08 300.32 161.44 307.48 165.76 314.68C166.16 315.36 167.2 314.76 166.8 314.08C163.64 308.72 160.52 303.32 157.36 297.96C157.04 298.2 156.72 298.44 156.4 298.68C160.92 303.68 161.72 310.96 166.64 315.64C167.2 316.16 168.04 315.32 167.48 314.8C162.56 310.16 161.76 302.84 157.24 297.84C156.76 297.32 155.96 298 156.28 298.56C159.44 303.92 162.56 309.32 165.72 314.68C166.08 314.48 166.4 314.28 166.76 314.08C162.44 306.88 158.08 299.72 153.76 292.52C153.4 292.72 153.08 292.92 152.72 293.12C156.2 298.56 159.68 304 163.2 309.44C163.6 310.08 164.64 309.48 164.24 308.84C161.68 304.64 159.12 300.44 156.56 296.28C154.68 293.16 152.96 289.12 149.84 287C149.32 286.64 148.76 287.32 149 287.84C151 291.72 153.28 295.4 155.92 298.92C156.36 299.52 157.4 298.96 156.96 298.32C154.04 293.92 151.04 289.6 147.92 285.36C147.6 284.68 146.56 285.28 147 285.92Z" fill="white"/>
<path opacity="0.2" d="M149.519 287.68C147.439 290.68 144.559 295.64 143.319 302.16C139.519 321.92 155.519 330.68 151.959 348C150.079 357.12 145.319 356.28 134.679 375.24C129.279 384.88 125.839 393.36 123.799 399.12C121.199 398.32 118.359 397.28 115.359 395.92C113.599 395.12 111.959 394.32 110.479 393.48C112.839 386.12 116.399 377.24 121.759 367.72C127.839 356.96 134.519 348.56 140.159 342.36C138.599 340.36 136.279 337.32 133.599 333.52C126.199 323.04 122.439 317.68 121.199 311.52C119.799 304.72 120.959 298.92 121.759 295C122.959 289.08 124.999 284.44 126.639 281.28C134.239 283.4 141.879 285.56 149.519 287.68Z" fill="#6D6C6C"/>
<path opacity="0.17" d="M140.119 285.24C135.599 290.4 129.679 298.88 130.159 309.12C130.879 325.16 146.719 331.28 144.439 344.44C143.799 348.08 138.759 353.92 128.639 365.48C123.079 371.84 118.359 376.92 115.119 380.32C117.599 374.24 121.199 366.96 126.399 359.28C130.999 352.48 135.719 347.04 139.919 342.76C138.679 340.88 136.479 337.52 133.719 333.36C124.079 318.88 122.199 316.6 121.119 311.56C119.839 305.64 120.679 300.64 121.319 296.92C122.479 290 124.919 284.68 126.759 281.32C131.199 282.6 135.679 283.92 140.119 285.24Z" fill="#6D6C6C"/>
<path d="M160.8 215.64C155.12 219 144.32 226.4 136.08 240C125.6 257.32 125.6 274.24 125.96 280.8C127.92 281.44 129.92 282.08 131.96 282.68C145.6 286.76 158.8 289.52 171.28 291.28C172.32 287.72 173.44 284.12 174.64 280.4C176.44 274.92 178.32 269.68 180.24 264.68C186.88 261.24 189.2 256.8 189.96 254.96C193.04 247.76 190.12 240.24 186.96 232.12C185.2 227.56 184.28 225.24 182.08 222.76C175.2 214.96 163.84 215.44 160.8 215.64Z" fill="#FF6109"/>
<path opacity="0.27" d="M174.28 225.121C163.36 226.561 157.52 231.521 155.16 233.841C141.84 247.001 146.44 269.201 147.68 275.201C148.8 280.601 150.48 284.921 151.8 287.841C143.36 285.561 134.96 283.241 126.52 280.961C126 274.841 125.48 259.121 134.56 242.361C143 226.841 155.12 218.881 160.52 215.761C161.28 215.801 162.04 215.881 162.8 215.921C163.96 217.281 165.36 218.721 167.08 220.201C169.64 222.441 172.16 224.001 174.28 225.121Z" fill="#6D6C6C"/>
<path opacity="0.2" d="M139.28 235.161C138.16 241.041 137.24 249.561 138.44 259.641C139.88 271.481 143.68 280.641 146.64 286.401C139.76 284.641 132.84 282.881 125.96 281.161C125.64 275.641 125.8 267.361 128.44 257.841C131.32 247.441 135.96 239.841 139.28 235.161Z" fill="#6D6C6C"/>
<path d="M477.44 367.32C474.92 372.96 475.4 378.24 475.8 380.72C483.68 384.2 490.68 385.8 496.04 386.6C497.8 386.88 519.56 389.96 521.68 384C522.2 382.52 521.36 381 520.52 379.52C515.84 371.32 504 370.84 502.4 370.8C501.96 362.28 496.48 355.96 490.88 355.52C482.96 354.92 478 366.08 477.44 367.32Z" fill="#263557"/>
<path d="M487.84 229.72C493.04 237.2 500.04 248.84 505.12 264.28C513.4 289.44 512.04 310.56 511.12 322.52C510.32 333.16 508.16 348.28 502.12 365.72C500.48 366.76 493.24 371.08 484.08 369.12C478.64 367.96 474.96 365.08 473.2 363.48C476.44 356.36 480.36 345.64 481.84 332.28C483.48 317.72 481.48 306.32 478.84 291.68C472.84 258.6 464.56 246.04 471.72 236.8C475.16 232.32 481.04 230.32 487.84 229.72Z" fill="white" stroke="#263557" stroke-width="2" stroke-miterlimit="10"/>
<path opacity="0.16" d="M490.679 248C493.399 261.24 495.559 276.44 496.399 293.32C497.839 323.28 494.599 349.12 490.399 369.24C488.599 369.48 484.239 369.76 479.599 367.44C476.839 366.04 474.959 364.2 473.879 362.92C478.879 351.4 480.679 341.6 481.399 335C482.519 324.64 481.599 316.32 479.879 300.8C478.879 291.72 477.719 284.28 476.879 279.2C481.479 268.84 486.079 258.4 490.679 248Z" fill="#6D6C6C"/>
<path opacity="0.22" d="M481.92 267.92C485.36 276.88 490.52 293.96 488.76 315.68C487.08 336.6 479.72 352.16 475.04 360.4C482.88 337.76 483.28 323.88 482.08 315.28C481.76 313.08 480.4 304.36 478.84 291.52C478.2 286.2 477.72 281.84 477.44 279.04C478.96 275.32 480.44 271.6 481.92 267.92Z" fill="#6D6C6C"/>
<path d="M419.56 350C416.24 351.64 415.24 354.32 410.68 363C407.64 368.76 405.08 373.36 403.4 376.32C408.52 380 416.64 384.84 427.48 387.4C433.88 388.92 447.201 391.04 448.721 387.4C450.401 383.36 436.72 374.04 430.96 370.28C436.88 364.52 437.16 356.16 433.16 351.88C429.76 348.24 423.6 348 419.56 350Z" fill="#263557"/>
<path d="M477.561 228.88C490.761 240.52 475.321 279.32 462.641 310.36C457.161 323.76 448.601 343.16 436.001 365.84C433.801 366.16 427.201 366.8 420.161 363C413.081 359.2 410.001 353.24 409.081 351.28C412.761 344.92 417.201 336.36 421.441 325.92C423.121 321.8 430.361 303.4 434.441 277.4C436.041 267.12 437.481 253.56 437.281 237.44C439.641 235.04 452.801 222.12 468.361 225.08C470.721 225.52 474.601 226.28 477.561 228.88Z" fill="white" stroke="#263557" stroke-width="2" stroke-miterlimit="10"/>
<path d="M481.841 244.88C481.801 246.28 481.761 247.68 481.761 249.08C482.161 249.08 482.561 249.08 482.961 249.08C482.761 246.84 482.881 244.72 483.321 242.52C482.921 242.48 482.521 242.4 482.161 242.36C482.401 247.08 481.321 252.04 480.481 256.68C479.641 261.36 478.521 266 477.201 270.56C477.601 270.68 477.961 270.76 478.361 270.88C480.561 262.56 482.401 254.2 483.921 245.72C484.041 244.96 482.881 244.64 482.761 245.4C481.241 253.84 479.401 262.24 477.201 270.56C477.001 271.32 478.161 271.64 478.361 270.88C479.761 266.08 480.881 261.16 481.761 256.24C482.561 251.76 483.601 246.92 483.361 242.36C483.321 241.72 482.321 241.52 482.201 242.2C481.721 244.48 481.601 246.76 481.801 249.08C481.881 249.84 483.001 249.88 483.001 249.08C483.041 247.68 483.081 246.28 483.081 244.88C483.081 244.12 481.881 244.12 481.841 244.88Z" fill="white"/>
<path d="M476.76 268.04C476.8 271.12 476.88 274.2 476.92 277.28C476.92 278.04 478.12 278.04 478.12 277.28C478.08 274.2 478 271.12 477.96 268.04C477.92 267.24 476.72 267.24 476.76 268.04Z" fill="white"/>
<path opacity="0.19" d="M460.121 241.32C460.241 249.36 459.801 260.32 457.441 273.04C454.921 286.52 451.081 296.96 445.481 312.68C440.921 325.56 438.721 329.4 434.081 343.68C431.241 352.36 429.241 359.64 427.961 364.52C425.761 364.24 421.201 363.32 416.641 359.92C412.401 356.76 410.241 353 409.281 351.04C416.641 338.12 421.321 326.8 424.281 318.56C433.441 293.08 435.601 270.92 436.841 257.28C437.361 251.6 437.641 246.88 437.761 243.8C445.201 242.96 452.681 242.16 460.121 241.32Z" fill="#6D6C6C"/>
<path opacity="0.24" d="M456.001 242.48C452.881 256.2 449.281 267 446.441 274.56C444.121 280.8 440.561 289.2 433.481 305.96C430.881 312.16 429.561 315.24 428.921 316.64C425.001 325.44 418.721 337.8 408.681 352.36C417.681 336.2 428.001 313.16 433.481 284.12C436.241 269.48 437.241 256.12 437.361 244.56C437.321 244.52 437.321 244.52 456.001 242.48Z" fill="#6D6C6C"/>
<path d="M468.64 144.12C469.28 145.68 470.4 147.96 472.44 150.28C473.92 151.96 475.8 154.12 478.6 154.96C484.04 156.64 489.32 152.32 490.04 151.72C495.32 154.84 500.6 157.96 505.84 161.08C506.32 167.6 506.36 177.44 503.8 188.92C501.36 199.84 499 201.16 497.08 211.76C494.16 227.68 496.32 241.88 495.6 241.92C495.48 241.92 495.32 241.6 495 239.88C474.4 241.44 453.8 243 433.2 244.56C432.6 232.2 432.68 221.8 432.92 214.12C433.24 202.12 434.2 187.6 438.2 170.76C441.04 158.72 443.28 154.64 446.68 151.44C454.04 144.44 464.12 144 468.64 144.12Z" fill="#2E28F7"/>
<path opacity="0.3" d="M492.48 153.16C491.8 160.48 490.52 171.36 488.08 184.4C487.36 188.32 485.32 199.12 483.68 204.4C481.68 210.88 473.88 229.4 435.72 244.44C447.36 243.08 459.36 241.88 471.64 240.88C479.32 240.24 486.92 239.68 494.4 239.24C497.04 229.84 499.48 219.2 501.24 207.44C503.92 189.64 504.44 173.56 504 160C500.16 157.72 496.32 155.44 492.48 153.16Z" fill="#32198E"/>
<path d="M476 120.04C474.6 127.2 473.96 135.12 468.16 143.88C467.36 145.08 466.68 146 466.2 146.6C466.68 147.56 471.76 157.4 482.56 158.88C488.72 159.72 493.56 157.36 495.4 156.36C495.12 153.96 494.96 151.08 495.2 147.84C495.52 143.08 496.52 139.12 497.52 136.12C502.16 135.52 506.76 134.92 511.4 134.32C512.32 132.28 513.2 130.24 514.12 128.16C515.4 128.12 516.64 128.08 517.92 128.04C516.96 125.24 515.52 120.8 513.84 115.32C510.72 105 510.76 103.52 509.08 101.2C504.44 94.8398 494.04 90.7998 487.2 94.1998C480.6 97.4398 478.6 106.68 476 120.04Z" fill="white" stroke="#263557" stroke-width="2" stroke-miterlimit="10"/>
<path d="M517.72 127.48C515.44 127.52 513.2 127.36 510.96 127.04C510.2 126.92 509.88 128.08 510.64 128.2C513 128.56 515.32 128.72 517.72 128.68C518.52 128.68 518.52 127.48 517.72 127.48Z" fill="#263557"/>
<path d="M519.319 109.12C517.279 108 514.839 108.64 513.519 110.52C513.079 111.16 514.119 111.76 514.559 111.12C515.479 109.8 517.319 109.4 518.719 110.16C519.399 110.52 519.999 109.48 519.319 109.12Z" fill="#263557"/>
<path d="M518.28 116.32C518.48 115.4 518.44 114.48 518 113.64C517.68 113.04 517 112.32 516.24 112.64C515.44 112.96 515.48 114.08 515.64 114.76C515.8 115.6 516.24 116.36 516.88 116.92C517.24 117.24 517.92 117.04 517.92 116.48C517.92 115.48 517.68 114.6 517.24 113.68C516.92 113 515.88 113.6 516.2 114.28C516.52 114.96 516.68 115.68 516.72 116.44C517.08 116.28 517.4 116.16 517.76 116C517.08 115.44 516.84 114.72 516.8 113.88C516.84 113.8 516.8 113.72 516.68 113.72C516.76 113.76 516.84 113.84 516.88 113.92C517 114.08 517.12 114.32 517.16 114.52C517.32 115 517.32 115.44 517.2 115.92C516.92 116.76 518.08 117.08 518.28 116.32Z" fill="#263557"/>
<path d="M507.72 110.72C505.4 109.96 502.96 110.92 501.6 112.92C501.16 113.56 502.2 114.16 502.64 113.52C503.68 111.96 505.6 111.32 507.4 111.88C508.12 112.08 508.44 110.96 507.72 110.72Z" fill="#263557"/>
<path d="M508.361 117.4C508.441 116.32 508.001 114.64 506.881 114.2C505.401 113.6 505.401 115.68 505.561 116.56C505.761 117.44 506.481 119.08 507.681 118.4C508.161 118.12 508.241 117.6 508.081 117.12C507.801 116.36 507.361 115.68 507.041 114.96C506.721 115.2 506.401 115.44 506.081 115.68C506.241 115.84 506.361 116 506.401 116.24C506.601 117 507.761 116.68 507.561 115.92C507.441 115.48 507.241 115.16 506.921 114.84C506.401 114.36 505.681 114.96 505.961 115.56C506.121 115.84 506.241 116.12 506.401 116.44C506.521 116.68 506.641 117.12 506.841 117.32C506.921 117.6 507.001 117.6 507.121 117.32C507.081 117.24 507.001 117.12 506.961 117.04C506.841 116.8 506.761 116.56 506.721 116.28C506.681 116.04 506.721 115.72 506.641 115.48C506.681 115.32 506.641 115.28 506.601 115.48C506.681 115.6 506.801 115.72 506.841 115.84C507.121 116.32 507.201 116.88 507.161 117.44C507.081 118.16 508.281 118.16 508.361 117.4Z" fill="#263557"/>
<path d="M510.681 103.76C510.361 101.64 509.521 98.2001 507.281 94.6401C506.481 93.4001 504.761 90.7201 502.041 88.9201C496.841 85.4801 488.841 85.7601 483.001 89.9601C477.321 94.0801 474.481 101.48 475.721 108.8C487.401 107.12 499.041 105.44 510.681 103.76Z" fill="#FF6109"/>
<path d="M529.8 99.9203C511.84 102.2 493.92 104.48 475.96 106.76C473.68 107.04 473.68 110.64 475.96 110.36C493.92 108.08 511.84 105.8 529.8 103.52C532.04 103.24 532.08 99.6403 529.8 99.9203Z" fill="#263557"/>
<path d="M487.361 108.32C490.521 109.48 492.361 111.68 494.521 114.32C499.041 119.84 497.681 121.88 500.881 125.32C505.921 130.8 511.041 127.56 515.561 132.92C519.401 137.48 518.881 143.64 518.721 145C518.561 146.36 517.881 151.84 513.441 155.6C509.601 158.84 504.361 159.601 504.041 158.881C503.921 158.601 504.361 157.961 507.201 156.041C506.361 156.641 505.081 157.361 503.361 157.681C501.401 158.041 499.561 157.681 499.521 157.4C499.521 157.201 500.561 157.2 501.361 156.32C501.841 155.8 502.041 155.201 502.161 154.681C500.601 155.721 498.601 156.601 496.721 156.041C491.601 154.48 490.681 143 490.361 139.2C489.401 126.88 492.921 120.16 488.641 115.84C488.281 115.48 486.561 113.72 484.681 114.08C482.281 114.52 480.441 118.28 481.241 120.76C481.921 122.88 484.321 123.481 484.161 123.881C483.921 124.401 479.881 123.601 476.481 120.881C475.241 119.881 474.241 119.08 473.721 117.6C472.801 115.04 473.881 112.12 475.321 110.4C478.321 106.8 483.921 107.04 487.361 108.32Z" fill="#263557" stroke="#263557" stroke-width="2" stroke-miterlimit="10"/>
<path opacity="0.22" d="M482.6 124.2C483.36 124.28 484.44 124.32 484.52 124.04C484.56 123.92 484.28 123.72 484.28 123.72C484.28 123.72 485.2 124.88 486.32 125.04C486.88 125.12 487.32 124.92 487.64 124.76C485.6 129.04 483.52 134.24 481.8 140.24C480 146.44 479 152.12 478.48 156.96C476.72 156.4 473.52 155.12 470.56 152.24C468.4 150.16 467.16 147.96 466.44 146.48C468.84 142.88 470.24 139.72 471.08 137.56C471.84 135.56 472.12 134.24 473.48 129.68C474.6 126 475.48 122.96 476.08 120.88C476.4 121.16 476.88 121.6 477.52 122.04C478.44 122.68 480.24 123.92 482.6 124.2Z" fill="#6D6C6C"/>
<path d="M495.521 86.7601C490.841 87.6801 487.361 91.4401 486.841 95.8801C486.201 101.16 490.081 104.76 490.441 105.08C485.481 105.68 480.521 106.32 475.561 106.92C475.481 105.76 475.441 104.16 475.721 102.32C476.681 96.4001 480.121 92.7601 480.841 92.0001C482.001 90.8001 486.081 86.9201 492.121 86.5601C493.521 86.4801 494.681 86.6401 495.521 86.7601Z" fill="#B74949"/>
<path d="M504.641 160.68C507.841 160.2 511.121 165.76 512.641 168.32C521.441 183.28 517.761 200.56 516.641 205.6C515.761 209.56 514.121 216.56 509.001 224.28C504.121 231.72 498.361 236.32 494.681 238.84C488.521 241.2 477.321 244.44 463.841 242.24C459.161 241.48 455.081 240.2 451.681 238.84C445.921 239.2 440.161 239.52 434.401 239.88C433.481 239.72 432.201 239.48 430.681 238.92C428.841 238.24 427.081 237.56 427.081 236.92C427.081 236.2 429.081 235.08 438.841 233.56C438.361 233.64 431.961 234.88 427.681 230.4C423.681 226.24 423.441 219.12 426.481 216.32C429.041 213.96 433.201 215 440.801 217.04C448.321 219.04 454.361 221.76 458.761 224.08C460.441 224.84 473.521 230.48 485.481 223.6C494.601 218.36 497.641 208.96 498.361 206.36C501.241 196.04 496.001 192.4 497.881 177.48C498.121 174.92 499.841 161.36 504.641 160.68Z" fill="white" stroke="#263557" stroke-width="2" stroke-miterlimit="10"/>
<path d="M424.961 225.24C429.601 225.6 434.041 226.72 438.281 228.64C438.961 228.96 439.601 227.92 438.881 227.6C434.441 225.56 429.801 224.36 424.961 224C424.201 224 424.201 225.2 424.961 225.24Z" fill="#263557"/>
<path d="M424.681 220.36C430.001 220.2 434.521 223.44 439.481 224.96C440.201 225.2 440.521 224.04 439.801 223.8C434.761 222.24 430.161 219 424.681 219.16C423.921 219.2 423.881 220.4 424.681 220.36Z" fill="#263557"/>
<path d="M429.8 216.12C434.16 216.48 438 218.56 441.76 220.68C442.44 221.04 443.04 220.04 442.36 219.64C438.4 217.44 434.4 215.32 429.8 214.92C429 214.84 429 216.04 429.8 216.12Z" fill="#263557"/>
<path opacity="0.18" d="M499.761 168.04C497.401 177.52 503.681 183.92 505.801 194.76C506.161 196.68 509.001 212.24 500.681 223.28C491.401 235.6 473.001 236.04 469.401 236.16C460.001 236.4 456.441 233.64 441.721 234.4C440.321 234.48 427.521 235.2 427.401 237C427.361 237.96 430.921 239.04 433.601 239.4C437.121 239.88 438.961 239.08 443.441 238.72C445.361 238.56 448.121 238.44 451.521 238.72C455.601 240.4 460.881 242.04 467.201 242.68C468.921 242.84 474.281 243.32 481.161 242.32C481.161 242.32 486.921 241.52 491.481 239.92C502.801 236 514.001 219.48 517.161 201.48C520.721 181.2 512.801 165.92 508.361 162.52C507.761 162.04 506.041 160.72 504.241 161.16C501.321 161.8 500.121 166.56 499.761 168.04Z" fill="#6D6C6C"/>
<path opacity="0.17" d="M516.64 180.08C516 180.08 516 187.72 514.24 197.32C513.16 203.16 510.96 215.04 505.64 223.32C496.16 238.08 476.8 241.4 469.44 242.28C475.76 243.16 485.48 243.36 494.96 238.32C515.521 227.36 517.52 200.92 517.88 196.12C518.44 188.04 517.28 180.08 516.64 180.08Z" fill="#6D6C6C"/>
<path d="M171.24 331.44C187.8 316.72 204.44 302.08 221.16 287.56C252.68 260.16 284.48 233.12 316.6 206.4C314.08 198.92 310.84 185.96 312.76 170.2C313.36 165.2 318.48 128.36 352.24 109.32C355.04 107.72 393.8 86.7601 430.12 109.88C454.08 125.12 466.48 152.92 463.56 180.08C459.24 220.44 423.4 238.32 421.32 239.32C395.48 251.64 364.4 248 341.24 230C306.44 258.64 271.72 287.32 237.04 316.08C221.84 328.68 206.68 341.28 191.52 353.92C188.36 352.4 183.12 349.36 178.4 343.8C174.44 339.16 172.36 334.52 171.24 331.44Z" fill="#263557"/>
<path d="M388.961 234.16C423.997 234.16 452.401 206.939 452.401 173.36C452.401 139.781 423.997 112.56 388.961 112.56C353.924 112.56 325.521 139.781 325.521 173.36C325.521 206.939 353.924 234.16 388.961 234.16Z" fill="white" stroke="#263557" stroke-width="2" stroke-miterlimit="10"/>
<path d="M394.121 115.92C382.521 140.48 370.321 164.8 357.561 188.8C353.961 195.56 350.321 202.32 346.641 209.04C346.281 209.72 347.321 210.32 347.681 209.64C360.761 185.8 373.281 161.68 385.201 137.24C388.561 130.36 391.881 123.44 395.201 116.48C395.521 115.84 394.481 115.24 394.121 115.92Z" fill="#E8E8E8"/>
<path d="M413.681 121.88C400.961 141.96 388.881 162.4 377.401 183.2C377.041 183.88 378.081 184.48 378.441 183.8C389.921 163 402.001 142.56 414.721 122.48C415.121 121.84 414.081 121.24 413.681 121.88Z" fill="#E8E8E8"/>
<path d="M375.28 190.24C370 200.52 364.36 210.64 358.32 220.52C357.92 221.2 358.96 221.8 359.36 221.12C365.36 211.24 371.04 201.12 376.32 190.84C376.68 190.16 375.64 189.52 375.28 190.24Z" fill="#E8E8E8"/>
<path d="M397.481 160.24C390.761 172.88 384.081 185.52 377.361 198.16C377.001 198.84 378.041 199.44 378.401 198.76C385.121 186.12 391.801 173.48 398.521 160.84C398.881 160.16 397.841 159.56 397.481 160.24Z" fill="#E8E8E8"/>
<path opacity="0.08" d="M387.08 112.36C382.64 113.96 353.4 124.92 344.04 154.28C342.96 157.68 339.6 168.64 342.12 181.32C346.96 205.48 371.12 225.04 402.72 231.6C400.32 232.4 396.96 233.36 392.8 233.88C367.68 237.04 348.2 219.92 345.92 217.88C340.96 213.36 325.64 198 325.36 173.68C325.32 171.56 325.44 147.56 343.64 130.24C354.24 120.16 366.64 116.48 371.84 115C377.92 113.28 383.24 112.64 387.08 112.36Z" fill="#6D6C6C"/>
<path d="M152.999 235.76C155.879 235.4 160.199 235.36 163.359 237.92C170.159 243.44 164.919 255.44 168.279 268.12C170.079 274.92 174.839 284.08 188.679 293.16C194.159 295.92 198.719 298 201.879 299.44C206.399 301.48 209.279 302.64 209.239 304.2C209.199 305.76 206.359 306.92 204.319 307.6C206.759 309.88 207.999 312.76 207.159 314.96C206.519 316.68 204.759 317.52 202.799 318.48C200.559 319.6 198.679 319.84 196.519 320.12C192.479 320.64 190.479 320.88 188.639 320.12C185.799 318.92 184.519 316.28 182.639 312.48C181.599 310.4 180.319 307.16 179.639 302.96C175.119 300.88 168.639 297.28 162.199 291.24C159.679 288.88 136.319 266.48 143.679 247.12C144.799 244.4 147.159 240 152.999 235.76Z" fill="white" stroke="#263557" stroke-width="2" stroke-miterlimit="10"/>
<path d="M188.759 315.16C189.759 317.36 191.279 319.2 193.239 320.68C193.839 321.16 194.439 320.12 193.839 319.64C192.079 318.32 190.719 316.56 189.799 314.56C189.479 313.88 188.439 314.48 188.759 315.16Z" fill="#263557"/>
<path d="M193.56 314.52C194.76 316.84 196.56 318.76 198.76 320.2C199.4 320.6 200 319.56 199.36 319.16C197.32 317.88 195.68 316.08 194.56 313.92C194.24 313.24 193.2 313.84 193.56 314.52Z" fill="#263557"/>
<path d="M198.598 311.8C199.718 314.16 201.638 316.04 203.998 317.16C204.678 317.48 205.318 316.44 204.598 316.12C202.398 315.08 200.678 313.4 199.638 311.2C199.278 310.48 198.278 311.08 198.598 311.8Z" fill="#263557"/>
<path opacity="0.2" d="M153.999 235.84C153.119 239.8 152.159 246.04 152.999 253.56C155.199 272.6 167.519 285.16 169.559 287.2C179.719 297.28 186.359 295.92 190.399 304.92C191.479 307.32 193.399 312.76 198.599 315.6C200.639 316.68 202.559 317.08 203.839 317.24C203.159 317.8 202.039 318.56 200.559 319.2C198.079 320.28 195.919 320.32 192.519 320.36C189.999 320.4 188.719 320.4 187.599 319.88C185.239 318.8 184.119 316.56 183.679 315.44C182.079 311.12 180.519 306.8 178.919 302.48C171.119 298.48 160.079 291.36 151.359 279.16C147.719 274.08 141.639 265.36 142.159 254.88C142.399 250.12 143.919 246.8 144.279 246C147.119 240.12 151.839 237.08 153.999 235.84Z" fill="#6D6C6C"/>
<path opacity="0.32" d="M142.679 257.32C142.919 257.24 144.439 262.04 147.439 267.64C154.759 281.48 165.319 289.96 172.879 295.88C176.319 298.56 179.239 300.56 181.079 301.8C183.319 305.56 184.599 308.8 185.359 311.16C185.999 313.12 186.359 314.88 187.839 316.72C189.359 318.72 191.319 319.84 192.759 320.48C191.679 320.52 190.039 320.44 188.319 319.64C185.039 318.12 183.599 314.96 182.079 311.6C181.199 309.68 180.159 306.8 179.599 303.08C158.719 292.52 150.879 279.2 147.919 272.88C144.879 266.4 142.359 257.48 142.679 257.32Z" fill="#6D6C6C"/>
<path d="M175.799 199.24C172.959 200.36 174.639 205.96 170.079 211.04C167.839 213.56 165.119 214.76 163.239 215.44C164.439 217.24 166.799 220.16 170.679 222.48C173.439 224.16 176.079 224.96 177.919 225.32C178.519 224.24 179.519 222.56 180.759 220.56C185.199 213.56 186.799 212.8 187.039 210.48C187.639 204.8 179.439 197.8 175.799 199.24Z" fill="white" stroke="#263557" stroke-width="2" stroke-miterlimit="10"/>
<path d="M175.28 210.04C176.92 213.32 178.64 216.56 181.36 219.08C181.92 219.6 182.76 218.76 182.2 218.24C179.56 215.8 177.92 212.6 176.32 209.44C175.96 208.76 174.92 209.36 175.28 210.04Z" fill="#263557"/>
<path d="M174.08 207.88C175.92 211.48 177.92 215.04 181.44 217.24C182.04 217.6 182.64 216.8 182.16 216.28C181 215.04 179.8 213.8 178.68 212.56C178.4 212.84 178.12 213.12 177.84 213.4C178.52 214.12 179.24 214.8 180.04 215.36C180.32 215.56 181.2 215.96 181.36 216.2C181.6 216.6 181.36 217.24 181.24 217.64C181.64 217.76 182 217.84 182.4 217.96C182.44 217.76 182.44 217.56 182.48 217.4C182.56 216.88 181.92 216.32 181.48 216.8C181.48 216.36 181.36 215.92 181.08 215.56C180.72 215.76 180.4 215.96 180.04 216.16C180.48 216.76 180.92 217.36 181.36 217.96C181.68 217.72 182 217.48 182.32 217.24C181.96 216.84 181.68 216.44 181.4 216C181.04 215.48 180.04 215.8 180.32 216.48C180.56 217 180.64 217.2 181 217.64C181.48 218.24 182.32 217.4 181.84 216.8C181.72 216.6 181.6 216.4 181.48 216.16C181.12 216.32 180.76 216.48 180.4 216.64C180.76 217.16 181.12 217.64 181.52 218.12C181.96 218.64 182.88 217.96 182.48 217.4C182.04 216.8 181.6 216.2 181.16 215.6C180.72 214.96 179.8 215.52 180.12 216.2C180.52 217 181.32 218.88 182.4 217.68C182.08 217.48 181.72 217.28 181.4 217.08C181.36 217.28 181.36 217.48 181.32 217.64C181.2 218.4 182.28 218.72 182.48 217.96C182.76 217 183.44 216.56 182.64 215.6C182.28 215.16 181.68 214.96 181.24 214.68C180.32 214.08 179.52 213.36 178.76 212.56C178.24 212 177.4 212.84 177.92 213.4C179.08 214.64 180.24 215.88 181.4 217.12C181.64 216.8 181.88 216.48 182.12 216.16C178.8 214.08 176.96 210.64 175.2 207.24C174.76 206.56 173.72 207.2 174.08 207.88Z" fill="#263557"/>
<path d="M212.6 188.64C211.8 192.2 210.16 197.48 206.4 202.92C199.8 212.48 190.84 216.52 187 218C184.8 217.16 181.92 215.68 179.2 213.16C171.76 206.24 171.2 196.76 171.12 194.32C170.32 194.12 169.16 193.68 168.16 192.72C165.6 190.24 165 185.32 167.36 183.28C170.04 180.96 175.16 183.8 175.72 184.08C176.96 184.76 177.84 185.6 178.4 186.24C180.6 179.6 185.88 174.6 192.16 173.56C200.72 172.16 210.08 178.4 212.6 188.64Z" fill="white" stroke="#263557" stroke-width="2" stroke-miterlimit="10"/>
<path d="M202.919 198.2C201.319 201.8 198.959 204.88 195.919 207.4C195.319 207.88 196.159 208.72 196.759 208.24C199.919 205.68 202.319 202.52 203.959 198.8C204.279 198.08 203.239 197.48 202.919 198.2Z" fill="#263557"/>
<path d="M194.401 204.72C194.241 206.08 194.721 207.4 195.641 208.4C196.161 208.96 197.001 208.12 196.481 207.56C195.761 206.76 195.481 205.8 195.601 204.72C195.681 203.96 194.481 203.96 194.401 204.72Z" fill="#263557"/>
<path d="M191.959 197.879C192.999 196.439 194.239 195.159 195.639 193.999C195.319 193.799 194.959 193.599 194.639 193.399C194.119 194.999 192.999 196.279 191.519 197.079C191.759 197.399 191.999 197.719 192.239 198.039C193.159 196.919 194.079 195.839 194.999 194.719C195.479 194.119 194.639 193.279 194.159 193.879C193.239 194.999 192.319 196.079 191.399 197.199C190.959 197.719 191.519 198.479 192.119 198.159C193.879 197.199 195.159 195.639 195.799 193.759C195.999 193.119 195.239 192.839 194.799 193.159C193.319 194.359 192.039 195.719 190.959 197.279C190.479 197.919 191.519 198.519 191.959 197.879Z" fill="#263557"/>
<path d="M205.24 201.4C205.76 200.52 206.44 199.76 207.2 199.08C206.88 198.88 206.52 198.68 206.2 198.48C205.84 199.68 205.12 200.76 204.08 201.52C204.36 201.76 204.68 201.96 204.96 202.2C205.2 201.56 205.56 200.96 206 200.44C206.48 199.84 205.64 199 205.16 199.6C204.6 200.32 204.16 201.04 203.84 201.88C203.64 202.36 204.32 202.88 204.72 202.56C206 201.6 206.92 200.36 207.36 198.84C207.56 198.24 206.8 197.88 206.36 198.24C205.52 198.96 204.8 199.84 204.2 200.8C203.76 201.44 204.8 202.04 205.24 201.4Z" fill="#263557"/>
<path d="M187.84 194.92C188.44 196.32 188.76 197.76 188.76 199.24C188.76 199.64 189.36 199.64 189.36 199.24C189.36 197.64 189 196.08 188.36 194.6C188.2 194.24 187.68 194.56 187.84 194.92Z" fill="#263557"/>
<path d="M186.159 193.879C186.559 194.519 186.839 195.159 187.079 195.839C187.199 196.199 187.759 196.039 187.639 195.679C187.399 194.919 187.079 194.239 186.679 193.559C186.479 193.239 185.959 193.559 186.159 193.879Z" fill="#263557"/>
<path d="M195.4 190.6C196.88 190.16 198.28 191.16 198.32 192.72C198.32 193.28 199.24 193.32 199.24 192.72C199.16 190.6 197.24 189.16 195.16 189.72C194.6 189.88 194.84 190.76 195.4 190.6Z" fill="#263557"/>
<path d="M206.12 196.48C206.76 196.08 207.52 196.04 208.2 196.44C208.68 196.76 209.16 195.96 208.64 195.68C207.72 195.12 206.56 195.12 205.68 195.72C205.2 196.04 205.64 196.8 206.12 196.48Z" fill="#263557"/>
<path d="M186.6 206.76C187.56 208.48 189.2 209.72 191.12 210.24C191.88 210.44 192.2 209.28 191.44 209.08C189.8 208.64 188.48 207.64 187.64 206.16C187.24 205.48 186.2 206.08 186.6 206.76Z" fill="#263557"/>
<path d="M178.36 187.84C179.24 186.32 181.36 183.08 185.44 180.84C188.24 179.28 190.88 178.84 192.48 178.68C193.36 179.84 194.8 181.36 196.92 182.32C201.92 184.6 205.96 181.6 208.92 183.6C210.48 184.64 212.04 187.16 211.44 194.04C214.08 196.76 215.84 196.92 216.8 196.72C220.8 195.92 223.68 186.92 221.16 180.36C220.4 178.4 219.4 177.28 210.92 170.52C198.96 161 197.48 160.44 195.92 160.08C187.68 158.16 180.4 162.32 179.16 163.04C177.56 163.96 177.2 164.4 168.04 174.04C160.92 181.52 160.24 182.2 159.6 184.04C157.92 188.68 158.24 195.4 162.52 200.32C166.56 204.92 172 205.6 173.4 205.76C172.8 204.4 172.16 202.48 171.84 200.12C171.44 197.08 171.84 194.56 172.2 192.92C171.92 192.72 170.32 191.4 170.2 189.16C170.12 187.52 170.88 185.44 172.64 184.76C174.6 184 177.28 185.16 178.36 187.84Z" fill="#2E28F7"/>
<path d="M176.64 167.72C175 164.48 170.2 164 169.36 163.92C162.68 163.24 157.32 169.2 154.16 172.68C148.56 178.88 150.16 180.72 144.72 188.2C137.52 198.12 132.12 198.56 131 205.4C130.92 205.92 129.92 212.8 134.48 216.96C138.4 220.56 144.72 220.6 148.88 218.44C154.52 215.52 154.04 209.64 158.12 199.76C166.12 180.48 179.8 173.96 176.64 167.72Z" fill="#2E28F7"/>
<path opacity="0.12" d="M183.079 182.28C181.799 185.48 180.279 190.56 180.359 196.92C180.479 207.08 184.639 214.52 186.719 217.72C184.439 216.76 180.639 214.72 177.319 210.72C175.959 209.08 172.759 205.2 171.919 199.24C171.519 196.56 171.759 194.32 171.999 192.8C171.759 192.6 170.119 191.12 170.199 188.8C170.239 187.28 171.039 185.24 172.759 184.64C174.679 183.96 177.319 185.2 178.359 187.88C178.759 187.08 179.319 186.08 180.159 185.04C181.199 183.8 182.239 182.92 183.079 182.28Z" fill="#6D6C6C"/>
<path opacity="0.13" d="M176.04 211.56C175.72 212.28 175.36 213 174.92 213.72C172.92 217.08 170.32 219.32 168.28 220.68C167.56 220.24 166.6 219.56 165.64 218.52C164.6 217.4 163.96 216.28 163.6 215.48C165.16 215 169.04 213.52 171.68 209.64C172.6 208.24 173.16 206.88 173.48 205.76C174.32 207.72 175.16 209.64 176.04 211.56Z" fill="#6D6C6C"/>
<path opacity="0.18" d="M172.519 192.12C172.719 194.88 173.239 198.48 174.599 202.52C176.479 208 179.199 212.04 181.279 214.6C179.199 212.92 176.719 210.4 174.719 206.88C173.399 204.52 171.439 201.12 171.679 196.48C171.759 194.68 172.159 193.16 172.519 192.12Z" fill="#6D6C6C"/>
<path opacity="0.32" d="M178.639 164.04C176.959 165.68 166.479 176.24 167.919 191.24C168.519 197.64 171.079 202.48 172.919 205.32C171.639 205.24 169.159 204.96 166.479 203.4C163.799 201.84 162.279 199.8 161.599 198.76C161.079 197.92 160.439 196.56 160.039 194.84C160.039 194.84 159.319 191.48 160.639 187.32C162.039 182.76 168.359 173.88 178.639 164.04Z" fill="#32198E"/>
<path opacity="0.33" d="M157 170.52C157.92 171.12 152.84 181.8 147.24 191.12C142.2 199.48 139.72 201.8 139.36 206.92C139 212.24 141.24 216.8 143.24 219.88C142.24 219.96 138.48 220.08 135.2 217.48C133.4 216.04 132.44 214.36 132 213.32C131.04 210.52 130.2 206.44 131.88 202.6C133 200 134.32 199.8 138.44 195.64C142.08 191.96 145.68 188.32 148.32 182.92C149.68 180.16 150.16 178.16 152.48 175.04C154 172.96 156.48 170.16 157 170.52Z" fill="#32198E"/>
</svg>
