<svg width="550" height="430" xmlns="http://www.w3.org/2000/svg">

 <g>
  <title>background</title>
  <rect fill="none" id="canvas_background" height="402" width="582" y="-1" x="-1"/>
 </g>
 <g>
  <title>Layer 1</title>
  <path id="svg_73" stroke-miterlimit="10" stroke-width="3" stroke="#263557" fill="white" d="m256.863,236.763c-3.331,2.475 -7.353,6.452 -8.815,12.134c-1.057,4.221 -0.041,6.696 -0.407,12.135c-0.243,3.774 -1.218,9.09 -4.346,15.421c-7.11,-1.461 -19.054,-2.881 -33.15,0.365c-8.41,1.948 -15.154,4.992 -20.11,7.752c0.772,0.487 1.828,1.055 3.169,1.42c7.597,2.07 15.6,-4.302 15.844,-3.855c0.243,0.406 -8.938,4.708 -8.45,8.441c0.325,2.516 4.834,3.856 9.506,5.276c3.941,1.177 7.678,2.313 12.675,1.745c6.866,-0.771 11.619,-4.221 13.731,-6.006c2.031,1.014 5.038,2.354 8.816,3.531c6.947,2.11 16.534,5.032 22.912,1.055c4.144,-2.598 5.403,-8.685 7.76,-20.779c2.843,-14.732 4.184,-22.118 0.365,-28.165c-4.997,-8.076 -15.275,-9.943 -19.5,-10.47z"/>
  <path id="svg_74" fill="#263557" d="m241.994,276.9c4.916,1.826 8.978,5.154 11.781,9.577c0.407,0.649 1.463,0.041 1.057,-0.609c-2.966,-4.707 -7.313,-8.197 -12.513,-10.145c-0.772,-0.284 -1.056,0.892 -0.325,1.177z"/>
  <path id="svg_75" fill="#263557" d="m215.832,284.895c-4.835,0.811 -8.735,4.058 -10.481,8.603c-0.285,0.731 0.893,1.055 1.178,0.325c1.584,-4.14 5.24,-7.021 9.628,-7.752c0.772,-0.121 0.447,-1.298 -0.325,-1.176z"/>
  <path id="svg_76" fill="#263557" d="m221.52,288.953c-1.746,1.055 -3.371,2.272 -4.915,3.571c-1.016,0.893 -2.153,1.948 -1.91,3.409c0.61,3.856 5.241,3.003 7.76,2.029c0.731,-0.284 0.406,-1.461 -0.325,-1.177c-1.097,0.406 -2.316,0.934 -3.494,0.893c-1.909,-0.081 -3.616,-1.907 -1.991,-3.571c1.544,-1.623 3.575,-2.922 5.485,-4.14c0.65,-0.405 0.041,-1.461 -0.61,-1.014z"/>
  <path id="svg_77" fill="#FF6109" d="m294.766,186.805c-2.072,0.69 -4.713,1.745 -7.678,3.206c-0.853,0.406 -3.006,1.501 -5.322,3.003c-3.575,2.273 -6.175,4.667 -9.141,7.67c-3.778,3.856 -7.597,7.711 -12.147,13.88c-3.818,5.194 -9.749,13.352 -14.015,25.324c-1.706,4.748 -2.681,8.847 -3.25,11.769c2.234,-1.299 4.266,-1.948 5.85,-2.313c9.141,-2.07 17.915,2.556 26.244,6.899c3.128,1.623 5.606,3.206 7.312,4.302c0.894,-4.383 1.788,-8.807 2.681,-13.19c0.772,-3.693 1.503,-7.427 2.275,-11.12c1.178,-1.014 2.763,-2.516 4.51,-4.464c3.29,-3.734 9.831,-11.16 10.725,-21.469c1.097,-11.89 -5.972,-20.981 -8.044,-23.497z"/>
  <path id="svg_78" fill="#263557" d="m292.37,187.291c-4.347,0.649 -8.084,2.963 -11.456,5.641c-3.9,3.044 -7.557,6.412 -10.969,9.984c-6.663,6.899 -12.472,14.61 -17.266,22.929c-0.406,0.69 0.65,1.299 1.057,0.609c4.631,-8.036 10.156,-15.503 16.575,-22.199c3.128,-3.247 6.418,-6.331 9.871,-9.213c3.697,-3.043 7.638,-5.884 12.513,-6.615c0.772,-0.081 0.447,-1.258 -0.325,-1.136z"/>
  <path id="svg_79" fill="#263557" d="m290.662,231.608c-3.006,3.044 -6.093,6.007 -9.222,8.888c-0.568,0.528 0.285,1.38 0.854,0.852c3.128,-2.881 6.215,-5.844 9.221,-8.887c0.529,-0.569 -0.325,-1.421 -0.853,-0.853z"/>
  <path id="svg_80" fill="#263557" d="m286.438,237.169c-1.422,7.792 -2.803,15.625 -4.225,23.417c0.284,-0.122 0.609,-0.244 0.894,-0.366c-6.46,-4.504 -13.65,-7.873 -21.288,-9.983c-5.971,-1.623 -13.568,-3.206 -18.687,1.299c-0.569,0.527 0.284,1.379 0.853,0.852c5.2,-4.627 13.609,-2.192 19.5,-0.406c6.784,2.07 13.163,5.235 18.972,9.253c0.325,0.203 0.812,0 0.894,-0.365c1.422,-7.792 2.803,-15.625 4.225,-23.417c0.162,-0.73 -1.016,-1.055 -1.138,-0.284z"/>
  <path id="svg_81" fill="#263557" d="m252.963,225.278c-4.225,8.239 -9.507,16.72 -9.872,26.258c-0.041,0.771 1.178,0.771 1.219,0c0.365,-9.294 5.565,-17.573 9.709,-25.649c0.325,-0.69 -0.731,-1.299 -1.056,-0.609z"/>
  <path id="svg_82" fill="#263557" d="m289.079,209.938c-7.272,14.447 -11.213,26.622 -13.528,35.145c-3.372,12.499 -4.55,22.361 -13.285,30.559c-1.421,1.339 -5.606,5.195 -12.187,7.589c-13.813,4.992 -24.05,-1.745 -32.744,5.398c-0.975,0.811 -3.859,2.84 -3.534,5.154c0.325,2.191 3.331,3.328 3.778,3.53c3.575,1.38 7.272,-0.04 11.903,-1.907c5.241,-2.11 4.672,-2.841 7.028,-3.247c4.956,-0.852 7.231,2.273 13.813,4.343c2.803,0.852 11.09,3.449 17.062,0c4.388,-2.557 5.728,-7.346 7.841,-15.422c1.462,-5.479 2.965,-13.474 2.722,-23.538c1.625,1.258 3.25,2.516 4.875,3.774c2.112,-17.126 4.184,-34.252 6.256,-51.378z" opacity="0.4"/>
  <path id="svg_83" fill="#263557" d="m286.641,227.51c-5.566,10.511 -8.288,19.399 -9.75,25.405c-2.925,12.053 -1.991,17.735 -5.972,26.217c-4.266,9.212 -11.172,15.056 -15.966,18.384c2.681,0.609 9.141,1.745 13.813,-1.907c3.29,-2.557 4.143,-6.21 5.403,-12.175c1.584,-7.346 3.25,-15.706 4.875,-24.878c1.259,0.812 2.518,1.623 3.778,2.435c1.3,-11.12 2.559,-22.321 3.819,-33.481z" opacity="0.38"/>
  <path id="svg_84" fill="#FF6109" d="m293.911,185.993c-1.462,9.537 -2.884,19.156 -4.265,28.815c-5.363,37.458 -9.994,74.267 -13.894,110.467c0.081,1.218 0.406,3.166 1.625,5.114c1.219,1.988 2.844,3.003 3.616,3.531c7.393,5.275 11.09,7.954 14.828,9.74c17.915,8.644 37.74,7.629 37.74,7.629c4.185,-0.203 12.513,-0.73 21.45,-4.302c0.488,-0.202 3.9,-1.785 10.725,-4.991c6.175,-2.882 7.272,-3.45 8.775,-4.83c3.575,-3.287 4.957,-7.345 5.891,-10.227c1.991,-6.128 1.788,-11.322 1.706,-12.581c0,0 -0.406,-10.105 -0.69,-69.113c-0.041,-12.013 1.137,-29.666 7.475,-51.46c-6.582,-3.206 -12.757,-6.168 -20.191,-9.74c-5.119,-2.475 -9.872,-4.748 -16.697,-5.56c-1.95,-0.243 -3.697,-0.324 -6.297,-0.284c-10.562,0.082 -19.256,1.705 -22.994,2.354c-7.271,1.177 -17.103,2.963 -28.803,5.438z"/>
  <path id="svg_85" fill="#263557" d="m293.587,187.414c12.594,-2.678 25.309,-4.829 38.065,-6.412c0.569,-0.081 0.894,-0.812 0.325,-1.136c-0.162,-0.082 -0.325,-0.203 -0.528,-0.284c-0.69,-0.406 -1.3,0.649 -0.609,1.055c0.162,0.081 0.325,0.203 0.528,0.284c0.122,-0.365 0.203,-0.771 0.325,-1.137c-12.878,1.583 -25.716,3.734 -38.391,6.453c-0.812,0.162 -0.487,1.339 0.285,1.177z"/>
  <path id="svg_86" fill="#263557" d="m289.808,208.679c-4.468,31.818 -8.531,63.675 -12.187,95.614c-0.447,4.018 -0.894,7.995 -1.341,12.013c-0.365,3.49 -1.381,7.427 -0.934,10.917c0.406,3.084 2.844,5.032 5.078,6.899c2.438,2.029 4.997,3.937 7.678,5.682c11.01,7.102 23.888,11.363 36.969,12.134c15.559,0.893 31.2,-3.084 44.484,-11.201c0.65,-0.406 0.041,-1.461 -0.609,-1.055c-23.238,14.164 -52.813,14.732 -76.497,1.299c-2.722,-1.542 -5.362,-3.247 -7.881,-5.114c-2.56,-1.907 -6.703,-4.504 -7.76,-7.629c-0.487,-1.502 -0.243,-3.166 -0.081,-4.749c0.203,-1.988 0.447,-4.017 0.65,-6.006c0.406,-3.734 0.813,-7.467 1.26,-11.201c1.746,-15.219 3.534,-30.397 5.484,-45.575c2.194,-17.248 4.469,-34.496 6.906,-51.703c0.081,-0.771 -1.097,-1.096 -1.219,-0.325z"/>
  <path id="svg_87" fill="#263557" d="m349.649,178.12c7.15,1.42 13.853,4.708 20.516,7.508c6.541,2.76 13.813,4.992 19.581,9.212c0.65,0.447 1.26,-0.608 0.61,-1.055c-5.647,-4.139 -12.757,-6.331 -19.135,-9.009c-6.906,-2.882 -13.853,-6.331 -21.247,-7.833c-0.772,-0.162 -1.097,1.015 -0.325,1.177z"/>
  <path id="svg_88" fill="#263557" d="m381.498,246.949c-0.65,17.085 -1.3,34.171 -0.69,51.216c0.284,8.279 1.584,16.882 0.04,25.121c-1.3,6.777 -5.118,13.555 -11.903,16.071c-0.731,0.284 -0.406,1.461 0.325,1.177c10.807,-4.018 13.61,-16.315 13.447,-26.623c-0.081,-6.98 -0.69,-13.961 -0.853,-20.981c-0.162,-7.143 -0.081,-14.245 0.041,-21.388c0.162,-8.198 0.487,-16.396 0.772,-24.593c0.081,-0.812 -1.138,-0.812 -1.179,0z"/>
  <path id="svg_89" fill="#263557" d="m375.649,237.331c-2.153,7.386 -5.525,15.462 -10.725,23.498c-23.278,35.754 -65.894,42.896 -76.781,44.398c14.625,1.542 29.412,3.206 44.362,4.992c16.494,1.948 32.784,4.017 48.831,6.128c-1.015,-18.141 -1.015,-33.076 -0.772,-43.749c0.447,-22.077 2.032,-39.934 -0.853,-40.502c-0.69,-0.163 -1.909,0.608 -4.062,5.235z" opacity="0.38"/>
  <path id="svg_90" fill="#263557" d="m380.647,250.602c-1.463,4.301 -3.697,10.389 -6.988,17.41c-4.631,9.943 -9.059,19.52 -14.787,25.405c-16.006,16.436 -47.288,9.334 -47.369,10.47c-0.041,0.65 11.416,2.476 69.266,7.792c0,-20.372 -0.041,-40.705 -0.122,-61.077z" opacity="0.42"/>
  <path id="svg_91" stroke-miterlimit="10" stroke-width="3" stroke="#263557" fill="white" d="m453.529,417.925c-149.094,-19.885 -298.228,-39.771 -447.32197,-59.616c43.99687,-25.487 88.03437,-50.973 132.03097,-76.459c134.51,13.23 269.06,26.5 403.569,39.731c-29.453,32.101 -58.866,64.243 -88.278,96.344z"/>
  <path id="svg_92" stroke-miterlimit="10" stroke-width="16" stroke="#263557" d="m4.74414,361.758c149.45986,19.804 298.91886,39.609 448.33786,59.414"/>
  <path id="svg_93" stroke-miterlimit="10" stroke-width="16" stroke="#263557" d="m450.238,422.065c31.322,-33.076 62.644,-66.192 93.925,-99.267"/>
  <path id="svg_94" fill="#263557" d="m400.35,335.135c-15.235,11.891 -30.144,24.148 -44.81,36.728c-0.609,0.528 0.285,1.38 0.853,0.853c14.666,-12.581 29.616,-24.837 44.81,-36.728c0.609,-0.447 -0.244,-1.34 -0.853,-0.853z"/>
  <path id="svg_95" fill="#263557" d="m356.11,372.513c4.794,1.015 9.669,1.015 14.584,1.055c5.525,0.082 10.725,0.65 16.007,2.192c9.912,2.881 19.621,4.789 29.981,4.545c0.772,0 0.772,-1.217 0,-1.217c-5.322,0.122 -10.644,-0.203 -15.925,-1.055c-4.956,-0.812 -9.669,-2.273 -14.503,-3.612c-4.632,-1.299 -9.263,-1.908 -14.097,-1.989c-5.281,-0.122 -10.563,0.041 -15.763,-1.055c-0.731,-0.203 -1.056,0.974 -0.284,1.136z"/>
  <path id="svg_96" fill="#263557" d="m401.245,336.029c16.087,1.299 32.053,3.855 47.734,7.67c0.772,0.203 1.097,-0.974 0.325,-1.177c-15.762,-3.855 -31.85,-6.412 -48.059,-7.711c-0.772,-0.081 -0.772,1.137 0,1.218z"/>
  <path id="svg_97" fill="#263557" d="m417.616,379.574c11.334,-11.201 22.222,-22.889 32.541,-35.064c0.487,-0.609 -0.366,-1.461 -0.854,-0.852c-10.318,12.134 -21.206,23.822 -32.54,35.064c-0.569,0.568 0.284,1.42 0.853,0.852z"/>
  <path id="svg_98" fill="#263557" d="m370.288,367.683c13.975,-1.704 28.112,0.041 41.234,5.154c0.732,0.284 1.057,-0.893 0.325,-1.177c-13.203,-5.113 -27.503,-6.899 -41.559,-5.194c-0.772,0.081 -0.772,1.298 0,1.217z"/>
  <path id="svg_99" fill="#263557" d="m391.454,363.219c8.612,0.65 17.103,1.989 25.512,3.978c0.772,0.203 1.097,-0.974 0.325,-1.177c-8.491,-2.029 -17.103,-3.369 -25.837,-4.018c-0.813,-0.041 -0.772,1.177 0,1.217z"/>
  <path id="svg_100" fill="#263557" d="m384.995,354.25c12.959,0.284 25.797,2.151 38.309,5.6c0.772,0.203 1.097,-0.974 0.325,-1.177c-12.593,-3.449 -25.553,-5.357 -38.634,-5.641c-0.772,0 -0.772,1.218 0,1.218z"/>
  <path id="svg_101" fill="#263557" d="m401.082,350.517c6.988,0.974 13.894,2.191 20.8,3.652c0.772,0.163 1.097,-1.014 0.325,-1.177c-6.906,-1.461 -13.812,-2.678 -20.8,-3.652c-0.772,-0.122 -1.097,1.055 -0.325,1.177z"/>
  <path id="svg_102" fill="#263557" d="m392.184,377.748c-2.478,3.815 -4.956,7.63 -7.475,11.404c-0.243,0.366 0.082,0.974 0.528,0.934c20.029,-2.273 40.341,-0.974 59.922,3.815c0.772,0.202 1.097,-0.974 0.325,-1.177c-19.703,-4.83 -40.097,-6.128 -60.247,-3.896c0.163,0.324 0.366,0.608 0.529,0.933c2.478,-3.815 4.956,-7.63 7.475,-11.404c0.447,-0.649 -0.61,-1.258 -1.057,-0.609z"/>
  <path id="svg_103" fill="#263557" d="m441.3,354.697c7.841,-0.163 15.641,-0.325 23.482,-0.487c-0.203,-0.244 -0.406,-0.528 -0.569,-0.771c-5.403,12.865 -10.847,25.689 -16.25,38.554c-0.284,0.73 0.894,1.055 1.178,0.324c5.403,-12.864 10.847,-25.689 16.25,-38.554c0.163,-0.365 -0.244,-0.771 -0.569,-0.771c-7.84,0.163 -15.64,0.325 -23.481,0.487c-0.812,0.041 -0.812,1.258 -0.041,1.218z"/>
  <path id="svg_104" fill="#263557" d="m411.603,384.931c2.072,-0.406 4.144,-0.487 6.256,-0.325c0.772,0.041 0.772,-1.177 0,-1.217c-2.234,-0.162 -4.387,-0.041 -6.581,0.365c-0.772,0.122 -0.447,1.299 0.325,1.177z"/>
  <path id="svg_105" fill="#263557" d="m423.141,385.052c6.379,0.244 12.757,0.853 19.094,1.827c0.772,0.122 1.097,-1.055 0.325,-1.177c-6.419,-1.015 -12.919,-1.624 -19.419,-1.867c-0.771,-0.041 -0.771,1.177 0,1.217z"/>
  <path id="svg_106" fill="#263557" d="m423.507,377.424c1.503,0 3.006,0 4.55,0c0.772,0 0.772,-1.218 0,-1.218c-1.503,0 -3.007,0 -4.55,0c-0.772,0 -0.772,1.218 0,1.218z"/>
  <path id="svg_107" fill="#263557" d="m432.971,377.302c4.997,0.121 9.954,0.608 14.91,1.42c0.772,0.122 1.097,-1.055 0.325,-1.177c-5.038,-0.812 -10.116,-1.299 -15.235,-1.461c-0.771,0 -0.771,1.218 0,1.218z"/>
  <path id="svg_108" fill="#263557" d="m432.2,370.362c5.688,0.081 11.334,0.406 16.981,1.055c0.772,0.081 0.772,-1.136 0,-1.217c-5.647,-0.65 -11.293,-1.015 -16.981,-1.055c-0.772,-0.041 -0.772,1.176 0,1.217z"/>
  <path id="svg_109" fill="#263557" d="m394.054,383.835c2.721,0.082 5.403,-0.243 8.084,-0.892c0.772,-0.203 0.447,-1.38 -0.325,-1.177c-2.559,0.649 -5.119,0.933 -7.759,0.852c-0.772,0 -0.772,1.217 0,1.217z"/>
  <path id="svg_110" fill="#263557" d="m413.349,320.241c-1.056,1.299 -2.275,3.937 -1.015,5.519c0.771,0.974 2.234,0.772 3.331,0.812c1.99,0.081 3.981,0.203 5.972,0.284c8.084,0.365 16.128,0.771 24.212,1.137c0.772,0.04 0.772,-1.177 0,-1.218c-5.972,-0.284 -11.903,-0.568 -17.875,-0.852c-2.925,-0.122 -5.809,-0.284 -8.734,-0.406c-1.422,-0.081 -2.925,0 -4.347,-0.203c-1.056,-0.162 -1.828,-0.203 -1.788,-1.502c0.041,-1.014 0.488,-1.948 1.097,-2.719c0.488,-0.608 -0.365,-1.501 -0.853,-0.852z"/>
  <path id="svg_111" fill="#263557" d="m414.448,321.783c6.825,0.244 13.65,0.447 20.475,0.69c3.331,0.122 6.703,0.203 10.034,0.325c3.007,0.122 6.175,0.325 8.329,2.638c0.528,0.568 1.381,-0.284 0.853,-0.852c-1.625,-1.786 -3.819,-2.476 -6.175,-2.801c-3.494,-0.446 -7.11,-0.365 -10.644,-0.487c-7.638,-0.243 -15.275,-0.527 -22.872,-0.771c-0.772,0.041 -0.772,1.258 0,1.258z"/>
  <path id="svg_112" fill="#263557" d="m445.443,328.034c3.128,0.04 6.094,-0.934 8.613,-2.801c0.609,-0.446 0,-1.501 -0.61,-1.055c-2.356,1.745 -5.037,2.679 -8.003,2.638c-0.812,0 -0.812,1.218 0,1.218z"/>
  <path id="svg_113" fill="#263557" d="m446.419,321.784c-1.707,1.136 -2.478,3.247 -1.91,5.195c0.203,0.73 1.382,0.446 1.178,-0.325c-0.406,-1.421 0.082,-3.003 1.341,-3.856c0.65,-0.405 0.041,-1.461 -0.609,-1.014z"/>
  <path id="svg_182" stroke-miterlimit="10" stroke-width="3" stroke="#263557" fill="white" d="m280.547,363.868c-49.36,-8.442 -98.719,-16.883 -148.078,-25.324c29.981,-12.094 59.962,-24.147 89.944,-36.241c46.881,10.43 93.762,20.86 140.603,31.289c-27.463,10.106 -54.966,20.17 -82.469,30.276z"/>
  <path id="svg_183" fill="#263557" d="m278.516,364.477c0.162,0.487 0.284,1.015 0.447,1.502c0.203,0.649 1.178,0.527 1.178,-0.163c0,-0.406 0,-0.771 0,-1.177c0,-0.771 -1.219,-0.771 -1.219,0c0,0.487 -0.081,0.934 -0.284,1.38c0.406,0 0.772,0 1.178,0c-0.163,-0.527 -0.203,-1.014 -0.081,-1.583c-0.366,0.041 -0.732,0.082 -1.097,0.163c0.121,0.121 0.121,0.203 0.04,0.324c0.366,0.041 0.732,0.082 1.097,0.163c-0.081,-0.284 -0.04,-0.528 0.122,-0.771c-0.366,-0.122 -0.772,-0.203 -1.138,-0.325c-0.081,0.649 -0.162,1.258 -0.243,1.907c-0.041,0.325 0.325,0.609 0.609,0.609c0.366,0 0.569,-0.284 0.61,-0.609c0.081,-0.649 0.162,-1.258 0.243,-1.907c0.082,-0.609 -0.853,-0.771 -1.137,-0.325c-0.325,0.528 -0.407,1.137 -0.244,1.745c0.122,0.528 0.853,0.569 1.097,0.163c0.325,-0.487 0.325,-1.096 -0.041,-1.542c-0.284,-0.366 -1.015,-0.406 -1.097,0.162c-0.162,0.73 -0.122,1.501 0.082,2.232c0.203,0.609 0.975,0.528 1.178,0c0.203,-0.568 0.325,-1.136 0.325,-1.704c-0.406,0 -0.813,0 -1.219,0c0,0.405 0,0.771 0,1.176c0.406,-0.04 0.813,-0.121 1.178,-0.162c-0.162,-0.487 -0.284,-1.015 -0.447,-1.502c-0.162,-0.852 -1.34,-0.527 -1.137,0.244z"/>
  <path id="svg_184" fill="#263557" d="m279.449,367.399c6.541,-3.368 13.691,-5.154 20.719,-7.143c3.453,-0.974 6.866,-2.029 10.156,-3.409c3.169,-1.298 6.216,-2.922 9.344,-4.383c6.947,-3.246 14.462,-5.357 21.734,-7.751c7.556,-2.516 15.072,-5.032 22.628,-7.508c0.732,-0.244 0.407,-1.42 -0.325,-1.177c-7.556,2.516 -15.072,5.032 -22.628,7.508c-7.15,2.354 -14.503,4.464 -21.368,7.589c-3.575,1.623 -7.069,3.531 -10.725,4.951c-3.332,1.299 -6.744,2.314 -10.197,3.288c-6.785,1.948 -13.65,3.733 -19.988,6.98c-0.65,0.365 -0.04,1.42 0.65,1.055z"/>
  <path id="svg_185" fill="#263557" d="m280.018,367.155c28.072,-9.699 56.063,-19.521 84.053,-29.504c2.194,-0.771 1.26,-4.302 -0.975,-3.531c-27.95,9.984 -55.981,19.805 -84.053,29.504c-2.194,0.771 -1.259,4.302 0.975,3.531z"/>
  <path id="svg_186" fill="#263557" d="m276.85,327.952c5.282,0.527 9.791,3.734 14.991,4.748c0.772,0.162 1.097,-1.014 0.325,-1.177c-5.281,-1.055 -9.872,-4.261 -15.316,-4.789c-0.771,-0.04 -0.771,1.177 0,1.218z"/>
  <path id="svg_187" fill="#263557" d="m292.205,332.131c3.21,-1.745 6.216,-3.814 8.938,-6.249c0.568,-0.528 -0.285,-1.38 -0.853,-0.853c-2.682,2.354 -5.566,4.383 -8.694,6.047c-0.691,0.406 -0.081,1.461 0.609,1.055z"/>
  <path id="svg_188" fill="#263557" d="m278.109,325.638c2.559,-1.826 5.2,-3.571 7.922,-5.195c0.691,-0.406 0.041,-1.461 -0.609,-1.055c-2.722,1.623 -5.363,3.328 -7.922,5.195c-0.65,0.487 -0.041,1.542 0.609,1.055z"/>
  <path id="svg_189" fill="#263557" d="m286.235,320.646c4.632,1.745 9.263,3.45 13.935,5.195c0.731,0.284 1.056,-0.893 0.325,-1.177c-4.632,-1.745 -9.263,-3.449 -13.935,-5.195c-0.731,-0.243 -1.056,0.934 -0.325,1.177z"/>
  <path id="svg_190" fill="#263557" d="m273.193,332.578c12.228,3.774 24.294,8.117 36.116,13.027c0.731,0.284 1.056,-0.892 0.325,-1.177c-11.822,-4.91 -23.888,-9.253 -36.116,-13.027c-0.772,-0.243 -1.097,0.934 -0.325,1.177z"/>
  <path id="svg_191" fill="#263557" d="m274.371,342.034c7.597,3.653 15.275,7.102 23.035,10.471c0.731,0.325 1.34,-0.731 0.609,-1.055c-7.759,-3.328 -15.438,-6.818 -23.034,-10.471c-0.691,-0.324 -1.3,0.731 -0.61,1.055z"/>
  <path id="svg_192" fill="#263557" d="m275.469,352.464c4.144,2.11 8.287,4.261 12.431,6.371c0.691,0.366 1.3,-0.689 0.61,-1.055c-4.144,-2.11 -8.288,-4.261 -12.432,-6.371c-0.69,-0.366 -1.3,0.69 -0.609,1.055z"/>
  <path id="svg_193" fill="#263557" d="m277.825,352.83c5.729,-4.87 11.741,-9.334 17.997,-13.474c0.65,-0.446 0.041,-1.501 -0.609,-1.055c-6.338,4.18 -12.431,8.766 -18.241,13.677c-0.609,0.527 0.244,1.38 0.853,0.852z"/>
  <path id="svg_194" fill="#263557" d="m276.322,344.51c3.25,-2.273 6.5,-4.545 9.75,-6.859c0.65,-0.446 0.04,-1.501 -0.61,-1.055c-3.25,2.273 -6.5,4.546 -9.75,6.859c-0.609,0.446 0,1.501 0.61,1.055z"/>
  <path id="svg_195" stroke-miterlimit="10" stroke-width="3" stroke="#263557" fill="white" d="m278.353,366.668c-51.066,-8.685 -102.131,-17.369 -153.197,-26.054c-4.794,-36.241 -9.628,-72.441 -14.422,-108.682c54.966,7.386 109.891,14.772 164.857,22.199c0.934,37.499 1.868,74.998 2.762,112.537z"/>
  <path id="svg_196" fill="#263557" d="m187.354,303.967c-4.428,-1.38 -6.825,-5.114 -7.191,-9.619c-0.365,-4.586 0.528,-9.009 4.794,-11.404c3.778,-2.11 8.287,-1.501 11.659,1.056c3.372,2.556 6.378,7.792 3.657,11.809c-0.447,0.65 0.609,1.258 1.056,0.609c2.925,-4.302 0.162,-9.983 -3.413,-12.946c-3.697,-3.044 -8.693,-3.977 -13.04,-1.826c-5.038,2.475 -6.338,7.508 -5.932,12.743c0.407,5.073 3.088,9.253 8.085,10.795c0.731,0.203 1.056,-0.974 0.325,-1.217z"/>
  <path id="svg_197" fill="#263557" d="m188.491,304.414c-1.868,-3.085 -1.259,-7.387 1.747,-9.538c3.006,-2.15 7.313,-1.258 9.588,1.502c0.487,0.609 1.34,-0.243 0.853,-0.852c-2.681,-3.206 -7.719,-4.099 -11.213,-1.623c-3.493,2.516 -4.225,7.548 -2.031,11.119c0.406,0.65 1.463,0.041 1.056,-0.608z"/>
  <path id="svg_198" fill="#263557" d="m192.675,306.118c-1.909,-2.029 -1.625,-5.803 0.935,-7.264c2.518,-1.461 5.931,0.203 6.743,2.881c0.244,0.731 1.422,0.447 1.179,-0.324c-1.057,-3.409 -5.322,-5.439 -8.532,-3.572c-3.209,1.867 -3.615,6.575 -1.178,9.172c0.528,0.528 1.381,-0.325 0.853,-0.893z"/>
  <path id="svg_199" fill="#263557" d="m195.803,308.959c1.585,0.568 3.413,-0.366 4.022,-1.867c0.65,-1.502 -0.203,-3.125 -1.625,-3.774c-1.422,-0.65 -3.128,-0.285 -3.9,1.095c-0.731,1.34 -0.488,3.166 0.731,4.14c0.61,0.487 1.463,-0.365 0.853,-0.852c-1.625,-1.259 -0.487,-4.221 1.666,-3.328c0.934,0.365 1.584,1.339 1.138,2.354c-0.447,0.974 -1.585,1.461 -2.56,1.095c-0.731,-0.284 -1.056,0.893 -0.325,1.137z"/>
  <path id="svg_200" stroke-miterlimit="10" stroke-width="3" stroke="#263557" d="m275.59,254.09l3.575,111.807"/>
  <path id="svg_201" stroke-miterlimit="10" stroke-width="3" stroke="#263557" d="m275.834,254.009c1.097,36.768 2.194,73.537 3.291,110.305"/>
  <path id="svg_202" fill="#263557" d="m205.513,246.542c2.641,1.38 25.309,13.717 26.894,35.632c0.893,12.094 -5.038,21.266 -8.775,26.866c-20.15,30.276 -60.003,35.633 -70.81,36.769c15.722,10.43 70.647,44.804 130.691,42.775c13.366,-0.447 34.084,-1.38 56.55,-13.717c16.859,-9.253 27.787,-21.144 34.044,-29.058c-3.86,-2.395 -7.678,-4.748 -11.538,-7.143c-28.356,9.7 -56.753,19.399 -85.109,29.058c-1.463,-37.499 -2.925,-74.958 -4.388,-112.457c-22.547,-2.84 -45.053,-5.762 -67.559,-8.725z" opacity="0.37"/>
  <path id="svg_203" fill="#263557" d="m173.215,348.446c5.281,3.49 13.447,8.482 24.009,13.271c13.163,6.006 52.122,23.781 94.331,13.92c30.672,-7.184 54.397,-26.867 52.854,-30.113c-0.975,-2.029 -12.879,0.081 -65.894,21.144c-0.853,-17.167 -1.706,-34.374 -2.519,-51.541c-1.462,14.448 -2.966,28.895 -4.428,43.302c-32.784,-3.287 -65.569,-6.655 -98.353,-9.983z" opacity="0.5"/>
  <path id="svg_204" fill="#2E28F7" d="m184.143,302.183c-2.966,-3.246 -3.941,-7.792 -2.478,-11.769c1.503,-4.018 5.484,-7.467 10.237,-7.305c4.185,0.162 7.557,3.084 8.775,5.844c0.894,2.11 0.691,4.058 0.691,4.058c-0.122,1.096 -0.488,1.948 -0.772,2.476c-2.072,-2.394 -5.241,-3.49 -8.206,-2.8c-3.656,0.852 -5.241,3.977 -5.403,4.261c-1.666,3.409 -0.203,6.574 0,6.94c-0.975,-0.609 -1.91,-1.177 -2.844,-1.705z"/>
  <path id="svg_205" stroke-miterlimit="10" stroke-width="3" stroke="#263557" fill="white" d="m389.706,250.805c-2.194,1.623 -4.55,3.815 -6.703,6.696c-8.003,10.755 -6.906,23.376 -6.337,27.475c-7.11,-1.461 -19.054,-2.881 -33.15,0.365c-8.41,1.948 -15.154,4.992 -20.11,7.752c0.772,0.487 1.828,1.055 3.169,1.42c7.597,2.07 15.6,-4.302 15.844,-3.855c0.243,0.406 -8.938,4.707 -8.45,8.441c0.325,2.516 4.834,3.855 9.506,5.276c3.941,1.177 7.678,2.313 12.675,1.745c6.866,-0.771 11.619,-4.221 13.731,-6.006c2.032,1.014 5.038,2.353 8.816,3.53c6.947,2.111 16.534,5.033 22.912,1.056c4.144,-2.598 5.403,-8.685 7.76,-20.779c3.006,-15.503 4.509,-23.254 0.365,-28.165c-5.484,-6.534 -16.493,-5.438 -20.028,-4.951z"/>
  <path id="svg_206" fill="#263557" d="m375.284,285.382c4.916,1.826 8.978,5.154 11.782,9.577c0.406,0.65 1.462,0.041 1.056,-0.608c-2.966,-4.708 -7.313,-8.198 -12.513,-10.146c-0.731,-0.244 -1.056,0.933 -0.325,1.177z"/>
  <path id="svg_207" fill="#263557" d="m349.162,293.418c-4.834,0.812 -8.734,4.058 -10.481,8.604c-0.285,0.73 0.893,1.055 1.178,0.324c1.584,-4.139 5.24,-7.021 9.628,-7.751c0.772,-0.122 0.447,-1.299 -0.325,-1.177z"/>
  <path id="svg_208" fill="#263557" d="m339.249,302.792c2.519,2.394 6.013,3.206 9.303,2.15c0.731,-0.243 0.406,-1.42 -0.325,-1.176c-2.884,0.933 -5.931,0.284 -8.125,-1.827c-0.569,-0.568 -1.422,0.284 -0.853,0.853z"/>
  <path id="svg_209" fill="#263557" d="m354.809,297.434c-1.746,1.055 -3.371,2.273 -4.915,3.572c-1.016,0.892 -2.153,1.948 -1.909,3.409c0.609,3.855 5.24,3.003 7.759,2.029c0.731,-0.284 0.406,-1.461 -0.325,-1.177c-1.097,0.406 -2.316,0.933 -3.494,0.893c-1.909,-0.082 -3.615,-1.908 -1.99,-3.572c1.543,-1.623 3.574,-2.922 5.484,-4.139c0.69,-0.365 0.081,-1.421 -0.61,-1.015z"/>
  <path id="svg_210" fill="#FF6109" d="m387.675,192.893c1.666,1.298 3.819,3.084 6.094,5.397c0.65,0.649 2.315,2.354 3.981,4.464c2.6,3.247 4.266,6.331 6.094,10.106c2.356,4.829 4.712,9.658 7.069,16.882c1.99,6.088 5.037,15.665 5.403,28.409c0.162,5.032 -0.163,9.253 -0.488,12.215c-1.665,-1.907 -3.331,-3.165 -4.712,-3.977c-7.76,-4.748 -17.185,-3.044 -26.082,-1.42c-3.331,0.608 -6.093,1.339 -8.003,1.866c0.488,-4.464 0.935,-8.928 1.422,-13.392c0.406,-3.734 0.772,-7.508 1.178,-11.282c-0.772,-1.339 -1.828,-3.247 -2.803,-5.641c-1.909,-4.586 -5.728,-13.596 -3.534,-23.701c2.6,-11.607 11.74,-18.181 14.381,-19.926z"/>
  <path id="svg_211" fill="#263557" d="m389.097,195.124c4.062,2.11 6.784,5.763 9.14,9.537c2.438,3.896 4.631,7.914 6.581,12.053c3.982,8.441 6.907,17.37 8.816,26.501c0.163,0.771 1.341,0.446 1.178,-0.325c-1.95,-9.496 -5.037,-18.709 -9.262,-27.475c-2.072,-4.301 -4.347,-8.481 -6.947,-12.499c-2.316,-3.572 -5.038,-6.899 -8.856,-8.888c-0.732,-0.325 -1.341,0.731 -0.65,1.096z"/>
  <path id="svg_212" fill="#263557" d="m376.422,236.397c1.869,3.815 3.819,7.549 5.851,11.283c0.365,0.69 1.421,0.081 1.056,-0.609c-2.031,-3.734 -3.981,-7.467 -5.85,-11.282c-0.366,-0.731 -1.422,-0.122 -1.057,0.608z"/>
  <path id="svg_213" fill="#263557" d="m379.307,243.378c-1.016,7.874 -2.032,15.747 -3.007,23.62c-0.04,0.406 0.447,0.69 0.772,0.568c6.906,-2.191 14.097,-3.247 21.328,-3.003c5.728,0.203 13.325,0.73 16.535,6.331c0.406,0.69 1.422,0.081 1.056,-0.609c-3.047,-5.357 -9.709,-6.453 -15.316,-6.818c-8.084,-0.568 -16.209,0.487 -23.887,2.922c0.244,0.203 0.528,0.406 0.772,0.568c1.015,-7.873 2.031,-15.746 3.006,-23.619c0.081,-0.731 -1.138,-0.731 -1.259,0.04z"/>
  <path id="svg_214" fill="#263557" d="m413.553,242.607c1.422,8.929 3.737,18.385 1.34,27.354c-0.203,0.771 0.975,1.095 1.178,0.324c2.438,-9.172 0.122,-18.83 -1.34,-28.002c-0.122,-0.771 -1.3,-0.447 -1.178,0.324z"/>
  <path id="svg_215" fill="#263557" d="m384.587,191.391c3.697,6.899 7.394,15.137 10.522,24.593c6.134,18.668 7.759,35.429 7.881,47.97c-4.143,0.243 -8.287,0.487 -12.431,0.73c1.341,9.618 2.722,19.277 4.063,28.895c-2.6,-1.501 -6.582,-3.409 -11.7,-4.545c-1.666,-0.365 -7.801,-1.583 -14.341,-0.487c-13.731,2.313 -22.019,13.555 -23.888,16.233c1.869,0.772 4.266,1.502 7.15,1.664c8.857,0.528 15.316,-4.586 17.225,-6.209c6.054,3.044 11.335,4.505 15.072,5.235c6.541,1.34 14.178,2.882 18.403,-1.177c0.325,-0.324 1.057,-1.095 2.641,-5.032c2.478,-6.25 3.778,-12.094 5.484,-22.686c0.366,-2.354 0.894,-5.519 1.422,-9.294c1.016,1.015 2.072,2.07 3.088,3.085c0.487,-1.826 1.097,-4.546 1.422,-7.873c0.853,-8.645 -0.813,-15.463 -2.397,-21.023c-6.378,-22.483 -10.197,-36.038 -22.953,-45.859c-2.641,-1.948 -5.078,-3.368 -6.663,-4.22z" opacity="0.32"/>
  <path id="svg_216" fill="#263557" d="m406.078,219.19c2.722,13.231 3.088,24.472 2.885,32.589c-0.203,7.548 -0.975,13.068 -1.788,18.628c-2.397,16.76 -3.615,25.121 -8.247,29.017c-8.775,7.386 -24.415,1.785 -28.153,0.365c3.535,2.354 16.25,10.349 28.682,5.925c1.3,-0.487 2.721,-1.096 4.103,-1.989c1.462,-2.475 3.412,-6.29 4.672,-11.282c0.731,-2.962 0.934,-5.113 1.218,-7.629c0.447,-4.059 1.219,-9.984 2.519,-17.411c1.178,1.015 2.397,2.03 3.575,3.044c0.406,-2.07 0.934,-5.235 1.056,-9.131c0.366,-9.415 -1.706,-16.558 -4.103,-24.715c-1.3,-4.464 -3.331,-10.471 -6.419,-17.411z" opacity="0.29"/>
  <path id="svg_217" fill="white" d="m294.399,112.658c0.407,4.343 1.138,10.43 2.763,17.613c1.056,4.667 1.706,7.63 3.087,11.323c2.072,5.56 6.013,16.193 16.291,23.133c2.478,1.704 6.581,3.977 12.35,5.316c0.934,0.081 1.869,0.203 2.803,0.284c0.325,1.705 0.731,4.221 1.138,7.264c0.975,7.833 0.487,10.227 2.518,12.338c2.479,2.557 6.419,2.313 7.272,2.232c6.785,-0.447 10.197,-7.183 10.36,-7.549c-1.097,-1.988 -2.194,-4.423 -3.088,-7.264c-1.95,-6.29 -1.99,-11.891 -1.665,-15.706c3.128,-4.505 6.581,-7.954 10.075,-10.633c1.34,-1.014 2.478,-2.394 4.468,-3.084c2.844,-0.974 4.307,0 6.419,-0.649c3.494,-1.096 4.997,-5.601 5.647,-7.468c2.478,-7.386 -0.569,-14.691 -2.519,-19.033c-1.747,-3.977 -6.297,-13.839 -17.387,-21.5499c-11.416,-7.9543 -34.247,-16.8015 -49.36,-5.3164c-2.6,1.9886 -8.531,7.3053 -11.172,18.7493z"/>
  <path id="svg_218" fill="#263557" d="m296.106,129.379c-2.6,-0.447 -9.181,-1.989 -13.447,-7.63c-6.5,-8.563 -3.006,-20.535 0.61,-26.8661c5.687,-9.9429 16.046,-13.3925 29.046,-17.7349c7.719,-2.5567 15.072,-4.9917 25.066,-4.5859c5.525,0.2435 24.253,1.0552 35.466,14.9753c6.662,8.2384 7.393,17.0856 8.856,34.5366c0.69,7.995 0.162,12.337 -1.219,16.477c-1.016,3.003 -4.306,12.621 -13.772,16.476c-4.956,2.03 -9.547,1.624 -12.065,1.218c2.275,-3.368 4.55,-6.696 6.865,-10.065c1.3,0.081 5.931,0.163 9.466,-3.043c4.834,-4.424 5.687,-13.231 2.153,-15.584c-2.6,-1.746 -7.759,-0.041 -12.228,3.977c-0.406,-2.557 -1.056,-5.357 -2.153,-8.239c-5.119,-13.757 -16.25,-21.306 -21.694,-24.4309c-2.153,2.7599 -8.978,10.8359 -21.084,14.0419c-9.588,2.516 -17.55,0.73 -21.085,-0.325c0.406,5.601 0.813,11.201 1.219,16.802z"/>
  <path id="svg_219" fill="#263557" d="m294.076,113.713c1.666,12.54 3.412,25.568 9.547,36.85c5.037,9.253 13.162,17.166 23.603,19.804c0.772,0.203 1.097,-0.974 0.325,-1.177c-10.319,-2.637 -18.281,-10.592 -23.156,-19.804c-5.81,-10.958 -7.475,-23.539 -9.1,-35.673c-0.122,-0.771 -1.341,-0.771 -1.219,0z"/>
  <path id="svg_220" fill="#263557" d="m327.226,170.53c7.353,0 15.071,-3.936 20.84,-8.157c5.81,-4.261 10.563,-9.74 13.975,-16.071c0.366,-0.69 -0.69,-1.299 -1.056,-0.609c-3.291,6.169 -7.881,11.526 -13.528,15.625c-5.647,4.139 -13.122,7.995 -20.231,7.995c-0.813,0 -0.813,1.217 0,1.217z"/>
  <path id="svg_221" fill="#263557" d="m348.025,161.399c-0.812,8.197 0.772,16.395 4.51,23.741c0.365,0.69 1.421,0.081 1.056,-0.609c-3.656,-7.183 -5.119,-15.137 -4.347,-23.132c0.081,-0.771 -1.138,-0.771 -1.219,0z"/>
  <path id="svg_222" fill="#263557" d="m330.353,170.327c1.341,4.627 2.438,9.334 3.25,14.083c0.529,3.165 0.732,6.737 4.266,7.913c5.281,1.786 13.081,-1.379 15.113,-6.615c0.284,-0.73 -0.894,-1.055 -1.179,-0.324c-1.137,2.962 -3.981,4.586 -6.906,5.438c-2.437,0.69 -6.134,1.42 -8.206,-0.568c-1.219,-1.177 -1.381,-3.044 -1.625,-4.627c-0.284,-1.664 -0.569,-3.328 -0.894,-4.992c-0.731,-3.571 -1.584,-7.142 -2.6,-10.632c-0.244,-0.731 -1.422,-0.406 -1.219,0.324z"/>
  <path id="svg_223" fill="#263557" d="m332.099,175.36c7.232,-0.934 11.985,-6.453 15.479,-12.378c0.406,-0.69 -0.65,-1.299 -1.057,-0.609c-3.209,5.519 -7.678,10.917 -14.422,11.769c-0.771,0.122 -0.771,1.339 0,1.218z"/>
  <path id="svg_224" fill="#263557" d="m331.815,171.22c5.647,-0.649 10.725,-3.287 14.503,-7.548c0.528,-0.569 -0.325,-1.461 -0.853,-0.853c-3.535,4.018 -8.328,6.575 -13.65,7.184c-0.731,0.081 -0.772,1.298 0,1.217z"/>
  <path id="svg_225" fill="#263557" d="m332.019,170.327c4.55,-0.649 8.653,-2.516 12.147,-5.479c0.61,-0.527 -0.284,-1.38 -0.853,-0.852c-3.331,2.841 -7.272,4.586 -11.619,5.195c-0.772,0.081 -0.447,1.258 0.325,1.136z"/>
  <path id="svg_226" fill="#263557" d="m331.774,171.341c0.203,0.974 0.163,2.922 1.381,3.247c1.179,0.325 2.966,-1.055 3.9,-1.623c3.21,-1.948 5.891,-4.586 8.004,-7.67c0.446,-0.65 -0.61,-1.259 -1.057,-0.609c-1.503,2.232 -3.331,4.22 -5.484,5.844c-1.016,0.771 -2.072,1.42 -3.169,2.029c-0.447,0.243 -1.462,0.933 -1.909,0.649c-0.285,-0.162 -0.407,-1.907 -0.447,-2.191c-0.203,-0.771 -1.381,-0.447 -1.219,0.324z"/>
  <path id="svg_227" fill="#263557" d="m332.343,172.478c3.493,-1.42 6.784,-3.206 9.871,-5.357c0.65,-0.446 0.041,-1.502 -0.609,-1.055c-3.006,2.11 -6.175,3.855 -9.587,5.235c-0.732,0.284 -0.407,1.461 0.325,1.177z"/>
  <path id="svg_228" fill="#263557" d="m332.952,173.696c3.9,-1.38 7.312,-3.531 10.156,-6.534c0.528,-0.568 -0.325,-1.421 -0.853,-0.853c-2.722,2.801 -5.931,4.911 -9.628,6.21c-0.731,0.284 -0.406,1.461 0.325,1.177z"/>
  <path id="svg_229" fill="#263557" d="m333.603,173.046c2.884,-1.258 5.525,-2.962 7.8,-5.154c0.568,-0.527 -0.285,-1.38 -0.854,-0.852c-2.234,2.11 -4.753,3.734 -7.556,4.951c-0.731,0.325 -0.122,1.38 0.61,1.055z"/>
  <path id="svg_230" fill="#263557" d="m300.412,144.557c-6.622,-2.354 -8.816,-10.999 -8.166,-17.248c0.691,-6.859 6.866,-14.326 14.422,-11.12c3.615,1.542 4.956,5.519 5.931,9.05c1.016,3.734 1.463,7.873 0.488,11.688c-0.854,3.368 -2.925,6.574 -6.175,8.035c-3.25,1.461 -7.11,0.65 -9.304,-2.151c-0.487,-0.608 -1.34,0.244 -0.853,0.853c3.697,4.748 10.644,3.815 14.382,-0.366c4.753,-5.316 4.265,-13.392 2.234,-19.764c-0.934,-2.962 -2.153,-6.047 -4.875,-7.751c-2.356,-1.502 -5.363,-1.867 -8.003,-1.177c-6.175,1.664 -9.385,8.198 -9.506,14.164c-0.122,6.534 2.437,14.61 9.181,16.963c0.65,0.244 0.975,-0.933 0.244,-1.176z"/>
  <path id="svg_231" fill="#263557" d="m314.468,132.423c3.981,-2.395 8.815,-2.638 12.959,-0.569c0.691,0.366 1.3,-0.69 0.61,-1.055c-4.55,-2.272 -9.832,-2.07 -14.219,0.568c-0.61,0.406 0,1.461 0.65,1.056z"/>
  <path id="svg_232" fill="#263557" d="m333.887,141.066c-4.591,-4.423 -6.5,-11.282 -4.713,-17.45c1.869,-6.413 8.288,-11.932 15.194,-9.659c7.637,2.516 8.044,13.433 6.053,19.845c-1.178,3.774 -3.534,7.549 -7.434,8.928c-3.9,1.38 -7.272,-0.69 -10.4,-2.881c-0.65,-0.446 -1.26,0.609 -0.61,1.055c2.56,1.826 5.322,3.653 8.572,3.531c3.088,-0.122 5.891,-1.826 7.8,-4.14c4.306,-5.194 5.16,-13.108 3.372,-19.439c-1.625,-5.763 -6.419,-9.497 -12.553,-8.482c-5.85,0.933 -10.156,6.209 -11.456,11.729c-1.504,6.371 0.528,13.27 5.24,17.816c0.65,0.568 1.503,-0.325 0.935,-0.853z"/>
  <path id="svg_233" fill="#263557" d="m304.108,127.715c-0.406,2.556 0.041,5.032 1.422,7.224c0.285,0.446 0.935,0.365 1.097,-0.163c0.975,-2.8 -0.406,-5.56 -1.787,-7.954c-0.285,-0.528 -1.138,-0.284 -1.138,0.325c0.041,2.15 0.488,4.261 1.3,6.249c0.285,0.731 1.463,0.406 1.178,-0.324c-0.772,-1.908 -1.218,-3.856 -1.259,-5.925c-0.366,0.121 -0.772,0.202 -1.138,0.324c1.26,2.151 2.56,4.505 1.666,7.021c0.366,-0.04 0.731,-0.081 1.097,-0.162c-1.219,-1.908 -1.666,-4.059 -1.3,-6.291c0.162,-0.771 -1.016,-1.095 -1.138,-0.324z"/>
  <path id="svg_234" fill="#263557" d="m340.061,126.579c0,-0.528 -0.04,-0.649 -0.284,-1.096c-0.284,-0.527 -1.138,-0.284 -1.138,0.325c0.041,2.516 0.244,5.235 2.194,7.021c0.406,0.365 0.975,0.081 1.056,-0.447c0.325,-3.003 -0.568,-5.803 -2.437,-8.157c-0.406,-0.487 -1.137,0.041 -1.016,0.609c0.488,1.988 1.097,3.936 1.828,5.803c0.285,0.731 1.463,0.406 1.179,-0.324c-0.772,-1.908 -1.382,-3.815 -1.829,-5.804c-0.325,0.203 -0.69,0.406 -1.015,0.609c1.665,2.11 2.356,4.626 2.072,7.305c0.365,-0.162 0.69,-0.284 1.056,-0.446c-1.747,-1.583 -1.828,-3.978 -1.869,-6.169c-0.365,0.122 -0.772,0.203 -1.137,0.324c0.04,0.163 0.081,0.325 0.122,0.487c0,0.731 1.218,0.731 1.218,-0.04z"/>
  <path id="svg_235" fill="#263557" d="m318.532,134.573c-0.813,2.435 -1.503,4.911 -1.95,7.427c-0.244,1.339 -1.097,3.856 -0.488,5.195c1.219,2.719 6.622,1.055 8.491,0.162c0.69,-0.324 0.081,-1.38 -0.61,-1.055c-1.503,0.731 -3.128,1.096 -4.793,0.974c-0.975,-0.081 -1.747,-0.243 -1.95,-1.339c-0.122,-0.609 0.284,-2.192 0.406,-2.882c0.487,-2.8 1.219,-5.519 2.112,-8.197c0.204,-0.69 -0.975,-1.015 -1.218,-0.285z"/>
  <path id="svg_236" fill="#263557" d="m324.665,157.991c3.047,-0.406 5.688,-2.354 7.028,-5.155c0.325,-0.689 -0.731,-1.339 -1.056,-0.608c-1.219,2.556 -3.494,4.22 -6.297,4.586c-0.772,0.121 -0.406,1.298 0.325,1.177z"/>
  <path id="svg_237" fill="#263557" d="m301.551,124.225c0.771,-0.934 2.193,-1.096 3.168,-0.284c0.61,0.527 1.463,-0.366 0.853,-0.853c-1.421,-1.217 -3.615,-1.136 -4.875,0.284c-0.528,0.569 0.325,1.421 0.854,0.853z"/>
  <path id="svg_238" fill="#263557" d="m336.406,121.951c1.259,-1.095 3.169,-1.095 4.428,-0.04c0.609,0.487 1.463,-0.366 0.853,-0.853c-1.787,-1.542 -4.387,-1.501 -6.175,0.041c-0.569,0.528 0.325,1.38 0.894,0.852z"/>
  <path id="svg_239" fill="#263557" d="m352.412,127.553c4.387,-1.542 8.897,-2.476 13.569,-2.719c0.772,-0.041 0.772,-1.258 0,-1.218c-4.753,0.244 -9.385,1.177 -13.894,2.76c-0.731,0.284 -0.447,1.461 0.325,1.177z"/>
  <path id="svg_240" fill="#263557" d="m358.466,76.9854c2.438,3.1249 11.822,15.9492 10.075,33.5626c-0.975,9.821 -5.037,17.045 -7.597,20.86c1.463,-1.137 2.722,-1.908 3.657,-2.435c2.478,-1.38 4.062,-2.232 6.093,-2.111c0.61,0.041 2.072,0.163 3.128,1.015c3.088,2.597 2.032,11.81 -3.453,16.111c-3.006,2.354 -6.54,2.598 -8.328,2.557c-2.315,3.287 -4.672,6.575 -6.987,9.903c1.543,0.243 3.9,0.446 6.622,0.04c1.178,-0.162 5.89,-1.014 10.359,-4.586c4.387,-3.531 6.175,-7.832 7.353,-10.754c3.25,-8.117 2.6,-15.26 1.463,-28.125c-0.488,-5.722 -0.772,-8.644 -1.91,-12.499c-1.219,-4.1804 -3.128,-10.3491 -8.572,-15.8684c-3.9,-4.0583 -8.287,-6.331 -11.903,-7.6702z" opacity="0.4"/>
  <path id="svg_241" fill="#263557" d="m319.222,111.684c4.062,-3.612 8.612,-8.238 13,-14.001c2.722,-3.5713 4.997,-7.0209 6.865,-10.2269c-0.69,3.6525 -1.381,7.3049 -2.031,10.9574c-1.584,2.2725 -4.225,5.5195 -8.328,8.4815c-3.616,2.557 -7.028,3.978 -9.506,4.789z" opacity="0.48"/>
  <path id="svg_242" fill="#263557" d="m348.107,107.059c3.087,10.267 3.331,18.871 3.047,24.553c-0.203,4.22 -1.341,26.338 -13,33.968c-1.138,0.73 -4.022,2.435 -3.9,2.678c0.162,0.284 5.565,-2.11 8.531,-3.733c4.672,-2.517 11.863,-7.589 18.525,-18.303c1.097,0.121 6.459,0.487 10.319,-3.207c4.672,-4.423 5.484,-13.108 1.787,-15.665c-2.64,-1.826 -7.678,-0.284 -12.106,3.369c-0.447,-1.867 -1.016,-3.815 -1.787,-5.885c-3.047,-8.035 -7.638,-13.879 -11.416,-17.775z" opacity="0.27"/>
  <path id="svg_243" fill="#263557" d="m338.315,167.933c1.057,3.247 2.113,6.493 3.169,9.781c1.463,4.464 2.885,8.968 4.306,13.433c0.813,-0.163 2.804,-0.731 4.55,-2.517c1.747,-1.785 2.316,-3.733 2.519,-4.545c-1.584,-3.125 -3.453,-7.873 -4.103,-13.879c-0.325,-3.125 -0.244,-5.885 0,-8.198c-3.453,1.988 -6.947,3.977 -10.441,5.925z" opacity="0.36"/>
  <path id="svg_244" fill="#263557" d="m318.044,135.993c-2.031,4.343 -4.063,8.644 -6.094,12.987c3.331,-0.081 6.622,-0.122 9.953,-0.203c-1.95,-0.609 -3.94,-1.218 -5.89,-1.826c0.65,-3.653 1.34,-7.305 2.031,-10.958z" opacity="0.43"/>
  <path id="svg_245" d="m738,489" stroke-width="1.5" stroke="#000" fill="#fff"/>
 </g>
</svg>