<svg width="550" height="430" xmlns="http://www.w3.org/2000/svg">

 <g>
  <title>background</title>
  <rect fill="none" id="canvas_background" height="402" width="582" y="-1" x="-1"/>
 </g>
 <g>
  <title>Layer 1</title>
  <path id="svg_114" fill="#FF6109" d="m149.979,175.887c-1.015,-2.111 -3.9,-2.273 -5.444,-0.69c-1.665,1.704 -2.437,4.992 -2.275,7.305c0.366,4.667 4.916,6.858 6.135,11.038c0.569,1.908 3.494,2.517 4.469,0.569c1.625,-3.206 3.9,-5.966 5.931,-8.888c1.787,-2.598 4.509,-6.615 3.534,-9.943c-0.406,-1.421 -1.665,-2.638 -3.209,-2.8c-1.869,-0.203 -3.169,0.933 -4.266,2.313c-1.097,1.42 -2.072,2.881 -2.884,4.464c-0.731,1.38 -1.3,3.003 -2.722,3.774c1.178,0.487 2.397,0.974 3.575,1.461c-0.528,-1.745 -1.056,-3.49 -1.544,-5.194c-1.34,0.771 -2.722,1.582 -4.062,2.354c1.828,2.069 4.956,2.353 7.15,0.608c1.015,-0.811 1.584,-1.907 2.275,-2.962c0.325,-0.487 0.609,-0.934 1.097,-1.258c0.325,-0.244 0.731,-0.406 1.137,-0.528c0.813,-0.041 0.772,-0.122 -0.081,-0.244c-0.406,-0.689 -0.813,-1.42 -1.219,-2.11c0,0.081 0,0.203 0,0.284c0.609,-0.771 1.178,-1.583 1.788,-2.354c-0.082,0.041 -0.163,0.041 -0.244,0.082c-2.966,0.933 -1.706,5.641 1.3,4.707c0.081,-0.04 0.162,-0.04 0.244,-0.081c1.096,-0.325 1.706,-1.258 1.787,-2.354c0,-0.081 0,-0.203 0,-0.284c0.041,-0.852 -0.528,-1.664 -1.219,-2.11c-2.031,-1.299 -5.037,-0.041 -6.703,1.298c-0.934,0.772 -1.584,1.664 -2.234,2.679c-0.406,0.649 -0.853,2.029 -1.625,1.136c-1.625,-1.826 -4.753,0.122 -4.063,2.354c0.528,1.745 1.057,3.49 1.544,5.195c0.447,1.542 2.194,2.232 3.575,1.461c2.072,-1.096 3.209,-3.003 4.225,-5.032c0.609,-1.177 1.219,-2.314 1.991,-3.369c0.122,-0.203 1.218,-1.339 1.178,-1.542c-1.056,-0.893 -1.585,-0.852 -1.666,0.122c-0.081,0.324 -0.203,0.608 -0.325,0.893c-2.031,4.91 -6.094,8.644 -8.49,13.351c1.503,0.203 2.965,0.406 4.468,0.569c-0.772,-2.638 -2.518,-4.546 -4.184,-6.656c-0.691,-0.893 -1.463,-1.867 -1.706,-2.963c-0.163,-0.771 -0.082,-1.461 0.122,-2.191c0.121,-0.487 0.284,-0.934 0.487,-1.38c0.691,-0.974 0,-1.218 -2.031,-0.69c1.34,2.882 5.525,0.406 4.184,-2.394z"/>
  <path id="svg_115" fill="#FF6109" d="m152.619,189.198c3.575,-4.301 6.703,-8.887 9.303,-13.798c1.462,-2.76 -2.763,-5.235 -4.225,-2.476c-2.397,4.586 -5.2,8.888 -8.531,12.825c-1.991,2.394 1.422,5.844 3.453,3.449z"/>
  <path id="svg_116" fill="#FF6109" d="m162.247,120.329c-0.65,4.261 -0.487,8.441 0.65,12.621c0.61,2.273 4.144,1.299 3.535,-0.974c-0.935,-3.49 -1.219,-7.102 -0.65,-10.673c0.325,-2.314 -3.21,-3.288 -3.535,-0.974z"/>
  <path id="svg_117" fill="#FF6109" d="m163.628,122.196c4.469,1.907 8.044,-1.827 8.206,-6.21c0,-0.405 -0.243,-1.501 -0.081,-1.866c-0.081,0 -0.162,0 -0.203,0c0.366,0.121 0.65,0.324 0.813,0.689c0.65,0.812 0.975,1.867 1.665,2.679c1.422,1.664 3.372,1.907 5.444,2.029c1.016,0.041 2.234,-0.081 2.844,0.893c0.609,0.933 0.284,2.516 0.203,3.571c-0.081,1.461 -0.203,2.963 -0.325,4.424c-0.041,0.365 -0.406,1.745 0.122,1.217c-0.325,0.366 -1.666,0.447 -2.113,0.569c-2.681,0.608 -5.444,0.852 -8.165,0.689c-1.422,-0.081 -3.575,0.082 -4.388,-1.176c-0.731,-1.177 -0.772,-2.963 -0.569,-4.302c-1.097,0.162 -2.234,0.284 -3.331,0.446c0.975,2.151 1.909,4.302 2.884,6.493c0.65,1.421 3.007,1.015 3.332,-0.446c0.975,-4.383 -0.366,-8.969 1.015,-13.271c-1.015,0.284 -2.031,0.528 -3.047,0.812c1.179,1.42 0.894,4.464 1.179,6.209c0.325,2.029 0.893,3.896 1.828,5.682c0.853,1.542 3.534,0.893 3.412,-0.934c-0.325,-4.87 -0.65,-9.78 -0.934,-14.65c-1.178,0.162 -2.397,0.325 -3.575,0.487c1.706,4.586 1.95,9.375 0.609,14.082c0.894,-0.365 1.788,-0.73 2.681,-1.095c-2.275,-1.746 -3.981,-4.018 -5.159,-6.616c-0.772,-1.663 -3.494,-0.811 -3.412,0.934c0.081,1.623 0.121,3.247 0.203,4.87c1.218,0 2.437,0 3.656,0c-0.081,-2.029 0,-4.018 0.406,-6.006c0.163,-0.69 0.325,-1.421 0.528,-2.111c0.122,-0.446 0.285,-0.933 0.447,-1.38c0.528,-0.649 0.447,-0.892 -0.244,-0.73c1.95,2.76 2.194,6.899 1.869,10.105c1.138,-0.325 2.275,-0.609 3.413,-0.933c-0.935,-1.908 -1.544,-3.937 -1.788,-6.047c-0.122,-1.096 -0.162,-2.192 -0.081,-3.287c0,-0.163 0.203,-1.299 0.122,-1.38c-0.285,0.04 -0.569,0.04 -0.853,0.081c0.162,0.325 0.325,0.609 0.487,0.933c1.869,3.815 2.438,8.117 1.991,12.338c1.137,-0.325 2.275,-0.609 3.412,-0.934c-0.731,-1.583 -1.3,-3.246 -1.625,-4.951c-0.122,-0.73 -0.203,-1.461 -0.122,-2.191c0.041,-0.406 0.122,-0.812 0.244,-1.218c0.447,-0.487 0.488,-0.69 0.122,-0.568c-0.487,-0.081 -0.934,-0.122 -1.422,-0.203c0.65,0.325 1.056,3.531 1.178,4.261c0.244,1.745 0.203,3.572 -0.04,5.317c1.178,0 2.356,0 3.534,0c-0.447,-1.299 -0.772,-2.638 -0.975,-3.978c-0.203,-1.298 -0.081,-2.637 -0.487,-3.896c0.893,2.801 0.731,5.763 -0.082,8.523c1.097,-0.162 2.235,-0.284 3.332,-0.446c-0.488,-1.056 -0.894,-2.192 -1.097,-3.369c-0.122,-0.568 -0.163,-1.136 -0.203,-1.704c0,-0.244 -0.041,-0.487 0,-0.731c0.121,-0.568 -0.163,-0.609 -0.813,-0.162c-0.366,-0.284 -0.731,-0.568 -1.097,-0.852c2.316,3.977 -2.315,8.4 -6.256,7.832c0.447,0.568 0.894,1.177 1.341,1.745c-0.041,-0.73 -0.285,-1.785 -0.041,-2.475c-0.284,0.365 -0.569,0.73 -0.853,1.095c-0.691,0.447 3.006,-0.081 1.462,-0.243c-2.112,-0.203 -2.437,3.044 -0.487,3.571c1.95,0.528 3.737,1.583 5.809,1.339c1.788,-0.202 3.128,-1.258 3.86,-2.84c0.772,-1.664 0.934,-3.612 0.69,-5.439c-0.122,-1.014 -0.365,-1.948 -0.772,-2.84c-0.162,-0.406 -0.365,-0.812 -0.568,-1.218c-0.122,-0.243 -0.285,-0.487 -0.447,-0.73c-0.163,-0.366 -0.244,-0.284 -0.163,0.243c1.138,0.325 2.275,0.609 3.413,0.934c0.04,-0.772 0.122,-1.502 0.162,-2.273c-1.178,0.162 -2.397,0.325 -3.575,0.487c0.691,2.029 0.569,3.896 -0.243,5.884c-0.894,2.192 2.64,3.125 3.534,0.974c1.016,-2.556 1.097,-5.235 0.244,-7.832c-0.65,-1.989 -3.453,-1.583 -3.575,0.487c-0.041,0.771 -0.122,1.501 -0.163,2.273c-0.122,1.785 2.641,2.556 3.413,0.933c0.893,-1.948 0.65,-4.464 -1.422,-5.56c-1.788,-0.933 -4.185,-0.122 -5.038,1.705c-1.178,2.516 1.463,4.748 1.706,7.183c0.122,1.136 0.122,3.409 -1.137,3.977c-1.219,0.528 -3.534,-0.893 -4.672,-1.218c-0.162,1.177 -0.325,2.395 -0.487,3.572c3.696,0.324 3.778,-4.546 1.218,-6.128c-1.259,-0.771 -2.965,-1.38 -4.306,-0.568c-1.666,1.014 -1.178,3.043 -1.137,4.667c0.04,0.73 0.528,1.664 1.34,1.745c6.5,0.933 12.432,-4.262 11.172,-11.039c-0.244,-1.339 -0.772,-2.841 -2.275,-3.125c-1.259,-0.243 -2.519,0.487 -3.047,1.623c-1.34,2.882 0.244,7.143 1.463,9.781c0.69,1.502 2.925,0.974 3.331,-0.446c0.812,-2.719 1.056,-5.52 0.569,-8.32c-0.366,-2.11 -1.016,-4.87 -3.657,-4.951c-5.89,-0.122 -3.453,9.537 -2.437,12.581c0.528,1.542 3.209,1.907 3.534,0c0.488,-3.125 0.447,-6.25 -0.365,-9.334c-0.488,-1.827 -1.463,-5.398 -4.103,-4.465c-2.113,0.771 -2.763,3.815 -2.763,5.804c0,2.922 1.056,5.803 2.275,8.36c0.853,1.826 3.25,0.69 3.413,-0.933c0.365,-3.409 0.081,-6.859 -0.894,-10.146c-0.691,-2.314 -1.95,-6.981 -5.038,-6.859c-3.006,0.081 -3.168,3.937 -3.168,6.128c0,3.531 0.893,6.94 2.437,10.146c0.853,1.786 3.25,0.69 3.413,-0.933c0.325,-2.882 0.04,-5.804 -0.854,-8.563c-0.65,-2.03 -1.706,-4.952 -4.143,-5.236c-2.682,-0.284 -3.616,2.801 -4.225,4.789c-0.894,2.922 -1.178,6.006 -1.057,9.091c0.122,2.354 3.738,2.354 3.657,0c-0.082,-1.624 -0.122,-3.247 -0.203,-4.87c-1.138,0.324 -2.275,0.609 -3.413,0.933c1.463,3.206 3.697,5.804 6.459,7.914c0.975,0.73 2.397,-0.081 2.682,-1.096c1.543,-5.276 1.34,-10.876 -0.61,-16.03c-0.69,-1.786 -3.737,-1.705 -3.575,0.487c0.325,4.87 0.65,9.78 0.935,14.65c1.137,-0.324 2.275,-0.608 3.412,-0.933c-2.112,-3.937 -0.69,-9.172 -3.575,-12.662c-0.934,-1.136 -2.681,-0.406 -3.047,0.812c-1.422,4.342 -0.04,8.887 -1.015,13.27c1.097,-0.162 2.234,-0.284 3.331,-0.446c-0.975,-2.151 -1.909,-4.302 -2.884,-6.493c-0.61,-1.38 -3.088,-1.056 -3.332,0.446c-0.447,2.841 -0.243,6.818 2.235,8.766c1.137,0.893 2.64,0.974 4.062,1.136c1.91,0.203 3.86,0.284 5.81,0.163c1.868,-0.122 3.696,-0.406 5.525,-0.812c1.218,-0.284 2.843,-0.487 3.697,-1.461c1.096,-1.177 0.893,-3.084 1.015,-4.586c0.122,-1.786 0.325,-3.531 0.366,-5.316c0.04,-2.922 -1.138,-5.479 -4.144,-6.21c-1.219,-0.284 -2.478,-0.121 -3.738,-0.324c-1.95,-0.284 -2.153,-1.948 -3.209,-3.328c-1.341,-1.786 -4.225,-2.922 -6.053,-1.177c-1.178,1.136 -0.934,2.597 -0.894,4.058c0.041,1.299 -0.609,4.586 -2.681,3.693c-2.478,-0.568 -4.347,2.598 -2.194,3.491z"/>
  <path id="svg_118" fill="#FF6109" d="m55.973,142.406c2.8438,2.598 5.525,5.398 7.8406,8.482c1.5438,2.029 3.1282,6.088 5.8907,6.656c1.625,0.325 2.925,-0.528 4.1437,-1.502c1.6656,-1.339 3.2906,-2.719 4.9563,-4.099c1.6656,-1.379 3.2906,-2.719 4.9562,-4.099c1.1781,-0.974 2.5188,-1.866 2.6,-3.53c0.0813,-1.583 -0.9344,-2.76 -1.8687,-3.937c-1.3,-1.664 -2.6407,-3.328 -3.9407,-4.992c-1.3,-1.664 -2.6406,-3.327 -3.9406,-4.991c-0.975,-1.218 -1.8687,-2.841 -3.4937,-3.206c-1.4625,-0.325 -2.8032,0.527 -4.0219,1.176c-1.625,0.853 -3.2094,1.827 -4.7125,2.841c-2.9656,2.029 -5.7281,4.343 -8.2469,6.94c-0.7719,0.812 -0.6906,2.313 0.3656,2.881c2.6407,1.34 5.1594,2.922 7.4344,4.87c1.0156,0.853 1.9906,1.786 2.925,2.76c0.4469,0.487 0.8938,0.974 1.3406,1.502c0.2844,0.324 0.5688,0.69 0.8532,1.014c0.3656,0.974 0.8937,0.934 1.5437,-0.203c0.1625,1.096 0.2844,2.232 0.4469,3.328c4.225,-2.557 8.0844,-5.722 11.4156,-9.375c1.3813,-1.542 -0.3656,-3.896 -2.2344,-2.881c-2.8437,1.542 -5.7687,2.8 -8.8156,3.774c0.6906,0.893 1.3813,1.786 2.0719,2.679c1.7062,-2.719 3.8187,-5.073 6.2969,-7.143c-0.975,-0.73 -1.9094,-1.461 -2.8844,-2.232c-2.2344,3.328 -5.0375,6.25 -8.2469,8.644c0.8938,0.69 1.7875,1.38 2.6813,2.07c1.0562,-3.815 3.2093,-7.183 6.4187,-9.578c-0.8531,-0.852 -1.6656,-1.664 -2.5187,-2.516c-1.8282,3.612 -4.3875,6.696 -7.6782,9.05c0.6094,0 1.2188,0 1.8282,0c0.1218,0.122 0.2031,0.284 0.325,0.406c0.0812,-0.325 0.1625,-0.649 0.2437,-0.933c0.1219,-0.406 0.2438,-0.812 0.4063,-1.258c0.3656,-1.096 0.8531,-2.111 1.3812,-3.125c1.0156,-1.908 2.275,-3.572 3.7781,-5.114c-0.975,-0.73 -1.9093,-1.461 -2.8843,-2.232c-2.1532,4.424 -5.1188,8.279 -8.8563,11.526c1.0563,0.446 2.0719,0.852 3.1281,1.298c0.4469,-4.788 2.5188,-9.171 5.8907,-12.621c-0.975,-0.73 -1.9094,-1.461 -2.8844,-2.232c-1.6656,3.247 -4.1031,5.803 -7.2719,7.63c0.9344,0.527 1.8281,1.055 2.7625,1.582c-0.0406,-1.461 0.1625,-2.881 0.8531,-4.18c0.2844,-0.568 0.65,-1.095 1.0563,-1.542c0.65,-0.771 1.8687,-0.974 0.7312,-1.704c-0.5281,-0.65 -0.8125,-0.609 -0.8531,0.203c-0.2031,0.405 -0.3656,0.811 -0.5687,1.217c-0.325,0.609 -0.65,1.177 -0.975,1.745c-0.3657,0.568 -0.7313,1.136 -1.1375,1.664c-0.325,0.406 -0.6094,0.812 -0.975,1.218c-0.5688,0.324 -0.6094,0.568 -0.1219,0.689c0.2844,0.366 0.5687,0.731 0.8531,1.096c-0.4062,-1.298 0.9344,-3.733 1.5438,-4.829c0.3656,-0.609 2.4781,-4.099 3.4125,-3.896c0.4468,0.081 1.0562,2.354 1.2187,2.759c0.325,0.893 0.6094,1.827 0.8125,2.76c0.2031,0.934 0.4469,1.908 0.4469,2.841c0,1.096 0,1.136 -0.8938,0.365c-2.5593,-2.191 -2.8437,-7.751 0.9344,-9.009c1.9094,-0.65 2.4781,1.785 2.925,3.165c0.65,1.989 1.2594,4.018 1.9094,6.047c1.0156,-0.609 2.0312,-1.177 3.0469,-1.786c-2.275,-2.232 -3.4938,-5.072 -3.575,-8.279c-0.7719,0.569 -1.5438,1.177 -2.3157,1.746c4.2657,1.623 4.9563,6.98 5.525,10.876c0.325,2.313 3.8594,1.339 3.5344,-0.974c-0.8125,-5.519 -2.3156,-11.282 -8.0844,-13.433c-1.0968,-0.406 -2.3562,0.649 -2.3156,1.745c0.0813,4.139 1.7063,7.914 4.6313,10.836c1.2593,1.258 3.6156,0 3.0468,-1.786c-0.7312,-2.313 -1.3812,-4.627 -2.1937,-6.899c-0.5688,-1.624 -1.3,-3.328 -2.8031,-4.302c-3.25,-2.151 -7.0688,0.284 -8.7344,3.247c-1.9094,3.449 -1.4219,7.751 1.1781,10.673c2.1531,2.394 6.3375,3.693 7.5156,-0.325c1.0563,-3.571 -0.7718,-8.847 -2.5593,-11.931c-2.4375,-4.14 -6.4594,-1.015 -8.5313,1.664c-1.0969,1.42 -1.95,2.962 -2.5594,4.626c-0.5687,1.542 -1.5031,4.059 -0.3656,5.56c2.6813,3.49 6.5406,-2.435 7.7188,-4.383c1.0156,-1.623 2.4781,-3.855 2.2343,-5.884c-0.2437,-1.908 -2.0312,-2.801 -3.7375,-2.07c-3.7375,1.623 -5.6468,6.615 -5.4843,10.389c0.0406,1.38 1.5031,2.273 2.7625,1.583c3.6562,-2.11 6.6218,-5.195 8.5718,-8.928c0.9344,-1.786 -1.3812,-3.734 -2.8843,-2.232c-4.0625,4.139 -6.4188,9.415 -6.9469,15.178c-0.1625,1.704 2.0312,2.232 3.1281,1.298c3.9406,-3.409 7.15,-7.589 9.425,-12.256c0.8531,-1.785 -1.3406,-3.774 -2.8844,-2.232c-2.3562,2.435 -4.225,5.235 -5.525,8.36c-0.8531,2.07 -2.6406,6.007 0.1219,7.427c0.5688,0.284 1.3,0.365 1.8281,0c3.8188,-2.719 6.9063,-6.169 9.0188,-10.349c0.7312,-1.461 -0.8938,-3.693 -2.5188,-2.516c-3.9812,3.003 -6.7843,6.98 -8.0843,11.769c-0.4063,1.421 1.3406,3.044 2.6812,2.07c3.7781,-2.76 6.9469,-6.047 9.5875,-9.943c1.2188,-1.826 -1.3812,-3.449 -2.8844,-2.232c-2.7218,2.232 -4.9968,4.87 -6.8656,7.873c-0.8531,1.339 0.5688,3.166 2.0719,2.679c3.3719,-1.055 6.6219,-2.435 9.7094,-4.14c-0.7313,-0.974 -1.4625,-1.907 -2.2344,-2.881c-3.1281,3.449 -6.7031,6.412 -10.6844,8.806c-1.4625,0.893 -0.975,2.76 0.4469,3.328c1.7062,0.69 3.5344,-0.69 3.6156,-2.435c0.1219,-2.11 -2.0719,-4.099 -3.3719,-5.479c-3.2906,-3.571 -7.2312,-6.493 -11.5375,-8.644c0.1219,0.974 0.2438,1.908 0.3657,2.882c1.9093,-1.948 3.9406,-3.734 6.0937,-5.357c1.95,-1.461 4.3875,-3.409 6.7031,-4.18c0.6907,-0.244 0.65,-0.366 1.2188,0.202c0.5687,0.569 1.0156,1.259 1.4625,1.867c0.8937,1.137 1.8281,2.314 2.7219,3.45c0.975,1.258 1.9906,2.516 2.9656,3.774c0.5281,0.69 2.6812,2.76 2.5187,3.531c-0.1625,0.893 -2.3968,2.191 -3.1281,2.8c-1.1375,0.934 -2.275,1.867 -3.4125,2.8c-1.1375,0.934 -2.275,1.867 -3.4125,2.801c-0.4875,0.405 -1.5437,1.582 -2.3969,1.136c-0.325,-0.162 -0.8937,-1.38 -1.0968,-1.664c-2.9657,-4.464 -6.5,-8.482 -10.4407,-12.094c-1.625,-1.42 -4.2249,1.137 -2.4781,2.719z"/>
  <path id="svg_119" fill="#FF6109" d="m57.9216,139.159c1.4625,2.841 10.6437,18.668 14.5437,13.271c1.3813,-1.908 -1.7875,-3.734 -3.1687,-1.826c-0.0813,0.081 -0.1219,0.202 -0.2032,0.284c0.5282,-0.284 1.0563,-0.609 1.5844,-0.893c-0.6906,0.081 -2.3562,-2.232 -2.8031,-2.76c-0.8938,-1.014 -1.7875,-2.029 -2.6,-3.125c-1.5844,-2.151 -2.9656,-4.423 -4.1844,-6.777c-1.0562,-2.111 -4.225,-0.244 -3.1687,1.826z"/>
  <path id="svg_120" fill="#FF6109" d="m130.6,89.0395c-4.347,-3.1655 -6.013,-9.6588 -3.291,-14.4071c1.341,-2.3538 3.778,-4.2612 6.622,-3.9366c2.925,0.3247 4.347,2.435 4.55,5.1947c0.122,1.5422 -0.041,3.1249 -0.081,4.6671c-0.081,1.461 0.081,3.1655 -0.325,4.5859c-0.406,1.4204 -1.869,2.1915 -2.438,3.6119c-0.487,1.2175 0.041,2.2727 -1.381,2.6785c-0.406,0.1218 -0.975,0.0812 -1.341,0.2029c-0.65,-0.0811 -0.65,0.0406 0,0.3247c-0.162,-0.5276 -0.284,-1.0146 -0.446,-1.5422c-0.529,-1.7856 -1.057,-3.6119 -1.585,-5.3975c-0.894,-3.0032 -2.762,-7.4268 -0.406,-10.2271c-0.975,0.1218 -1.95,0.2435 -2.966,0.3653c1.422,1.0552 0.894,5.357 0.975,6.818c0.122,3.0438 0.244,6.0875 0.366,9.1313c0.122,3.2061 4.55,3.0843 4.875,0c0.325,-3.2061 -0.122,-6.3716 -0.244,-9.6183c-0.081,-1.3798 -0.081,-2.8002 0.122,-4.1801c0.081,-0.6899 0.244,-1.3392 0.447,-1.9886c0.122,-0.4464 0.325,-0.8928 0.528,-1.2986c0.447,-0.69 0.447,-0.7711 0.041,-0.2435c-0.61,0.0811 -1.26,0.1623 -1.869,0.2435c-0.122,-0.0406 0.447,1.461 0.528,1.7856c0.163,0.6088 0.244,1.2581 0.325,1.8669c0.163,1.7045 0.163,3.4495 0.081,5.154c-0.04,0.7711 -0.122,1.5422 -0.243,2.3539c-0.082,0.487 -0.163,0.974 -0.244,1.461c-0.406,0.974 0.284,1.2175 2.072,0.6087c0.162,-0.3246 -0.285,-1.6233 -0.325,-1.9885c-0.082,-0.8523 -0.122,-1.7451 -0.082,-2.5974c0.041,-1.6639 0.244,-3.2467 0.65,-4.87c0.122,-0.487 0.244,-0.9334 0.407,-1.4204c0.609,-1.0552 -0.041,-1.4204 -1.95,-1.0552c-0.163,0.2841 0.487,1.8263 0.568,2.1104c0.366,1.7045 0.447,3.4495 0.285,5.1946c-0.081,0.8117 -0.163,3.4496 -1.097,3.6525c-3.047,0.7305 -1.747,5.4382 1.3,4.7077c3.209,-0.7711 4.103,-4.0177 4.509,-6.8992c0.447,-3.409 0.285,-7.2644 -1.015,-10.4705c-1.26,-3.0843 -4.957,-3.1249 -6.582,-0.2841c-1.624,2.8409 -1.99,6.8586 -1.95,10.0647c0.041,2.5974 0.082,7.0615 3.21,7.9949c3.453,1.0146 4.672,-2.719 5.037,-5.3164c0.488,-3.409 0.61,-6.8992 0.041,-10.3082c-0.406,-2.5161 -2.031,-7.3455 -5.484,-6.4121c-3.332,0.8522 -3.982,6.6556 -4.144,9.4153c-0.203,4.1395 0.69,8.2384 0.284,12.3779c1.625,0 3.25,0 4.875,0c-0.162,-4.0989 -0.325,-8.1978 -0.528,-12.2967c-0.122,-3.1249 -0.609,-5.8846 -3.25,-7.8326c-0.772,-0.6088 -2.315,-0.3653 -2.965,0.3652c-2.682,3.1655 -2.885,7.0616 -1.951,10.9576c0.488,2.1103 1.179,4.2206 1.788,6.2904c0.569,1.948 0.894,4.3018 1.95,6.0063c1.666,2.7597 6.297,2.1104 8.694,0.6899c1.259,-0.7305 2.112,-1.948 2.437,-3.3684c0.203,-0.8928 0.122,-1.2581 0.691,-1.9886c0.65,-0.8116 1.3,-1.461 1.706,-2.435c0.691,-1.5421 0.731,-3.2466 0.813,-4.87c0.081,-2.0292 0.284,-4.0989 0.243,-6.1686c-0.081,-3.612 -1.259,-7.021 -4.387,-9.0907c-6.013,-3.9772 -13.569,-0.2841 -16.413,5.7222c-3.331,7.1021 -0.65,15.5029 5.566,20.0482c2.478,1.9074 4.916,-2.3132 2.397,-4.1395z"/>
  <path id="svg_121" fill="#FF6109" d="m130.357,99.7929c0.813,1.2991 2.275,1.7861 3.738,1.3391c0.65,-0.203 1.218,-0.568 1.706,-1.014c0.122,-0.1222 0.284,-0.2439 0.406,-0.4063c0.122,-0.1217 0.081,-0.1217 -0.081,0.0406c0.772,-0.4058 0.162,-0.5276 -1.788,-0.4464c0.975,0.8121 2.519,1.0141 3.453,0c0.854,-0.8928 1.016,-2.5567 0,-3.4496c-1.178,-1.0146 -2.681,-1.1769 -4.062,-0.3652c-0.447,0.2435 -0.894,0.6087 -1.219,1.0146c-0.284,0.3652 0.366,-0.2435 -0.081,0.0811c0.081,-0.0406 0.162,-0.0811 0.244,-0.0811c-0.853,0.2029 -0.244,0.487 1.828,0.8522c-0.691,-1.0957 -2.194,-1.6233 -3.331,-0.8928c-1.016,0.6899 -1.544,2.1915 -0.813,3.3278z"/>
  <path id="svg_122" fill="#FF6109" d="m131.494,102.999c0,0.122 0,0.244 0,0.366c0,0.608 0.285,1.298 0.731,1.704c0.407,0.406 1.097,0.731 1.707,0.731c0.65,-0.041 1.3,-0.244 1.706,-0.731c0.447,-0.487 0.731,-1.055 0.731,-1.704c0,-0.122 0,-0.244 0,-0.366c0,-0.608 -0.284,-1.298 -0.731,-1.704c-0.406,-0.406 -1.097,-0.731 -1.706,-0.731c-0.65,0.041 -1.3,0.244 -1.707,0.731c-0.446,0.446 -0.731,1.015 -0.731,1.704z"/>
  <path id="svg_123" fill="#FF6109" d="m107.364,58.1142c10.685,-12.7026 20.922,-25.7704 30.753,-39.2035c-0.934,0.3652 -1.828,0.7305 -2.762,1.1363c0.934,0.2841 1.625,0.7711 2.315,1.461c-0.121,-0.974 -0.243,-1.948 -0.365,-2.9626c-9.385,13.3925 -18.728,26.7444 -28.113,40.1369c1.097,-0.284 2.235,-0.5681 3.332,-0.8928c-0.813,-0.487 -1.625,-0.974 -2.438,-1.5016c0.284,1.0958 0.569,2.2321 0.894,3.3279c4.265,-5.5599 8.165,-11.3228 11.7,-17.3697c1.584,-2.7191 -2.641,-5.1541 -4.225,-2.4756c-3.535,6.0063 -7.435,11.8098 -11.7,17.3697c-0.813,1.0552 -0.122,2.7191 0.894,3.3278c0.812,0.487 1.625,0.974 2.437,1.5016c1.178,0.7305 2.6,0.2029 3.331,-0.8928c9.385,-13.3925 18.728,-26.7444 28.113,-40.1369c0.609,-0.8929 0.325,-2.2321 -0.366,-2.9626c-1.259,-1.2987 -2.762,-2.1915 -4.469,-2.7191c-1.096,-0.3653 -2.112,0.2435 -2.762,1.1363c-9.547,13.0679 -19.541,25.811 -29.981,38.1889c-2.032,2.4756 1.422,5.9658 3.412,3.5308z"/>
  <path id="svg_124" fill="#FF6109" d="m80.0234,196.098c0,-0.122 0,-0.244 0,-0.366c0,-3.125 -4.875,-3.125 -4.875,0c0,0.122 0,0.244 0,0.366c0,3.165 4.875,3.165 4.875,0c0,-0.122 0,-0.244 0,-0.366c0,-3.125 -4.875,-3.125 -4.875,0c0,0.122 0,0.244 0,0.366c0,3.165 4.875,3.165 4.875,0z"/>
  <path id="svg_125" fill="#FF6109" d="m41.1039,162.129c3.1281,0 3.1281,-4.87 0,-4.87c-3.1281,0 -3.1281,4.87 0,4.87z"/>
  <path id="svg_126" fill="#FF6109" d="m52.1129,164.28c2.3562,0 2.3562,-3.652 0,-3.652c-2.3563,0 -2.3563,3.652 0,3.652z"/>
  <path id="svg_127" fill="#FF6109" d="m201.41,71.507c2.356,0 2.356,-3.6525 0,-3.6525c-2.356,0 -2.356,3.6525 0,3.6525z"/>
  <path id="svg_128" fill="#FF6109" d="m224.322,126.7c0,0.243 0,0.446 0,0.69c0,0.487 0.203,0.974 0.528,1.298c0.325,0.325 0.854,0.569 1.3,0.528c0.488,-0.041 0.975,-0.162 1.3,-0.528c0.325,-0.365 0.529,-0.811 0.529,-1.298c0,-0.244 0,-0.447 0,-0.69c0,-0.487 -0.204,-0.974 -0.529,-1.299c-0.325,-0.325 -0.853,-0.568 -1.3,-0.527c-0.487,0.04 -0.975,0.162 -1.3,0.527c-0.325,0.365 -0.528,0.812 -0.528,1.299z"/>
  <path id="svg_129" fill="#263557" d="m209.574,97.7237c6.906,1.0958 16.575,4.3023 14.016,13.3113c-1.178,4.14 -4.428,7.102 -7.638,9.74c-3.168,2.557 -6.297,5.073 -9.181,7.954c-2.762,2.76 -5.281,5.763 -7.597,8.929c-1.828,2.516 -4.347,5.641 -4.062,9.009c0.243,3.003 2.884,3.734 5.281,4.667c3.453,1.34 7.109,3.693 8.45,7.305c1.787,4.87 -1.95,9.172 -5.484,12.054c-3.169,2.597 -6.622,4.829 -8.775,8.4c-0.407,0.69 0.65,1.299 1.056,0.609c3.859,-6.493 13.69,-9.091 14.787,-17.288c0.447,-3.207 -1.015,-6.21 -3.331,-8.361c-1.137,-1.095 -2.478,-1.988 -3.859,-2.759c-1.666,-0.893 -3.616,-1.258 -5.241,-2.192c-4.55,-2.638 1.138,-9.375 3.088,-11.931c2.803,-3.693 5.931,-7.102 9.384,-10.187c5.525,-5.032 14.178,-9.496 14.787,-17.897c0.61,-8.522 -8.531,-11.4039 -15.275,-12.4591c-0.853,-0.2029 -1.178,0.9741 -0.406,1.0958z"/>
  <path id="svg_130" fill="#263557" d="m89.5682,96.4258c-7.2312,8.8882 -15.3969,16.9642 -24.4156,24.0252c-8.8563,6.94 -18.4844,12.459 -28.275,17.938c-9.0188,5.073 -18.1188,10.268 -25.8375,17.288c-3.45315,3.125 -7.2719,6.778 -9.2219,11.12c-1.50313,3.369 -1.625,7.752 2.23437,9.497c2.1125,0.933 4.59063,0.609 6.78443,0.243c3.575,-0.608 7.1093,-1.38 10.6437,-2.069c3.6156,-0.69 7.2313,-1.421 10.8469,-2.111c3.4531,-0.649 9.9125,-1.258 10.075,3.896c0.0406,0.771 1.2594,0.771 1.2187,0c-0.1625,-4.789 -5.2812,-6.006 -9.2218,-5.519c-6.0125,0.771 -11.9438,2.273 -17.9157,3.409c-4.1843,0.812 -15.35622,4.18 -14.54372,-3.815c0.52812,-5.154 5.40312,-9.618 8.93752,-12.987c7.475,-7.061 16.4531,-12.296 25.3906,-17.329c9.3844,-5.275 18.7281,-10.47 27.3406,-16.963c9.9125,-7.508 18.8907,-16.193 26.7313,-25.8115c0.5687,-0.5682 -0.2844,-1.4204 -0.7719,-0.8117z"/>
  <path id="svg_131" fill="#263557" d="m24.9335,179.783c-3.575,4.302 -7.7594,9.375 -7.1094,15.341c0.4875,4.586 3.7782,8.887 8.7344,8.563c3.1688,-0.203 5.9719,-1.948 8.7344,-3.287c3.4531,-1.664 6.9875,-3.166 10.6437,-4.262c3.6157,-1.055 7.3938,-1.745 11.1719,-1.826c3.0063,-0.041 6.4188,0.162 8.9375,2.029c3.8188,2.76 1.4625,6.899 -0.5687,9.984c-1.9907,2.962 -3.7375,6.006 -5.2813,9.212c-1.3812,2.922 -2.6,5.966 -3.575,9.05c-0.7312,2.313 -1.5844,5.033 0.2031,7.062c3.8188,4.423 9.6282,0.649 12.8375,-2.354c4.9157,-4.586 10.2375,-8.401 16.3719,-11.242c6.8656,-3.165 14.3405,-5.032 21.8565,-5.438c3.819,-0.203 7.678,-0.081 11.456,0.528c3.372,0.527 7.15,1.582 8.734,4.951c0.325,0.69 1.382,0.081 1.057,-0.609c-2.194,-4.748 -8.207,-5.479 -12.838,-5.925c-6.053,-0.568 -12.228,-0.122 -18.1592,1.177c-5.9313,1.299 -11.7407,3.49 -17.0219,6.493c-2.6,1.461 -5.0375,3.125 -7.3938,4.951c-2.6406,2.07 -4.875,4.627 -7.5562,6.534c-2.3969,1.705 -7.5156,2.963 -8.9375,-0.771c-0.6906,-1.826 0.2031,-3.936 0.7719,-5.722c0.6093,-1.867 1.3,-3.693 2.0718,-5.479c1.3407,-3.165 2.925,-6.209 4.7125,-9.131c1.5844,-2.557 3.9407,-5.154 4.5094,-8.198c0.9344,-4.951 -3.9406,-7.508 -8.125,-8.117c-6.2156,-0.852 -12.7969,0.569 -18.6469,2.679c-3.575,1.299 -6.9468,2.963 -10.3593,4.626c-3.5344,1.746 -7.9219,3.085 -10.9282,-0.365c-5.6062,-6.412 0.2844,-14.488 4.55,-19.642c0.5282,-0.568 -0.325,-1.42 -0.8531,-0.812z"/>
  <path id="svg_132" fill="#263557" d="m48.2937,200.319c3.8188,-1.217 7.1907,2.516 7.2719,6.128c0.0813,3.815 -2.4375,7.102 -4.9562,9.7c-0.5688,0.568 0.325,1.42 0.8531,0.852c3.0875,-3.166 6.2969,-7.67 5.0781,-12.378c-0.975,-3.693 -4.7125,-6.696 -8.5719,-5.479c-0.7312,0.244 -0.4468,1.421 0.325,1.177z"/>
  <path id="svg_133" fill="#263557" d="m190.197,95.6139c1.869,1.5421 4.062,1.8668 6.378,2.3538c2.519,0.5276 4.713,1.5016 6.459,3.4493c3.291,3.693 4.307,9.253 1.869,13.636c-0.365,0.69 0.65,1.299 1.056,0.609c2.357,-4.221 1.869,-9.415 -0.731,-13.392c-1.219,-1.867 -2.925,-3.4906 -4.997,-4.4646c-2.925,-1.3799 -6.581,-0.9334 -9.181,-3.0438c-0.609,-0.487 -1.462,0.3653 -0.853,0.8523z"/>
  <path id="svg_134" fill="#263557" d="m41.2236,182.057c2.3157,6.209 9.6688,4.626 14.1781,2.191c2.8844,-1.542 5.5657,-3.531 7.9219,-5.803c2.5188,-2.476 4.55,-5.398 7.0282,-7.914c2.7218,-2.76 6.5406,-5.276 10.6437,-4.586c3.6969,0.609 5.9313,3.896 8.2875,6.412c3.0875,3.247 9.3031,6.575 12.431,1.421c0.406,-0.69 -0.65,-1.299 -1.056,-0.609c-1.9906,3.246 -6.2156,2.11 -8.6531,0.162c-2.1938,-1.786 -3.7782,-4.221 -5.9313,-6.047c-4.0625,-3.49 -9.1406,-3.165 -13.4468,-0.243c-4.7532,3.206 -7.6375,8.522 -11.9844,12.215c-2.5594,2.151 -5.525,4.14 -8.6938,5.317c-3.3719,1.258 -8.0843,1.177 -9.5468,-2.801c-0.2844,-0.771 -1.4625,-0.446 -1.1782,0.285z"/>
  <path id="svg_135" fill="#263557" d="m51.3801,144.232c5.2,4.505 9.5469,9.862 12.9187,15.869c0.3657,0.689 1.4219,0.081 1.0563,-0.609c-3.4125,-6.128 -7.8,-11.526 -13.1219,-16.112c-0.5687,-0.527 -1.4625,0.365 -0.8531,0.852z"/>
  <path id="svg_136" fill="#263557" d="m52.4371,142.934c4.3875,-5.804 10.6031,-11.729 17.5094,-14.367c1.0969,-0.405 2.3562,-0.771 3.5344,-0.487c1.4625,0.325 2.3156,1.583 3.1687,2.719c1.2188,1.583 2.3969,3.207 3.575,4.83c2.3156,3.247 4.5094,6.615 6.5813,10.024c0.4062,0.649 1.4625,0.041 1.0562,-0.609c-2.6,-4.261 -5.4031,-8.441 -8.3687,-12.459c-2.2344,-3.044 -4.2657,-6.615 -8.6125,-5.6c-3.7782,0.892 -7.3938,3.652 -10.3594,5.965c-3.4531,2.719 -6.5,5.885 -9.1813,9.375c-0.4062,0.609 0.65,1.218 1.0969,0.609z"/>
  <path id="svg_137" fill="#263557" d="m65.0311,160.628c8.2875,-3.49 15.6813,-8.604 21.8157,-15.178c0.5281,-0.568 -0.325,-1.421 -0.8532,-0.852c-5.9718,6.412 -13.2031,11.485 -21.2875,14.853c-0.7312,0.325 -0.4062,1.502 0.325,1.177z"/>
  <path id="svg_138" fill="#263557" d="m57.1492,143.745c4.6313,-4.18 9.7907,-7.629 15.4782,-10.267c0.6906,-0.325 0.0812,-1.38 -0.6094,-1.055c-5.7688,2.678 -11.0094,6.209 -15.7219,10.47c-0.6094,0.487 0.2844,1.38 0.8531,0.852z"/>
  <path id="svg_139" fill="#263557" d="m60.5211,145.775c2.5187,-1.826 5.0375,-3.612 7.5562,-5.438c0.65,-0.447 0.0406,-1.502 -0.6094,-1.055c-2.5187,1.826 -5.0375,3.612 -7.5562,5.438c-0.65,0.487 -0.0406,1.542 0.6094,1.055z"/>
  <path id="svg_140" fill="#263557" d="m62.2281,148.576c4.225,-2.963 8.45,-5.966 12.675,-8.929c0.65,-0.446 0.0406,-1.501 -0.6094,-1.055c-4.225,2.963 -8.45,5.966 -12.675,8.929c-0.65,0.446 -0.0406,1.501 0.6094,1.055z"/>
  <path id="svg_141" fill="#263557" d="m65.802,151.904c2.6,-2.11 5.3219,-3.977 8.1656,-5.722c0.6907,-0.406 0.0407,-1.461 -0.6093,-1.056c-2.9657,1.746 -5.7688,3.734 -8.4094,5.885c-0.6094,0.528 0.2437,1.38 0.8531,0.893z"/>
  <path id="svg_142" fill="#263557" d="m67.6712,155.231c3.8187,-3.125 7.9625,-5.722 12.3906,-7.873c0.6906,-0.325 0.0813,-1.38 -0.6094,-1.055c-4.55,2.191 -8.7344,4.91 -12.6344,8.076c-0.6093,0.487 0.2438,1.339 0.8532,0.852z"/>
  <path id="svg_143" fill="#263557" d="m151.196,180.717c1.991,-2.516 -0.365,-5.601 -3.006,-6.331c-3.169,-0.893 -6.784,0.609 -8.369,3.449c-1.787,3.166 -1.056,7.305 1.26,9.984c2.965,3.49 10.684,5.601 9.303,11.363c-0.203,0.771 0.975,1.096 1.178,0.325c1.584,-6.574 -6.338,-8.604 -9.628,-12.54c-2.316,-2.8 -2.722,-7.508 0.203,-10.065c1.178,-1.015 2.844,-1.623 4.387,-1.542c1.828,0.081 5.769,2.07 3.86,4.545c-0.528,0.568 0.325,1.421 0.812,0.812z"/>
  <path id="svg_144" fill="#263557" d="m151.847,180.473c0.325,-2.191 1.341,-4.139 2.966,-5.641c0.772,-0.73 1.666,-1.299 2.641,-1.745c0.487,-0.203 1.015,-0.406 1.543,-0.528c1.138,-0.243 1.382,-0.243 2.316,0.569c0.934,0.852 0.975,1.095 0.934,2.272c0,0.447 -0.081,0.893 -0.122,1.299c-0.121,0.812 -0.365,1.583 -0.65,2.354c-0.609,1.664 -1.543,3.206 -2.518,4.667c-3.494,5.195 -8.491,9.943 -8.775,16.558c-0.041,0.771 1.178,0.771 1.218,0c0.366,-8.888 9.588,-14.001 11.7,-22.28c0.407,-1.583 0.732,-3.612 0.041,-5.154c-0.853,-1.786 -2.722,-1.867 -4.428,-1.461c-4.144,0.974 -7.313,4.585 -7.963,8.766c-0.203,0.771 0.975,1.136 1.097,0.324z"/>
  <path id="svg_145" fill="#263557" d="m158.752,119.193c-0.731,3.937 -0.893,8.076 0,12.013c0.854,3.774 3.575,2.962 6.704,3.165c7.109,0.487 16.534,4.992 21.206,-3.043c0.406,-0.69 -0.65,-1.299 -1.056,-0.609c-3.982,6.858 -12.35,3.49 -18.444,2.638c-1.422,-0.203 -2.763,-0.203 -4.185,-0.163c-2.193,0 -2.843,-1.055 -3.168,-3.003c-0.61,-3.53 -0.528,-7.102 0.162,-10.633c0.081,-0.811 -1.097,-1.136 -1.219,-0.365z"/>
  <path id="svg_146" fill="#263557" d="m158.916,121.141c2.193,-1.339 4.103,-1.582 6.581,-1.988c1.056,-0.163 1.747,-0.568 1.909,-1.664c0.447,-2.76 -0.731,-5.601 1.463,-7.954c2.437,-2.638 5.728,-0.284 6.743,2.394c0.488,1.258 0.772,2.719 1.747,3.734c1.26,1.339 2.925,0.974 4.51,1.42c6.134,1.664 4.306,9.578 3.006,13.839c-0.244,0.73 0.934,1.055 1.178,0.325c1.381,-4.424 2.763,-9.943 -0.934,-13.636c-0.61,-0.609 -1.3,-1.096 -2.072,-1.421c-1.178,-0.487 -2.478,-0.243 -3.697,-0.69c-2.356,-0.852 -2.316,-4.342 -3.738,-6.128c-2.559,-3.165 -6.946,-2.719 -8.693,0.974c-0.488,1.015 -0.65,2.07 -0.732,3.166c-0.081,1.298 0.529,3.896 -0.853,4.423c-0.975,0.406 -2.478,0.244 -3.534,0.569c-1.259,0.365 -2.397,0.933 -3.494,1.582c-0.65,0.447 -0.04,1.502 0.61,1.055z"/>
  <path id="svg_147" fill="#263557" d="m163.75,119.883c-0.61,4.789 0.203,9.537 2.315,13.879c0.325,0.69 1.382,0.082 1.057,-0.608c-2.032,-4.14 -2.763,-8.685 -2.153,-13.271c0.121,-0.771 -1.097,-0.771 -1.219,0z"/>
  <path id="svg_148" fill="#263557" d="m124.668,92.8952c-5.24,-2.435 -8.368,-8.0761 -8.084,-13.839c0.325,-5.8845 4.306,-11.2415 9.384,-14.0418c3.169,-1.7451 6.541,-2.2727 9.75,-0.4058c2.925,1.6639 4.997,4.5453 6.175,7.6296c2.113,5.6005 1.341,11.9721 -1.99,16.9639c-0.447,0.6493 0.609,1.2581 1.056,0.6087c5.525,-8.2384 4.266,-22.5643 -5.85,-26.8256c-5.078,-2.1509 -10.481,0.7305 -14.137,4.3019c-3.575,3.4901 -5.891,8.4819 -5.607,13.5142c0.325,5.5599 3.575,10.7952 8.653,13.1896c0.732,0.2841 1.341,-0.7711 0.65,-1.0957z"/>
  <path id="svg_149" fill="#263557" d="m124.1,94.3551c-1.057,1.1364 -0.772,2.8814 0.528,3.7337c2.112,1.3798 5.769,0.1218 8.003,-0.4058c2.397,-0.5682 6.012,-1.0958 7.637,-3.2061c0.975,-1.2987 0.975,-3.0844 -0.284,-4.1801c-0.609,-0.487 -1.462,0.3652 -0.853,0.8522c1.869,1.5828 -0.569,3.409 -2.031,3.9772c-1.219,0.4464 -2.478,0.8117 -3.738,1.1363c-1.178,0.2841 -2.356,0.5682 -3.534,0.7711c-0.731,0.1218 -1.544,0.3247 -2.275,0.3653c-1.056,0.0406 -4.103,-0.5276 -2.56,-2.1509c0.529,-0.6088 -0.325,-1.461 -0.893,-0.8929z"/>
  <path id="svg_150" fill="#263557" d="m126.456,98.6983c0.163,2.3947 2.194,3.9367 4.55,4.0987c3.25,0.203 5.688,-2.516 7.597,-4.748c0.487,-0.6088 -0.366,-1.461 -0.853,-0.8523c-1.341,1.5828 -2.844,3.4093 -4.835,4.0993c-2.031,0.73 -5.037,-0.082 -5.2,-2.5977c-0.081,-0.7711 -1.3,-0.7711 -1.259,0z"/>
  <path id="svg_151" fill="#263557" d="m129.747,103.244c-0.325,1.664 0.69,3.409 2.437,3.693c1.788,0.284 3.331,-1.299 3.372,-3.003c0,-0.772 -1.219,-0.772 -1.219,0c0,1.014 -0.975,2.029 -2.072,1.785c-0.934,-0.203 -1.543,-1.258 -1.34,-2.151c0.162,-0.771 -1.016,-1.095 -1.178,-0.324z"/>
  <path id="svg_152" fill="#263557" d="m121.418,77.5546c3.494,2.2321 6.175,5.3571 7.881,9.1313c0.325,0.7305 1.382,0.0812 1.057,-0.6087c-1.788,-3.9772 -4.632,-7.2239 -8.329,-9.5777c-0.69,-0.4059 -1.3,0.6493 -0.609,1.0551z"/>
  <path id="svg_153" fill="#263557" d="m127.675,74.5917c0.772,5.844 1.584,11.688 2.356,17.4915c0.122,0.771 1.26,0.4464 1.178,-0.3247c-0.771,-5.844 -1.584,-11.688 -2.356,-17.4914c-0.122,-0.7711 -1.259,-0.4464 -1.178,0.3246z"/>
  <path id="svg_154" fill="#263557" d="m129.787,84.5347c1.056,-3.8148 3.493,-6.8992 6.946,-8.8472c0.691,-0.3652 0.082,-1.4204 -0.609,-1.0551c-3.697,2.0697 -6.378,5.4787 -7.516,9.5776c-0.203,0.7711 0.975,1.0958 1.179,0.3247z"/>
  <path id="svg_155" fill="#263557" d="m85.5057,188.874c1.625,3.531 3.3719,7.021 5.3219,10.389c0.975,1.664 2.275,4.83 4.6718,3.815c0.7313,-0.324 0.0813,-1.339 -0.6093,-1.055c-1.5438,0.649 -4.3063,-5.641 -4.8344,-6.656c-1.2594,-2.313 -2.3969,-4.707 -3.4938,-7.102c-0.3249,-0.73 -1.3812,-0.121 -1.0562,0.609z"/>
  <path id="svg_156" fill="#263557" d="m86.6033,189.605c3.4531,-2.679 6.825,-5.438 10.3187,-8.036c3.0469,-2.313 6.338,-4.545 10.075,-5.6c4.022,-1.177 7.516,-0.244 10.197,3.003c2.275,2.76 3.656,6.169 5.2,9.334c0.325,0.69 1.381,0.081 1.056,-0.609c-2.965,-6.087 -6.459,-14.691 -14.787,-13.352c-4.144,0.65 -7.882,2.922 -11.2535,5.357c-3.9812,2.922 -7.8,6.047 -11.7,9.091c-0.5687,0.446 0.2844,1.299 0.8938,0.812z"/>
  <path id="svg_157" fill="#263557" d="m93.8347,203.201c10.6033,-2.314 20.4343,-7.265 28.6813,-14.326c0.609,-0.528 -0.284,-1.38 -0.853,-0.853c-8.085,6.94 -17.753,11.729 -28.1533,14.042c-0.7719,0.163 -0.4469,1.34 0.325,1.137z"/>
  <path id="svg_158" fill="#263557" d="m103.706,191.756c-2.154,-0.528 -3.9411,-2.638 -3.413,-4.951c0.488,-2.232 3.209,-3.856 5.363,-2.801c4.346,2.192 1.381,8.442 -3.088,6.859c-0.731,-0.243 -1.056,0.933 -0.325,1.177c2.519,0.893 5.566,-0.325 6.541,-2.881c0.975,-2.517 -0.61,-5.56 -3.088,-6.453c-2.681,-0.974 -5.728,0.852 -6.4999,3.531c-0.8937,3.003 1.2999,5.965 4.1849,6.696c0.771,0.203 1.096,-0.974 0.325,-1.177z"/>
  <path id="svg_159" fill="#263557" d="m125.359,160.954c-0.487,-4.343 -0.528,-9.294 4.632,-10.471c2.6,-0.609 4.753,-1.38 6.256,-3.774c1.544,-2.435 1.34,-4.708 0.731,-7.386c-0.447,-2.111 -0.406,-3.937 1.3,-5.52c1.381,-1.258 3.209,-1.745 4.997,-1.177c0.731,0.244 1.056,-0.933 0.325,-1.176c-2.6,-0.812 -5.322,0.202 -6.988,2.353c-2.559,3.369 0.447,6.778 -0.568,10.39c-0.61,2.151 -2.275,3.977 -4.428,4.707c-1.747,0.569 -3.616,0.528 -5.079,1.745c-3.087,2.517 -2.803,6.778 -2.396,10.309c0.081,0.771 1.3,0.771 1.218,0z"/>
  <path id="svg_160" fill="#263557" d="m115.446,138.226c-1.259,-1.015 -0.243,-3.287 1.382,-2.435c0.65,0.325 1.056,1.096 0.69,1.786c-0.365,0.69 -1.3,1.055 -1.99,0.69c-0.691,-0.366 -1.3,0.69 -0.61,1.055c1.26,0.609 2.803,0.162 3.575,-0.974c0.813,-1.218 0.285,-2.76 -0.894,-3.49c-1.178,-0.731 -2.762,-0.528 -3.534,0.69c-0.691,1.136 -0.528,2.719 0.528,3.571c0.61,0.446 1.463,-0.406 0.853,-0.893z"/>
  <path id="svg_161" fill="#263557" d="m171.021,75.3218c-0.731,-1.1769 -1.178,-2.6784 -0.731,-4.0177c0.365,-1.1363 1.503,-1.8262 2.681,-1.7045c1.3,0.1218 1.991,1.3393 1.3,2.4756c-0.609,1.0551 -1.869,1.5827 -3.047,1.4204c-0.772,-0.0812 -0.772,1.1363 0,1.2175c1.747,0.2029 3.656,-0.8522 4.306,-2.5162c0.61,-1.5015 -0.162,-3.1654 -1.706,-3.6524c-1.462,-0.487 -3.25,0.0811 -4.144,1.3392c-1.34,1.8262 -0.812,4.3018 0.285,6.1281c0.406,0.5681 1.462,-0.0406 1.056,-0.69z"/>
  <path id="svg_162" fill="#263557" d="m105.492,125.078c2.194,3.977 6.663,6.209 11.172,5.56c5.525,-0.812 8.491,-5.032 10.684,-9.74c2.56,-5.438 6.094,-9.903 11.741,-12.297c5.119,-2.151 11.741,-1.055 15.966,-5.073c1.625,-1.542 2.722,-3.6929 2.356,-5.9656c-0.284,-1.7451 -1.341,-3.2061 -0.934,-5.0323c0.487,-1.9886 2.031,-3.4496 3.981,-3.8554c0.772,-0.1624 0.447,-1.3393 -0.325,-1.1769c-2.356,0.5275 -4.266,2.3132 -4.835,4.7076c-0.325,1.2987 -0.081,2.4756 0.325,3.7337c0.65,2.0292 0.894,3.6931 -0.446,5.5599c-2.357,3.287 -6.5,3.734 -10.197,4.261c-3.291,0.487 -6.378,1.38 -9.222,3.085c-2.519,1.501 -4.753,3.53 -6.5,5.884c-1.91,2.598 -2.966,5.641 -4.51,8.442c-1.95,3.449 -5.159,6.087 -9.262,6.33c-3.738,0.203 -7.231,-1.785 -9.059,-5.072c-0.244,-0.65 -1.3,-0.041 -0.935,0.649z"/>
  <path id="svg_163" fill="#263557" d="m97.002,58.521c-0.6906,5.0729 -1.3813,10.1458 -2.0313,15.2187c-0.1218,0.7711 1.0563,1.0958 1.1782,0.3247c0.6906,-5.0729 1.3812,-10.1458 2.0312,-15.2188c0.1219,-0.771 -1.0562,-1.0957 -1.1781,-0.3246z"/>
  <path id="svg_164" fill="#263557" d="m96.8004,74.4297c4.7936,-3.4495 9.5876,-6.8991 14.3816,-10.3487c0.65,-0.4464 0.04,-1.5016 -0.61,-1.0552c-4.794,3.4496 -9.587,6.8992 -14.381,10.3488c-0.65,0.4464 -0.0406,1.5016 0.6094,1.0551z"/>
  <path id="svg_165" fill="#263557" d="m97.7746,59.2109c12.0254,-16.1116 23.8464,-32.3449 35.4654,-48.7406c0.447,-0.6493 -0.609,-1.25805 -1.056,-0.60871c-11.619,16.39571 -23.441,32.66961 -35.4657,48.74061c-0.4469,0.6087 0.6094,1.2175 1.0563,0.6087z"/>
  <path id="svg_166" fill="#263557" d="m112.683,62.2545c11.05,-14.61 21.775,-29.4635 32.175,-44.5605c0.447,-0.6494 -0.61,-1.2581 -1.056,-0.6088c-10.4,15.0564 -21.125,29.9505 -32.176,44.5605c-0.487,0.6088 0.569,1.2175 1.057,0.6088z"/>
  <path id="svg_167" fill="#263557" d="m132.874,10.4701c1.91,-3.57132 4.144,-7.91374 8.369,-9.09065c4.184,-1.17692 8.288,1.98858 8.369,6.33099c0,0.77108 1.219,0.77108 1.219,0c-0.041,-4.18008 -3.575,-7.95432 -7.882,-7.83257c-5.647,0.16233 -8.815,5.55991 -11.131,9.98349c-0.366,0.68994 0.691,1.29864 1.056,0.60874z"/>
  <path id="svg_168" fill="#263557" d="m145.103,17.5729c2.072,-3.0843 3.94,-6.2498 5.606,-9.57765c0.366,-0.68992 -0.691,-1.29867 -1.056,-0.60875c-1.666,3.3278 -3.535,6.4933 -5.607,9.5777c-0.406,0.6087 0.65,1.2581 1.057,0.6087z"/>
  <path id="svg_169" fill="#263557" d="m131.98,12.4594c4.672,-3.16546 10.725,-1.461 13.041,3.6525c0.325,0.7305 1.381,0.0812 1.056,-0.6087c-2.6,-5.72226 -9.547,-7.62967 -14.706,-4.0989c-0.65,0.4464 -0.041,1.5016 0.609,1.0551z"/>
  <path id="svg_170" fill="#263557" d="m129.828,16.1115c4.062,-2.5974 10.034,-0.8929 11.903,3.6525c0.284,0.7305 1.462,0.4058 1.178,-0.3247c-2.194,-5.1946 -8.897,-7.4267 -13.691,-4.383c-0.65,0.4464 -0.04,1.5016 0.61,1.0552z"/>
  <path id="svg_171" fill="#263557" d="m97.0434,59.7784c2.2344,1.3393 4.4686,-1.5827 6.7846,-1.5421c1.747,0.0406 3.372,0.8522 4.387,2.3132c0.732,1.0552 1.097,2.0698 2.275,2.6785c0.691,0.3653 1.3,-0.6899 0.61,-1.0551c-1.382,-0.7305 -1.788,-2.5162 -2.966,-3.5308c-0.812,-0.6899 -1.787,-1.1769 -2.844,-1.4204c-1.056,-0.2435 -2.153,-0.2435 -3.168,0c-1.3,0.3247 -3.2099,2.2321 -4.4286,1.5016c-0.6906,-0.4059 -1.3,0.6493 -0.65,1.0551z"/>
  <path id="svg_172" fill="#263557" d="m103.706,57.5878c8.206,-10.7952 16.453,-21.6309 24.66,-32.4261c0.487,-0.6088 -0.569,-1.2175 -1.057,-0.6088c-8.206,10.7952 -16.453,21.631 -24.659,32.4261c-0.447,0.6088 0.609,1.2175 1.056,0.6088z"/>
  <path id="svg_173" fill="#263557" d="m116.583,49.4709c7.638,-11.2011 15.722,-22.0368 24.294,-32.5479c0.487,-0.6087 -0.366,-1.461 -0.853,-0.8522c-8.613,10.5922 -16.819,21.5091 -24.497,32.7913c-0.406,0.6493 0.65,1.2581 1.056,0.6088z"/>
  <path id="svg_174" fill="#263557" d="m96.5564,70.5744c0.7719,-0.6493 1.9094,0 1.7063,1.0146c-0.1625,0.7711 1.0156,1.0957 1.1781,0.3246c0.2031,-0.974 -0.1625,-1.9885 -1.0563,-2.5161c-0.8937,-0.5276 -1.95,-0.3247 -2.7219,0.3246c-0.5687,0.487 0.2844,1.3393 0.8938,0.8523z"/>
  <path id="svg_175" fill="#263557" d="m96.9216,70.4115c-0.2032,0.8523 -0.5688,1.6234 -1.0969,2.3133c0.325,0.2029 0.6906,0.4058 1.0156,0.6087c0.2438,-0.8928 0.7313,-1.6639 1.4219,-2.3132c-0.325,-0.0406 -0.65,-0.0812 -0.975,-0.1218c0.2031,0.4464 0.0406,0.9334 -0.3656,1.1769c0.2843,0.1218 0.6093,0.2435 0.8937,0.3653c-0.1625,-0.5682 -0.0406,-1.0958 0.325,-1.5422c-0.2437,0.0406 -0.4875,0.0812 -0.7312,0.0812c0.325,0.1623 0.2843,0.6087 -0.0407,0.7711c0.2438,0.0406 0.4875,0.0811 0.7313,0.0811c-0.2438,-0.2029 -0.4469,-0.4464 -0.5688,-0.7305c-0.0406,-0.1217 -0.0812,-0.2435 -0.1218,-0.4058c0,-0.0812 -0.0813,-0.9334 -0.2032,-0.6899c-0.3656,0.6899 0.6907,1.2987 1.0563,0.6087c0.5687,-1.0551 -0.8938,-1.9885 -1.7063,-1.1363c-0.8531,0.9334 -0.0812,2.4756 0.7313,3.1655c0.2031,0.2029 0.4875,0.2435 0.7312,0.0812c1.1375,-0.5682 1.1375,-2.2727 0.0407,-2.8814c-0.2032,-0.1218 -0.5688,-0.1218 -0.7313,0.0811c-0.65,0.7711 -0.8937,1.7451 -0.65,2.7191c0.0813,0.3653 0.5688,0.5682 0.8938,0.3653c1.0156,-0.6088 1.3,-1.8263 0.8125,-2.8409c-0.1625,-0.3652 -0.6907,-0.3652 -0.975,-0.1217c-0.8532,0.7711 -1.4219,1.7451 -1.7063,2.8408c-0.1625,0.5276 0.6094,1.0958 1.0156,0.6088c0.65,-0.8523 1.1375,-1.7857 1.4219,-2.8409c0.1625,-0.6899 -1.0156,-1.0146 -1.2187,-0.2435z"/>
  <path id="svg_176" fill="#263557" d="m94.6471,76.7834c-0.8125,4.383 -2.6406,8.4007 -5.525,11.8097c-0.4875,0.6088 0.3657,1.461 0.8532,0.8523c3.0062,-3.612 4.9968,-7.7515 5.85,-12.378c0.1218,-0.7305 -1.0563,-1.0551 -1.1782,-0.284z"/>
  <path id="svg_177" fill="#263557" d="m86.1552,81.8559c-4.225,3.1249 -8.6938,5.9251 -13.325,8.4007c-0.6907,0.3653 -0.0813,1.4204 0.6093,1.0552c4.6313,-2.4756 9.1,-5.2759 13.325,-8.4008c0.65,-0.487 0.0407,-1.5421 -0.6093,-1.0551z"/>
  <path id="svg_178" fill="#263557" d="m185.321,174.63c-1.097,-1.705 -2.925,-0.812 -3.9,0.487c-1.057,1.339 -1.91,2.922 -2.804,4.383c-0.69,1.136 -1.503,2.394 -1.625,3.814c-0.243,2.841 1.91,3.166 4.063,3.856c2.559,0.852 2.397,3.855 0.772,5.519c-1.3,1.339 -3.21,1.908 -4.916,2.476c-0.731,0.243 -0.406,1.42 0.325,1.177c3.413,-1.096 8.491,-3.572 6.744,-8.117c-0.284,-0.73 -0.772,-1.339 -1.422,-1.745c-0.366,-0.203 -0.772,-0.365 -1.178,-0.487c-1.178,-0.365 -1.503,-0.244 -2.438,-1.258c-0.771,-0.447 -1.015,-1.055 -0.65,-1.867c0.163,-0.568 0.366,-1.096 0.65,-1.583c0.325,-0.649 0.732,-1.258 1.138,-1.867c0.406,-0.608 3.25,-5.722 4.184,-4.22c0.407,0.69 1.463,0.081 1.057,-0.568z"/>
  <path id="svg_179" fill="#263557" d="m115.568,222.396c3.332,-0.852 6.175,2.435 4.713,5.601c-0.325,0.689 0.731,1.339 1.056,0.608c1.909,-4.099 -1.625,-8.522 -6.053,-7.386c-0.813,0.203 -0.488,1.38 0.284,1.177z"/>
  <path id="svg_180" fill="#263557" d="m177.806,155.556c-1.544,-1.137 -1.544,-4.099 0.813,-4.181c0.853,-0.04 1.747,0.447 1.706,1.38c0,0.771 -0.691,1.705 -1.544,1.583c-0.772,-0.122 -1.097,1.055 -0.325,1.177c1.503,0.243 2.803,-0.852 3.047,-2.313c0.284,-1.502 -0.812,-2.801 -2.275,-3.003c-1.503,-0.244 -3.047,0.608 -3.575,2.069c-0.528,1.624 0.203,3.369 1.544,4.343c0.609,0.446 1.219,-0.609 0.609,-1.055z"/>
  <path id="svg_181" fill="#263557" d="m7.99356,150.523c0.56875,-2.273 2.51874,-3.571 4.34684,-4.83c1.9094,-1.339 3.8594,-2.719 5.8094,-4.058c3.8594,-2.719 7.7188,-5.397 11.5781,-8.117c0.65,-0.446 0.0407,-1.501 -0.6093,-1.055c-4.5094,3.166 -9.0188,6.291 -13.5282,9.456c-3.0468,2.111 -7.79997,4.343 -8.77497,8.279c-0.20312,0.771 0.97501,1.096 1.17813,0.325z"/>
 </g>
</svg>