<svg width="32" height="32" viewBox="0 0 32 32" fill="none" xmlns="http://www.w3.org/2000/svg">
<path opacity="0.1" fill-rule="evenodd" clip-rule="evenodd" d="M0 16C0 7.16344 7.16344 0 16 0C24.8366 0 32 7.16344 32 16C32 24.8366 24.8366 32 16 32C7.16344 32 0 24.8366 0 16Z" fill="#AEB0B8"/>
<path d="M21.6693 10.5879C21.6693 10.5879 23.0454 10.0514 22.9307 11.3545C22.8925 11.891 22.5485 13.769 22.2809 15.8003L21.3636 21.8175C21.3636 21.8175 21.2871 22.699 20.5991 22.8523C19.911 23.0056 18.879 22.3157 18.6879 22.1624C18.535 22.0474 15.8212 20.3228 14.8655 19.4796C14.598 19.2496 14.2922 18.7897 14.9038 18.2531L18.9172 14.4206C19.3759 13.9606 19.8346 12.8875 17.9234 14.1906L12.5721 17.8316C12.5721 17.8316 11.9606 18.2148 10.8139 17.8699L8.32934 17.1034C8.32934 17.1034 7.41197 16.5285 8.97914 15.9536C12.8015 14.1523 17.503 12.3126 21.6693 10.5879Z" fill="white"/>
</svg>
