<svg width="32" height="32" viewBox="0 0 32 32" fill="none" xmlns="http://www.w3.org/2000/svg">
<path opacity="0.1" fill-rule="evenodd" clip-rule="evenodd" d="M0 16C0 7.16344 7.16344 0 16 0C24.8366 0 32 7.16344 32 16C32 24.8366 24.8366 32 16 32C7.16344 32 0 24.8366 0 16Z" fill="white"/>
<path fill-rule="evenodd" clip-rule="evenodd" d="M21.3001 10.5607C19.8968 9.15576 18.0305 8.38168 16.0422 8.38086C11.9452 8.38086 8.61087 11.7151 8.60922 15.8132C8.60867 17.1232 8.9509 18.402 9.60138 19.5292L8.54688 23.3809L12.4872 22.3472C13.5729 22.9395 14.7953 23.2516 16.0392 23.252H16.0423C20.1388 23.252 23.4735 19.9174 23.4751 15.8192C23.4759 13.833 22.7035 11.9656 21.3001 10.5607ZM16.0422 21.9967H16.0396C14.9311 21.9962 13.8439 21.6983 12.8953 21.1355L12.6698 21.0016L10.3315 21.615L10.9556 19.3352L10.8087 19.1015C10.1902 18.1179 9.86368 16.981 9.86423 15.8137C9.86551 12.4074 12.637 9.63623 16.0447 9.63623C17.6948 9.63678 19.246 10.2802 20.4124 11.448C21.5788 12.6157 22.2207 14.1679 22.2202 15.8187C22.2187 19.2252 19.4474 21.9967 16.0422 21.9967ZM19.4309 17.3697C19.2453 17.2767 18.3321 16.8275 18.1618 16.7654C17.9917 16.7035 17.8678 16.6726 17.7441 16.8585C17.6202 17.0443 17.2643 17.4627 17.1559 17.5866C17.0475 17.7105 16.9393 17.7261 16.7536 17.6331C16.5678 17.5402 15.9694 17.344 15.26 16.7112C14.7079 16.2188 14.3352 15.6106 14.2268 15.4247C14.1186 15.2387 14.2259 15.1479 14.3083 15.0457C14.5093 14.7961 14.7107 14.5343 14.7726 14.4104C14.8345 14.2865 14.8035 14.178 14.757 14.0851C14.7107 13.9921 14.3392 13.078 14.1845 12.706C14.0336 12.344 13.8806 12.3929 13.7666 12.3872C13.6584 12.3818 13.5345 12.3807 13.4106 12.3807C13.2868 12.3807 13.0856 12.4271 12.9153 12.6132C12.7451 12.7991 12.2654 13.2484 12.2654 14.1625C12.2654 15.0767 12.9309 15.9598 13.0237 16.0837C13.1165 16.2077 14.3334 18.0836 16.1964 18.888C16.6395 19.0795 16.9854 19.1937 17.2552 19.2793C17.7001 19.4207 18.1049 19.4007 18.425 19.3529C18.7818 19.2995 19.5237 18.9036 19.6786 18.4698C19.8333 18.0359 19.8333 17.6641 19.7868 17.5866C19.7405 17.5091 19.6166 17.4627 19.4309 17.3697Z" fill="white"/>
</svg>
